<?xml version="1.0" encoding="utf-8"?>
<!-- Generator: Adobe Illustrator 26.0.3, SVG Export Plug-In . SVG Version: 6.00 Build 0)  -->
<svg version="1.1" id="Layer_1" xmlns="http://www.w3.org/2000/svg" xmlns:xlink="http://www.w3.org/1999/xlink" x="0px" y="0px"
	 viewBox="0 0 265.9 250.1" style="enable-background:new 0 0 265.9 250.1;" xml:space="preserve">
<style type="text/css">
	.st0{display:none;opacity:0.5;}
	.st1{display:inline;fill:#CC156D;}
	.st2{display:inline;fill:#0DD6AF;}
	.st3{display:inline;opacity:0.5;enable-background:new    ;}
	.st4{display:inline;opacity:0.2;enable-background:new    ;}
	.st5{display:inline;fill:none;stroke:#CC156D;stroke-width:2;stroke-miterlimit:10;}
	.st6{display:inline;fill:none;stroke:#CC156D;stroke-miterlimit:10;}
	.st7{display:inline;fill:none;stroke:#000000;stroke-miterlimit:10;}
	.st8{display:inline;opacity:0.5;fill:none;stroke:#000000;stroke-miterlimit:10;enable-background:new    ;}
	.st9{fill:#FFFFFF;}
</style>
<g class="st0">
	<path class="st1" d="M14.7,27.5c4.5-2.3,7.7-6.6,8.5-11.6c0.8,5,4,9.3,8.5,11.6c0.9,0.4,3,1,3,1c-1,0.3-2,0.6-3,1
		C27.2,31.7,24,36,23.2,41c-0.8-5-4-9.3-8.5-11.6c-1-0.4-2-0.7-3-1C12.7,28.2,13.7,27.9,14.7,27.5z"/>
	<circle class="st2" cx="225.4" cy="37.1" r="6"/>
	<circle class="st3" cx="21.7" cy="163.7" r="4"/>
	<circle class="st3" cx="216.8" cy="203.7" r="2.5"/>
	<circle class="st4" cx="78.7" cy="24.2" r="8.9"/>
	<path class="st2" d="M35.4,209.9c7.1-3.5,12-10.2,13.3-18c1.3,7.8,6.2,14.5,13.3,18c1.5,0.6,3.1,1.2,4.7,1.6
		c-1.6,0.5-3.1,1-4.7,1.6c-7.1,3.5-12,10.2-13.3,18c-1.3-7.8-6.2-14.5-13.3-18c-1.5-0.6-3.1-1.2-4.7-1.6
		C32.3,211.1,33.9,210.6,35.4,209.9z"/>
	<path class="st5" d="M152.4,23.8c-1.8-1.5-4.5-1.3-6,0.5c-1.5,1.8-1.2,4.4,0.5,5.9c0.7,0.4,0.9,1.3,0.4,1.9
		c-0.1,0.1-0.1,0.2-0.2,0.2c-1.1,1.5-1.1,3.5,0.1,5c1.1,1.5,3.1,2,4.8,1.4c1.7-0.6,2.8-2.3,2.7-4.1c-0.1-0.8,0.4-1.5,1.2-1.6
		c0.1,0,0.2,0,0.2,0l16-1.9c0.7-0.2,1.5,0.3,1.7,1c0,0.1,0,0.2,0,0.2c0.3,1.8,1.8,3.1,3.6,3.3c1.8,0.2,3.6-0.8,4.3-2.5
		c0.7-1.7,0.3-3.7-1.1-4.9c-0.7-0.4-0.8-1.3-0.4-2c0-0.1,0.1-0.1,0.2-0.2c1.4-1.9,0.9-4.5-0.9-5.8c-1.1-0.8-2.6-1-3.9-0.6
		c-1.7,0.6-2.9,2.3-2.8,4.1c0.1,0.8-0.4,1.5-1.1,1.6c-0.1,0-0.2,0-0.3,0l-16,1.9c-0.8,0.2-1.5-0.3-1.7-1c0-0.1,0-0.2,0-0.2
		C153.5,25.2,153.1,24.4,152.4,23.8z"/>
	<path class="st6" d="M96.9,71.3c0.3-1.5-0.7-3-2.3-3.3c-1.5-0.2-2.9,0.8-3.2,2.3c-0.1,0.5-0.6,0.9-1.1,0.9c0,0,0,0-0.1,0
		c-1.5-0.2-2.9,1-3.1,2.5c-0.1,0.9,0.3,1.8,1,2.4c0.9,0.8,2.3,0.9,3.3,0.2c0.4-0.3,1-0.3,1.3,0.1c0,0,0.1,0.1,0.1,0.1l6.5,8.6
		c0.4,0.4,0.4,1,0,1.3c0,0-0.1,0.1-0.1,0.1c-0.9,0.8-1.2,2.1-0.7,3.2c0.6,1.4,2.3,2.1,3.7,1.4c0.9-0.4,1.5-1.1,1.6-2.1
		c0-0.5,0.5-0.9,1-0.9c0.1,0,0.1,0,0.2,0c1.5,0.2,2.9-1,3.1-2.5c0.1-0.9-0.3-1.8-1-2.4c-0.9-0.8-2.3-0.9-3.3-0.2
		c-0.4,0.3-1,0.3-1.3-0.1c0,0-0.1-0.1-0.1-0.1l-6.5-8.6c-0.4-0.4-0.4-1,0-1.3c0,0,0.1-0.1,0.1-0.1C96.5,72.5,96.8,72,96.9,71.3z"/>
	<path class="st7" d="M91.4,205.9c-0.6-1.4-2.2-2.1-3.7-1.5c-1.4,0.6-2.1,2.2-1.5,3.6l0,0c0.3,0.4,0.1,1-0.3,1.3
		c-0.1,0-0.1,0.1-0.2,0.1c-1.1,0.6-1.7,1.8-1.5,3c0.2,1.2,1.2,2.1,2.4,2.2c1.2,0.2,2.4-0.5,2.8-1.6c0.2-0.5,0.8-0.8,1.3-0.6
		c0,0,0,0,0,0l10.1,3.7c0.5,0.1,0.8,0.6,0.7,1.1c0,0.1,0,0.1,0,0.2c-0.3,1.2,0.1,2.4,1.2,3.1c1.3,0.8,3,0.5,3.9-0.8
		c0.5-0.8,0.6-1.8,0.2-2.6c-0.3-0.4-0.1-1,0.3-1.3c0.1,0,0.1-0.1,0.2-0.1c1.4-0.7,1.9-2.4,1.2-3.7c-0.4-0.8-1.2-1.4-2.1-1.5
		c-1.2-0.2-2.4,0.5-2.9,1.6c-0.2,0.5-0.8,0.8-1.3,0.6c0,0,0,0,0,0L92.1,209c-0.5-0.1-0.8-0.6-0.7-1.1c0-0.1,0-0.1,0-0.2
		C91.7,207.1,91.6,206.5,91.4,205.9z"/>
	<path class="st2" d="M162.1,208.2c5.2,0.1,10.1-2.3,13.2-6.5c-1.6,4.9-0.8,10.3,2.3,14.5c0.7,0.8,1.4,1.6,2.2,2.3
		c-1.1-0.2-2.1-0.4-3.2-0.4c-5.2-0.1-10.1,2.3-13.2,6.5c1.6-4.9,0.8-10.3-2.3-14.5c-0.7-0.8-1.4-1.6-2.2-2.3
		C160,208,161.1,208.1,162.1,208.2z"/>
	<path class="st7" d="M49.5,61.2c3.7,0.1,7.2-1.7,9.3-4.6c-1.1,3.5-0.5,7.3,1.6,10.3c0.5,0.6,1,1.1,1.6,1.7
		c-0.8-0.2-1.5-0.3-2.3-0.3c-3.7-0.1-7.2,1.7-9.3,4.6c1.1-3.5,0.5-7.3-1.6-10.3c-0.5-0.6-1-1.1-1.6-1.7C48,61,48.7,61.1,49.5,61.2z"
		/>
	<path class="st8" d="M179.1,98.2c3.7,0.1,7.2-1.7,9.3-4.6c-1.1,3.5-0.5,7.3,1.6,10.3c0.5,0.6,1,1.1,1.6,1.7
		c-0.8-0.1-1.5-0.3-2.3-0.3c-3.7-0.1-7.2,1.7-9.3,4.6c1.1-3.5,0.5-7.3-1.6-10.3c-0.5-0.6-1-1.1-1.6-1.7
		C177.6,98.1,178.3,98.2,179.1,98.2z"/>
	<path class="st2" d="M234,128.1c-0.9,0.4-1.9,0.6-2.9,0.5c-3.3-0.4-5.7-3.3-5.3-6.6c0.3-2.6,2.3-4.8,4.9-5.2c0.2,0,0.4-0.1,0.4-0.3
		c1.2-3.1,4.7-4.6,7.7-3.5c2.1,0.8,3.6,2.7,3.8,5c0.1,1.3-0.2,2.7-1,3.8l-0.2,0.2c0,0,0,0.1,0,0.1l0.2,0.3c2.4,2.9,4.8,5.9,7.1,8.8
		c0.1,0.2,0.3,0.3,0.5,0.2c0,0,0,0,0,0c3-1.4,6.6,0,7.9,3c1.4,3,0,6.6-3,7.9c-0.6,0.3-1.2,0.4-1.9,0.5c-0.2,0-0.4,0.1-0.4,0.3
		c-1.2,3.1-4.6,4.7-7.7,3.5c-2.1-0.8-3.6-2.7-3.8-5c-0.1-1.4,0.2-2.7,1-3.8c0.1-0.2,0.1-0.3,0-0.4
		C238.9,134.2,236.5,131.2,234,128.1L234,128.1z M240.3,119c0.3-2-1.1-3.8-3.1-4.1c-1.9-0.2-3.7,1.1-4,3.1c0,0.7-0.6,1.2-1.2,1.2
		c-0.1,0-0.2,0-0.2,0c-2-0.1-3.7,1.4-3.8,3.3c-0.1,1.2,0.4,2.3,1.4,3.1c1.2,1,2.9,1,4.2,0.1c0.5-0.4,1.3-0.4,1.7,0.1
		c0,0.1,0.1,0.1,0.1,0.2c2.9,3.6,5.8,7.2,8.7,10.8c0.5,0.5,0.5,1.2,0,1.7c0,0-0.1,0.1-0.1,0.1c-1.1,1.1-1.5,2.7-0.8,4.1
		c0.9,1.8,3,2.5,4.8,1.7c1.1-0.5,1.8-1.5,2-2.7c0-0.7,0.6-1.2,1.2-1.2c0.1,0,0.2,0,0.2,0c1.6,0.1,3-0.8,3.6-2.3
		c0.6-1.5,0.1-3.1-1.1-4.1c-1.2-1-3-1-4.2-0.1c-0.5,0.4-1.3,0.4-1.7-0.1c0-0.1-0.1-0.1-0.1-0.2l-8.7-10.8c-0.5-0.5-0.5-1.2,0-1.7
		c0.1-0.1,0.1-0.1,0.2-0.1C239.8,120.5,240.2,119.8,240.3,119L240.3,119z"/>
	<path class="st4" d="M57.9,121.1c0-0.8,0.2-1.6,0.6-2.3c1.2-2.3,4.1-3.2,6.4-1.9c2,1.1,3,3.4,2.3,5.5c-0.1,0.2,0,0.3,0.1,0.4
		c1.9,1.8,2,4.8,0.2,6.7c-1.3,1.4-3.3,1.8-5.1,1.2c-1-0.4-1.8-1-2.4-1.9l-0.1-0.2l-0.1-0.1l-0.2,0.1l-8.8,2.3
		c-0.2,0-0.3,0.2-0.3,0.3c0,0,0,0,0,0c-0.1,2.6-2.3,4.7-4.9,4.6c-2.6-0.1-4.7-2.3-4.6-4.9c0-0.4,0.1-0.8,0.2-1.2
		c0.1-0.1,0-0.3-0.1-0.4c-1.9-1.8-2-4.8-0.2-6.7c1.3-1.4,3.3-1.8,5.1-1.2c1,0.4,1.9,1.1,2.5,2c0.1,0.1,0.2,0.2,0.3,0.2L57.9,121.1
		L57.9,121.1z M62.4,128.6c1.3,0.9,3.1,0.5,4-0.9c0.8-1.3,0.4-3.1-0.9-3.9c-0.5-0.3-0.7-0.9-0.4-1.3c0,0,0-0.1,0.1-0.1
		c0.6-1.1,0.4-2.5-0.5-3.4c-0.9-0.9-2.2-1.1-3.3-0.5c-1.1,0.6-1.7,1.8-1.5,3c0.1,0.5-0.2,1.1-0.7,1.2c0,0-0.1,0-0.1,0l-10.7,2.8
		c-0.5,0.2-1.1-0.1-1.3-0.6c0,0,0-0.1,0-0.1c-0.4-1.2-1.5-2-2.8-1.9c-1.6,0-2.8,1.4-2.8,2.9c0,0.9,0.5,1.8,1.3,2.3
		c0.5,0.2,0.7,0.9,0.4,1.3c0,0,0,0.1-0.1,0.1c-0.7,1.4-0.2,3.1,1.2,3.9c0.8,0.5,1.8,0.5,2.7,0c1.1-0.6,1.7-1.8,1.5-3
		c-0.1-0.5,0.2-1.1,0.7-1.2c0,0,0.1,0,0.1,0l10.7-2.8c0.5-0.2,1.1,0.1,1.3,0.6c0,0,0,0,0,0.1C61.5,127.7,61.9,128.3,62.4,128.6z"/>
</g>
<path class="st9" d="M232.8,166.8c-1.1,1.2-2.1,2.4-3.9,1.6s-1.9-2.2-1.9-3.9c0-27.5,0-55.1,0-82.6v-2.7l-61.5,58.4l61.5,58.4v-6.2
	c0-3.8,0-7.5,0-11.3c0-1.7,0.2-3.2,2-3.8s2.9,0.4,3.9,1.8v27.3c-2,2.5-3.4,2.6-5.8,0.4c-22.3-21.2-44.6-42.4-66.9-63.6
	c-2.4-2.3-2.4-3.6,0-6l66.6-63.3c2.5-2.4,3.6-2.4,6,0L232.8,166.8z"/>
<path class="st9" d="M100.4,137.7L39,79.3v7.6c0,3.7,0,7.4,0,11.1c0,2.2-1.1,3.4-2.9,3.4s-3-1.2-3-3.4c0-8.4,0-16.8,0-25.1
	c-0.2-1.3,0.6-2.6,1.9-3.1c1.5-0.6,2.7,0.2,3.8,1.2c10.7,10.2,21.4,20.3,32.1,30.5l34.8,33c2.7,2.5,2.7,3.8,0.1,6.2L39.1,204
	c-0.4,0.5-0.9,0.9-1.5,1.3c-1.3,0.9-3.1,0.5-4-0.8c-0.2-0.4-0.4-0.8-0.5-1.2c-0.1-0.6-0.1-1.3,0-1.9c0-29.8,0-59.7,0-89.5
	c0-0.6,0-1.3,0.1-1.9c0.2-1.6,1.6-2.7,3.2-2.5c1.3,0.2,2.4,1.2,2.5,2.5c0.1,0.7,0.1,1.4,0.1,2.1v84L100.4,137.7z"/>
<path class="st9" d="M187.1,65.3c-3.8-2.9-7.4-6.1-11.4-8.7c-15.4-10.2-33.9-14.5-52.2-12.1C104.3,46.8,88.2,55.5,75.2,70
	c-0.7,0.8-1.3,1.6-2.1,2.3c-1,1.1-2.8,1.3-4,0.4c-1.2-1-1.4-2.8-0.4-4.1c0,0,0.1-0.1,0.1-0.1c2-2.4,4.1-4.7,6.3-6.9
	c32.3-31.4,83.6-31.5,116-0.2c0.4,0.3,0.8,0.7,1.4,1.3c0-2.6,0-4.8,0-7.1s1.1-3.6,3-3.6s2.9,1.3,2.9,3.6c0,4.8,0,9.5,0,14.2
	c0,2.5-1.3,3.7-3.7,3.3c-5.1-0.8-10.2-1.7-15.4-2.6c-2-0.4-3-1.8-2.7-3.4s1.7-2.5,3.7-2.3s4.2,0.7,6.3,1L187.1,65.3z"/>
<path class="st9" d="M135.6,88.7c0,1,0.1,2.1,0,3.1c0,1.6-1.3,2.8-2.9,2.8c0,0,0,0,0,0c-1.5,0.1-2.8-1.1-2.8-2.6c0,0,0,0,0,0
	c-0.2-2.1-0.2-4.3,0-6.4c0-1.4,1.2-2.6,2.7-2.5c0.1,0,0.1,0,0.2,0c1.5-0.1,2.7,1.1,2.8,2.5c0,0,0,0,0,0.1
	C135.7,86.7,135.7,87.7,135.6,88.7L135.6,88.7z"/>
<path class="st9" d="M129.9,105.6c0-1-0.1-2.1,0-3.1c0.1-1.6,1.4-2.8,2.9-2.7c0,0,0,0,0.1,0c1.5,0,2.7,1.1,2.8,2.6c0,0,0,0,0,0.1
	c0.1,2.1,0.1,4.1,0,6.2c-0.1,1.6-1.5,2.8-3,2.7c-1.5-0.1-2.6-1.2-2.7-2.7C129.8,107.6,129.8,106.6,129.9,105.6z"/>
<path class="st9" d="M129.9,122.2c0-1-0.1-2,0-2.9c0.1-1.6,1.4-2.8,3-2.7c0,0,0,0,0,0c1.5,0,2.8,1.2,2.8,2.7c0,0,0,0,0,0
	c0.1,2.1,0.1,4.1,0,6.2c0,1.6-1.3,2.9-2.9,2.9c-1.6,0-2.9-1.3-2.9-2.9C129.8,124.3,129.8,123.2,129.9,122.2L129.9,122.2z"/>
<path class="st9" d="M129.8,139.2c0-1-0.1-1.9,0-2.9c0-1.7,1.3-3,3-3c1.6,0,2.8,1.3,2.8,2.9c0.1,1.9,0.1,3.9,0,5.8
	c0,1.6-1.2,2.9-2.8,2.9c0,0-0.1,0-0.1,0c-1.6,0-2.8-1.3-2.8-2.9C129.8,141.1,129.8,140.2,129.8,139.2z"/>
<path class="st9" d="M135.6,156c0.1,1,0.1,2.1,0,3.1c-0.1,1.6-1.5,2.8-3.1,2.6c-1.4-0.1-2.5-1.2-2.6-2.6c-0.1-2.1-0.1-4.1,0-6.2
	c0-1.5,1.3-2.7,2.8-2.7c1.6,0,2.9,1.2,2.9,2.8C135.7,153.9,135.6,154.9,135.6,156z"/>
<path class="st9" d="M129.9,172.8c0-1-0.1-2.1,0-3.1c0.1-1.6,1.4-2.8,2.9-2.7c1.5,0,2.8,1.2,2.8,2.7c0.1,2.1,0.1,4.1,0,6.2
	c-0.1,1.6-1.5,2.8-3.1,2.6c-1.4-0.1-2.5-1.2-2.6-2.6C129.8,174.8,129.8,173.8,129.9,172.8z"/>
<path class="st9" d="M135.6,72.1c0,1,0.1,1.9,0,2.9c0,1.6-1.4,2.8-2.9,2.8c-1.5,0-2.8-1.2-2.8-2.7c-0.1-2.1-0.1-4.1,0-6.2
	c0-1.5,1.3-2.7,2.8-2.7c0,0,0,0,0,0c1.6,0,2.9,1.2,2.9,2.8C135.7,70,135.6,71.1,135.6,72.1z"/>
<path class="st9" d="M135.6,206.4c0.1,1,0.1,2.1,0,3.1c0,1.5-1.3,2.7-2.8,2.6c0,0-0.1,0-0.1,0c-1.4,0.1-2.7-0.9-2.8-2.4
	c0-0.1,0-0.1,0-0.2c-0.1-2.1-0.1-4.2,0-6.2c0.1-1.6,1.5-2.8,3-2.7c1.5,0.1,2.6,1.2,2.7,2.7C135.8,204.3,135.7,205.4,135.6,206.4
	L135.6,206.4z"/>
<path class="st9" d="M135.6,189.6c0.1,1,0.1,2.1,0,3.1c-0.1,1.5-1.3,2.7-2.8,2.6c0,0-0.1,0-0.1,0c-1.5,0.1-2.7-1-2.8-2.5
	c0-0.1,0-0.1,0-0.2c-0.1-2.1-0.1-4.2,0-6.2c0-1.5,1.3-2.7,2.8-2.7c0,0,0,0,0,0c1.6-0.1,2.9,1.1,3,2.7c0,0,0,0.1,0,0.1
	C135.8,187.5,135.7,188.6,135.6,189.6L135.6,189.6z"/>
</svg>
