<svg id="Layer_1" data-name="Layer 1" xmlns="http://www.w3.org/2000/svg" xmlns:xlink="http://www.w3.org/1999/xlink" viewBox="0 0 265.88 250.07"><defs><style>.cls-1,.cls-4,.cls-9{opacity:0.5;}.cls-2{fill:#cc156d;}.cls-3{fill:#0dd6af;}.cls-5{opacity:0.2;}.cls-6,.cls-7,.cls-8,.cls-9{fill:none;stroke-miterlimit:10;}.cls-6,.cls-7{stroke:#cc156d;}.cls-6{stroke-width:2px;}.cls-8,.cls-9{stroke:#000;}.cls-10{fill:url(#New_Gradient_Swatch_1);}.cls-11{fill:url(#New_Gradient_Swatch_1-2);}.cls-12{fill:url(#New_Gradient_Swatch_1-3);}.cls-13{fill:url(#New_Gradient_Swatch_1-4);}.cls-14{fill:url(#New_Gradient_Swatch_1-5);}.cls-15{fill:url(#New_Gradient_Swatch_1-6);}.cls-16{fill:url(#New_Gradient_Swatch_1-7);}.cls-17{fill:url(#New_Gradient_Swatch_1-8);}.cls-18{fill:url(#New_Gradient_Swatch_1-9);}.cls-19{fill:url(#New_Gradient_Swatch_1-10);}.cls-20{fill:url(#New_Gradient_Swatch_1-11);}.cls-21{fill:url(#New_Gradient_Swatch_1-12);}</style><linearGradient id="New_Gradient_Swatch_1" x1="195.51" y1="205.84" x2="195.51" y2="69.54" gradientUnits="userSpaceOnUse"><stop offset="0" stop-color="#690abc"/><stop offset="0.43" stop-color="#084dbc"/><stop offset="1" stop-color="#00c1fc"/></linearGradient><linearGradient id="New_Gradient_Swatch_1-2" x1="70.38" y1="205.78" x2="70.38" y2="69.57" xlink:href="#New_Gradient_Swatch_1"/><linearGradient id="New_Gradient_Swatch_1-3" x1="133.24" y1="73.28" x2="133.24" y2="37.94" xlink:href="#New_Gradient_Swatch_1"/><linearGradient id="New_Gradient_Swatch_1-4" x1="132.73" y1="94.58" x2="132.73" y2="82.97" xlink:href="#New_Gradient_Swatch_1"/><linearGradient id="New_Gradient_Swatch_1-5" x1="132.76" y1="111.38" x2="132.76" y2="99.74" xlink:href="#New_Gradient_Swatch_1"/><linearGradient id="New_Gradient_Swatch_1-6" x1="132.76" y1="128.18" x2="132.76" y2="116.53" xlink:href="#New_Gradient_Swatch_1"/><linearGradient id="New_Gradient_Swatch_1-7" x1="132.76" y1="144.98" x2="132.76" y2="133.32" xlink:href="#New_Gradient_Swatch_1"/><linearGradient id="New_Gradient_Swatch_1-8" x1="132.73" y1="161.75" x2="132.73" y2="150.12" xlink:href="#New_Gradient_Swatch_1"/><linearGradient id="New_Gradient_Swatch_1-9" x1="132.76" y1="178.55" x2="132.76" y2="166.93" xlink:href="#New_Gradient_Swatch_1"/><linearGradient id="New_Gradient_Swatch_1-10" x1="132.74" y1="77.78" x2="132.74" y2="66.23" xlink:href="#New_Gradient_Swatch_1"/><linearGradient id="New_Gradient_Swatch_1-11" x1="132.73" y1="212.13" x2="132.73" y2="200.56" xlink:href="#New_Gradient_Swatch_1"/><linearGradient id="New_Gradient_Swatch_1-12" x1="132.73" y1="195.34" x2="132.73" y2="183.75" xlink:href="#New_Gradient_Swatch_1"/></defs><g class="cls-1"><path class="cls-2" d="M14.68,27.47A15.69,15.69,0,0,0,23.19,15.9a15.68,15.68,0,0,0,8.5,11.57c.86.4,3,1,3,1a30.32,30.32,0,0,0-3,1,15.68,15.68,0,0,0-8.5,11.56,15.7,15.7,0,0,0-8.51-11.56,29.51,29.51,0,0,0-3-1A31.4,31.4,0,0,0,14.68,27.47Z"/><circle class="cls-3" cx="225.41" cy="37.11" r="6"/><circle class="cls-4" cx="21.68" cy="163.7" r="3.99"/><circle class="cls-4" cx="216.83" cy="203.69" r="2.5"/><circle class="cls-5" cx="78.73" cy="24.21" r="8.9"/><path class="cls-3" d="M35.4,209.94a24.46,24.46,0,0,0,13.27-18,24.44,24.44,0,0,0,13.27,18,46.07,46.07,0,0,0,4.65,1.62,46.07,46.07,0,0,0-4.65,1.62,24.44,24.44,0,0,0-13.27,18,24.46,24.46,0,0,0-13.27-18,46.87,46.87,0,0,0-4.66-1.62A46.87,46.87,0,0,0,35.4,209.94Z"/><path class="cls-6" d="M152.36,23.8a4.27,4.27,0,0,0-6,.47,4.21,4.21,0,0,0,.52,5.87,1.41,1.41,0,0,1,.26,2.17,4.22,4.22,0,0,0,.06,5A4.17,4.17,0,0,0,152,38.69a4.09,4.09,0,0,0,2.71-4.09,1.41,1.41,0,0,1,1.4-1.64l16-1.93a1.4,1.4,0,0,1,1.74,1.26,4.08,4.08,0,0,0,3.61,3.33,4.18,4.18,0,0,0,4.3-2.48,4.23,4.23,0,0,0-1.14-4.87,1.42,1.42,0,0,1-.26-2.17,4.18,4.18,0,0,0-4.78-6.4,4.09,4.09,0,0,0-2.75,4.11,1.4,1.4,0,0,1-1.39,1.64L155.4,27.39a1.4,1.4,0,0,1-1.73-1.27A3.88,3.88,0,0,0,152.36,23.8Z"/><path class="cls-7" d="M96.92,71.35a2.84,2.84,0,0,0-2.27-3.29,2.8,2.8,0,0,0-3.21,2.27,1,1,0,0,1-1.17.87,2.79,2.79,0,0,0-2.07,4.92,2.73,2.73,0,0,0,3.27.19.94.94,0,0,1,1.41.25l6.49,8.61a.93.93,0,0,1-.15,1.43,2.74,2.74,0,0,0-.71,3.19,2.79,2.79,0,0,0,5.3-.63.94.94,0,0,1,1.16-.88,2.79,2.79,0,0,0,2.09-4.9,2.73,2.73,0,0,0-3.29-.21.94.94,0,0,1-1.41-.25l-6.49-8.61A.93.93,0,0,1,96,72.89,2.57,2.57,0,0,0,96.92,71.35Z"/><path class="cls-8" d="M91.39,205.92a2.79,2.79,0,1,0-5.16,2.14.93.93,0,0,1-.49,1.36,2.83,2.83,0,0,0-1.47,3,2.79,2.79,0,0,0,2.42,2.25,2.72,2.72,0,0,0,2.84-1.62,1,1,0,0,1,1.33-.56L101,216.15a.94.94,0,0,1,.66,1.28,2.73,2.73,0,0,0,1.15,3.06,2.79,2.79,0,0,0,4.09-3.43.94.94,0,0,1,.49-1.37,2.78,2.78,0,0,0-.92-5.24,2.71,2.71,0,0,0-2.87,1.62,1,1,0,0,1-1.33.56L92.13,209a.94.94,0,0,1-.66-1.28A2.57,2.57,0,0,0,91.39,205.92Z"/><path class="cls-3" d="M162.15,208.22a16,16,0,0,0,13.17-6.53,16.06,16.06,0,0,0,2.31,14.52,31.8,31.8,0,0,0,2.23,2.34,31.4,31.4,0,0,0-3.2-.45,16,16,0,0,0-13.17,6.53,16.09,16.09,0,0,0-2.31-14.52,31.8,31.8,0,0,0-2.23-2.34A31.4,31.4,0,0,0,162.15,208.22Z"/><path class="cls-8" d="M49.51,61.18a11.36,11.36,0,0,0,9.33-4.63,11.37,11.37,0,0,0,1.64,10.29,23,23,0,0,0,1.58,1.67,21,21,0,0,0-2.27-.33,11.39,11.39,0,0,0-9.34,4.63,11.4,11.4,0,0,0-1.63-10.29,22.18,22.18,0,0,0-1.58-1.66A21.76,21.76,0,0,0,49.51,61.18Z"/><path class="cls-9" d="M179.1,98.24a11.36,11.36,0,0,0,9.33-4.63,11.37,11.37,0,0,0,1.64,10.29,22.18,22.18,0,0,0,1.58,1.66,21.76,21.76,0,0,0-2.27-.32,11.39,11.39,0,0,0-9.34,4.63,11.39,11.39,0,0,0-1.63-10.29,23,23,0,0,0-1.58-1.67A21,21,0,0,0,179.1,98.24Z"/><path class="cls-3" d="M234,128.07a5.94,5.94,0,0,1-2.94.54,6,6,0,0,1-.39-11.87.47.47,0,0,0,.45-.34,6,6,0,0,1,11.57,1.52,5.8,5.8,0,0,1-1,3.79l-.17.25a.34.34,0,0,0,0,.08l.19.26q3.57,4.41,7.13,8.83a.39.39,0,0,0,.55.14,6,6,0,1,1,3,11.45.43.43,0,0,0-.42.32,6,6,0,0,1-11.58-1.53,5.69,5.69,0,0,1,1-3.84c.11-.16.15-.27,0-.45-2.46-3-4.9-6.05-7.35-9.08Zm6.28-9.09a3.66,3.66,0,0,0-3.07-4.13,3.61,3.61,0,0,0-4,3.05,1.22,1.22,0,0,1-1.46,1.18,3.58,3.58,0,0,0-2.44,6.4,3.5,3.5,0,0,0,4.2.11,1.21,1.21,0,0,1,1.83.26q4.35,5.39,8.71,10.78a1.21,1.21,0,0,1-.13,1.84,3.5,3.5,0,0,0-.77,4.13,3.58,3.58,0,0,0,6.77-1,1.21,1.21,0,0,1,1.46-1.17,3.62,3.62,0,0,0,3.6-2.32,3.55,3.55,0,0,0-1.13-4.06,3.5,3.5,0,0,0-4.23-.13,1.21,1.21,0,0,1-1.83-.27l-8.71-10.77a1.2,1.2,0,0,1,.13-1.84A3.35,3.35,0,0,0,240.28,119Z"/><path class="cls-5" d="M57.87,121.05a4.64,4.64,0,0,1,.56-2.31,4.76,4.76,0,0,1,8.76,3.6.36.36,0,0,0,.11.43,4.76,4.76,0,0,1-4.9,7.92A4.66,4.66,0,0,1,60,128.74l-.12-.21-.06-.05-.25.06-8.75,2.29a.31.31,0,0,0-.29.35,4.76,4.76,0,1,1-9.31-1.55.35.35,0,0,0-.09-.42,4.76,4.76,0,0,1,4.9-7.92,4.53,4.53,0,0,1,2.45,2c.09.14.15.2.33.15l9-2.37Zm4.54,7.54a2.91,2.91,0,0,0,4-.88,2.86,2.86,0,0,0-.9-3.92,1,1,0,0,1-.37-1.45,2.89,2.89,0,0,0-.51-3.38,2.84,2.84,0,0,0-3.35-.49,2.8,2.8,0,0,0-1.46,3,1,1,0,0,1-.79,1.24l-10.68,2.8a1,1,0,0,1-1.3-.69,2.8,2.8,0,0,0-2.75-1.92,2.86,2.86,0,0,0-1.46,5.27,1,1,0,0,1,.38,1.45,2.85,2.85,0,0,0,3.83,3.88,2.79,2.79,0,0,0,1.48-3,1,1,0,0,1,.79-1.24L60,126.44a1,1,0,0,1,1.29.7A2.7,2.7,0,0,0,62.41,128.59Z"/></g><path class="cls-10" d="M232.77,166.81c-1.05,1.18-2.1,2.38-3.94,1.64s-1.93-2.23-1.93-3.87q0-41.31,0-82.63V79.27l-61.46,58.4,61.46,58.41v-6.16c0-3.77,0-7.53,0-11.3,0-1.67.21-3.19,2-3.83s2.92.44,3.88,1.77v27.3c-2,2.51-3.41,2.62-5.76.39q-33.48-31.78-66.94-63.59c-2.44-2.32-2.42-3.65,0-6l66.64-63.35c2.5-2.37,3.63-2.37,6,0Z"/><path class="cls-11" d="M100.45,137.68,39,79.27v7.58c0,3.71,0,7.41,0,11.12,0,2.16-1.11,3.42-2.87,3.45s-3-1.24-3-3.37c0-8.38,0-16.76,0-25.14A3,3,0,0,1,35,69.78c1.55-.61,2.72.17,3.82,1.22q16,15.25,32.08,30.49l34.75,33c2.66,2.53,2.68,3.76.06,6.25L39.12,204a10.38,10.38,0,0,1-1.47,1.27,2.88,2.88,0,0,1-4.47-2,12.67,12.67,0,0,1,0-1.95q0-44.74,0-89.48a9.61,9.61,0,0,1,.07-1.94,2.88,2.88,0,0,1,5.72,0,12.73,12.73,0,0,1,.06,2.14v84Z"/><path class="cls-12" d="M187.11,65.29c-3.77-2.92-7.37-6.12-11.36-8.72a76.11,76.11,0,0,0-52.19-12.12C104.29,46.83,88.18,55.51,75.19,70c-.69.77-1.32,1.6-2.06,2.33a3,3,0,0,1-4,.36,2.88,2.88,0,0,1-.28-4.19c2-2.37,4.08-4.74,6.31-6.9a83.3,83.3,0,0,1,116-.17c.36.35.75.67,1.45,1.29,0-2.6,0-4.83,0-7.07s1.12-3.58,3-3.56,2.88,1.31,2.89,3.63c0,4.75,0,9.49,0,14.24,0,2.46-1.28,3.66-3.7,3.29-5.13-.78-10.25-1.67-15.36-2.61-2-.36-3-1.82-2.68-3.41s1.73-2.54,3.72-2.27,4.22.66,6.32,1Z"/><path class="cls-13" d="M135.65,88.69c0,1,.07,2.07,0,3.09a2.85,2.85,0,0,1-2.91,2.79,2.74,2.74,0,0,1-2.83-2.65,45.42,45.42,0,0,1,0-6.39A2.61,2.61,0,0,1,132.78,83a2.69,2.69,0,0,1,2.83,2.62,24.63,24.63,0,0,1,0,3.1Z"/><path class="cls-14" d="M129.85,105.56c0-1-.08-2.07,0-3.09a2.83,2.83,0,0,1,3-2.72,2.71,2.71,0,0,1,2.78,2.69,51.3,51.3,0,0,1,0,6.2,2.88,2.88,0,0,1-5.75,0A29.11,29.11,0,0,1,129.85,105.56Z"/><path class="cls-15" d="M129.85,122.19c0-1-.08-2,0-2.91a2.86,2.86,0,0,1,3-2.74,2.73,2.73,0,0,1,2.79,2.69,53.43,53.43,0,0,1,0,6.2,2.87,2.87,0,0,1-5.74,0,30.09,30.09,0,0,1,0-3.29Z"/><path class="cls-16" d="M129.84,139.2c0-1-.06-1.95,0-2.91a3,3,0,0,1,3-3,2.91,2.91,0,0,1,2.83,2.9q.13,2.9,0,5.81a2.89,2.89,0,0,1-2.95,2.95,2.92,2.92,0,0,1-2.84-2.88C129.78,141.14,129.84,140.17,129.84,139.2Z"/><path class="cls-17" d="M135.65,156a28.93,28.93,0,0,1,0,3.09,2.88,2.88,0,0,1-5.74,0,51.14,51.14,0,0,1,0-6.19,2.78,2.78,0,0,1,2.8-2.71,2.87,2.87,0,0,1,2.95,2.75C135.73,153.9,135.65,154.94,135.65,156Z"/><path class="cls-18" d="M129.85,172.78c0-1-.08-2.07,0-3.1a2.85,2.85,0,0,1,2.95-2.74,2.76,2.76,0,0,1,2.8,2.7,58.1,58.1,0,0,1,0,6.19,2.88,2.88,0,0,1-5.74,0A24.65,24.65,0,0,1,129.85,172.78Z"/><path class="cls-19" d="M135.65,72.09c0,1,.07,1.94,0,2.91a2.86,2.86,0,0,1-2.92,2.77,2.76,2.76,0,0,1-2.82-2.67,47.51,47.51,0,0,1,0-6.2,2.74,2.74,0,0,1,2.81-2.67A2.85,2.85,0,0,1,135.64,69C135.73,70,135.65,71.06,135.65,72.09Z"/><path class="cls-20" d="M135.64,206.4a26.86,26.86,0,0,1,0,3.11,2.69,2.69,0,0,1-2.86,2.62,2.62,2.62,0,0,1-2.86-2.59,48,48,0,0,1,0-6.23,2.88,2.88,0,0,1,5.75,0c.1,1,0,2.08,0,3.12Z"/><path class="cls-21" d="M135.64,189.62a25,25,0,0,1,0,3.12,2.7,2.7,0,0,1-2.87,2.6,2.66,2.66,0,0,1-2.85-2.62,50,50,0,0,1,0-6.24,2.75,2.75,0,0,1,2.79-2.72,2.83,2.83,0,0,1,3,2.75c.09,1,0,2.07,0,3.11Z"/></svg>