<svg id="Layer_1" data-name="Layer 1" xmlns="http://www.w3.org/2000/svg" xmlns:xlink="http://www.w3.org/1999/xlink" viewBox="0 0 265.88 250.07"><defs><style>.cls-1{fill:#690abc;}.cls-2{fill:#0dd6af;}.cls-3,.cls-8{opacity:0.5;}.cls-4{opacity:0.2;}.cls-5,.cls-6,.cls-7,.cls-8{fill:none;stroke-miterlimit:10;}.cls-5,.cls-6{stroke:#690abc;}.cls-5{stroke-width:2px;}.cls-7,.cls-8{stroke:#000;}.cls-9{fill:url(#New_Gradient_Swatch_1);}.cls-10{fill:url(#New_Gradient_Swatch_1-2);}.cls-11{fill:url(#New_Gradient_Swatch_1-3);}.cls-12{fill:url(#New_Gradient_Swatch_1-4);}.cls-13{fill:url(#New_Gradient_Swatch_1-5);}.cls-14{fill:url(#New_Gradient_Swatch_1-6);}.cls-15{fill:url(#New_Gradient_Swatch_1-7);}.cls-16{fill:url(#New_Gradient_Swatch_1-8);}</style><linearGradient id="New_Gradient_Swatch_1" x1="135.82" y1="214.81" x2="135.82" y2="84.12" gradientTransform="matrix(-0.96, 0.28, 0.28, 0.96, 225.66, -32.16)" gradientUnits="userSpaceOnUse"><stop offset="0" stop-color="#690abc"/><stop offset="0.43" stop-color="#084dbc"/><stop offset="1" stop-color="#00c1fc"/></linearGradient><linearGradient id="New_Gradient_Swatch_1-2" x1="69.58" y1="98.73" x2="69.58" y2="59.52" xlink:href="#New_Gradient_Swatch_1"/><linearGradient id="New_Gradient_Swatch_1-3" x1="97.79" y1="97.59" x2="97.79" y2="64.85" xlink:href="#New_Gradient_Swatch_1"/><linearGradient id="New_Gradient_Swatch_1-4" x1="91.59" y1="63.57" x2="91.59" y2="30.89" xlink:href="#New_Gradient_Swatch_1"/><linearGradient id="New_Gradient_Swatch_1-5" x1="76.8" y1="60.59" x2="76.8" y2="39.7" xlink:href="#New_Gradient_Swatch_1"/><linearGradient id="New_Gradient_Swatch_1-6" x1="90.7" y1="167.59" x2="90.7" y2="149.94" xlink:href="#New_Gradient_Swatch_1"/><linearGradient id="New_Gradient_Swatch_1-7" x1="84.01" y1="120.54" x2="84.01" y2="114.64" xlink:href="#New_Gradient_Swatch_1"/><linearGradient id="New_Gradient_Swatch_1-8" x1="100.25" y1="164.42" x2="100.25" y2="146.17" xlink:href="#New_Gradient_Swatch_1"/></defs><path class="cls-1" d="M25.68,31.47A15.69,15.69,0,0,0,34.19,19.9a15.68,15.68,0,0,0,8.5,11.57c.86.4,3,1,3,1a30.32,30.32,0,0,0-3,1,15.68,15.68,0,0,0-8.5,11.56,15.7,15.7,0,0,0-8.51-11.56,29.51,29.51,0,0,0-3-1A31.4,31.4,0,0,0,25.68,31.47Z"/><circle class="cls-2" cx="225.41" cy="31.11" r="6"/><circle class="cls-3" cx="21.68" cy="157.7" r="3.99"/><circle class="cls-3" cx="236.83" cy="207.69" r="2.5"/><circle class="cls-4" cx="78.73" cy="56.21" r="8.9"/><path class="cls-2" d="M35.4,203.94a24.46,24.46,0,0,0,13.27-18,24.44,24.44,0,0,0,13.27,18,46.07,46.07,0,0,0,4.65,1.62,46.07,46.07,0,0,0-4.65,1.62,24.44,24.44,0,0,0-13.27,18,24.46,24.46,0,0,0-13.27-18,46.87,46.87,0,0,0-4.66-1.62A46.87,46.87,0,0,0,35.4,203.94Z"/><path class="cls-5" d="M104.36,27.8a4.27,4.27,0,0,0-6,.47,4.21,4.21,0,0,0,.52,5.87,1.41,1.41,0,0,1,.26,2.17,4.22,4.22,0,0,0,.06,5A4.17,4.17,0,0,0,104,42.69a4.09,4.09,0,0,0,2.71-4.09,1.41,1.41,0,0,1,1.4-1.64l16-1.93a1.4,1.4,0,0,1,1.74,1.26,4.08,4.08,0,0,0,3.61,3.33,4.18,4.18,0,0,0,4.3-2.48,4.23,4.23,0,0,0-1.14-4.87,1.42,1.42,0,0,1-.26-2.17,4.18,4.18,0,0,0-4.78-6.4,4.09,4.09,0,0,0-2.75,4.11,1.4,1.4,0,0,1-1.39,1.64L107.4,31.39a1.4,1.4,0,0,1-1.73-1.27A3.88,3.88,0,0,0,104.36,27.8Z"/><path class="cls-6" d="M117.19,78.51a1.78,1.78,0,0,0-1.42-2.05,1.74,1.74,0,0,0-2,1.41.59.59,0,0,1-.73.55,1.74,1.74,0,0,0-1.78,1.06,1.72,1.72,0,0,0,.49,2,1.7,1.7,0,0,0,2,.12.58.58,0,0,1,.88.16l4,5.37a.58.58,0,0,1-.09.89,1.69,1.69,0,0,0-.44,2A1.72,1.72,0,0,0,120,91a1.74,1.74,0,0,0,1.52-1.42.59.59,0,0,1,.72-.55,1.74,1.74,0,0,0,1.31-3,1.7,1.7,0,0,0-2.05-.13.59.59,0,0,1-.89-.16c-1.34-1.79-2.69-3.57-4-5.36a.58.58,0,0,1,.09-.89A1.63,1.63,0,0,0,117.19,78.51Z"/><path class="cls-7" d="M91.39,209.92a2.79,2.79,0,1,0-5.16,2.14.93.93,0,0,1-.49,1.36,2.83,2.83,0,0,0-1.47,3,2.79,2.79,0,0,0,2.42,2.25,2.72,2.72,0,0,0,2.84-1.62,1,1,0,0,1,1.33-.56L101,220.15a.94.94,0,0,1,.66,1.28,2.73,2.73,0,0,0,1.15,3.06,2.79,2.79,0,0,0,4.09-3.43.94.94,0,0,1,.49-1.37,2.78,2.78,0,0,0-.92-5.24,2.71,2.71,0,0,0-2.87,1.62,1,1,0,0,1-1.33.56L92.13,213a.94.94,0,0,1-.66-1.28A2.57,2.57,0,0,0,91.39,209.92Z"/><path class="cls-2" d="M162.15,214.22a16,16,0,0,0,13.17-6.53,16.06,16.06,0,0,0,2.31,14.52,31.8,31.8,0,0,0,2.23,2.34,31.4,31.4,0,0,0-3.2-.45,16,16,0,0,0-13.17,6.53,16.09,16.09,0,0,0-2.31-14.52,31.8,31.8,0,0,0-2.23-2.34A31.4,31.4,0,0,0,162.15,214.22Z"/><path class="cls-7" d="M30.51,85.18a11.36,11.36,0,0,0,9.33-4.63,11.37,11.37,0,0,0,1.64,10.29,23,23,0,0,0,1.58,1.67,21,21,0,0,0-2.27-.33,11.39,11.39,0,0,0-9.34,4.63,11.4,11.4,0,0,0-1.63-10.29,22.18,22.18,0,0,0-1.58-1.66A21.76,21.76,0,0,0,30.51,85.18Z"/><path class="cls-8" d="M196.1,206.24a11.36,11.36,0,0,0,9.33-4.63,11.37,11.37,0,0,0,1.64,10.29,22.18,22.18,0,0,0,1.58,1.66,21.76,21.76,0,0,0-2.27-.32,11.39,11.39,0,0,0-9.34,4.63,11.39,11.39,0,0,0-1.63-10.29,23,23,0,0,0-1.58-1.67A21,21,0,0,0,196.1,206.24Z"/><path class="cls-2" d="M232,86.07a5.94,5.94,0,0,1-2.94.54,6,6,0,0,1-.39-11.87.47.47,0,0,0,.45-.34,6,6,0,0,1,11.57,1.52,5.8,5.8,0,0,1-1,3.79l-.17.25a.34.34,0,0,0,0,.08l.19.26q3.57,4.41,7.13,8.83a.39.39,0,0,0,.55.14,6,6,0,1,1,3,11.45.43.43,0,0,0-.42.32,6,6,0,0,1-11.58-1.53,5.69,5.69,0,0,1,1-3.84c.11-.16.15-.27,0-.45-2.46-3-4.9-6-7.35-9.08ZM238.28,77a3.66,3.66,0,0,0-3.07-4.13,3.61,3.61,0,0,0-4,3.05,1.22,1.22,0,0,1-1.46,1.18,3.58,3.58,0,0,0-2.44,6.4,3.5,3.5,0,0,0,4.2.11,1.21,1.21,0,0,1,1.83.26q4.35,5.39,8.71,10.78a1.21,1.21,0,0,1-.13,1.84,3.5,3.5,0,0,0-.77,4.13,3.58,3.58,0,0,0,6.77-1,1.21,1.21,0,0,1,1.46-1.17,3.62,3.62,0,0,0,3.6-2.32A3.55,3.55,0,0,0,251.83,92a3.5,3.5,0,0,0-4.23-.13,1.21,1.21,0,0,1-1.83-.27l-8.71-10.77a1.2,1.2,0,0,1,.13-1.84A3.35,3.35,0,0,0,238.28,77Z"/><path class="cls-4" d="M97.87,125.05a4.64,4.64,0,0,1,.56-2.31,4.76,4.76,0,0,1,8.76,3.6.36.36,0,0,0,.11.43,4.76,4.76,0,0,1-4.9,7.92,4.66,4.66,0,0,1-2.44-1.95l-.12-.21-.06-.05-.25.06-8.75,2.29a.31.31,0,0,0-.29.35,4.76,4.76,0,1,1-9.31-1.55.35.35,0,0,0-.09-.42,4.76,4.76,0,0,1,4.9-7.92,4.53,4.53,0,0,1,2.45,2c.09.14.15.2.33.15l9-2.37Zm4.54,7.54a2.91,2.91,0,0,0,4-.88,2.86,2.86,0,0,0-.9-3.92,1,1,0,0,1-.37-1.45,2.89,2.89,0,0,0-.51-3.38,2.84,2.84,0,0,0-3.35-.49,2.8,2.8,0,0,0-1.46,3,1,1,0,0,1-.79,1.24l-10.68,2.8a1,1,0,0,1-1.3-.69,2.8,2.8,0,0,0-2.75-1.92,2.86,2.86,0,0,0-1.46,5.27,1,1,0,0,1,.38,1.45,2.85,2.85,0,0,0,3.83,3.88,2.79,2.79,0,0,0,1.48-3,1,1,0,0,1,.79-1.24L100,130.44a1,1,0,0,1,1.29.7A2.7,2.7,0,0,0,102.41,132.59Z"/><path class="cls-9" d="M127.43,203c-30-.07-55.15-9.92-70.86-37.08-4.76-8.22-11.22-11.63-20.32-11.59-10.39,0-19.56-3.71-27.73-9.91a23.12,23.12,0,0,1-5.4-5.89c-2-3.21-.5-6.06,3.24-6.61a58,58,0,0,1,6.05-.34c4.71-.19,9.42-.24,14.12-.57C41.07,130,51.59,123.2,57,109.3a23.83,23.83,0,0,1,1.88-4c1.82-2.91,4.79-3,6.87-.27a11,11,0,0,1,1.69,3.27c3.82,11.9,4,23.6-2.09,34.94-2.51,4.71-2.38,5.43,1.2,9.46,9.34,10.5,28.28,11.85,38.78,2.15,5-4.6,9.09-10.21,13.1-15.74,8.47-11.69,17.45-22.87,29.23-31.43C169,92.21,192.41,86,218.26,93.57c17.88,5.26,32.21,15.82,41.85,32,5.93,9.94,4.35,18.47-4.23,26.29-2.22,2-4.89,3.54-7.32,5.35a7.51,7.51,0,0,0-2.37,2.2c-3.73,7.43-9.85,12.46-16.66,16.75-14.62,9.2-30.85,14.42-47.37,18.92a15.06,15.06,0,0,0-4.82,2.73c-5.1,3.82-9.76,8.4-15.27,11.47-4.57,2.55-10,3.75-15.26,4.8-2,.41-5.43-.58-6.42-2.1s.23-4.47.71-6.75c.18-.9,1-1.68,1.75-2.93C137.4,202.53,132.42,203,127.43,203Zm110.81-40.91c-4.67.77-9.32,1.81-14,2.27a70.34,70.34,0,0,1-28.89-3.44c-1.74-.56-3.79-1.16-3-3.58s2.83-1.48,4.54-1c16.65,5.06,33,5.09,48.76-3.15a32.77,32.77,0,0,0,3.18-1.88c11.13-7.51,12.69-15.84,5-26.84-17.71-25.5-52.4-35.89-81.59-24.79-19.21,7.31-33.59,20.37-45.64,36.51-4.9,6.56-9.7,13.23-15,19.46C100,169.29,79.48,168,69.39,161.33a35.5,35.5,0,0,1-6-4.89c-5.48-5.71-5.81-8.53-2.24-15.57,4.87-9.64,5.49-22.32,1.35-31.21a12.11,12.11,0,0,0-1.25,1.91C55,127.16,43,134.6,26.69,135.8c-5.48.4-11,.41-16.48.62a28,28,0,0,0-2.84.44c7.81,7.66,16.63,11.73,27,12.58,3.13.26,6.28.34,9.39.77A19.84,19.84,0,0,1,58.4,159.9c1.6,2.58,3.15,5.19,4.84,7.71,14.1,21.12,34.95,29.34,59.26,30.45,6.92.32,13.9-.47,20.84-1,5-.37,6.76-2,8-6.88.11-.43,0-1,.27-1.3.83-1,1.78-1.84,2.68-2.75.69,1.21,2.21,2.72,1.91,3.57a56.78,56.78,0,0,1-4.68,9.91c-1.36,2.29-3.42,4.15-5.1,6.26-.73.93-1.28,2-2.23,3.51a32.1,32.1,0,0,0,15.63-4.21c9.51-5.3,16.77-13.06,23.34-21.56.55-.71.93-1.73,1.65-2.09.95-.46,2.55-.92,3.15-.45a3.43,3.43,0,0,1,.55,3.14,21.23,21.23,0,0,1-2.65,4.08C205.24,183.14,224,177.1,238.24,162.06Z"/><path class="cls-10" d="M173.61,85.65c-1.38-7.15-3.07-14.25-4-21.45A37,37,0,0,1,170,51.87c1.74-8.27,9.67-10.57,15.92-4.89a27,27,0,0,1,8.27,14.35,16.7,16.7,0,0,1,0,3.74l-1,.6c-1.75-1.42-3.53-2.79-5.23-4.26-4.31-3.72-7.38-3.13-9.61,2.14a27.94,27.94,0,0,0-1.93,6.76c-.77,5.06-1.27,10.15-1.87,15.22ZM176,57.93c2-4.49,3.62-5.11,8.15-3.46.92.33,1.85.6,2.83.92.38-3.22-1.76-6.13-5.14-7.35-2.94-1.06-5.45,0-7.34,3s-2.53,8.8-1.33,14.63C174.21,62.72,174.92,60.25,176,57.93Z"/><path class="cls-11" d="M169.31,81.69c-2.69-3.15-5.14-6.6-8.25-9.26-5.74-4.9-9.28-4.28-14.33,1.34-1,1.16-2.87,1.63-4.33,2.41-.85-1.7-2.45-3.41-2.43-5.1.05-5.27,1.72-10.19,6.84-12.63,4.95-2.36,9.09.38,13,3.26A10.2,10.2,0,0,1,161,62.84c6.07,6.2,8.95,14,10.71,22.33A40.66,40.66,0,0,0,169.31,81.69ZM156.77,62.52c-2.41-2.25-4.8-4-8.09-2.76a5.47,5.47,0,0,0-3.85,5.3C148.58,62.62,151.86,59.22,156.77,62.52Z"/><path class="cls-12" d="M160.82,52.58c-2.51-8.47-5.3-16.85-10.56-24.11a17.88,17.88,0,0,0-5-4.25,3.2,3.2,0,0,0-3.05.24,3.46,3.46,0,0,0-.44,3,20.3,20.3,0,0,0,2.69,5.39c5,6.84,10.22,13.57,15.35,20.34Z"/><path class="cls-13" d="M166.53,48.14c.57-5.7,1.16-11.41,1.69-17.12a3,3,0,0,0-.46-1.93,22.31,22.31,0,0,0-2.53-2.32c-.52.9-1.51,1.81-1.48,2.69.18,6.22.56,12.44.89,18.66Z"/><path class="cls-14" d="M180.35,137.18c3.78-1.19,8.08,1.43,9.6,5.86,1.63,4.78-.25,9.61-4.29,11s-8.25-1.23-9.8-5.91S176.34,138.44,180.35,137.18Zm.62,8.65c-.41-1.47,1-3.43,1.66-5.52-.83.45-2.39.77-3,1.71-1.61,2.39-1.08,4.91.65,7.11,1.39,1.78,3.11,2.4,4.73,1.51C183.45,148.92,181.44,147.58,181,145.83Z"/><path class="cls-15" d="M170.77,109.35a24.9,24.9,0,0,1,15.58-4.77c.64,0,1.91-1.33,1.81-1.83-.17-.85-1.14-2.11-1.88-2.19a24.26,24.26,0,0,0-17.57,5.09,2.64,2.64,0,0,0-.4,2.58C168.79,108.91,170,109.06,170.77,109.35Z"/><path class="cls-16" d="M169.13,148a54.67,54.67,0,0,0,3,5.22c.39.54,1.52.54,2.31.78.12-.89.54-1.88.29-2.65-.56-1.68-1.63-3.19-2.18-4.87a9.27,9.27,0,0,1,1.35-8.33c.53-.82.37-2.09.52-3.15-1.11.44-2.62.57-3.26,1.38C168.48,139.79,168.15,143.74,169.13,148Z"/></svg>