<?xml version="1.0" encoding="utf-8"?>
<!-- Generator: Adobe Illustrator 26.0.3, SVG Export Plug-In . SVG Version: 6.00 Build 0)  -->
<svg version="1.1" id="Layer_1" xmlns="http://www.w3.org/2000/svg" xmlns:xlink="http://www.w3.org/1999/xlink" x="0px" y="0px"
	 viewBox="0 0 265.9 250.1" style="enable-background:new 0 0 265.9 250.1;" xml:space="preserve">
<style type="text/css">
	.st0{display:none;opacity:0.5;}
	.st1{display:inline;fill:#CC156D;}
	.st2{display:inline;fill:#0DD6AF;}
	.st3{display:inline;opacity:0.5;enable-background:new    ;}
	.st4{display:inline;opacity:0.2;enable-background:new    ;}
	.st5{display:inline;fill:none;stroke:#CC156D;stroke-width:2;stroke-miterlimit:10;}
	.st6{display:inline;fill:none;stroke:#CC156D;stroke-miterlimit:10;}
	.st7{display:inline;fill:none;stroke:#000000;stroke-miterlimit:10;}
	.st8{display:inline;opacity:0.5;fill:none;stroke:#000000;stroke-miterlimit:10;enable-background:new    ;}
	.st9{fill:#FFFFFF;}
</style>
<g class="st0">
	<path class="st1" d="M25.7,31.5c4.5-2.3,7.7-6.6,8.5-11.6c0.8,5,4,9.3,8.5,11.6c0.9,0.4,3,1,3,1c-1,0.3-2,0.6-3,1
		C38.2,35.7,35,40,34.2,45c-0.8-5-4-9.3-8.5-11.6c-1-0.4-2-0.7-3-1C23.7,32.2,24.7,31.9,25.7,31.5z"/>
	<circle class="st2" cx="225.4" cy="31.1" r="6"/>
	<circle class="st3" cx="21.7" cy="157.7" r="4"/>
	<circle class="st3" cx="226.8" cy="207.7" r="2.5"/>
	<circle class="st4" cx="78.7" cy="36.2" r="8.9"/>
	<path class="st2" d="M35.4,203.9c7.1-3.5,12-10.2,13.3-18c1.3,7.8,6.2,14.5,13.3,18c1.5,0.6,3.1,1.2,4.7,1.6
		c-1.6,0.5-3.1,1-4.7,1.6c-7.1,3.5-12,10.2-13.3,18c-1.3-7.8-6.2-14.5-13.3-18c-1.5-0.6-3.1-1.2-4.7-1.6
		C32.3,205.1,33.9,204.6,35.4,203.9z"/>
	<path class="st5" d="M133.4,27.8c-1.8-1.5-4.5-1.3-6,0.5c-1.5,1.8-1.2,4.4,0.5,5.9c0.7,0.4,0.9,1.3,0.4,1.9
		c-0.1,0.1-0.1,0.2-0.2,0.2c-1.1,1.5-1.1,3.5,0.1,5c1.1,1.5,3.1,2,4.8,1.4c1.7-0.6,2.8-2.3,2.7-4.1c-0.1-0.8,0.4-1.5,1.2-1.6
		c0.1,0,0.2,0,0.2,0l16-1.9c0.7-0.2,1.5,0.3,1.7,1c0,0.1,0,0.2,0,0.2c0.3,1.8,1.8,3.1,3.6,3.3c1.8,0.2,3.6-0.8,4.3-2.5
		c0.7-1.7,0.3-3.7-1.1-4.9c-0.7-0.4-0.8-1.3-0.4-2c0-0.1,0.1-0.1,0.2-0.2c1.4-1.9,0.9-4.5-0.9-5.8c-1.1-0.8-2.6-1-3.9-0.6
		c-1.7,0.6-2.9,2.3-2.8,4.1c0.1,0.8-0.4,1.5-1.1,1.6c-0.1,0-0.2,0-0.3,0l-16,1.9c-0.8,0.2-1.5-0.3-1.7-1c0-0.1,0-0.2,0-0.2
		C134.5,29.2,134.1,28.4,133.4,27.8z"/>
	<path class="st6" d="M107.2,78.5c0.2-1-0.5-1.9-1.4-2.1c-0.9-0.2-1.8,0.5-2,1.4c0,0.3-0.3,0.6-0.6,0.6c0,0-0.1,0-0.1,0
		c-0.8-0.1-1.5,0.4-1.8,1.1c-0.3,0.7-0.1,1.5,0.5,2c0.6,0.5,1.4,0.5,2,0.1c0.2-0.2,0.6-0.2,0.8,0.1c0,0,0,0.1,0.1,0.1l4,5.4
		c0.2,0.2,0.2,0.6,0,0.8c0,0-0.1,0-0.1,0.1c-0.6,0.5-0.8,1.3-0.4,2c0.3,0.7,1.1,1.1,1.9,1c0.8-0.1,1.4-0.7,1.5-1.4
		c0-0.3,0.3-0.6,0.6-0.6c0,0,0.1,0,0.1,0c1,0.1,1.8-0.7,1.9-1.6c0-0.5-0.2-1-0.5-1.4c-0.6-0.5-1.4-0.6-2.1-0.1
		c-0.3,0.2-0.6,0.2-0.8-0.1c0,0,0-0.1-0.1-0.1c-1.3-1.8-2.7-3.6-4-5.4c-0.2-0.2-0.2-0.6,0-0.8c0,0,0.1,0,0.1-0.1
		C107,79.2,107.1,78.9,107.2,78.5z"/>
	<path class="st7" d="M91.4,212.9c-0.6-1.4-2.2-2.1-3.7-1.5c-1.4,0.6-2.1,2.2-1.5,3.6l0,0c0.3,0.4,0.1,1-0.3,1.3
		c-0.1,0-0.1,0.1-0.2,0.1c-1.1,0.6-1.7,1.8-1.5,3c0.2,1.2,1.2,2.1,2.4,2.2c1.2,0.2,2.4-0.5,2.8-1.6c0.2-0.5,0.8-0.8,1.3-0.6
		c0,0,0,0,0,0l10.1,3.7c0.5,0.1,0.8,0.6,0.7,1.1c0,0.1,0,0.1,0,0.2c-0.3,1.2,0.1,2.4,1.2,3.1c1.3,0.8,3,0.5,3.9-0.8
		c0.5-0.8,0.6-1.8,0.2-2.6c-0.3-0.4-0.1-1,0.3-1.3c0.1,0,0.1-0.1,0.2-0.1c1.4-0.7,1.9-2.4,1.2-3.7c-0.4-0.8-1.2-1.4-2.1-1.5
		c-1.2-0.2-2.4,0.5-2.9,1.6c-0.2,0.5-0.8,0.8-1.3,0.6c0,0,0,0,0,0L92.1,216c-0.5-0.1-0.8-0.6-0.7-1.1c0-0.1,0-0.1,0-0.2
		C91.7,214.1,91.6,213.5,91.4,212.9z"/>
	<path class="st2" d="M162.1,212.2c5.2,0.1,10.1-2.3,13.2-6.5c-1.6,4.9-0.8,10.3,2.3,14.5c0.7,0.8,1.4,1.6,2.2,2.3
		c-1.1-0.2-2.1-0.4-3.2-0.4c-5.2-0.1-10.1,2.3-13.2,6.5c1.6-4.9,0.8-10.3-2.3-14.5c-0.7-0.8-1.4-1.6-2.2-2.3
		C160,212,161.1,212.1,162.1,212.2z"/>
	<path class="st7" d="M20.5,85.2c3.7,0.1,7.2-1.7,9.3-4.6c-1.1,3.5-0.5,7.3,1.6,10.3c0.5,0.6,1,1.1,1.6,1.7
		c-0.8-0.2-1.5-0.3-2.3-0.3c-3.7-0.1-7.2,1.7-9.3,4.6c1.1-3.5,0.5-7.3-1.6-10.3c-0.5-0.6-1-1.1-1.6-1.7C19,85,19.7,85.1,20.5,85.2z"
		/>
	<path class="st8" d="M196.1,196.2c3.7,0.1,7.2-1.7,9.3-4.6c-1.1,3.5-0.5,7.3,1.6,10.3c0.5,0.6,1,1.1,1.6,1.7
		c-0.8-0.1-1.5-0.3-2.3-0.3c-3.7-0.1-7.2,1.7-9.3,4.6c1.1-3.5,0.5-7.3-1.6-10.3c-0.5-0.6-1-1.1-1.6-1.7
		C194.6,196.1,195.3,196.2,196.1,196.2z"/>
	<path class="st2" d="M232,76.1c-0.9,0.4-1.9,0.6-2.9,0.5c-3.3-0.4-5.7-3.3-5.3-6.6c0.3-2.6,2.3-4.8,4.9-5.2c0.2,0,0.4-0.1,0.4-0.3
		c1.2-3.1,4.7-4.6,7.7-3.5c2.1,0.8,3.6,2.7,3.8,5c0.1,1.3-0.2,2.7-1,3.8l-0.2,0.2c0,0,0,0.1,0,0.1l0.2,0.3c2.4,2.9,4.8,5.9,7.1,8.8
		c0.1,0.2,0.3,0.3,0.5,0.2c0,0,0,0,0,0c3-1.4,6.6,0,7.9,3c1.4,3,0,6.6-3,7.9c-0.6,0.3-1.2,0.4-1.9,0.5c-0.2,0-0.3,0.1-0.4,0.3
		c-1.2,3.1-4.6,4.7-7.7,3.5c-2.1-0.8-3.6-2.7-3.8-5c-0.1-1.4,0.2-2.7,1-3.8c0.1-0.2,0.1-0.3,0-0.4C237,82.2,234.5,79.2,232,76.1
		L232,76.1z M238.3,67c0.3-2-1.1-3.8-3.1-4.1c-1.9-0.2-3.7,1.1-4,3c0,0.7-0.6,1.2-1.2,1.2c-0.1,0-0.2,0-0.2,0
		c-2-0.1-3.7,1.4-3.8,3.3c-0.1,1.2,0.4,2.3,1.4,3.1c1.2,1,2.9,1,4.2,0.1c0.5-0.4,1.3-0.4,1.7,0.1c0,0.1,0.1,0.1,0.1,0.2
		c2.9,3.6,5.8,7.2,8.7,10.8c0.5,0.5,0.5,1.2,0,1.7c0,0-0.1,0.1-0.1,0.1c-1.1,1.1-1.5,2.7-0.8,4.1c0.9,1.8,3,2.5,4.8,1.7
		c1.1-0.5,1.8-1.5,2-2.7c0-0.7,0.6-1.2,1.2-1.2c0.1,0,0.2,0,0.2,0c1.6,0.1,3-0.8,3.6-2.3c0.6-1.5,0.1-3.2-1.1-4.1
		c-1.2-1-3-1-4.2-0.1c-0.5,0.4-1.3,0.4-1.7-0.1c0-0.1-0.1-0.1-0.1-0.2l-8.7-10.8c-0.5-0.5-0.5-1.2,0-1.7c0.1-0.1,0.1-0.1,0.2-0.1
		C237.8,68.5,238.2,67.8,238.3,67z"/>
	<path class="st4" d="M57.9,145.1c0-0.8,0.2-1.6,0.6-2.3c1.2-2.3,4.1-3.2,6.4-1.9c2,1.1,3,3.4,2.3,5.5c-0.1,0.2,0,0.3,0.1,0.4
		c1.9,1.8,2,4.8,0.2,6.7c-1.3,1.4-3.3,1.8-5.1,1.2c-1-0.4-1.8-1-2.4-1.9l-0.1-0.2l-0.1-0.1l-0.2,0.1l-8.8,2.3
		c-0.2,0-0.3,0.2-0.3,0.3c0,0,0,0,0,0c-0.1,2.6-2.3,4.7-4.9,4.6c-2.6-0.1-4.7-2.3-4.6-4.9c0-0.4,0.1-0.8,0.2-1.2
		c0.1-0.1,0-0.3-0.1-0.4c-1.9-1.8-2-4.8-0.2-6.7c1.3-1.4,3.3-1.8,5.1-1.2c1,0.4,1.9,1.1,2.5,2c0.1,0.1,0.2,0.2,0.3,0.1L57.9,145.1
		L57.9,145.1z M62.4,152.6c1.3,0.9,3.1,0.5,4-0.9c0.8-1.3,0.4-3.1-0.9-3.9c-0.5-0.3-0.7-0.9-0.4-1.3c0,0,0-0.1,0.1-0.1
		c0.6-1.1,0.4-2.5-0.5-3.4c-0.9-0.9-2.2-1.1-3.3-0.5c-1.1,0.6-1.7,1.8-1.5,3c0.1,0.5-0.2,1.1-0.7,1.2c0,0-0.1,0-0.1,0l-10.7,2.8
		c-0.5,0.2-1.1-0.1-1.3-0.6c0,0,0-0.1,0-0.1c-0.4-1.2-1.5-2-2.8-1.9c-1.6,0-2.8,1.4-2.8,2.9c0,0.9,0.5,1.8,1.3,2.3
		c0.5,0.2,0.7,0.9,0.4,1.3c0,0,0,0.1-0.1,0.1c-0.7,1.4-0.2,3.1,1.2,3.9c0.8,0.5,1.8,0.5,2.7,0c1.1-0.6,1.7-1.8,1.5-3
		c-0.1-0.5,0.2-1.1,0.7-1.2c0,0,0.1,0,0.1,0l10.7-2.8c0.5-0.2,1.1,0.1,1.3,0.6c0,0,0,0,0,0.1C61.5,151.7,61.9,152.3,62.4,152.6z"/>
</g>
<path class="st9" d="M198.9,183.9c-0.3-0.1-0.7-0.2-1-0.2c-3.4,0.3-6.8,0.8-10.2,1c-2.9,0.1-5.9,0-8.8-0.1c-2.5-0.1-5-0.3-7.5-0.7
	c-4.9-0.7-9.8-1-14.4-3.2c-1.9-0.9-4.1-0.9-6.1-1.3c-0.4-0.1-0.8,0.3-1.2,0.5c-2.5,1.5-4.9,3.2-7.4,4.6c-4.3,2.4-8.7,4.5-13.7,4.9
	c-2.9,0.3-5.8,1-8.8,1.1c-2.6,0.2-5.3,0.1-7.8-0.2c-4.2-0.7-8.4-1.9-12.6-2.6c-3-0.5-5.8-1.7-8.2-3.5c-1.7-1.3-1.6-2.7-0.2-4.3
	c3-3.3,7.2-4.6,11-6.5c2.1-1.1,4.4-1.9,7-2.9c-0.9-0.3-1.2-0.5-1.6-0.6c-5.7-1.5-11-4.2-15.5-8c-3.8-3.2-7.5-6.6-11.3-9.9
	c-7.4-6.6-13.3-14.5-19.4-22.2c-0.7-1.2-2.2-1.7-3.5-1c-2.2,0.8-4.4,1.4-6.7,1.9c-3.3,0.6-6.6,1.1-9.9,1.4c-2.1,0.2-4.1,0-6.2-0.4
	c-3.5-0.8-6.9-1.8-10.3-2.9c-2.9-0.8-5.8-2-8.6-3.3c-3-1.6-5.9-3.5-7.3-6.9c-1.1-2.5-0.9-3.5,1.6-4.6c1-0.5,2.1-0.8,3.3-0.8
	c4.2-0.3,8.3-1.6,12-3.6c3-1.6,5.9-3.2,9-4.6c1.9-0.9,3.8-1.6,6-0.8c0.6,0.1,1.1,0.1,1.7-0.1c0.5-2.6,1-4.9,1.3-7.1s1-4.5,0.7-6.6
	c-0.5-2.9-2-5.7-2.8-8.6c-0.6-2.6-1-5.3-1.1-7.9c-0.1-2.2,2.1-3.8,4.3-3.7c2,0.2,4,0.4,5.9,0.7c4.8,0.6,9.2,2.6,12.8,5.8
	c5.4,4.7,8.8,10.8,11.8,17c1.7,3.4,2,7.5,2.8,11.3c0.2,1.4,1.1,2.6,2.4,3.2c2.8,1.4,5.8,1.9,8.9,1.6c4.9-0.3,9.8-0.9,14.7-1.8
	c3-0.5,5.9-1.4,8.7-2.4c2.7-0.9,5.3-2.1,7.7-3.7c5.2-3.4,10.1-7.1,15.2-10.7c1.1-0.8,2.3-1.5,3.6-2c3.2-1.3,6.5-2.6,9.7-3.8
	c2.5-0.9,5-1.7,7.5-2.4c2.8-0.8,5.6-1.6,8.5-2c4.2-0.7,8.5-1.3,12.8-1.8c2.7-0.3,5.5-0.4,8.4-0.6c-1.6-2.9-1.6-2.7-4.3-2.3
	c-1.7,0.3-3.5,1.2-5.1-0.7c-1.5-1.6-3.1-3.1-4.9-4.3c-1.3-0.8-2.2-2.1-2.4-3.6c-0.2-2.3,0.9-3.8,2.3-5.4c0.9-0.9,1.7-2,2.4-3.1
	c2.1-4,6.7-5.9,11-4.4c1.8,0.7,3.5,1.4,5.3-0.1c1.2-1.2,3-1.8,4.7-1.5c4.7,0.8,7.8,3.7,9.8,7.8c0.9,1.8,2.1,3.5,3.5,5.1
	c2,2.4,1.2,5.1,0.5,7.7c-0.5,1.9-2.4,2.1-4.1,2.3c-2.5,0.3-5.2,0.4-7.1,2.5c5-0.5,10.1,0,14.9,1.5c4.1,1.2,8.1,2.6,12.1,4.2
	c3,1.1,5.7,2.6,8.3,4.5c3.7,3.2,7,6.9,10.4,10.4c4.3,4.3,7.3,9.5,10.1,14.8c2.9,5.5,4.9,11.3,4,17.8c-0.3,3.2-1.6,6.3-3.7,8.7
	c-2.5,2.7-5.4,4.9-8.2,7.4c1.5,0.8,3.1,1.6,4.5,2.5c1,0.6,1.9,1.5,2.5,2.5c1.6,2.9,0.3,5.6-1.3,8.1c-2.2,3.4-5.5,5.7-8.9,7.7
	c-3.1,2-6.2,3.7-9.5,5.3c-3.4,1.6-6.9,2.7-10.5,4c-2.6,0.9-5.3,1.6-7.9,2.5s-4.9,1.7-7.4,2.6L198.9,183.9z M229.5,158.7
	c5.1-0.9,10-2.5,14.6-4.7c0.5-0.2,1.3,0.1,2,0.2c-0.1,0.7,0,1.9-0.3,2c-2.3,1.3-4.7,2.3-7.1,3.1c-3.6,1.1-7.3,2-11,2.7
	c-3,0.4-6,0.6-9,0.4c-4.1-0.2-8.2-0.8-12.3-1.2c-2.3-0.2-4.6-0.2-6.9-0.3c-0.4,0-0.9-0.1-1.2-0.3c-1-0.7-2.4-0.5-3.2,0.5
	c0,0,0,0,0,0c-0.2,0.2-0.4,0.5-0.7,0.7c-1.5,1-3,0.4-2.8-1.4c0.3-1.8,0.9-3.5,1.6-5.1c0.5-1,1-2.1,1.4-3.2c0.2-1,0.5-1.8,1.4-1.4
	s1.3,1.3,1.8,2c0.1,0.1-0.1,0.4-0.2,0.7c-0.6,2.4,0,3.1,2.4,3.4c6.8,1,13.2-0.6,19.5-2.8c6.6-2.3,13.2-4.6,19.7-7.4
	c4.1-1.8,7.7-4.5,10.8-7.7c3.4-3.4,5-8.2,4.2-12.9c-0.5-3.3-1.5-6.5-3.1-9.4c-2.6-4.8-5.8-9.2-8.9-13.7c-2.7-4-6.3-7.2-9.8-10.4
	c-3.9-3.5-8.4-6.1-13.4-7.7c-6.1-2.1-12.3-4.4-19-3.9c-0.5,0-1-0.2-1.5-0.2c-1,0-1.7,0.4-1.5,1.7c0.3,1.7,0,3.6,2.6,3.8
	c0.9,0.3,1.7,1.1,1.9,2c0.1,1.2-0.6,2.4-1.7,3c-3.7,2.4-7.6,2.5-11.6,1.3c-0.9-0.4-1.7-1.1-2.1-2c-0.5-1-0.3-2,1.3-2.1
	c0.3,0,0.8-0.6,0.9-0.9c0.1-0.8,0.1-1.6,0.1-2.4c0.3-3.3-0.6-4.2-3.8-4c-5.5,0.4-11,0.7-16.5,1.6c-4,0.6-7.9,2.1-11.8,3.3
	c-3.7,1.1-7.5,2.2-11.1,3.6c-3.5,1.5-6.9,3.3-10.2,5.2c-3.5,2-6.9,4.3-10.2,6.6c-1.8,1.3-3.4,2.8-5.2,4.2c-3.2,2.6-7,4.5-11.1,5.4
	c-3,0.6-6,1.2-9,1.6c-6.8,0.9-13.7,0.4-20.3-1.5c-2.9-0.9-5.7-1.9-8.4-3.2c-0.9-0.4-2.2-1.1-1.4-2.2c0.5-0.7,2-0.8,3-0.7
	c1.1,0.2,2.1,0.6,3.1,1.1c-0.2-2.5,0-4.8-0.4-6.8c-1.4-6-4.6-11.5-9.1-15.8c-4-3.8-8.1-7.9-13.5-9.6c-2.6-0.6-5.2-0.7-7.8-0.1
	c-0.7,0.1-1.5,2.7-1.3,4.1c0.2,1.9,0.8,3.7,1.8,5.2c3,4.8,3.7,9.6,1.5,14.8c-0.3,0.7-0.6,1.5-0.7,2.3c-0.5,3.9,0.3,5.1,4.5,7
	l-0.7,2.2c-1.5-0.6-2.8-1.1-4.2-1.6c-3.8-1.3-8-1-11.5,0.8c-3.6,1.8-7.1,3.8-10.8,5.2c-2.9,1-6.1,1.1-9.1,1.6c-0.4,0-0.9,0-1.3,0.1
	c-0.4,0.2-1,0.5-1.2,0.9c-0.1,0.5,0.1,1,0.4,1.4c2.5,1.8,5.2,3.5,8,5c3.5,1.7,7.2,3.1,11,4.2c3,0.8,6.1,1.1,9.3,0.9
	c5.6-0.3,11.1-1.4,16.3-3.3c1.4-0.6,2.9-1,4.5-1.3c0.7-0.1,1.4,0.2,1.9,0.8c4,7,8.9,13.4,14.5,19.2c5,5.4,10.2,10.6,16.3,14.7
	c4.5,3,9.3,5.6,14,8.2c1.6,0.8,3.4,1.3,5.2,1.6c0.9,0,1.8-0.4,2.4-1.1c0.9-1.2,2.2-2,3.6-2.4c1.2-0.3,2.2-1.5,3.3-2
	c2-1,4.1-1.9,6.2-2.6c2.1-0.6,2.2-0.4,2.6,1.6c-3.4,1.9-6.9,3.6-10.2,5.6c-2.4,1.5-4.6,3.4-7,4.9c-2,1.1-4,2-6.2,2.6
	c-1.7,0.6-3.6,1-5.4,1.4l0.1,0.5c0.7-0.2,1.3-0.2,2-0.2c0.6,0.1,1.1,0.3,1.7,0.6l0.1,0.5c-0.7,0.3-1.5,0.6-2.3,0.8
	c-2.4,0.5-4.9,0.9-7.3,1.4c-0.7,0.3-1.4,0.7-2,1.2v0.7c3,0.9,5.9,2,8.9,2.8c2.5,0.8,5.1,1.3,7.7,1.5c5.1,0.2,10.2,0.7,15.2-1
	c0.7-0.2,1.5-0.4,2.3-0.4c3.5-0.1,6.4-1.8,9.4-3.1c2.6-1.3,5.2-2.7,7.6-4.2c2.6-1.6,4.1-4.2,5.6-6.7c0.1-0.4,0.2-0.8,0.2-1.3
	c0.2-1,0.4-2,0.6-3.3c3,2.1,2.8,7,0,9.8c7,2.2,13.7,5.2,21.1,5.6c3.3,0.2,6.7,0.2,10,0c5-0.4,10-0.9,15-1.7c6.2-1,12.5-2.3,18.6-3.8
	c3.3-0.8,6.3-2.4,9.5-3.4c5.1-1.6,9.5-4.4,14-7.3c2.4-1.5,4.9-2.9,7.2-4.6c2.9-2.3,3.2-5,1.3-8.1c-2.8-4.5-4.9-4.2-9.5-2.4
	c-4.1,1.6-8.1,3.5-12.2,5.2c-3.5,1.5-7,2.9-10.5,4.3l-0.1,0.3C220.8,159.6,225.2,159.4,229.5,158.7z M177.4,70.7
	c0.9-0.1,2.2,0.4,1.3,2.1c-0.5,0.9,0.1,1.5,1.1,1.3c1-0.2,1.9-0.5,2.9-0.9c1.2-0.5,2.5-1.4,3,0.9c0.1,0.5,0.8,1,1.2,1.5
	c2.9,3.7,4.3,8.4,3.9,13.1c-0.1,1.2,0.3,2.2,1.8,2.1c1.2-0.1,2.4-0.3,3.8-0.5c-1-5.8-2.8-11.3-0.1-17.2l1.6,1.9
	c1-1.9,2.5-1.7,4.2-1.1c2.3,0.9,4.2,0.4,5.1-1c1.3-1.9,1-4.5-0.8-6c-0.6-0.5-1.7-0.4-2.8-0.6c-0.1-0.5-0.2-1-0.2-1.5
	c0.3-4.8-3.4-9-8.3-9.3c-0.8,0-1.6,0-2.3,0.2c-1.2,0.2-2.2,0.6-2.1,2.2c0,0.6-0.6,1.1-0.9,1.7c-0.6-0.3-1.2-0.6-1.7-1.1
	c-2.7-3.1-9.8-2.5-12,1.1c-0.5,0.8-0.2,1.3,0.6,1.8c0.5,0.4,1,0.9,1.4,1.4c-0.6,0.3-1.4,1.1-1.9,1c-2.2-0.8-3.2,0.4-4,2.1
	c-0.1,0.3-0.5,0.5-0.8,0.8C172.8,69,174.2,71.1,177.4,70.7L177.4,70.7z"/>
<path class="st9" d="M168.1,70.2c-0.5-0.9-0.8-1.2-1-1.7c-1.1-2.1-6.5-4.1-8.3-2.9c-0.8,0.5-1.7,1.5-1.7,2.2
	c0.1,1.2,1.1,2.2,2.4,2.1C162.2,70.1,165.1,70.1,168.1,70.2z"/>
<path class="st9" d="M208.1,56.7L213,56c1.4-0.2,2.7-0.6,2.7-2.3c0-1.1-2.5-2.5-3.8-2.2C209.6,52.1,208,54.3,208.1,56.7z"/>
<path class="st9" d="M179.4,149.6c-1.3,0.7-2.9,1.1-3.8,2.1c-3.5,3.9-11.8,2.2-12.7-3.5c-0.2-1.5,0-3.6-2.2-4.2
	c-0.1,0-0.2-0.4-0.4-0.9c2.6,0.5,3.6-1.2,4.8-2.8c2-2.4,5.2-3.3,8.2-2.4c1.9,0.8,4.8,5.3,4.6,7.3c-0.1,1.4-0.6,2.8,1.4,3.3
	c0.3,0.1,0.4,1.1,0.5,1.6L179.4,149.6z M164,147.7c0.5,2.7,3.9,4.9,7,4.4c3.5-0.6,5.9-3.9,5.3-7.4c0,0,0-0.1,0-0.1
	c-0.5-2.8-3.6-5.9-5.5-5.2C166.2,140,163.3,143.4,164,147.7z"/>
<path class="st9" d="M191.9,89.8c2.4-3.5,1-7.1,1-10.7l-0.5-0.3c-0.3,0.3-0.9,0.7-1,1.1c-0.1,0.8-0.1,1.6-0.1,2.4
	c0,1.9,0,3.8,0.1,5.8C191.5,88.7,191.7,89.3,191.9,89.8z"/>
<path class="st9" d="M199.2,64.6c2.3,3.6-1.2,5.2-2.4,7.6l0.5,0.4c0.9-0.5,2.1-0.8,2.5-1.5c0.8-1.4,2-2.8,1.8-4.7
	C201.5,65.4,201.4,64.1,199.2,64.6z"/>
<path class="st9" d="M188.3,70.4c-0.2-0.5-0.4-1.1-0.6-1.5c-0.8-1-1.9-1.9-1.3-3.5c0.1-0.2-0.5-0.8-0.9-1.1c-0.3,0-0.6,0.1-0.8,0.3
	c-0.1,0.4-0.1,0.8,0,1.1c0.9,1.7,1.9,3.4,2.9,5L188.3,70.4z"/>
<path class="st9" d="M180.4,68.3c1.2,2.4,1.3,2.4,3.1,2.2C182.8,69.4,182.4,68.1,180.4,68.3z"/>
<path class="st9" d="M169.9,147.4l-3.6,0.5c0.4,0.7,0.5,1.6,1,1.9c1.7,1.3,5.1,0.2,6.4-1.9c0.9-1.5,0-4.2-2.2-5
	c-0.5-0.2-1-0.5-1.4-0.4c-1,0.1-2,0.5-2.8,1.1c-0.9,1,0.4,1.2,1,1.7C168.9,146,169.5,146.7,169.9,147.4z"/>
</svg>
