<?xml version="1.0" encoding="utf-8"?>
<!-- Generator: Adobe Illustrator 26.0.3, SVG Export Plug-In . SVG Version: 6.00 Build 0)  -->
<svg version="1.1" id="Layer_1" xmlns="http://www.w3.org/2000/svg" xmlns:xlink="http://www.w3.org/1999/xlink" x="0px" y="0px"
	 viewBox="0 0 346.8 263.5" style="enable-background:new 0 0 346.8 263.5;" xml:space="preserve">
<style type="text/css">
	.st0{opacity:5.000000e-02;}
	.st1{fill:#084DBC;}
</style>
<g class="st0">
	<path class="st1" d="M79.6,177.2c5-2.5,8.5-7.3,9.4-12.8c0.9,5.5,4.4,10.3,9.4,12.8c1.1,0.4,2.2,0.8,3.3,1.1
		c-1.1,0.3-2.2,0.7-3.3,1.1c-5,2.5-8.5,7.3-9.4,12.8c-0.9-5.5-4.4-10.3-9.4-12.8c-1.1-0.4-2.2-0.8-3.3-1.1
		C77.4,178,78.5,177.7,79.6,177.2z"/>
	<path class="st1" d="M245.1,143.6c8.2-3.9,14.2-12,15.9-21.7c1.7,9.7,7.7,17.7,15.9,21.7c1.8,0.7,3.7,1.4,5.6,1.9
		c-1.9,0.5-3.8,1.2-5.6,1.9c-8.2,3.9-14.2,12-15.9,21.7c-1.7-9.7-7.7-17.7-15.9-21.7c-1.8-0.7-3.7-1.4-5.6-1.9
		C241.4,145,243.3,144.3,245.1,143.6z"/>
	<path class="st1" d="M153.5,40.6c11.3-5.4,19.5-16.4,21.8-29.7c2.3,13.3,10.5,24.3,21.8,29.7c2.5,1,5.1,1.9,7.7,2.7
		c-2.6,0.8-5.1,1.6-7.7,2.7c-11.3,5.4-19.5,16.4-21.8,29.7C173,62.4,164.8,51.4,153.5,46c-2.5-1-5.1-1.9-7.7-2.7
		C148.5,42.5,151,41.6,153.5,40.6z"/>
	<circle class="st1" cx="165.9" cy="121.9" r="5.8"/>
	<circle class="st1" cx="334.8" cy="124.8" r="5.8"/>
	<circle class="st1" cx="294.4" cy="221.6" r="5.8"/>
	<circle class="st1" cx="145.7" cy="250.4" r="5.8"/>
	<circle class="st1" cx="15.7" cy="146.5" r="5.8"/>
	<path class="st1" d="M286.7,68.9c0.4,1.4,0.4,2.9,0.1,4.4c-1.1,4.7-5.9,7.6-10.5,6.4c-4-1-6.8-4.7-6.7-8.8c0-0.3-0.1-0.6-0.4-0.7
		c-4.2-2.4-5.7-7.7-3.3-11.9c1.7-3,5-4.7,8.4-4.4c2,0.2,3.8,1,5.2,2.4l0.3,0.3l0.1,0.1c0.1-0.1,0.3-0.1,0.4-0.2
		c4.8-2.7,9.7-5.4,14.5-8.1c0.3-0.1,0.5-0.4,0.4-0.7l0,0c-1-4.7,2-9.4,6.7-10.4s9.4,2,10.4,6.7c0.2,0.7,0.2,1.5,0.2,2.2
		c-0.1,0.3,0.1,0.6,0.4,0.7c4.2,2.4,5.7,7.7,3.4,11.9c-1.7,3-5,4.8-8.4,4.4c-2-0.2-3.9-1-5.3-2.5c-0.2-0.2-0.3-0.3-0.6-0.1
		c-5,2.8-9.9,5.6-14.9,8.3L286.7,68.9z M275.2,57.6c-2.8-0.9-5.8,0.6-6.7,3.4c-0.8,2.7,0.7,5.7,3.4,6.6c1,0.2,1.6,1.1,1.4,2.1
		c0,0.1-0.1,0.2-0.1,0.3c-0.7,2.8,1,5.6,3.8,6.3c1.7,0.4,3.5,0,4.8-1.2c1.7-1.5,2.2-4,1.2-6c-0.5-0.8-0.3-1.9,0.6-2.4
		c0.1-0.1,0.2-0.1,0.3-0.1l17.7-9.9c0.8-0.6,1.9-0.4,2.5,0.4c0.1,0.1,0.1,0.2,0.2,0.3c1.2,1.9,3.6,2.8,5.8,2.1
		c2.8-0.8,4.4-3.7,3.6-6.5c-0.5-1.7-1.8-3-3.4-3.5c-1-0.2-1.6-1.1-1.4-2.1c0-0.1,0.1-0.2,0.1-0.4c0.5-2.3-0.5-4.6-2.4-5.8
		c-2-1.1-4.4-0.9-6.1,0.6s-2.2,4-1.2,6.1c0.5,0.8,0.3,1.9-0.5,2.4c-0.1,0.1-0.2,0.1-0.3,0.2l-17.7,9.9c-0.8,0.6-1.9,0.4-2.4-0.4
		c-0.1-0.1-0.1-0.2-0.2-0.3C277.2,58.7,276.3,58,275.2,57.6z"/>
	<path class="st1" d="M182,204.5c-1.1,1-2.4,1.8-3.8,2.1c-4.7,1.1-9.4-1.7-10.5-6.4c-0.9-3.9,0.9-8,4.5-9.8c0.3-0.1,0.5-0.4,0.5-0.7
		c0.1-4.8,4.1-8.7,8.9-8.6c3.4,0.1,6.5,2.1,7.9,5.3c0.8,1.8,0.9,3.8,0.4,5.7l-0.1,0.4v0.1l0.4,0.3c4.7,3,9.3,5.9,14,8.9
		c0.2,0.2,0.6,0.2,0.8,0l0,0c3.7-3.1,9.2-2.7,12.3,1s2.7,9.2-1,12.3c-0.6,0.5-1.2,0.9-1.8,1.2c-0.3,0.1-0.5,0.4-0.4,0.6
		c-0.1,4.8-4,8.7-8.8,8.6c-3.5,0-6.6-2.1-7.9-5.3c-0.8-1.8-0.9-3.9-0.3-5.8c0.1-0.3,0.1-0.4-0.2-0.6c-4.8-3.1-9.6-6.1-14.4-9.2
		C182.1,204.6,182,204.5,182,204.5z M186.5,189c-0.5-2.9-3.3-4.8-6.2-4.3c-2.8,0.6-4.7,3.3-4.2,6.1c0.3,0.9-0.2,1.9-1.1,2.2
		c-0.1,0-0.2,0.1-0.3,0.1c-2.8,0.7-4.5,3.6-3.8,6.4c0.4,1.7,1.7,3.1,3.3,3.6c2.1,0.8,4.5,0,5.9-1.8c0.5-0.8,1.6-1.1,2.4-0.6
		c0.1,0,0.2,0.1,0.2,0.2l17.1,10.9c0.9,0.4,1.3,1.5,0.8,2.4c0,0.1-0.1,0.2-0.1,0.3c-1.1,2-0.8,4.5,0.8,6.1c2,2.1,5.3,2.2,7.4,0.2
		c1.3-1.2,1.8-3,1.5-4.8c-0.3-0.9,0.2-1.9,1.2-2.2c0.1,0,0.2-0.1,0.3-0.1c2.8-0.7,4.5-3.6,3.8-6.4c-0.4-1.7-1.7-3-3.3-3.6
		c-2.2-0.8-4.6-0.1-5.9,1.8c-0.5,0.8-1.6,1.1-2.4,0.6c-0.1,0-0.2-0.1-0.2-0.2L186.6,195c-0.9-0.4-1.3-1.5-0.8-2.3
		c0-0.1,0.1-0.2,0.2-0.3C186.5,191.3,186.7,190.2,186.5,189z"/>
	<path class="st1" d="M74.7,68.5c-1.1-1-1.9-2.3-2.4-3.7c-1.5-4.6,0.9-9.5,5.5-11c3.9-1.3,8.2,0.3,10.3,3.9c0.1,0.3,0.4,0.4,0.7,0.4
		c4.8-0.2,8.9,3.5,9.1,8.3c0.1,3.4-1.7,6.6-4.7,8.1c-1.7,0.9-3.7,1.2-5.7,0.8l-0.4-0.1H87c-0.1,0.1-0.2,0.3-0.2,0.4
		c-2.6,4.9-5.3,9.7-8,14.6c-0.2,0.2-0.2,0.6,0.1,0.8l0,0c3.4,3.4,3.3,9-0.1,12.3c-3.4,3.4-9,3.3-12.3-0.1c-0.5-0.5-1-1.1-1.3-1.7
		c-0.1-0.3-0.4-0.4-0.7-0.4c-4.8,0.2-8.9-3.5-9.2-8.3c-0.2-3.4,1.7-6.7,4.8-8.2c1.8-0.9,3.8-1.2,5.8-0.7c0.3,0.1,0.4,0.1,0.6-0.2
		c2.7-5,5.4-10,8.2-15C78.8,61.2,74.7,68.6,74.7,68.5z M90.5,71.9c2.8-0.7,4.6-3.6,3.9-6.5c-0.8-2.8-3.6-4.4-6.4-3.7
		c-0.9,0.4-1.9-0.1-2.3-1c0-0.1-0.1-0.2-0.1-0.3c-0.7-2.2-2.8-3.6-5.1-3.6c-2.3,0.1-4.3,1.6-4.9,3.9c-0.6,2.2,0.3,4.5,2.2,5.7
		c0.9,0.4,1.3,1.5,0.8,2.4c0,0.1-0.1,0.2-0.2,0.3l-9.7,17.7c-0.4,0.9-1.4,1.3-2.3,1c-0.1,0-0.2-0.1-0.3-0.1c-2.1-1-4.5-0.5-6,1.2
		c-1.9,2.2-1.8,5.5,0.4,7.4c1.3,1.2,3.1,1.6,4.8,1.2c0.9-0.4,1.9,0.1,2.3,1c0,0.1,0.1,0.2,0.1,0.3c0.7,2.2,2.8,3.6,5.1,3.6
		c2.3-0.1,4.2-1.6,4.9-3.8c0.7-2.2-0.2-4.6-2.2-5.8c-0.9-0.4-1.3-1.5-0.8-2.3c0-0.1,0.1-0.2,0.2-0.3l9.7-17.8c0.4-0.9,1.4-1.3,2.3-1
		c0.1,0,0.2,0.1,0.3,0.1C88.2,72.1,89.4,72.2,90.5,71.9L90.5,71.9z"/>
</g>
</svg>
