<svg id="Layer_1" data-name="Layer 1" xmlns="http://www.w3.org/2000/svg" xmlns:xlink="http://www.w3.org/1999/xlink" viewBox="0 0 115 115"><defs><style>.cls-1{fill:url(#linear-gradient);}.cls-2{fill:#e2761b;stroke:#e2761b;}.cls-10,.cls-11,.cls-2,.cls-3,.cls-4,.cls-5,.cls-6,.cls-7,.cls-8,.cls-9{stroke-linecap:round;stroke-linejoin:round;}.cls-3{fill:#e4761b;stroke:#e4761b;}.cls-4{fill:#d7c1b3;stroke:#d7c1b3;}.cls-5{fill:#233447;stroke:#233447;}.cls-6{fill:#cd6116;stroke:#cd6116;}.cls-7{fill:#e4751f;stroke:#e4751f;}.cls-8{fill:#f6851b;stroke:#f6851b;}.cls-9{fill:#c0ad9e;stroke:#c0ad9e;}.cls-10{fill:#161616;stroke:#161616;}.cls-11{fill:#763d16;stroke:#763d16;}.cls-12{fill:#ffc843;}.cls-13{fill:#d38700;}.cls-14{opacity:0.1;}</style><linearGradient id="linear-gradient" x1="1.82" y1="57.5" x2="101.28" y2="57.5" gradientUnits="userSpaceOnUse"><stop offset="0" stop-color="#eef3ff"/><stop offset="0.43" stop-color="#eef3ff"/><stop offset="1" stop-color="#fff"/></linearGradient></defs><g id="BNB"><circle class="cls-1" cx="51.55" cy="57.5" r="49.73"/><g id="Metamask"><polygon class="cls-2" points="102.51 58.65 83 73.14 86.61 64.59 102.51 58.65"/><polygon class="cls-3" points="57.47 58.65 76.82 73.28 73.39 64.59 57.47 58.65"/><polygon class="cls-3" points="95.49 92.23 90.29 100.2 101.41 103.25 104.61 92.41 95.49 92.23"/><polygon class="cls-3" points="55.41 92.41 58.59 103.25 69.71 100.2 64.51 92.23 55.41 92.41"/><polygon class="cls-3" points="69.08 78.78 65.98 83.47 77.02 83.96 76.63 72.1 69.08 78.78"/><polygon class="cls-3" points="90.9 78.78 83.25 71.96 83 83.96 94.02 83.47 90.9 78.78"/><polygon class="cls-3" points="69.71 100.2 76.33 96.96 70.61 92.49 69.71 100.2"/><polygon class="cls-3" points="83.65 96.96 90.29 100.2 89.37 92.49 83.65 96.96"/><polygon class="cls-4" points="90.29 100.2 83.65 96.96 84.18 101.29 84.12 103.12 90.29 100.2"/><polygon class="cls-4" points="69.71 100.2 75.88 103.12 75.84 101.29 76.33 96.96 69.71 100.2"/><polygon class="cls-5" points="75.98 89.63 70.45 88 74.35 86.22 75.98 89.63"/><polygon class="cls-5" points="84 89.63 85.63 86.22 89.55 88 84 89.63"/><polygon class="cls-6" points="69.71 100.2 70.65 92.23 64.51 92.41 69.71 100.2"/><polygon class="cls-6" points="89.35 92.23 90.29 100.2 95.49 92.41 89.35 92.23"/><polygon class="cls-6" points="94.02 83.47 83 83.96 84.02 89.63 85.65 86.22 89.57 88 94.02 83.47"/><polygon class="cls-6" points="70.45 88 74.37 86.22 75.98 89.63 77.02 83.96 65.98 83.47 70.45 88"/><polygon class="cls-7" points="65.98 83.47 70.61 92.49 70.45 88 65.98 83.47"/><polygon class="cls-7" points="89.57 88 89.37 92.49 94.02 83.47 89.57 88"/><polygon class="cls-7" points="77.02 83.96 75.98 89.63 77.28 96.31 77.57 87.51 77.02 83.96"/><polygon class="cls-7" points="83 83.96 82.47 87.49 82.71 96.31 84.02 89.63 83 83.96"/><polygon class="cls-8" points="84.02 89.63 82.71 96.31 83.65 96.96 89.37 92.49 89.57 88 84.02 89.63"/><polygon class="cls-8" points="70.45 88 70.61 92.49 76.33 96.96 77.28 96.31 75.98 89.63 70.45 88"/><polygon class="cls-9" points="84.12 103.12 84.18 101.29 83.69 100.86 76.29 100.86 75.84 101.29 75.88 103.12 69.71 100.2 71.86 101.96 76.23 105 83.75 105 88.14 101.96 90.29 100.2 84.12 103.12"/><polygon class="cls-10" points="83.65 96.96 82.71 96.31 77.28 96.31 76.33 96.96 75.84 101.29 76.29 100.86 83.69 100.86 84.18 101.29 83.65 96.96"/><polygon class="cls-11" points="103.33 74.08 105 66.08 102.51 58.65 83.65 72.65 90.9 78.78 101.16 81.78 103.43 79.14 102.45 78.43 104.02 77 102.8 76.06 104.37 74.86 103.33 74.08"/><polygon class="cls-11" points="55 66.08 56.67 74.08 55.61 74.86 57.18 76.06 55.98 77 57.55 78.43 56.57 79.14 58.82 81.78 69.08 78.78 76.33 72.65 57.47 58.65 55 66.08"/><polygon class="cls-8" points="101.16 81.78 90.9 78.78 94.02 83.47 89.37 92.49 95.49 92.41 104.61 92.41 101.16 81.78"/><polygon class="cls-8" points="69.08 78.78 58.82 81.78 55.41 92.41 64.51 92.41 70.61 92.49 65.98 83.47 69.08 78.78"/><polygon class="cls-8" points="83 83.96 83.65 72.65 86.63 64.59 73.39 64.59 76.33 72.65 77.02 83.96 77.25 87.53 77.28 96.31 82.71 96.31 82.75 87.53 83 83.96"/></g><circle class="cls-12" cx="35" cy="35" r="25"/><circle class="cls-13" cx="35" cy="35" r="20.83"/><path class="cls-12" d="M27.79,40.29,34.52,47a.69.69,0,0,0,1,0L42.2,40.3a.67.67,0,0,0,0-1l-1.86-1.87a.69.69,0,0,0-1,0l-3.9,3.9a.68.68,0,0,1-1,0l-4-3.91a.68.68,0,0,0-1,0l-1.8,1.86A.68.68,0,0,0,27.79,40.29Z"/><path class="cls-12" d="M27.79,29.71,34.52,23a.69.69,0,0,1,1,0L42.2,29.7a.67.67,0,0,1,0,1l-1.86,1.87a.69.69,0,0,1-1,0l-3.9-3.9a.68.68,0,0,0-1,0l-4,3.91a.68.68,0,0,1-1,0l-1.8-1.86A.68.68,0,0,1,27.79,29.71Z"/><path class="cls-12" d="M23,35.48l1.86,1.86a.68.68,0,0,0,1,0l1.86-1.86a.69.69,0,0,0,0-1L25.8,32.66a.67.67,0,0,0-1,0L23,34.52A.67.67,0,0,0,23,35.48Z"/><path class="cls-12" d="M32.66,35.48l1.86,1.86a.67.67,0,0,0,1,0l1.86-1.86a.67.67,0,0,0,0-1l-1.86-1.86a.67.67,0,0,0-1,0l-1.86,1.86A.67.67,0,0,0,32.66,35.48Z"/><path class="cls-12" d="M42.33,35.48l1.86,1.86a.68.68,0,0,0,1,0L47,35.48a.69.69,0,0,0,0-1l-1.87-1.86a.67.67,0,0,0-1,0l-1.86,1.86A.69.69,0,0,0,42.33,35.48Z"/><path d="M76.09,38.35c.68.39,1.38.74,2,1.18a16.8,16.8,0,0,1,7.64,13.69,1.49,1.49,0,0,0,0,.21l0,0,1.63-1.28.28-.23c.74-.57,1.28-.39,1.5.51l-.16.4-3.69,2.91a.8.8,0,0,1-1.3-.16l-2.73-3.46a.77.77,0,0,1-.1-.91.68.68,0,0,1,.8-.36,1.13,1.13,0,0,1,.55.37c.52.63,1,1.28,1.56,2a1,1,0,0,0,0-.27A15.08,15.08,0,0,0,77,40.65a14.79,14.79,0,0,0-12.35-1.77c-.63.18-1.07,0-1.17-.53a.75.75,0,0,1,.62-.91A16.31,16.31,0,0,1,70,36.77a16.09,16.09,0,0,1,3.83.72,2.33,2.33,0,0,0,.28,0Z"/><path class="cls-14" d="M82,28.73c1,.59,2.06,1.12,3,1.79A25.2,25.2,0,0,1,96.54,51.07c0,.11,0,.22,0,.33l.09.07,2.45-1.92.42-.34c1.1-.87,1.92-.59,2.25.76l-.25.6L96,55a1.2,1.2,0,0,1-2-.25l-4.1-5.2a1.15,1.15,0,0,1-.15-1.37,1,1,0,0,1,1.2-.54,1.75,1.75,0,0,1,.82.56c.79.94,1.53,1.92,2.35,3a1.85,1.85,0,0,0,0-.4c-.55-8-4.1-14.23-10.85-18.51A22.16,22.16,0,0,0,64.8,29.54c-.95.26-1.61-.05-1.76-.81A1.16,1.16,0,0,1,64,27.36a24.85,24.85,0,0,1,14.6.08,2.84,2.84,0,0,0,.42.08Z"/></g></svg>