<svg id="Layer_1" data-name="Layer 1" xmlns="http://www.w3.org/2000/svg" xmlns:xlink="http://www.w3.org/1999/xlink" viewBox="0 0 115 115"><defs><style>.cls-1{fill:url(#linear-gradient);}.cls-2{fill:#ffc843;}.cls-3{fill:#d38700;}</style><linearGradient id="linear-gradient" x1="1.82" y1="57.5" x2="101.28" y2="57.5" gradientUnits="userSpaceOnUse"><stop offset="0" stop-color="#eef3ff"/><stop offset="0.43" stop-color="#eef3ff"/><stop offset="1" stop-color="#fff"/></linearGradient></defs><g id="BNB"><circle class="cls-1" cx="51.55" cy="57.5" r="49.73"/><circle class="cls-2" cx="73.18" cy="60.83" r="37.84"/><circle class="cls-3" cx="73.18" cy="60.83" r="31.54"/><path class="cls-2" d="M62.28,68.85,72.46,79a1,1,0,0,0,1.45,0L84.08,68.86a1,1,0,0,0,0-1.46l-2.82-2.82a1,1,0,0,0-1.45,0l-5.91,5.9a1,1,0,0,1-1.45,0l-6-5.9a1,1,0,0,0-1.45,0L62.26,67.4A1,1,0,0,0,62.28,68.85Z"/><path class="cls-2" d="M62.28,52.82,72.46,42.64a1,1,0,0,1,1.45,0L84.08,52.81a1,1,0,0,1,0,1.45l-2.82,2.83a1,1,0,0,1-1.45,0l-5.91-5.9a1,1,0,0,0-1.45,0l-6,5.91a1,1,0,0,1-1.45,0l-2.74-2.82A1,1,0,0,1,62.28,52.82Z"/><path class="cls-2" d="M55,61.56l2.82,2.82a1,1,0,0,0,1.46,0l2.81-2.82a1,1,0,0,0,0-1.45l-2.82-2.82a1,1,0,0,0-1.45,0L55,60.11A1,1,0,0,0,55,61.56Z"/><path class="cls-2" d="M69.64,61.56l2.82,2.82a1,1,0,0,0,1.45,0l2.82-2.82a1,1,0,0,0,0-1.45l-2.82-2.82a1,1,0,0,0-1.45,0l-2.82,2.82A1,1,0,0,0,69.64,61.56Z"/><path class="cls-2" d="M84.28,61.56l2.82,2.82a1,1,0,0,0,1.46,0l2.82-2.82a1,1,0,0,0,0-1.45l-2.82-2.82a1,1,0,0,0-1.46,0l-2.82,2.82A1,1,0,0,0,84.28,61.56Z"/></g></svg>