<svg id="Layer_1" data-name="Layer 1" xmlns="http://www.w3.org/2000/svg" xmlns:xlink="http://www.w3.org/1999/xlink" viewBox="0 0 813 813"><defs><style>.cls-1{fill:none;}.cls-2{fill:url(#linear-gradient);}.cls-3{fill:url(#linear-gradient-2);}.cls-4{clip-path:url(#clip-path);}.cls-5{fill:#fff;}.cls-6{fill:url(#linear-gradient-3);}</style><linearGradient id="linear-gradient" x1="406.5" y1="791.39" x2="406.5" y2="145.12" gradientUnits="userSpaceOnUse"><stop offset="0" stop-color="#690abc"/><stop offset="0.43" stop-color="#084dbc"/><stop offset="1" stop-color="#00c1fc"/></linearGradient><linearGradient id="linear-gradient-2" x1="406.5" y1="823.49" x2="406.5" y2="174.64" xlink:href="#linear-gradient"/><clipPath id="clip-path"><circle class="cls-1" cx="406.5" cy="406.5" r="338.5"/></clipPath><linearGradient id="linear-gradient-3" x1="343.09" y1="823.49" x2="343.09" y2="174.64" xlink:href="#linear-gradient"/></defs><path class="cls-2" d="M406.5,17.29c-214.61,0-389.21,174.6-389.21,389.21S191.89,795.71,406.5,795.71,795.71,621.11,795.71,406.5,621.11,17.29,406.5,17.29ZM764.87,406.5c0,197.61-160.76,358.38-358.37,358.38S48.12,604.11,48.12,406.5,208.89,48.12,406.5,48.12,764.87,208.89,764.87,406.5Z"/><circle class="cls-3" cx="406.5" cy="406.5" r="338.5"/><g class="cls-4"><circle class="cls-5" cx="518.81" cy="360.6" r="298.16"/><path class="cls-6" d="M667.36,345.28c-1.6-9.24-3.92-18.36-6-27.53-1.93-8.71-3.08-9.7-11.61-7.76-16.34,3.72-32.63,7.69-48.89,11.75-6.62,1.65-12.1.91-18.06-3.26-14.25-10-16.2-24-47.16-20.85-2.35.23-5.1-2.56-6.4-4.69C522,281,515.15,268.81,508,256.78c-3.65-6.16-7-12.57-11.51-18.1-4-5-9.14-4.6-13.22.34-2.42,2.94-4.69,9.1-5.81,12.68C474,263,470.9,271.59,467.8,283c-2,7.45-3.12,15.26-6,22.38-8.85,22.11-24.35,42.51-34,64.31-10.94,24.8-12.21,52-17.28,78.69-.09.48-.22.95-.32,1.43a275.87,275.87,0,0,0-50,14.55C210.72,522.92,66,307.87,66,307.87L18.27,592.93S245.11,639.16,370.76,546c-29.84,72.55-52.42,134-52.42,134-30.75,72.3-47.43,106.29-47.43,106.29l277.71,29.55c-2.58-43.6-5.4-83.12-5.4-83.12,78.31-139.81,47.32-192.23,36.89-204.34a19.7,19.7,0,0,0-5.32-34.53c.69-18,1.63-36.06,2.22-54.1.27-8.66,4.19-14,12.09-17.19,9.74-4,19.07-9,28.9-12.71,18.22-6.91,31.41-19.5,42.17-35.21C666.28,365.71,669.21,356,667.36,345.28Z"/><path class="cls-5" d="M71.3,539c4.19.48,46.07,42,182.88,32.28,0,0-62,22.57-178-.63Z"/><path class="cls-5" d="M72.13,321s72.08,107.65,176,142.29c0,0-132.93-71.15-167.57-163.83Z"/><path class="cls-5" d="M120.81,596.21s88.93,16.85,199.4-21.54c0,0-75.83,38.39-195.66,38.39Z"/><path class="cls-5" d="M554.09,505.94s-91.58-64.85-164.48,22.89C389.61,528.83,457.28,461.32,554.09,505.94Z"/><path class="cls-5" d="M198,459.53s79.57,49.61,153.06,19.66C351.1,479.19,274.8,529.74,198,459.53Z"/></g><path class="cls-5" d="M236.89,643a17.45,17.45,0,0,0,9.48-12.88A17.44,17.44,0,0,0,255.84,643a32.34,32.34,0,0,0,3.33,1.16,34.15,34.15,0,0,0-3.33,1.15,17.47,17.47,0,0,0-9.47,12.89,17.48,17.48,0,0,0-9.48-12.89,34.15,34.15,0,0,0-3.33-1.15A32.34,32.34,0,0,0,236.89,643Z"/><circle class="cls-5" cx="255.85" cy="167.92" r="4.81"/><circle class="cls-5" cx="180.02" cy="337.83" r="4.81"/><path class="cls-5" d="M180.14,217.12a33.38,33.38,0,0,0,18.12-24.64,33.42,33.42,0,0,0,18.12,24.64,63.17,63.17,0,0,0,6.36,2.2,64,64,0,0,0-6.36,2.21,33.42,33.42,0,0,0-18.12,24.64,33.38,33.38,0,0,0-18.12-24.64,64.11,64.11,0,0,0-6.35-2.21A63.25,63.25,0,0,0,180.14,217.12Z"/><path class="cls-5" d="M135.06,269a20.9,20.9,0,0,0,11.33-15.4A20.87,20.87,0,0,0,157.71,269a38.46,38.46,0,0,0,4,1.38,41.13,41.13,0,0,0-4,1.38,20.89,20.89,0,0,0-11.32,15.41,20.92,20.92,0,0,0-11.33-15.41,41.13,41.13,0,0,0-4-1.38A38.46,38.46,0,0,0,135.06,269Z"/><circle class="cls-5" cx="304.09" cy="646.09" r="4.81"/><path class="cls-5" d="M406.5,747.16c-187.84,0-340.66-152.82-340.66-340.66S218.66,65.84,406.5,65.84,747.16,218.66,747.16,406.5,594.34,747.16,406.5,747.16Zm0-677C221,70.15,70.15,221,70.15,406.5S221,742.85,406.5,742.85,742.85,592,742.85,406.5,592,70.15,406.5,70.15Z"/></svg>