<svg xmlns="http://www.w3.org/2000/svg" xmlns:xlink="http://www.w3.org/1999/xlink" viewBox="0 0 750 500"><defs><style>.cls-1,.cls-36,.cls-56,.cls-58,.cls-9{fill:none;}.cls-2{isolation:isolate;}.cls-3{fill:#e1efff;}.cls-4{fill:#084dbc;}.cls-5{fill:#fff;}.cls-6{fill:#1674c1;}.cls-7{fill:#4396e8;}.cls-8{fill:#17285b;}.cls-9{stroke:#fff;stroke-width:1.32px;}.cls-36,.cls-56,.cls-58,.cls-9{stroke-miterlimit:10;}.cls-10,.cls-12{fill:#393963;}.cls-11{fill:#c5cce9;}.cls-12,.cls-24{opacity:0.4;}.cls-13{fill:#599b7d;}.cls-14{fill:#79d4ae;}.cls-15{font-size:17.78px;font-family:Montserrat-ExtraBold, Montserrat;font-weight:800;letter-spacing:0.1em;}.cls-15,.cls-37{fill:#f5faff;}.cls-16{letter-spacing:0.09em;}.cls-17{letter-spacing:0.1em;}.cls-18{fill:url(#Degradado_sin_nombre_4);}.cls-19{fill:#fccc54;}.cls-20{fill:url(#Degradado_sin_nombre_133);}.cls-21{fill:#dda526;}.cls-22,.cls-62,.cls-65{fill:#bc700c;}.cls-22{opacity:0.3;}.cls-23,.cls-24,.cls-60{mix-blend-mode:multiply;}.cls-25{fill:#493107;}.cls-26{fill:#d29e26;}.cls-27{clip-path:url(#clip-path);}.cls-28,.cls-64{opacity:0.2;}.cls-29,.cls-63,.cls-64{fill:#ffe6b3;}.cls-30{fill:url(#Degradado_sin_nombre_133-2);}.cls-31{fill:#b58016;}.cls-32{clip-path:url(#clip-path-2);}.cls-33{fill:url(#Degradado_sin_nombre_133-3);}.cls-34{clip-path:url(#clip-path-3);}.cls-35{fill:#474777;}.cls-36{stroke:#17285b;stroke-width:1.13px;stroke-dasharray:5.63 5.63;}.cls-38{fill:#d89c7e;}.cls-39{fill:#b57457;}.cls-40{fill:#9eafe5;}.cls-41{fill:#6b7fb2;}.cls-42{fill:#894132;}.cls-43{fill:#2b304d;}.cls-44{fill:#3f4973;}.cls-45{fill:#9c503c;}.cls-46{fill:#232221;}.cls-47{fill:#aa6446;}.cls-48{fill:#693a2d;}.cls-49{fill:#c55353;}.cls-50{fill:#f1f2f2;}.cls-51{fill:#202232;}.cls-52{fill:#dadde8;}.cls-53{fill:#8298ce;}.cls-54{fill:#afbadb;}.cls-55{fill:#1d964e;}.cls-56,.cls-58{stroke:#14723a;}.cls-56{stroke-width:1.59px;}.cls-57{fill:#3ddb86;}.cls-58{stroke-width:2.25px;}.cls-59{fill:#fe9c03;}.cls-60{opacity:0.76;}.cls-61{fill:#facd5d;}.cls-62{opacity:0.49;}.cls-63{opacity:0.5;}.cls-65{opacity:0.72;}.cls-66{fill:url(#Degradado_sin_nombre_133-4);}.cls-67{clip-path:url(#clip-path-4);}.cls-68{fill:url(#Degradado_sin_nombre_133-5);}.cls-69{clip-path:url(#clip-path-5);}.cls-70{fill:url(#Degradado_sin_nombre_133-6);}.cls-71{clip-path:url(#clip-path-6);}.cls-72{fill:url(#Degradado_sin_nombre_133-7);}.cls-73{clip-path:url(#clip-path-7);}.cls-74{fill:url(#Degradado_sin_nombre_133-8);}.cls-75{clip-path:url(#clip-path-8);}.cls-76{fill:url(#Degradado_sin_nombre_133-9);}.cls-77{clip-path:url(#clip-path-9);}.cls-78{fill:url(#Degradado_sin_nombre_133-10);}.cls-79{clip-path:url(#clip-path-10);}</style><linearGradient id="Degradado_sin_nombre_4" x1="375.55" y1="281.99" x2="375.64" y2="287.72" gradientUnits="userSpaceOnUse"><stop offset="0" stop-color="#474777"/><stop offset="1" stop-color="#393963"/></linearGradient><linearGradient id="Degradado_sin_nombre_133" x1="127.98" y1="131.81" x2="188.42" y2="131.81" gradientTransform="translate(260.26 27.95) rotate(27.75)" gradientUnits="userSpaceOnUse"><stop offset="0" stop-color="#fccc54"/><stop offset="1" stop-color="#fe9c03"/></linearGradient><clipPath id="clip-path"><path class="cls-1" d="M363.32,210.33A25.68,25.68,0,1,1,331,193.84,25.67,25.67,0,0,1,363.32,210.33Z"/></clipPath><linearGradient id="Degradado_sin_nombre_133-2" x1="381.31" y1="216.56" x2="447.41" y2="216.56" gradientTransform="matrix(0.95, 0.3, -0.3, 0.95, 85.34, -114.05)" xlink:href="#Degradado_sin_nombre_133"/><clipPath id="clip-path-2"><circle class="cls-1" cx="415.8" cy="216.71" r="28.07" transform="translate(-48.09 284.99) rotate(-35.9)"/></clipPath><linearGradient id="Degradado_sin_nombre_133-3" x1="302.17" y1="303.76" x2="395.55" y2="303.76" gradientTransform="translate(-65.84 122.61) rotate(-23.88)" xlink:href="#Degradado_sin_nombre_133"/><clipPath id="clip-path-3"><circle class="cls-1" cx="376.12" cy="259.16" r="39.66" transform="translate(-52.09 100.22) rotate(-14.21)"/></clipPath><linearGradient id="Degradado_sin_nombre_133-4" x1="388.29" y1="479.57" x2="458.85" y2="479.57" gradientTransform="translate(-146.72 -180.26) rotate(3.9)" xlink:href="#Degradado_sin_nombre_133"/><clipPath id="clip-path-4"><path class="cls-1" d="M272.86,331.45a30,30,0,1,1-25.24-34.05A30,30,0,0,1,272.86,331.45Z"/></clipPath><linearGradient id="Degradado_sin_nombre_133-5" x1="571.4" y1="211.71" x2="641.97" y2="211.71" gradientTransform="matrix(0.86, 0.52, -0.52, 0.86, 160.15, -414.22)" xlink:href="#Degradado_sin_nombre_133"/><clipPath id="clip-path-5"><circle class="cls-1" cx="570.39" cy="80.38" r="29.97" transform="translate(203.29 524.27) rotate(-58.43)"/></clipPath><linearGradient id="Degradado_sin_nombre_133-6" x1="781.41" y1="397.63" x2="851.97" y2="397.63" gradientTransform="matrix(1, 0, 0, 1, -151.43, -68.5)" xlink:href="#Degradado_sin_nombre_133"/><clipPath id="clip-path-6"><circle class="cls-1" cx="664.15" cy="331.42" r="29.97" transform="translate(-67.64 455.62) rotate(-36.15)"/></clipPath><linearGradient id="Degradado_sin_nombre_133-7" x1="39.37" y1="186.75" x2="109.94" y2="186.75" gradientTransform="translate(-100.48 87.83) rotate(-38.59)" xlink:href="#Degradado_sin_nombre_133"/><clipPath id="clip-path-7"><circle class="cls-1" cx="74.36" cy="187.23" r="29.97" transform="translate(-78.04 55.47) rotate(-27.49)"/></clipPath><linearGradient id="Degradado_sin_nombre_133-8" x1="35.44" y1="336.84" x2="95.35" y2="336.84" gradientTransform="translate(280.34 69.8) rotate(49.79)" xlink:href="#Degradado_sin_nombre_133"/><clipPath id="clip-path-8"><path class="cls-1" d="M90.7,339a25.45,25.45,0,1,1-23.58-27.18A25.45,25.45,0,0,1,90.7,339Z"/></clipPath><linearGradient id="Degradado_sin_nombre_133-9" x1="-76.38" y1="109.96" x2="-26.92" y2="109.96" xlink:href="#Degradado_sin_nombre_133"/><clipPath id="clip-path-9"><circle class="cls-1" cx="163.35" cy="101.21" r="21.01" transform="translate(-21.67 49.28) rotate(-16.1)"/></clipPath><linearGradient id="Degradado_sin_nombre_133-10" x1="678.7" y1="693.37" x2="727.53" y2="693.37" gradientTransform="matrix(0.94, 0.33, -0.33, 0.94, 227.13, -693.65)" xlink:href="#Degradado_sin_nombre_133"/><clipPath id="clip-path-10"><circle class="cls-1" cx="660.39" cy="193.77" r="20.74" transform="translate(73.79 553.72) rotate(-47.89)"/></clipPath></defs><g class="cls-2"><g id="OBJECTS"><path class="cls-3" d="M615.62,467.71S751.18,129.32,642.86,48C515.24-47.9,409.22,150.56,268.92,76.73S31,125.85,57.91,245.84,132,434.66,151.81,467.71Z"/><ellipse class="cls-4" cx="385.17" cy="467" rx="249.62" ry="15.53"/><rect class="cls-4" x="617.94" y="129.13" width="9.02" height="9.02"/><rect class="cls-4" x="630.5" y="123.66" width="9.02" height="14.49"/><rect class="cls-4" x="643.07" y="116.37" width="9.02" height="21.79"/><rect class="cls-4" x="655.63" y="105.83" width="9.02" height="32.32"/><polygon class="cls-4" points="478.76 298.82 485.52 298.82 485.52 274.77 503.55 274.77 503.55 298.82 510.31 298.82 494.54 322.86 478.76 298.82"/><polygon class="cls-4" points="369.93 77.67 358.12 77.67 358.12 119.65 326.64 119.65 326.64 77.67 314.84 77.67 342.38 35.7 369.93 77.67"/><path class="cls-4" d="M205.1,394.55a34.78,34.78,0,1,1-69.55,0h11.87a22.91,22.91,0,1,0,22.91-22.91h-.17c.16-4,.35-8.06.53-11.88A34.79,34.79,0,0,1,205.1,394.55Z"/><path class="cls-5" d="M170.69,359.77c-.18,3.82-.37,7.91-.53,11.88a22.9,22.9,0,0,0-22.74,22.9H135.55a34.78,34.78,0,0,1,34.78-34.78Z"/><path class="cls-6" d="M160.12,299.92c-49.35-28.11-47.48-92.46-47.48-92.46l47.48-21.86,47.48,21.86S209.48,271.81,160.12,299.92Z"/><path class="cls-7" d="M160.12,290.36c-41.09-23.41-39.53-77-39.53-77l39.53-18.21,39.54,18.21S201.22,267,160.12,290.36Z"/><path class="cls-8" d="M171.57,228.08a11.35,11.35,0,0,1-5.35,9.67v14a6.27,6.27,0,0,1-12.54,0V237.55a11.45,11.45,0,1,1,17.89-9.47Z"/><polyline class="cls-9" points="291.37 149.72 160.12 149.72 160.12 172.17"/><path class="cls-5" d="M163.22,172.17a3.1,3.1,0,1,1-3.1-3.1A3.09,3.09,0,0,1,163.22,172.17Z"/><polyline class="cls-9" points="291.37 329.65 160.12 329.65 160.12 307.2"/><path class="cls-5" d="M163.22,307.2a3.1,3.1,0,1,0-3.1,3.09A3.1,3.1,0,0,0,163.22,307.2Z"/><polyline class="cls-9" points="289.58 212.03 229.33 212.03 229.33 172.16 191.08 172.16"/><path class="cls-5" d="M194.18,172.17a3.1,3.1,0,1,1-3.1-3.1A3.09,3.09,0,0,1,194.18,172.17Z"/><line class="cls-9" x1="289.58" y1="242.76" x2="223.7" y2="242.76"/><circle class="cls-5" cx="223.7" cy="242.76" r="3.1"/><polyline class="cls-9" points="289.58 275.97 223.7 275.97 223.7 307.2 191.08 307.2"/><circle class="cls-5" cx="191.08" cy="307.2" r="3.1"/><rect class="cls-10" x="286.1" y="126.03" width="180.04" height="340.97" rx="23.76"/><rect class="cls-11" x="295.13" y="135.35" width="161.97" height="322.32" rx="15.8"/><rect class="cls-12" x="330.98" y="141.38" width="90.27" height="4.33" rx="2.11"/><rect class="cls-12" x="330.98" y="442.83" width="90.27" height="4.33" rx="2.11"/><path class="cls-13" d="M400.28,409.55H352A12.55,12.55,0,0,1,339.4,397h0A12.56,12.56,0,0,1,352,384.44h48.32A12.56,12.56,0,0,1,412.84,397h0A12.55,12.55,0,0,1,400.28,409.55Z"/><rect class="cls-14" x="339.4" y="382" width="73.43" height="25.11" rx="12.55"/><text class="cls-15" transform="translate(353.04 400.61)">B<tspan class="cls-16" x="15.45" y="0">U</tspan><tspan class="cls-17" x="31.03" y="0">Y</tspan></text><rect class="cls-18" x="323.48" y="281.97" width="104.35" height="13.93" rx="4.64"/><path class="cls-19" d="M329.81,190.26c-.76.24-1.5.52-2.23.82a29.49,29.49,0,1,0,2.23-.82Z"/><path class="cls-20" d="M329.57,189.51a30.23,30.23,0,1,0,38.08,19.42h0A30.23,30.23,0,0,0,329.57,189.51Zm37.33,19.66a29.44,29.44,0,1,1-39.32-18.09c.73-.3,1.47-.58,2.23-.82A29.46,29.46,0,0,1,366.9,209.17Z"/><path class="cls-21" d="M329.57,189.52A30.22,30.22,0,1,0,348.23,247c.78-.25,1.55-.53,2.29-.84a30.22,30.22,0,0,0-20.95-56.64ZM366.2,209.4a28.7,28.7,0,1,1-38.34-17.64c.71-.29,1.44-.56,2.18-.8A28.74,28.74,0,0,1,366.2,209.4Z"/><path class="cls-22" d="M363.32,210.33A25.68,25.68,0,1,1,331,193.84,25.67,25.67,0,0,1,363.32,210.33Z"/><g class="cls-23"><g class="cls-24"><polygon class="cls-25" points="317.3 232.72 321.37 236.89 334.4 231.61 330.29 221.46 343.02 226.85 348 215.08 351.84 224.56 365.18 219.16 364.87 213.37 354.94 217.39 348.09 200.49 339.97 219.66 320.13 210.75 327.35 228.56 317.3 232.72"/></g><polygon class="cls-26" points="316.77 232.01 320.84 236.19 333.88 230.91 329.76 220.75 342.49 226.14 347.47 214.38 351.31 223.85 364.65 218.45 364.34 212.67 354.41 216.69 347.56 199.78 339.44 218.95 319.61 210.04 326.82 227.86 316.77 232.01"/></g><g class="cls-27"><g class="cls-28"><rect class="cls-29" x="336.89" y="181.07" width="6.63" height="78.81" transform="translate(137.26 -130.47) rotate(27.01)"/><rect class="cls-29" x="321.84" y="178.54" width="11.89" height="78.81" transform="translate(134.75 -125.1) rotate(27.01)"/><rect class="cls-29" x="346.01" y="185.55" width="3.31" height="78.81" transform="translate(140.11 -133.37) rotate(27.01)"/></g></g><path class="cls-22" d="M315.55,226.63A25.66,25.66,0,0,1,349,194.69a25.66,25.66,0,1,0-19.18,47.58A25.6,25.6,0,0,1,315.55,226.63Z"/><path class="cls-22" d="M348.05,194.28A25.66,25.66,0,0,1,329,241.91a25.66,25.66,0,1,0,19.09-47.63Z"/><path class="cls-19" d="M427.93,186.89c-.81-.33-1.63-.62-2.45-.88a32.16,32.16,0,1,0,2.45.88Z"/><path class="cls-30" d="M428.25,186.1a33,33,0,1,0,18.16,43.06h0A33,33,0,0,0,428.25,186.1Zm17.37,42.74A32.19,32.19,0,1,1,425.48,186c.82.26,1.64.55,2.45.88A32.23,32.23,0,0,1,445.62,228.84Z"/><path class="cls-21" d="M428.25,186.1a33,33,0,0,0-24.9,61.23c.83.33,1.67.64,2.51.9a33.05,33.05,0,0,0,40.55-19.07A33.09,33.09,0,0,0,428.25,186.1Zm16.62,42.44a31.38,31.38,0,1,1-19.63-41.76c.8.26,1.59.54,2.38.86A31.43,31.43,0,0,1,444.87,228.54Z"/><circle class="cls-22" cx="415.8" cy="216.71" r="28.07" transform="translate(-48.09 284.99) rotate(-35.9)"/><g class="cls-23"><g class="cls-24"><polygon class="cls-25" points="422.8 194.57 400.59 215.51 412.02 228.9 429.81 224.84 422.8 194.57"/><polygon class="cls-25" points="400.59 215.51 416.93 214.65 429.81 224.84 412.02 228.9 400.59 215.51"/><polygon class="cls-25" points="400.04 217.24 411.01 231.43 429.31 226.43 407.77 241.98 400.04 217.24"/></g><polygon class="cls-26" points="422.46 194.11 400.24 215.05 411.68 228.44 429.47 224.38 422.46 194.11"/><polygon class="cls-31" points="400.24 215.05 416.59 214.19 429.47 224.38 411.68 228.44 400.24 215.05"/><polygon class="cls-26" points="399.7 216.78 410.67 230.97 428.97 225.97 407.42 241.52 399.7 216.78"/></g><g class="cls-32"><g class="cls-28"><rect class="cls-29" x="411.71" y="176.4" width="7.24" height="86.17" transform="translate(456.16 -248.49) rotate(67.13)"/><rect class="cls-29" x="400.22" y="165.53" width="13" height="86.17" transform="translate(440.89 -247.21) rotate(67.13)"/><rect class="cls-29" x="416.6" y="185.41" width="3.62" height="86.17" transform="translate(466.34 -245.83) rotate(67.13)"/></g></g><path class="cls-22" d="M390.38,207.26a28.05,28.05,0,0,1,50.49-3.12,28.05,28.05,0,1,0-49.56,26.27A28,28,0,0,1,390.38,207.26Z"/><path class="cls-22" d="M440.34,203.11a28.06,28.06,0,0,1-49.52,26.38,28.06,28.06,0,1,0,49.52-26.38Z"/><path class="cls-19" d="M361.06,216.24q-1.76.62-3.42,1.35a45.57,45.57,0,1,0,3.42-1.35Z"/><path class="cls-33" d="M360.66,215.1a46.69,46.69,0,1,0,59.51,28.59h0A46.68,46.68,0,0,0,360.66,215.1Zm58.38,29a45.48,45.48,0,1,1-61.4-26.5q1.67-.74,3.42-1.35A45.54,45.54,0,0,1,419,244.09Z"/><path class="cls-21" d="M360.66,215.11a46.68,46.68,0,1,0,30.93,88.09c1.19-.41,2.36-.87,3.5-1.38a46.69,46.69,0,0,0-34.43-86.71ZM418,244.47a44.33,44.33,0,1,1-59.84-25.83q1.62-.72,3.33-1.32A44.38,44.38,0,0,1,418,244.47Z"/><circle class="cls-22" cx="376.12" cy="259.16" r="39.66" transform="translate(-52.09 100.22) rotate(-14.21)"/><g class="cls-23"><g class="cls-24"><path class="cls-25" d="M393.58,242.92l-.27-.6a11.16,11.16,0,0,0-14.12-5.85c-.21.08-.42.16-.62.26l-5.83,2.62-2.48-5.53L367,235.27l2.48,5.52-2.27,1-2.49-5.53-5.67,2.55,2.48,5.53-12.12,5.45,4.12,9.18,2.9-1.3,11,24.44-2.9,1.3,3.82,8.49,12.13-5.46,2,4.44,5.68-2.56-2-4.43,2.28-1,2,4.43,3.22-1.45-2-4.43,5.71-2.57c.24-.11.49-.22.72-.35A11.28,11.28,0,0,0,403.05,264l-.27-.6a11.16,11.16,0,0,0-14.12-5.86l-.62.26.6-.3A11.29,11.29,0,0,0,393.58,242.92Zm-6.42,25.63a3.41,3.41,0,0,1-1.71,4.51L382,274.61l-3.82-8.48,3.57-1.6a3.3,3.3,0,0,1,4.35,1.66Zm-6.76-15a3.4,3.4,0,0,1-1.71,4.51l-3.45,1.55-3.81-8.48,3.56-1.6a3.3,3.3,0,0,1,4.35,1.65Z"/></g><path class="cls-26" d="M392.76,241.83l-.27-.59a11.15,11.15,0,0,0-14.11-5.86c-.22.08-.42.17-.63.26l-5.82,2.62-2.49-5.53-3.22,1.45,2.49,5.53-2.28,1L364,235.2l-5.68,2.55,2.49,5.53-12.13,5.46,4.13,9.17,2.9-1.3,11,24.44-2.9,1.3,3.82,8.49,12.12-5.45,2,4.43,5.67-2.55-2-4.44,2.27-1,2,4.43,3.22-1.45-2-4.43,5.71-2.56c.24-.11.49-.23.72-.36a11.26,11.26,0,0,0,4.94-14.55l-.27-.6a11.14,11.14,0,0,0-14.11-5.85l-.63.25c.21-.09.41-.2.61-.3A11.28,11.28,0,0,0,392.76,241.83Zm-6.42,25.63a3.4,3.4,0,0,1-1.7,4.51l-3.46,1.56L377.37,265l3.56-1.6a3.29,3.29,0,0,1,4.35,1.66Zm-6.75-15a3.41,3.41,0,0,1-1.72,4.51l-3.45,1.55L370.61,250l3.56-1.61a3.29,3.29,0,0,1,4.35,1.66Z"/></g><g class="cls-34"><g class="cls-28"><rect class="cls-29" x="373.1" y="201.66" width="10.23" height="121.74" transform="translate(150.96 -137.87) rotate(25.66)"/><rect class="cls-29" x="349.76" y="198.21" width="18.36" height="121.74" transform="translate(147.56 -129.87) rotate(25.66)"/><rect class="cls-29" x="387.35" y="208.31" width="5.12" height="121.74" transform="translate(154.99 -142.28) rotate(25.66)"/></g></g><path class="cls-22" d="M340.37,272.94a39.64,39.64,0,0,1,50.53-50.55A39.63,39.63,0,1,0,363,296.57,39.54,39.54,0,0,1,340.37,272.94Z"/><path class="cls-22" d="M389.37,221.79a39.64,39.64,0,0,1-27.73,74.26,39.64,39.64,0,1,0,27.73-74.26Z"/><rect class="cls-35" x="316.44" y="286.24" width="119.36" height="80.23" rx="9.15"/><rect class="cls-36" x="320.45" y="289.87" width="111.34" height="72.96" rx="4.64"/><path class="cls-8" d="M375.66,333.1h0a12.55,12.55,0,0,1-12.56-12.55V286.24h25.11v34.31A12.55,12.55,0,0,1,375.66,333.1Z"/><circle class="cls-35" cx="375.7" cy="321.19" r="5.86"/><circle class="cls-19" cx="375.7" cy="321.19" r="4.07"/><circle class="cls-13" cx="458.13" cy="148.63" r="36.4"/><circle class="cls-14" cx="458.13" cy="148.63" r="30.61"/><polygon class="cls-37" points="439.91 140.85 456.12 148.84 479.89 130.44 455.62 161.67 439.91 140.85"/><path class="cls-38" d="M484.71,206.61a2.8,2.8,0,0,1-.75-1.69c0-.9.86-1.57,1.13-2.43a3,3,0,0,0-1.06-3c-.8-.76-1.81-1.27-2.67-2a7.35,7.35,0,0,1-2.56-5.05,27.93,27.93,0,0,0-1-3.7.87.87,0,0,0-1-.5,1.11,1.11,0,0,0-.46.45c-1,1.49-.71,5.74-.58,7.52l-18.3,2c-2.2.24-4.52.53-6.26,1.89a3.27,3.27,0,0,0-1.38,2.24c-.09,1.29.94,2.38,2,3.1,7,4.73,18.55,2.67,25.6,7.36a20.3,20.3,0,0,1,3.84,3.57c1.32,1.48,1.49,1.09,3.14,2.18a6.6,6.6,0,0,0,5.65,1,4.13,4.13,0,0,0,2.63-2.79c.26-1.5,2.18-3.31,1.18-4.26C491.49,210.31,486.66,209.21,484.71,206.61Z"/><path class="cls-39" d="M450.85,201h.06c2.91-.32,4.94-.56,7-.8l7-.8a.51.51,0,0,0,.45-.56.48.48,0,0,0-.57-.45l-7,.81-7,.8a.51.51,0,0,0,.06,1Z"/><path class="cls-39" d="M450.44,204.43h.05c3.42-.34,5.12-.46,6.77-.59s3.37-.24,6.8-.58a.51.51,0,0,0,.45-.56.49.49,0,0,0-.55-.45c-3.42.33-5.13.46-6.77.58s-3.37.25-6.8.59a.51.51,0,0,0-.45.56A.49.49,0,0,0,450.44,204.43Z"/><path class="cls-39" d="M453.73,207.17h0l3.42-.37c2.23-.26,4.54-.52,6.53-.62a.5.5,0,0,0,.48-.53.48.48,0,0,0-.53-.48c-2,.1-4.35.37-6.59.62-1.19.14-2.35.27-3.41.37a.51.51,0,0,0-.46.55A.52.52,0,0,0,453.73,207.17Z"/><path class="cls-39" d="M463.93,206.63h0a.5.5,0,0,0,.5-.51c-.07-6.59,1.37-7.14,1.39-7.15a.47.47,0,0,0,.43-.54.53.53,0,0,0-.57-.46c-.55.05-2.34.76-2.27,8.16A.51.51,0,0,0,463.93,206.63Z"/><path class="cls-39" d="M476.58,203.67a.49.49,0,0,0,.42-.23.51.51,0,0,0-.15-.7A2.4,2.4,0,0,1,476,201a8.34,8.34,0,0,1,.52-4.5.51.51,0,0,0-.28-.66.5.5,0,0,0-.66.27,9.29,9.29,0,0,0-.58,5.05,3.31,3.31,0,0,0,1.31,2.4A.48.48,0,0,0,476.58,203.67Z"/><path class="cls-40" d="M546.57,197.36s-15.68,16.19-23.75,29.31c0,0-2.54-2.21-3,.57L488.58,208a16.62,16.62,0,0,0-7.32,9.83s27.49,21.69,32,25.72,12.1,12.11,21.94-1,25.46-32.78,25.46-32.78,4-7.81-.5-15.13S546.57,197.36,546.57,197.36Z"/><path class="cls-41" d="M525.36,232.33a.43.43,0,0,0,.25-.09.4.4,0,0,0,.06-.56,17.07,17.07,0,0,0-5.91-4.79.41.41,0,0,0-.54.18.4.4,0,0,0,.19.54,16.39,16.39,0,0,1,5.63,4.56A.39.39,0,0,0,525.36,232.33Z"/><path class="cls-41" d="M526.05,230.49a.43.43,0,0,0,.27-.11.41.41,0,0,0,0-.57l-3-3.23a.4.4,0,0,0-.59.55l3,3.23A.43.43,0,0,0,526.05,230.49Z"/><path class="cls-41" d="M485.6,220.23A.4.4,0,0,0,486,220c0-.06,2.84-6.18,6.48-8.37a.4.4,0,0,0,.14-.55.4.4,0,0,0-.55-.14c-3.86,2.32-6.69,8.46-6.8,8.72a.4.4,0,0,0,.2.54A.45.45,0,0,0,485.6,220.23Z"/><path class="cls-42" d="M553.8,454.44s-11.26,6.36-18,10.21c-4.8,2.74-8.21,7.68-2.91,7.85s14-1,19.17-3.73c3.62-1.9,5.71-1.25,8.36-1.75s5.79-.66,6.29-3-.17-9.11-.17-9.11Z"/><path class="cls-42" d="M588.28,455.35a50.28,50.28,0,0,1,.17,12.25c-.83,5.63,1.09,8.1,7.22,7.61s9,.83,6.68-6.45A87.55,87.55,0,0,1,599.21,454Z"/><path class="cls-43" d="M538.47,284.35,550.89,456s10.56,3.47,17.7,0l1-139.41,14.26,139.72a21.16,21.16,0,0,0,18.33,0l.31-181.12S545.3,275.52,538.47,284.35Z"/><path class="cls-44" d="M571.2,317.84a.38.38,0,0,0,.28-.12.41.41,0,0,0,.12-.33c0-.21-2.5-20.61-2.42-23.88a.4.4,0,0,0-.39-.41.44.44,0,0,0-.41.39c-.08,3.07,2,20.2,2.36,23.48l-3.06-.4c-.9-3.57-3.95-22.45-4-23.37a.41.41,0,0,0-.28-.41.4.4,0,0,0-.51.25c-.18.55,3.41,21.64,4.09,24a.41.41,0,0,0,.33.29l3.84.5Z"/><path class="cls-42" d="M538.47,284.35l.5,7c5.63,1.89,30.77,7.63,63.45.08l0-16.19S545.3,275.52,538.47,284.35Z"/><polygon class="cls-43" points="545.59 287.87 546.02 296.35 547.95 296.26 548.56 287.26 545.59 287.87"/><polygon class="cls-43" points="582.38 289.01 582.82 297.48 584.74 297.4 585.35 288.39 582.38 289.01"/><polygon class="cls-43" points="553.54 288.92 553.98 297.4 555.9 297.31 556.51 288.31 553.54 288.92"/><polygon class="cls-43" points="572.51 289.36 572.94 297.83 574.87 297.75 575.48 288.74 572.51 289.36"/><path class="cls-40" d="M541.38,289.36c3.51,1,7.48.95,11,1.33,5,.54,10,.92,15.08,1.1,11.82.41,24,0,35.45-3.37.18-.05.35-6.88.43-7.46a63.09,63.09,0,0,0,.38-11.9c-.41-8-1.74-16-1.51-24.09.27-9.41,2.68-18.58,3.86-27.88a55.81,55.81,0,0,0,.45-13.9c-.52-4-3.41-7.19-6.7-9.45-12.36-8.51-38.26-12.37-47.92-1.94-4.29,4.64-9.6,8.76-11.79,14.77a56.28,56.28,0,0,0-3.83,19.69c-.07,10,1.07,19.9,1.63,29.85.51,9,1.19,18.94-1.56,27.58A4.14,4.14,0,0,0,536,286a3.37,3.37,0,0,0,1.66,1.83A14,14,0,0,0,541.38,289.36Z"/><path class="cls-38" d="M581.1,170.25l-.79,21s.82,8.53-12.19,8.34c0,0-8.27-1.07-8.14-9.35l.28-18.93Z"/><path class="cls-45" d="M581,172.39l.08-2.14-20.73,1.1a1.71,1.71,0,0,0-.11.14l-.15,10.35C564.72,184.15,574.46,186.73,581,172.39Z"/><path class="cls-38" d="M584.4,165.63c-1.72,5.32-5,10.77-9.75,13.93s-11.31,3.51-15.2-1a16.89,16.89,0,0,1-3.53-9.54c-.16-1.78-.17-3.58-.42-5.35-.21-1.42-.59-2.82-.79-4.25a27,27,0,0,1-.15-5.54,19,19,0,0,1,1.23-6.27c2.93-7,12.38-7.68,18.55-5.19,8,3.23,12.25,11.57,10.86,20l0,.25A22,22,0,0,1,584.4,165.63Z"/><path class="cls-46" d="M569.2,159.7a1.43,1.43,0,1,0,1.43-1.43A1.43,1.43,0,0,0,569.2,159.7Z"/><path class="cls-46" d="M557.74,159.7a1.43,1.43,0,1,0,1.43-1.43A1.43,1.43,0,0,0,557.74,159.7Z"/><path class="cls-47" d="M564.17,169.5a4.8,4.8,0,0,0,.55,0,.27.27,0,0,0,.26-.29.28.28,0,0,0-.3-.26,3.47,3.47,0,0,1-1,0,.92.92,0,0,1-.63-.51,1.52,1.52,0,0,1,0-.73l1.63-8.46a.28.28,0,0,0-.22-.33.28.28,0,0,0-.33.22l-1.63,8.47a1.91,1.91,0,0,0,0,1,1.4,1.4,0,0,0,1,.87A2.94,2.94,0,0,0,564.17,169.5Z"/><path class="cls-48" d="M562.42,172.2a77.12,77.12,0,0,0,10.8-1.77,6,6,0,0,1-4.67,5.12C564.32,176.39,562.42,172.2,562.42,172.2Z"/><path class="cls-49" d="M572.31,173a5.5,5.5,0,0,1-3.76,2.6,5.07,5.07,0,0,1-3.24-.38C566.93,173.09,570.68,172.92,572.31,173Z"/><path class="cls-50" d="M563.7,173.17l-.32-1.07a71.5,71.5,0,0,0,9.84-1.67,6.64,6.64,0,0,1-.3,1.23C571.19,172.24,566.79,173.55,563.7,173.17Z"/><path class="cls-51" d="M571.34,155.46c-.91-.24-1.8-.51-2.7-.78a1,1,0,0,1-.59-.35.78.78,0,0,1,.23-.94c1-1,3.67-.54,4.85.09.47.25,1.37,1.15,1.25,1.74C574.16,156.21,572,155.64,571.34,155.46Z"/><path class="cls-51" d="M559.18,155.46c.91-.24,1.8-.51,2.7-.78a1,1,0,0,0,.59-.35.78.78,0,0,0-.23-.94c-1-1-3.67-.54-4.85.09-.47.25-1.37,1.15-1.25,1.74C556.36,156.21,558.52,155.64,559.18,155.46Z"/><path class="cls-51" d="M588.63,142.15c-.11.17-.31.28-.45.45a1.47,1.47,0,0,0-.21.87c-.1,3.72.21,7.43.21,11.13a48.69,48.69,0,0,1-2.6,11.74c-.26.81-.75-.14-.92-.51a3.74,3.74,0,0,1-.34-1.58.72.72,0,0,0-.07-.41c-.15-.21-.48-.15-.68,0s-.33.4-.54.55a1.05,1.05,0,0,1-1.26-.18,2.09,2.09,0,0,1-.54-1.24,6.87,6.87,0,0,1,0-1.2c.1-1.2.4-2.44-.09-3.53a6,6,0,0,0-1.74-1.93,8.67,8.67,0,0,1-2.49-3,3.86,3.86,0,0,1,.23-3.76c.44-.62,1.16-1.18,1.08-1.92a1.57,1.57,0,0,0-.58-1c-1.21-1.08-2.95-1.19-4.56-1.26a87.6,87.6,0,0,0-9.45-.08c-1.4.09-2.8.31-4.19.36a2.34,2.34,0,0,0-2.29,1.67,6.19,6.19,0,0,1-.19,1.06,3.85,3.85,0,0,1-.62.79,6.17,6.17,0,0,0-1.11,2.34c-.29,1-.54,2.07-.74,3.13v0a7.83,7.83,0,0,1-.51-1.94,6.34,6.34,0,0,1-.24-1.18c-.89-3.32-2.56-8.54-5-11.95-3.78-5.32,1.24-15.78,10.59-9a52.26,52.26,0,0,0,17.73,8.09l1.26.32,1.07.31a14,14,0,0,0,2.91.74,11,11,0,0,0,3.12-.25.86.86,0,0,1,.39,0c.54.25-.05,1.43.54,1.52a2.55,2.55,0,0,1,1.59-.4C588.49,141,589,141.7,588.63,142.15Z"/><path class="cls-38" d="M587.65,163a5.09,5.09,0,0,1-3.12,3.38,1.17,1.17,0,0,1-.9,0c-2.6-1.4-1.2-7.5.68-8.92C587.11,155.36,588.42,160.54,587.65,163Z"/><path class="cls-46" d="M584.16,164.4a5.51,5.51,0,0,1-1.94,2.43,7.72,7.72,0,0,1-2.8,1.76c-.62.17-1.45.07-1.67-.54s.33-1.2.84-1.61l3.64-2.95a1.42,1.42,0,0,0,.53-.64c.36-1.12,0-2,1.2-2.72a1.75,1.75,0,0,1,2.37.31C587.83,162.12,586.54,165,584.16,164.4Z"/><path class="cls-52" d="M585.67,162.55a2.37,2.37,0,0,0-.09-.75.81.81,0,0,0-.5-.52.49.49,0,0,0-.6.31.94.94,0,0,0,.08.49,15.47,15.47,0,0,1,.33,2.49C585.75,164.39,585.69,163.2,585.67,162.55Z"/><path class="cls-52" d="M578.41,167.41l4.46-3.19c1-.74,1-2.86,1-2.95a.13.13,0,0,0-.14-.13h0a.14.14,0,0,0-.14.14s.06,2.06-.86,2.72l-4.47,3.19Z"/><path class="cls-53" d="M581.71,181.15,567.39,192l-2.46,6.08L559.87,183l-5.21,6.66.87,8.39,3.9-4.78s1.6,5.36,4.78,6.8l2.31.29,3.91-.14,3.18,1.59,10.13-11.14Z"/><path class="cls-38" d="M588.34,295.84l-3.91,4.73a10.38,10.38,0,0,0,11.36,5.3l1.38-5.73Z"/><path class="cls-40" d="M588.15,209.17s12,31.57,17.78,39.12l-19.56,46.46a14.7,14.7,0,0,0,11.56,7.11s19.34-38,21.78-41.34,5.34-8.67,5.34-11.12-13.56-44.45-20.9-51.12-11.78-4.67-14-3.56S583.93,201.39,588.15,209.17Z"/><path class="cls-41" d="M587.31,293.3a.41.41,0,0,0,.37-.25l18.62-44.6a.38.38,0,0,0,0-.33c-.14-.31-14.82-30.79-15.63-33.69-.13-.45-.35-1-.64-1.78-1.66-4.27-4.74-12.22,1.83-18.2a.41.41,0,0,0,0-.57.39.39,0,0,0-.56,0c-7,6.35-3.65,15-2,19.09.27.69.5,1.29.62,1.71.8,2.88,14.31,31,15.6,33.65l-18.55,44.44a.4.4,0,0,0,.21.53A.45.45,0,0,0,587.31,293.3Z"/><path class="cls-41" d="M618.74,251.31a.4.4,0,0,0,.18-.76,22.38,22.38,0,0,0-12.45-2.39.4.4,0,0,0-.36.44.4.4,0,0,0,.44.36,21.57,21.57,0,0,1,12,2.3A.32.32,0,0,0,618.74,251.31Z"/><path class="cls-41" d="M608.53,247.66h5.93a.4.4,0,0,0,0-.8h-5.93a.4.4,0,0,0,0,.8Z"/><path class="cls-41" d="M610.43,251.44a.4.4,0,0,0,.38-.28.4.4,0,0,0-.26-.51,5.71,5.71,0,0,0-2-.23.4.4,0,0,0-.37.43.38.38,0,0,0,.43.37,4.94,4.94,0,0,1,1.75.2Z"/><path class="cls-41" d="M587.91,214.2a.41.41,0,0,0,.22-.07.4.4,0,0,0,.12-.56,10.56,10.56,0,0,1-1-2.18,31.24,31.24,0,0,1-1.54-15.18.39.39,0,0,0-.33-.46.4.4,0,0,0-.46.34,31.89,31.89,0,0,0,1.58,15.58,10.39,10.39,0,0,0,1.11,2.34A.39.39,0,0,0,587.91,214.2Z"/><path class="cls-41" d="M565.26,199.65a.39.39,0,0,0,.33-.18l3.58-5.32,2.87,4.14a.41.41,0,0,0,.27.17.37.37,0,0,0,.3-.08c.08,0,7.09-5.43,10.64-10.52a.4.4,0,0,0-.1-.56.39.39,0,0,0-.56.1c-3,4.36-8.7,9-10.13,10.08l-3-4.27a.4.4,0,0,0-.33-.17.3.3,0,0,0-.33.17L564.92,199a.41.41,0,0,0,.11.56A.39.39,0,0,0,565.26,199.65Z"/><path class="cls-41" d="M563.84,200a.27.27,0,0,0,.15,0,.4.4,0,0,0,.22-.52L562,193.88a.4.4,0,0,0-.3-.24.37.37,0,0,0-.37.11L558.2,197l-2.52-7.44a.4.4,0,1,0-.76.26l2.73,8.06a.38.38,0,0,0,.29.27.41.41,0,0,0,.38-.11l3.12-3.23,2,5A.41.41,0,0,0,563.84,200Z"/><path class="cls-41" d="M559.33,290.93a.42.42,0,0,0,.39-.28c2.93-9.39,4.09-36.14,2.38-55a112.55,112.55,0,0,1,2.83-34.84.39.39,0,0,0-.28-.49.4.4,0,0,0-.49.28,112.77,112.77,0,0,0-2.86,35.12c1.7,18.82.56,45.42-2.35,54.73a.39.39,0,0,0,.26.5A.25.25,0,0,0,559.33,290.93Z"/><path class="cls-41" d="M584.58,222.87l-16.05-.13a.39.39,0,0,1-.29-.13.38.38,0,0,1-.11-.3l.27-3.19a.4.4,0,0,1,.4-.37h0l15.78.14a.39.39,0,0,1,.4.4v3.18a.4.4,0,0,1-.12.29.39.39,0,0,1-.28.11Zm-15.41-3.31-.2,2.38,15.21.13v-2.38Z"/><path class="cls-41" d="M537.29,246.43h0a.41.41,0,0,0,.37-.44c0-.25-2-25,1-32.6l.41-1.08c2.7-7,4.18-10.8,5.82-12.67a.41.41,0,0,0,0-.57.4.4,0,0,0-.57,0c-1.73,2-3.14,5.63-6,12.9l-.42,1.09c-3,7.81-1.11,31.93-1,33A.4.4,0,0,0,537.29,246.43Z"/><path class="cls-54" d="M600.48,296a.4.4,0,0,0,.39-.29.41.41,0,0,0-.28-.5c-7.91-2.2-10.4-5.33-10.43-5.36a.41.41,0,0,0-.56-.07.4.4,0,0,0-.08.56c.11.14,2.65,3.36,10.85,5.65Z"/><path class="cls-44" d="M578.84,318.79a.41.41,0,0,0,.4-.37.42.42,0,0,0-.37-.44,156.63,156.63,0,0,1-16-2.16.39.39,0,0,0-.47.31.4.4,0,0,0,.31.48,161.52,161.52,0,0,0,16.1,2.18Z"/><path class="cls-44" d="M594.92,306.57a15,15,0,0,0,6.82-1.77.4.4,0,0,0-.37-.72c-5,2.53-9.66,2.23-14-.86a19.54,19.54,0,0,1-5-5.48.39.39,0,0,0-.54-.15.4.4,0,0,0-.16.55C581.76,298.24,586.56,306.57,594.92,306.57Z"/><path class="cls-55" d="M483.77,467s15.14-45.05,32.76-45.48,5.29,29.72-18.94,45.48Z"/><path class="cls-56" d="M490.16,467s18.4-29.71,24.5-34"/><path class="cls-57" d="M458.13,467h28.22s72.34-98.08,18.8-104.13C425,353.81,458.13,467,458.13,467Z"/><path class="cls-58" d="M473.53,467s-5.22-44.29,23.31-88.58"/><path class="cls-55" d="M458.13,467s-11.87-64.06-36.92-64.68-7.52,42.27,26.93,64.68Z"/><path class="cls-58" d="M454.18,467s-24.06-55-36.84-57.45"/><rect class="cls-59" x="213.24" y="447.05" width="86.38" height="20.21" rx="1.75"/><g class="cls-60"><rect class="cls-61" x="220.54" y="448.89" width="3.75" height="16.54"/><rect class="cls-61" x="231.88" y="448.89" width="3.75" height="16.54"/><rect class="cls-61" x="243.21" y="448.89" width="3.75" height="16.54"/><rect class="cls-61" x="254.55" y="448.89" width="3.75" height="16.54"/><rect class="cls-61" x="265.89" y="448.89" width="3.75" height="16.54"/><rect class="cls-61" x="277.23" y="448.89" width="3.75" height="16.54"/><rect class="cls-61" x="288.57" y="448.89" width="3.75" height="16.54"/></g><rect class="cls-62" x="251.88" y="448.89" width="47.75" height="16.44"/><rect class="cls-63" x="217.1" y="448.89" width="23.87" height="16.44"/><rect class="cls-64" x="217.1" y="448.89" width="23.87" height="16.44"/><path class="cls-65" d="M213.24,465.54a1.72,1.72,0,0,0,1.72,1.72H297.9a1.72,1.72,0,0,0,1.72-1.72v-.11H213.24Z"/><path class="cls-19" d="M297.9,447.05H215a1.72,1.72,0,0,0-1.72,1.72v.12h86.38v-.12A1.72,1.72,0,0,0,297.9,447.05Z"/><rect class="cls-59" x="237.19" y="426.85" width="86.38" height="20.21" rx="1.75"/><g class="cls-60"><rect class="cls-61" x="244.48" y="428.68" width="3.75" height="16.54"/><rect class="cls-61" x="255.82" y="428.68" width="3.75" height="16.54"/><rect class="cls-61" x="267.16" y="428.68" width="3.75" height="16.54"/><rect class="cls-61" x="278.5" y="428.68" width="3.75" height="16.54"/><rect class="cls-61" x="289.84" y="428.68" width="3.75" height="16.54"/><rect class="cls-61" x="301.18" y="428.68" width="3.75" height="16.54"/><rect class="cls-61" x="312.52" y="428.68" width="3.75" height="16.54"/></g><rect class="cls-62" x="275.82" y="428.68" width="47.75" height="16.44"/><rect class="cls-63" x="241.05" y="428.68" width="23.87" height="16.44"/><rect class="cls-64" x="241.05" y="428.68" width="23.87" height="16.44"/><path class="cls-65" d="M237.19,445.33a1.72,1.72,0,0,0,1.72,1.72h82.94a1.72,1.72,0,0,0,1.72-1.72v-.11H237.19Z"/><path class="cls-19" d="M321.85,426.85H238.91a1.72,1.72,0,0,0-1.72,1.72v.11h86.38v-.11A1.72,1.72,0,0,0,321.85,426.85Z"/><rect class="cls-59" x="354.23" y="447.05" width="86.38" height="20.21" rx="1.75"/><g class="cls-60"><rect class="cls-61" x="361.53" y="448.89" width="3.75" height="16.54"/><rect class="cls-61" x="372.87" y="448.89" width="3.75" height="16.54"/><rect class="cls-61" x="384.21" y="448.89" width="3.75" height="16.54"/><rect class="cls-61" x="395.54" y="448.89" width="3.75" height="16.54"/><rect class="cls-61" x="406.88" y="448.89" width="3.75" height="16.54"/><rect class="cls-61" x="418.22" y="448.89" width="3.75" height="16.54"/><rect class="cls-61" x="429.56" y="448.89" width="3.75" height="16.54"/></g><rect class="cls-62" x="392.87" y="448.89" width="47.75" height="16.44"/><rect class="cls-63" x="358.09" y="448.89" width="23.87" height="16.44"/><rect class="cls-64" x="358.09" y="448.89" width="23.87" height="16.44"/><path class="cls-65" d="M354.23,465.54a1.72,1.72,0,0,0,1.72,1.72h82.94a1.72,1.72,0,0,0,1.72-1.72v-.11H354.23Z"/><path class="cls-19" d="M438.89,447.05H356a1.72,1.72,0,0,0-1.72,1.72v.12h86.38v-.12A1.72,1.72,0,0,0,438.89,447.05Z"/><rect class="cls-59" x="338.77" y="426.85" width="86.38" height="20.21" rx="1.75"/><g class="cls-60"><rect class="cls-61" x="346.07" y="428.68" width="3.75" height="16.54"/><rect class="cls-61" x="357.41" y="428.68" width="3.75" height="16.54"/><rect class="cls-61" x="368.75" y="428.68" width="3.75" height="16.54"/><rect class="cls-61" x="380.09" y="428.68" width="3.75" height="16.54"/><rect class="cls-61" x="391.42" y="428.68" width="3.75" height="16.54"/><rect class="cls-61" x="402.76" y="428.68" width="3.75" height="16.54"/><rect class="cls-61" x="414.1" y="428.68" width="3.75" height="16.54"/></g><rect class="cls-62" x="377.41" y="428.68" width="47.75" height="16.44"/><rect class="cls-63" x="342.63" y="428.68" width="23.87" height="16.44"/><rect class="cls-64" x="342.63" y="428.68" width="23.87" height="16.44"/><path class="cls-65" d="M338.77,445.33a1.72,1.72,0,0,0,1.72,1.72h82.94a1.72,1.72,0,0,0,1.72-1.72v-.11H338.77Z"/><path class="cls-19" d="M423.43,426.85H340.49a1.72,1.72,0,0,0-1.72,1.72v.11h86.38v-.11A1.72,1.72,0,0,0,423.43,426.85Z"/><rect class="cls-59" x="216.39" y="406.89" width="86.38" height="20.21" rx="1.75"/><g class="cls-60"><rect class="cls-61" x="223.68" y="408.72" width="3.75" height="16.54"/><rect class="cls-61" x="235.02" y="408.72" width="3.75" height="16.54"/><rect class="cls-61" x="246.36" y="408.72" width="3.75" height="16.54"/><rect class="cls-61" x="257.7" y="408.72" width="3.75" height="16.54"/><rect class="cls-61" x="269.04" y="408.72" width="3.75" height="16.54"/><rect class="cls-61" x="280.38" y="408.72" width="3.75" height="16.54"/><rect class="cls-61" x="291.72" y="408.72" width="3.75" height="16.54"/></g><rect class="cls-62" x="255.02" y="408.72" width="47.75" height="16.44"/><rect class="cls-63" x="220.25" y="408.72" width="23.87" height="16.44"/><rect class="cls-64" x="220.25" y="408.72" width="23.87" height="16.44"/><path class="cls-65" d="M216.39,425.38a1.72,1.72,0,0,0,1.72,1.72h82.94a1.72,1.72,0,0,0,1.72-1.72v-.12H216.39Z"/><path class="cls-19" d="M301.05,406.89H218.11a1.72,1.72,0,0,0-1.72,1.72v.11h86.38v-.11A1.72,1.72,0,0,0,301.05,406.89Z"/><rect class="cls-59" x="216.04" y="386.68" width="86.38" height="20.21" rx="1.75"/><g class="cls-60"><rect class="cls-61" x="223.34" y="388.51" width="3.75" height="16.54"/><rect class="cls-61" x="234.67" y="388.51" width="3.75" height="16.54"/><rect class="cls-61" x="246.01" y="388.51" width="3.75" height="16.54"/><rect class="cls-61" x="257.35" y="388.51" width="3.75" height="16.54"/><rect class="cls-61" x="268.69" y="388.51" width="3.75" height="16.54"/><rect class="cls-61" x="280.03" y="388.51" width="3.75" height="16.54"/><rect class="cls-61" x="291.37" y="388.51" width="3.75" height="16.54"/></g><rect class="cls-62" x="254.67" y="388.51" width="47.75" height="16.44"/><rect class="cls-63" x="219.9" y="388.51" width="23.87" height="16.44"/><rect class="cls-64" x="219.9" y="388.51" width="23.87" height="16.44"/><path class="cls-65" d="M216,405.17a1.72,1.72,0,0,0,1.72,1.72H300.7a1.72,1.72,0,0,0,1.72-1.72v-.12H216Z"/><path class="cls-19" d="M300.7,386.68H217.76A1.72,1.72,0,0,0,216,388.4v.11h86.38v-.11A1.72,1.72,0,0,0,300.7,386.68Z"/><rect class="cls-59" x="229.77" y="366.47" width="86.38" height="20.21" rx="1.75"/><g class="cls-60"><rect class="cls-61" x="237.07" y="368.31" width="3.75" height="16.54"/><rect class="cls-61" x="248.4" y="368.31" width="3.75" height="16.54"/><rect class="cls-61" x="259.74" y="368.31" width="3.75" height="16.54"/><rect class="cls-61" x="271.08" y="368.31" width="3.75" height="16.54"/><rect class="cls-61" x="282.42" y="368.31" width="3.75" height="16.54"/><rect class="cls-61" x="293.76" y="368.31" width="3.75" height="16.54"/><rect class="cls-61" x="305.1" y="368.31" width="3.75" height="16.54"/></g><rect class="cls-62" x="268.4" y="368.31" width="47.75" height="16.44"/><rect class="cls-63" x="233.63" y="368.31" width="23.87" height="16.44"/><rect class="cls-64" x="233.63" y="368.31" width="23.87" height="16.44"/><path class="cls-65" d="M229.77,385a1.72,1.72,0,0,0,1.72,1.72h82.94a1.72,1.72,0,0,0,1.72-1.72v-.12H229.77Z"/><path class="cls-19" d="M314.43,366.47H231.49a1.72,1.72,0,0,0-1.72,1.72v.12h86.38v-.12A1.72,1.72,0,0,0,314.43,366.47Z"/><path class="cls-19" d="M248.26,293.05q-1.38-.21-2.76-.3a34.41,34.41,0,1,0,2.76.3Z"/><path class="cls-66" d="M248.39,292.14a35.29,35.29,0,1,0,29.73,40.08h0A35.29,35.29,0,0,0,248.39,292.14Zm28.82,39.95a34.37,34.37,0,1,1-31.71-39.34q1.38.09,2.76.3A34.39,34.39,0,0,1,277.21,332.09Z"/><path class="cls-21" d="M248.39,292.15A35.28,35.28,0,1,0,238,361.94c.94.14,1.89.25,2.83.31a35.28,35.28,0,0,0,7.52-70.1Zm28,39.81a33.5,33.5,0,1,1-30.92-38.35c.9.06,1.8.16,2.69.29A33.55,33.55,0,0,1,276.36,332Z"/><path class="cls-22" d="M272.86,331.45a30,30,0,1,1-25.24-34.05A30,30,0,0,1,272.86,331.45Z"/><g class="cls-23"><g class="cls-24"><path class="cls-25" d="M261.06,322.15l0-.49a8.43,8.43,0,0,0-7.37-8.89l-.51,0-4.82-.3.29-4.57-2.67-.17-.28,4.57-1.88-.11.28-4.57-4.69-.3-.29,4.57-10-.62-.47,7.59,2.4.15-1.26,20.21-2.4-.15-.44,7,10,.62-.23,3.67,4.7.29.22-3.66,1.88.11-.22,3.67,2.66.16.23-3.66,4.72.29c.2,0,.41,0,.61,0a8.51,8.51,0,0,0,8.42-8l0-.49a8.42,8.42,0,0,0-7.37-8.89l-.51-.05h.51A8.52,8.52,0,0,0,261.06,322.15ZM247.74,337a2.58,2.58,0,0,1-2.73,2.42l-2.86-.18.44-7,2.95.19a2.48,2.48,0,0,1,2.32,2.64Zm.78-12.43a2.58,2.58,0,0,1-2.74,2.41l-2.85-.17.44-7,2.94.18a2.49,2.49,0,0,1,2.33,2.64Z"/></g><path class="cls-26" d="M260.44,321.33l0-.5A8.42,8.42,0,0,0,253.1,312a4.4,4.4,0,0,0-.51-.05l-4.82-.3.29-4.57-2.67-.17-.28,4.57-1.88-.12.28-4.57-4.69-.29-.28,4.57-10-.63L228,318l2.4.14-1.26,20.21-2.4-.15-.44,7,10,.62-.22,3.67,4.69.29.23-3.67,1.88.12-.23,3.67,2.66.16.23-3.66,4.72.29.61,0a8.52,8.52,0,0,0,8.43-8l0-.49a8.43,8.43,0,0,0-7.38-8.89l-.51-.05H252A8.52,8.52,0,0,0,260.44,321.33ZM247.13,336.2a2.58,2.58,0,0,1-2.74,2.41l-2.85-.17.43-7,2.95.19a2.49,2.49,0,0,1,2.33,2.64Zm.77-12.43a2.57,2.57,0,0,1-2.73,2.41l-2.86-.18.44-7,2.95.19a2.49,2.49,0,0,1,2.32,2.64Z"/></g><g class="cls-67"><g class="cls-28"><rect class="cls-29" x="239.56" y="284.04" width="7.73" height="92" transform="translate(363.53 -62.08) rotate(53.44)"/><rect class="cls-29" x="224.82" y="274.94" width="13.88" height="92" transform="translate(351.51 -56.38) rotate(53.44)"/><rect class="cls-29" x="246.97" y="292.6" width="3.87" height="92" transform="translate(372.62 -63.02) rotate(53.44)"/></g></g><path class="cls-22" d="M214.46,323.67a30,30,0,0,1,51.59-16,29.95,29.95,0,1,0-44.77,39.77A29.85,29.85,0,0,1,214.46,323.67Z"/><path class="cls-22" d="M265.24,306.73a30,30,0,0,1-44.7,39.88,30,30,0,1,0,44.7-39.88Z"/><path class="cls-19" d="M590.41,52.44c-.75-.54-1.53-1-2.32-1.53a34.43,34.43,0,1,0,2.32,1.53Z"/><path class="cls-68" d="M590.94,51.7a35.28,35.28,0,1,0,8.13,49.23h0A35.28,35.28,0,0,0,590.94,51.7Zm7.39,48.7a34.37,34.37,0,1,1-10.24-49.49c.79.48,1.57,1,2.32,1.53A34.41,34.41,0,0,1,598.33,100.4Z"/><path class="cls-21" d="M590.94,51.7a35.28,35.28,0,0,0-41.1,57.36c.78.55,1.57,1.08,2.38,1.57A35.29,35.29,0,0,0,590.94,51.7Zm6.69,48.2a33.51,33.51,0,1,1-10-48.24c.77.46,1.52,1,2.26,1.49A33.54,33.54,0,0,1,597.63,99.9Z"/><circle class="cls-22" cx="570.39" cy="80.38" r="29.97" transform="translate(203.29 524.27) rotate(-58.43)"/><g class="cls-23"><g class="cls-24"><path class="cls-25" d="M557.22,60.56c.63-.31,9.49,0,9.49,0V56h7.6v4.58h10V69L565.6,92.53h18.67V100H574V105h-7.12v-4.91H555.79V93l19.94-25H557.22Z"/></g><path class="cls-26" d="M556.6,59.74c.63-.31,9.49,0,9.49,0V55.15h7.6v4.59h10v8.39L565,91.71h18.67v7.43H573.37v5.07h-7.12V99.3H555.18V92.18l19.93-25H556.6Z"/></g><g class="cls-69"><g class="cls-28"><rect class="cls-29" x="565.35" y="37.14" width="7.73" height="92" transform="translate(558.51 -492.01) rotate(80.62)"/><rect class="cls-29" x="556.05" y="23.72" width="13.88" height="92" transform="translate(540.06 -497.11) rotate(80.62)"/><rect class="cls-29" x="568.24" y="47.26" width="3.87" height="92" transform="translate(569.3 -484.49) rotate(80.62)"/></g></g><path class="cls-22" d="M546.35,64.24a29.95,29.95,0,0,1,53.2,9.33,29.95,29.95,0,1,0-58,14.93A29.87,29.87,0,0,1,546.35,64.24Z"/><path class="cls-22" d="M599.26,72.37a30,30,0,0,1-58,15,30,30,0,1,0,58-15Z"/><path class="cls-19" d="M667,297.16c-.93-.07-1.86-.11-2.78-.11a34.36,34.36,0,1,0,34.22,37.19A34.43,34.43,0,0,0,667,297.16Z"/><path class="cls-70" d="M667,296.26a35.28,35.28,0,1,0,32.27,38.05h0A35.27,35.27,0,0,0,667,296.26Zm31.37,38a34.37,34.37,0,1,1-34.22-37.19c.92,0,1.85,0,2.78.11A34.43,34.43,0,0,1,698.41,334.24Z"/><path class="cls-21" d="M667,296.26a35.28,35.28,0,1,0-5.78,70.32q1.43.12,2.85.12A35.28,35.28,0,0,0,667,296.26Zm30.5,37.91a33.5,33.5,0,1,1-33.35-36.26c.9,0,1.8,0,2.71.12A33.53,33.53,0,0,1,697.54,334.17Z"/><circle class="cls-22" cx="664.15" cy="331.42" r="29.97" transform="translate(-67.64 455.62) rotate(-36.15)"/><g class="cls-23"><g class="cls-24"><polygon class="cls-25" points="664.07 306.76 648.14 335.19 664.07 345.17 680.89 335.34 664.07 306.76"/><polygon class="cls-25" points="648.14 335.19 664.52 329.09 680.89 335.34 664.07 345.17 648.14 335.19"/><polygon class="cls-25" points="648.14 337.13 663.85 348.07 680.89 337.13 663.92 359.86 648.14 337.13"/></g><polygon class="cls-26" points="663.7 306.27 647.77 334.7 663.7 344.68 680.53 334.85 663.7 306.27"/><polygon class="cls-31" points="647.77 334.7 664.15 328.6 680.53 334.85 663.7 344.68 647.77 334.7"/><polygon class="cls-26" points="647.77 336.64 663.48 347.58 680.53 336.64 663.55 359.37 647.77 336.64"/></g><g class="cls-71"><g class="cls-28"><rect class="cls-29" x="660.69" y="288.4" width="7.73" height="92" transform="translate(489.75 -388.72) rotate(49.7)"/><rect class="cls-29" x="645.38" y="280.08" width="13.88" height="92" transform="translate(479.08 -382.32) rotate(49.7)"/><rect class="cls-29" x="668.64" y="296.58" width="3.87" height="92" transform="translate(498.11 -390.42) rotate(49.7)"/></g></g><path class="cls-22" d="M635.23,329.93a30,30,0,0,1,50.44-19.33,30,30,0,1,0-42.08,42.61A29.91,29.91,0,0,1,635.23,329.93Z"/><path class="cls-22" d="M684.8,309.71a30,30,0,0,1-42,42.71,30,30,0,1,0,42-42.71Z"/><path class="cls-19" d="M55.19,158.7c-.77.52-1.52,1.06-2.24,1.63a34.47,34.47,0,1,0,2.24-1.63Z"/><path class="cls-72" d="M54.68,157.94a35.28,35.28,0,1,0,49,9.61h0A35.28,35.28,0,0,0,54.68,157.94Zm48.21,10.12A34.37,34.37,0,1,1,53,160.33c.72-.57,1.47-1.11,2.24-1.63A34.41,34.41,0,0,1,102.89,168.06Z"/><path class="cls-21" d="M54.68,157.94A35.28,35.28,0,1,0,94,216.51c.79-.53,1.56-1.09,2.3-1.68a35.29,35.29,0,0,0-41.66-56.89Zm47.49,10.6A33.5,33.5,0,1,1,53.49,161c.7-.56,1.43-1.09,2.18-1.59A33.54,33.54,0,0,1,102.17,168.54Z"/><circle class="cls-22" cx="74.36" cy="187.23" r="29.97" transform="translate(-78.04 55.47) rotate(-27.49)"/><g class="cls-23"><g class="cls-24"><polygon class="cls-25" points="58.69 168.34 63.98 200.5 82.65 198.36 89.67 180.18 58.69 168.34"/><polygon class="cls-25" points="63.98 200.5 72.97 185.51 89.67 180.18 82.65 198.36 63.98 200.5"/><polygon class="cls-25" points="65.18 202.01 84.29 200.77 90.78 181.58 91.7 209.93 65.18 202.01"/></g><polygon class="cls-26" points="58.32 167.85 63.61 200.01 82.28 197.87 89.3 179.69 58.32 167.85"/><polygon class="cls-31" points="63.61 200.01 72.6 185.02 89.3 179.69 82.28 197.87 63.61 200.01"/><polygon class="cls-26" points="64.82 201.52 83.92 200.28 90.42 181.09 91.33 209.44 64.82 201.52"/></g><g class="cls-73"><g class="cls-28"><rect class="cls-29" x="72.67" y="143.3" width="7.73" height="92" transform="translate(37.88 -11.19) rotate(11.1)"/><rect class="cls-29" x="54.84" y="144.43" width="13.88" height="92" transform="translate(37.83 -8.33) rotate(11.1)"/><rect class="cls-29" x="84.41" y="145.94" width="3.87" height="92" transform="translate(38.58 -13.03) rotate(11.1)"/></g></g><path class="cls-22" d="M50.83,204.1a29.95,29.95,0,0,1,27.36-46.57,29.95,29.95,0,1,0-6.31,59.55A29.86,29.86,0,0,1,50.83,204.1Z"/><path class="cls-22" d="M77,157.38A30,30,0,0,1,70.77,217,30,30,0,1,0,77,157.38Z"/><path class="cls-19" d="M67.38,308.1C66.59,308,65.81,308,65,308a29.29,29.29,0,1,0,2.35.08Z"/><path class="cls-74" d="M67.44,307.33a30,30,0,1,0,27.76,32h0A30,30,0,0,0,67.44,307.33Zm27,31.94A29.17,29.17,0,1,1,65,308c.78,0,1.56,0,2.35.08A29.22,29.22,0,0,1,94.43,339.27Z"/><path class="cls-21" d="M67.44,307.33a30,30,0,1,0-4.24,59.75c.81.06,1.62.09,2.42.08a30,30,0,0,0,1.82-59.83Zm26.25,31.89A28.44,28.44,0,1,1,65,308.76c.76,0,1.53,0,2.3.07A28.48,28.48,0,0,1,93.69,339.22Z"/><path class="cls-22" d="M90.7,339a25.45,25.45,0,1,1-23.58-27.18A25.45,25.45,0,0,1,90.7,339Z"/><g class="cls-23"><g class="cls-24"><polygon class="cls-25" points="40.39 342.31 42.58 347.66 56.52 347.66 56.52 336.8 66.21 346.48 75.16 337.52 75.16 347.66 89.43 347.66 91.29 342.23 80.67 342.23 80.67 324.15 66.08 338.74 51.17 323.18 51.17 342.23 40.39 342.31"/></g><polygon class="cls-26" points="39.87 341.61 42.06 346.96 56 346.96 56 336.1 65.68 345.78 74.64 336.83 74.64 346.96 88.9 346.96 90.77 341.53 80.15 341.53 80.15 323.45 65.56 338.04 50.65 322.48 50.65 341.53 39.87 341.61"/></g><g class="cls-75"><g class="cls-28"><rect class="cls-29" x="62.41" y="300.67" width="6.57" height="78.1" transform="translate(279.24 67.46) rotate(49.05)"/><rect class="cls-29" x="49.33" y="293.73" width="11.78" height="78.1" transform="translate(270.39 72.98) rotate(49.05)"/><rect class="cls-29" x="69.24" y="307.57" width="3.28" height="78.1" transform="translate(286.24 65.92) rotate(49.05)"/></g></g><path class="cls-22" d="M40.76,336.21a25.43,25.43,0,0,1,42.63-16.89A25.43,25.43,0,1,0,48.07,355.9,25.38,25.38,0,0,1,40.76,336.21Z"/><path class="cls-22" d="M82.64,318.58a25.43,25.43,0,0,1-35.25,36.66,25.43,25.43,0,1,0,35.25-36.66Z"/><path class="cls-19" d="M155.92,78.3c-.62.2-1.23.43-1.83.67a24.17,24.17,0,1,0,1.83-.67Z"/><path class="cls-76" d="M155.72,77.69a24.73,24.73,0,1,0,31.16,15.89h0A24.73,24.73,0,0,0,155.72,77.69Zm30.55,16.09A24.09,24.09,0,1,1,154.09,79c.6-.24,1.21-.47,1.83-.67A24.12,24.12,0,0,1,186.27,93.78Z"/><path class="cls-21" d="M155.72,77.69a24.73,24.73,0,1,0,15.27,47c.64-.2,1.26-.43,1.88-.69a24.73,24.73,0,0,0-17.15-46.35Zm30,16.27a23.48,23.48,0,1,1-31.37-14.43c.58-.24,1.18-.46,1.78-.65A23.51,23.51,0,0,1,185.69,94Z"/><circle class="cls-22" cx="163.35" cy="101.21" r="21.01" transform="translate(-21.67 49.28) rotate(-16.1)"/><g class="cls-23"><g class="cls-24"><polygon class="cls-25" points="145.68 113.04 149.01 116.46 159.68 112.14 156.31 103.83 166.72 108.24 170.8 98.61 173.94 106.36 184.86 101.95 184.6 97.21 176.48 100.5 170.88 86.67 164.23 102.36 148 95.07 153.9 109.64 145.68 113.04"/></g><polygon class="cls-26" points="145.24 112.47 148.58 115.88 159.24 111.56 155.88 103.25 166.29 107.66 170.37 98.04 173.51 105.79 184.42 101.37 184.17 96.64 176.04 99.93 170.44 86.1 163.8 101.78 147.57 94.49 153.47 109.07 145.24 112.47"/></g><g class="cls-77"><g class="cls-28"><rect class="cls-29" x="161.71" y="70.79" width="5.42" height="64.48" transform="translate(64.73 -63.44) rotate(27.01)"/><rect class="cls-29" x="149.39" y="68.72" width="9.73" height="64.48" transform="translate(62.69 -59.05) rotate(27.01)"/><rect class="cls-29" x="169.17" y="74.45" width="2.71" height="64.48" transform="translate(67.06 -65.81) rotate(27.01)"/></g></g><path class="cls-22" d="M144.25,108.06a21,21,0,0,1,27.39-26.13A21,21,0,1,0,156,120.86,20.93,20.93,0,0,1,144.25,108.06Z"/><path class="cls-22" d="M170.84,81.59a21,21,0,0,1-15.62,39,21,21,0,1,0,15.62-39Z"/><path class="cls-19" d="M670,172c-.59-.26-1.19-.49-1.79-.7a23.78,23.78,0,1,0,13.89,32.09A23.82,23.82,0,0,0,670,172Z"/><path class="cls-78" d="M670.28,171.45a24.42,24.42,0,1,0,12.43,32.21h0A24.41,24.41,0,0,0,670.28,171.45Zm11.85,32a23.78,23.78,0,1,1-13.89-32.09c.6.21,1.2.44,1.79.7A23.82,23.82,0,0,1,682.13,203.41Z"/><path class="cls-21" d="M670.28,171.45a24.42,24.42,0,0,0-19.79,44.64c.61.26,1.22.51,1.83.72a24.41,24.41,0,0,0,18-45.36Zm11.3,31.72A23.18,23.18,0,1,1,668,171.88q.88.31,1.74.69A23.22,23.22,0,0,1,681.58,203.17Z"/><circle class="cls-22" cx="660.39" cy="193.77" r="20.74" transform="translate(73.79 553.72) rotate(-47.89)"/><g class="cls-23"><g class="cls-24"><path class="cls-25" d="M673.36,193.7l.11-.32a5.83,5.83,0,0,0-3.28-7.29l-.33-.13-3.16-1.08,1-3-1.75-.6-1,3-1.23-.42,1-3-3.08-1.06-1,3-6.57-2.27-1.72,5,1.57.54-4.57,13.25-1.57-.54-1.59,4.6,6.57,2.27L652,208l3.07,1.06.83-2.4,1.23.42-.83,2.41,1.75.6.83-2.4,3.09,1.06.4.13a5.91,5.91,0,0,0,7.1-3.77l.11-.33a5.83,5.83,0,0,0-3.28-7.29l-.33-.12.34.1A5.9,5.9,0,0,0,673.36,193.7Zm-11.63,7.46a1.79,1.79,0,0,1-2.27,1.11l-1.87-.65,1.59-4.59,1.93.66a1.72,1.72,0,0,1,1.06,2.19Zm2.81-8.14a1.78,1.78,0,0,1-2.27,1.1l-1.87-.64,1.59-4.6,1.93.67a1.72,1.72,0,0,1,1.06,2.19Z"/></g><path class="cls-26" d="M672.93,193.13l.11-.32a5.83,5.83,0,0,0-3.28-7.29,2.53,2.53,0,0,0-.33-.12l-3.15-1.09,1-3-1.74-.6-1,3-1.23-.42,1-3-3.07-1.06-1,3L653.65,180l-1.72,5,1.57.55-4.57,13.24-1.57-.54-1.59,4.6,6.58,2.27-.83,2.4,3.07,1.06.83-2.4,1.24.43-.83,2.4,1.74.6.83-2.4,3.09,1.07.41.12a5.9,5.9,0,0,0,7.09-3.77l.11-.33a5.83,5.83,0,0,0-3.27-7.29l-.34-.12.34.1A5.9,5.9,0,0,0,672.93,193.13Zm-11.63,7.46A1.77,1.77,0,0,1,659,201.7l-1.88-.64,1.59-4.6,1.93.66a1.73,1.73,0,0,1,1.07,2.2Zm2.82-8.14a1.79,1.79,0,0,1-2.27,1.1l-1.87-.64,1.58-4.6,1.93.67a1.72,1.72,0,0,1,1.07,2.19Z"/></g><g class="cls-79"><g class="cls-28"><rect class="cls-29" x="657.3" y="163.97" width="5.35" height="63.66" transform="translate(605.2 -490.42) rotate(68.91)"/><rect class="cls-29" x="649.07" y="155.75" width="9.6" height="63.66" transform="translate(593.62 -489.99) rotate(68.91)"/><rect class="cls-29" x="660.71" y="170.69" width="2.68" height="63.66" transform="translate(612.8 -488.05) rotate(68.91)"/></g></g><path class="cls-22" d="M641.83,186.21a20.73,20.73,0,0,1,37.36-1.15A20.73,20.73,0,1,0,642,203.32,20.66,20.66,0,0,1,641.83,186.21Z"/><path class="cls-22" d="M678.82,184.28a20.73,20.73,0,0,1-37.17,18.35,20.73,20.73,0,1,0,37.17-18.35Z"/><circle class="cls-14" cx="432.46" cy="22.91" r="2.77"/><path class="cls-14" d="M375,125.09a2.78,2.78,0,1,1-2.77-2.77A2.77,2.77,0,0,1,375,125.09Z"/><path class="cls-14" d="M715.19,114.68a2.78,2.78,0,1,1-2.78-2.78A2.77,2.77,0,0,1,715.19,114.68Z"/><path class="cls-14" d="M495.89,273.27a2.78,2.78,0,1,1-2.77-2.77A2.77,2.77,0,0,1,495.89,273.27Z"/><circle class="cls-14" cx="48.08" cy="402.32" r="2.77"/><circle class="cls-14" cx="160.58" cy="59.3" r="2.77"/><path class="cls-14" d="M77.13,19.11a2.78,2.78,0,1,1-2.77-2.77A2.77,2.77,0,0,1,77.13,19.11Z"/><path class="cls-14" d="M535.71,461a2.78,2.78,0,1,1-2.77-2.78A2.77,2.77,0,0,1,535.71,461Z"/><polygon class="cls-14" points="666.01 17.12 666.01 18.74 663.07 18.74 663.07 21.68 661.45 21.68 661.45 18.74 658.51 18.74 658.51 17.12 661.45 17.12 661.45 14.18 663.07 14.18 663.07 17.12 666.01 17.12"/><polygon class="cls-14" points="240.72 17.12 240.72 18.74 237.78 18.74 237.78 21.68 236.16 21.68 236.16 18.74 233.22 18.74 233.22 17.12 236.16 17.12 236.16 14.18 237.78 14.18 237.78 17.12 240.72 17.12"/><polygon class="cls-14" points="510.91 100.4 510.91 102.02 507.97 102.02 507.97 104.96 506.35 104.96 506.35 102.02 503.41 102.02 503.41 100.4 506.35 100.4 506.35 97.46 507.97 97.46 507.97 100.4 510.91 100.4"/><polygon class="cls-14" points="333.98 71.75 333.98 73.37 331.04 73.37 331.04 76.31 329.42 76.31 329.42 73.37 326.48 73.37 326.48 71.75 329.42 71.75 329.42 68.81 331.04 68.81 331.04 71.75 333.98 71.75"/><polygon class="cls-14" points="188.1 412.98 188.1 414.6 185.16 414.6 185.16 417.54 183.54 417.54 183.54 414.6 180.6 414.6 180.6 412.98 183.54 412.98 183.54 410.04 185.16 410.04 185.16 412.98 188.1 412.98"/><polygon class="cls-14" points="53.96 283.9 53.96 285.52 51.02 285.52 51.02 288.46 49.4 288.46 49.4 285.52 46.46 285.52 46.46 283.9 49.4 283.9 49.4 280.96 51.02 280.96 51.02 283.9 53.96 283.9"/><polygon class="cls-14" points="679.8 431.93 679.8 433.55 676.86 433.55 676.86 436.49 675.24 436.49 675.24 433.55 672.3 433.55 672.3 431.93 675.24 431.93 675.24 428.99 676.86 428.99 676.86 431.93 679.8 431.93"/><polygon class="cls-14" points="716.16 206.72 716.16 208.34 713.22 208.34 713.22 211.28 711.6 211.28 711.6 208.34 708.66 208.34 708.66 206.72 711.6 206.72 711.6 203.78 713.22 203.78 713.22 206.72 716.16 206.72"/><polygon class="cls-14" points="40.51 110.19 40.51 111.81 37.57 111.81 37.57 114.75 35.95 114.75 35.95 111.81 33.01 111.81 33.01 110.19 35.95 110.19 35.95 107.25 37.57 107.25 37.57 110.19 40.51 110.19"/><path class="cls-14" d="M89.36,46.19a12.79,12.79,0,0,0-2.55-.87,29.73,29.73,0,0,0-8.26-.46,67.35,67.35,0,0,0-9,1.12,1,1,0,0,1-1-.31c-.6-.61-1.27-1.16-1.91-1.73a20.18,20.18,0,0,0-7.29-3.39A19.27,19.27,0,0,0,35.9,57.12a.71.71,0,0,1-.44.63c-1.22.66-2.44,1.31-3.63,2a46.47,46.47,0,0,0-9,6.55,13.9,13.9,0,0,0-3,3.91c-1.08,2.29-.46,4.21,1.79,5.37a10.55,10.55,0,0,0,2.18.8,27.11,27.11,0,0,0,8.33.61,83.2,83.2,0,0,0,16.36-2.65,126.72,126.72,0,0,0,24.32-8.82,66.29,66.29,0,0,0,14-8.65,17.14,17.14,0,0,0,4.38-5.06C92.43,49.44,91.78,47.35,89.36,46.19ZM38.9,70c-.49,0-1,.11-1.57.14a15.51,15.51,0,0,1-5.13-.33,4.73,4.73,0,0,1-1-.41,1.58,1.58,0,0,1-.75-2.06,4.81,4.81,0,0,1,1.51-2.11c1.22-1,2.51-2,3.77-2.93a1,1,0,0,1,.17-.09c.35,1.18.64,2.36,1,3.51,2.33.32,10.67,1.1,24.2-1.8C61.12,64,52.67,67.89,38.9,70ZM79.57,53.41a13.5,13.5,0,0,1-3.33,3.11c-.63.46-1.3.88-2,1.36a19.61,19.61,0,0,0-2.46-8.08,18.35,18.35,0,0,1,6.62.25C80.27,50.59,80.69,51.8,79.57,53.41Zm-20,18.85a125.48,125.48,0,0,0,13.17-5.37c-4.6,10.85-17.75,14.6-26.84,9.28A125.88,125.88,0,0,0,59.52,72.26Z"/></g></g></svg>