<?xml version="1.0" encoding="utf-8"?>
<!-- Generator: Adobe Illustrator 26.0.3, SVG Export Plug-In . SVG Version: 6.00 Build 0)  -->
<svg version="1.1" id="Layer_1" xmlns="http://www.w3.org/2000/svg" xmlns:xlink="http://www.w3.org/1999/xlink" x="0px" y="0px"
	 viewBox="0 0 694.8 214.1" style="enable-background:new 0 0 694.8 214.1;" xml:space="preserve">
<style type="text/css">
	.st0{fill:#FFFFFF;}
	.st1{fill:url(#SVGID_1_);}
	.st2{fill:url(#SVGID_00000019679285017824417980000011420040399962253478_);}
	.st3{clip-path:url(#SVGID_00000129921626473607517540000008948037221720182676_);}
	.st4{fill:url(#SVGID_00000108303297254128897550000006543946739176510875_);}
</style>
<circle class="st0" cx="107" cy="107.4" r="98.1"/>
<g>
	<g>
		
			<linearGradient id="SVGID_1_" gradientUnits="userSpaceOnUse" x1="107.3" y1="25.03" x2="107.3" y2="-144.49" gradientTransform="matrix(1 0 0 1 0 184)">
			<stop  offset="0" style="stop-color:#690ABC"/>
			<stop  offset="0.43" style="stop-color:#084DBC"/>
			<stop  offset="1" style="stop-color:#00C1FC"/>
		</linearGradient>
		<path class="st1" d="M107.2,6C50.9,6,5.2,51.7,5.2,108.1s45.7,102.1,102.1,102.1s102.1-45.7,102.1-102.1l0,0
			C209.3,51.7,163.6,6.1,107.2,6z M201.2,108.1c0,51.9-42.1,94-94,94s-94-42.1-94-94s42.1-94,94-94
			C159.1,14.2,201.2,56.2,201.2,108.1L201.2,108.1z"/>
		
			<linearGradient id="SVGID_00000020357860952411319440000013493585983421441924_" gradientUnits="userSpaceOnUse" x1="107.2" y1="33.45" x2="107.2" y2="-136.74" gradientTransform="matrix(1 0 0 1 0 184)">
			<stop  offset="0" style="stop-color:#690ABC"/>
			<stop  offset="0.43" style="stop-color:#084DBC"/>
			<stop  offset="1" style="stop-color:#00C1FC"/>
		</linearGradient>
		<circle style="fill:url(#SVGID_00000020357860952411319440000013493585983421441924_);" cx="107.2" cy="108.1" r="88.8"/>
		<g>
			<g>
				<defs>
					<circle id="SVGID_00000037685248438263263510000001382534059042947247_" cx="107.2" cy="108.1" r="88.8"/>
				</defs>
				<clipPath id="SVGID_00000161597805494875600640000005286953149661980307_">
					<use xlink:href="#SVGID_00000037685248438263263510000001382534059042947247_"  style="overflow:visible;"/>
				</clipPath>
				<g style="clip-path:url(#SVGID_00000161597805494875600640000005286953149661980307_);">
					<circle class="st0" cx="136.7" cy="96" r="78.2"/>
					
						<linearGradient id="SVGID_00000023266435656275653250000003945781599611970229_" gradientUnits="userSpaceOnUse" x1="90.6055" y1="33.45" x2="90.6055" y2="-136.74" gradientTransform="matrix(1 0 0 1 0 184)">
						<stop  offset="0" style="stop-color:#690ABC"/>
						<stop  offset="0.43" style="stop-color:#084DBC"/>
						<stop  offset="1" style="stop-color:#00C1FC"/>
					</linearGradient>
					<path style="fill:url(#SVGID_00000023266435656275653250000003945781599611970229_);" d="M175.7,92c-0.4-2.4-1-4.8-1.6-7.2
						s-0.8-2.5-3-2c-4.3,1-8.6,2-12.8,3.1c-1.6,0.5-3.4,0.2-4.7-0.8c-3.7-2.6-4.2-6.3-12.4-5.5c-0.6,0.1-1.3-0.7-1.7-1.2
						c-1.9-3.1-3.7-6.3-5.6-9.5c-0.9-1.7-1.9-3.2-3-4.8c-1.1-1.3-2.4-1.2-3.5,0.1c-0.7,1-1.2,2.1-1.5,3.3c-0.9,3-1.7,5.2-2.5,8.2
						c-0.4,2-0.9,3.9-1.6,5.9c-2.3,5.8-6.4,11.2-8.9,16.9c-2.9,6.5-3.2,13.7-4.5,20.6c0,0.1-0.1,0.2-0.1,0.4
						c-4.5,0.9-8.9,2.1-13.1,3.8C56,138.6,18,82.2,18,82.2L5.4,157c0,0,59.5,12.1,92.4-12.3C90,163.7,84,179.8,84,179.8
						c-8.1,19-12.4,27.9-12.4,27.9l72.9,7.8c-0.7-11.4-1.4-21.8-1.4-21.8c20.5-36.7,12.4-50.4,9.7-53.6c2.3-1.7,2.8-4.9,1.1-7.2
						c-0.6-0.9-1.5-1.5-2.5-1.8c0.2-4.7,0.4-9.5,0.6-14.2c-0.1-2,1.2-3.9,3.2-4.5c2.6-1,5-2.4,7.6-3.3c4.8-1.8,8.2-5.1,11.1-9.2
						C175.4,97.5,176.1,94.7,175.7,92z"/>
					<path class="st0" d="M19.3,142.8c1.1,0.1,12.1,11,48,8.5c0,0-16.2,5.9-46.7-0.2L19.3,142.8z"/>
					<path class="st0" d="M19.5,85.6c0,0,18.9,28.2,46.2,37.4c0,0-34.9-18.7-44-43L19.5,85.6z"/>
					<path class="st0" d="M32.3,157.8c0,0,23.3,4.4,52.3-5.6c0,0-19.9,10.1-51.3,10.1L32.3,157.8z"/>
					<path class="st0" d="M146,134.2c0,0-24-17-43.1,6C102.8,140.2,120.6,122.4,146,134.2z"/>
					<path class="st0" d="M52.6,122c0,0,20.9,13,40.2,5.2C92.7,127.1,72.7,140.4,52.6,122z"/>
				</g>
			</g>
		</g>
	</g>
	<g>
		<path class="st0" d="M62.8,170.1c1.3-0.7,2.3-1.9,2.5-3.4c0.2,1.5,1.2,2.7,2.5,3.4c0.3,0.1,0.6,0.2,0.9,0.3c0,0-0.6,0.2-0.9,0.3
			c-1.3,0.7-2.3,1.9-2.5,3.4c-0.2-1.5-1.2-2.7-2.5-3.4c-0.2-0.1-0.9-0.3-0.9-0.3C62.2,170.3,62.5,170.2,62.8,170.1z"/>
		<circle class="st0" cx="67.7" cy="45.5" r="1.3"/>
		<circle class="st0" cx="47.8" cy="90.1" r="1.3"/>
		<path class="st0" d="M47.9,58.4c2.5-1.3,4.3-3.7,4.8-6.5c0.4,2.8,2.2,5.2,4.8,6.5c0.5,0.2,1.1,0.4,1.7,0.6
			c-0.6,0.2-1.1,0.4-1.7,0.6c-2.5,1.3-4.3,3.7-4.8,6.4c-0.5-2.8-2.2-5.2-4.8-6.5c-0.5-0.2-1.1-0.4-1.7-0.5
			C46.8,58.8,47.3,58.6,47.9,58.4z"/>
		<path class="st0" d="M36,72c1.6-0.8,2.7-2.3,3-4c0.3,1.7,1.4,3.2,3,4c0.3,0.1,0.7,0.3,1,0.4c-0.3,0.1-0.7,0.2-1,0.4
			c-1.6,0.8-2.7,2.3-3,4c-0.3-1.7-1.4-3.2-3-4c-0.3-0.1-0.7-0.3-1-0.4C35.4,72.3,35.7,72.1,36,72z"/>
		<circle class="st0" cx="80.4" cy="170.9" r="1.3"/>
		<path class="st0" d="M107.2,197.4c-49.4,0-89.4-40-89.4-89.4s40-89.4,89.4-89.4s89.4,40,89.4,89.4l0,0
			C196.5,157.4,156.6,197.4,107.2,197.4z M107.2,19.8C58.5,19.8,19,59.3,19,108.1s39.5,88.2,88.2,88.2s88.2-39.5,88.2-88.2l0,0
			C195.4,59.4,155.9,19.9,107.2,19.8z"/>
		<path class="st0" d="M148.2,131.6c-6.9-8.3-17.2-12.9-28-12.4C120.2,119.2,138.6,115.1,148.2,131.6z"/>
	</g>
</g>
<g>
	<path d="M240.4,111.6c-0.1-3.7,0.5-7.4,1.8-11c1.1-3,2.7-5.7,4.9-7.9c2.2-2.2,4.8-3.8,7.7-4.9c3.2-1.1,6.6-1.7,10-1.7
		c3.2,0,6.3,0.6,9.3,1.8c2.7,1.1,5.2,2.8,7.4,4.9c2.1,2.1,3.8,4.6,4.9,7.4c1.2,3,1.8,6.1,1.8,9.3c0,3.2-0.5,6.4-1.7,9.4
		c-1.1,2.7-2.7,5.2-4.8,7.3c-2,2.1-4.5,3.7-7.1,4.9c-2.8,1.2-5.9,1.7-9,1.7c-3.1,0.1-6.1-0.6-8.9-1.9c-2.4-1.1-4.4-2.7-6.1-4.8v23.1
		h-10L240.4,111.6z M264,124c1.9,0,3.8-0.4,5.5-1.1c1.6-0.7,3.1-1.7,4.3-3c1.2-1.3,2.2-2.9,2.8-4.5c0.7-1.8,1-3.8,1-5.7
		c0-1.9-0.3-3.8-1-5.6c-1.2-3.4-3.8-6.1-7.1-7.5c-1.7-0.7-3.6-1.1-5.5-1.1s-3.8,0.3-5.5,1.1c-3.3,1.3-5.9,4-7.2,7.3
		c-1.3,3.7-1.3,7.8,0,11.5c0.6,1.7,1.6,3.2,2.8,4.6c1.2,1.3,2.7,2.3,4.3,3C260.2,123.6,262.1,124,264,124L264,124z"/>
	<path d="M336.4,131.6c-0.6,0.1-1.5,0.3-2.8,0.4c-1.2,0.1-2.8,0.3-4.4,0.4c-1.7,0.1-3.7,0.3-5.7,0.4c-2.1,0.1-4.3,0.2-6.6,0.2
		c-3.8,0.1-7.6-0.3-11.2-1.2c-2.5-0.6-4.8-1.7-6.9-3.2c-1.6-1.2-2.8-2.8-3.4-4.6c-0.6-1.7-0.9-3.5-0.9-5.3c0-2.2,0.3-4.3,1.1-6.4
		c0.8-1.8,2-3.4,3.7-4.6c2-1.4,4.2-2.3,6.6-2.8c3.2-0.7,6.6-1,9.9-0.9c2.2,0,4.3,0.1,6.3,0.2s3.5,0.3,4.5,0.4c0.1-1.8-0.3-3.5-1-5.1
		c-0.6-1.3-1.6-2.4-2.8-3.2c-1.3-0.8-2.7-1.3-4.2-1.6c-1.8-0.3-3.6-0.5-5.5-0.4c-2.7-0.1-5.5,0.3-8.1,1.1c-1.4,0.5-2.8,1.1-4,1.9
		c-0.5-0.5-1-1.1-1.5-1.7c-0.6-0.9-1-1.9-0.9-3c0-0.9,0.2-1.7,0.7-2.4c0.6-0.9,1.4-1.6,2.3-2.1c1.4-0.7,2.9-1.2,4.5-1.5
		c2.4-0.4,4.8-0.6,7.2-0.5c3.2,0,6.4,0.3,9.5,1c2.6,0.6,5.1,1.7,7.3,3.2c2.1,1.5,3.7,3.5,4.8,5.8c1.2,2.7,1.8,5.7,1.7,8.7
		L336.4,131.6z M326.5,112c-0.6-0.1-1.7-0.3-3.3-0.5c-2.4-0.3-4.9-0.4-7.3-0.4c-4,0-6.9,0.6-8.7,1.8c-1.9,1.3-2.9,3.4-2.7,5.7
		c0,1,0.2,2,0.6,2.9s1.1,1.7,2,2.3c1.2,0.7,2.5,1.2,3.8,1.4c2,0.4,4,0.5,6.1,0.5c2.2,0,4.3-0.1,6.4-0.3c1.6-0.2,2.6-0.4,3.2-0.5
		L326.5,112z"/>
	<path d="M346.8,103.3c0-5.4,1.7-9.6,5-12.6s7.9-4.5,13.8-4.4c3.1-0.1,6.2,0.4,9,1.5c2.3,1,3.5,2.6,3.5,4.7c0,1-0.3,2-0.8,2.9
		c-0.3,0.7-0.8,1.3-1.4,1.8c-1.2-0.5-2.4-1-3.7-1.3c-1.6-0.4-3.3-0.6-5-0.6c-6.9,0-10.3,3.7-10.3,11v25.6h-10L346.8,103.3z"/>
	<path d="M383.4,71.4c-0.1-1.3,0.4-2.6,1.4-3.5c1.1-0.8,2.6-1.2,4-1.1c1,0,2,0.1,2.9,0.4s1.5,0.5,1.8,0.6v36
		c0.8-0.5,1.8-1.3,3.2-2.3c1.4-1,2.9-2.1,4.6-3.4c1.7-1.2,3.5-2.5,5.3-3.9s3.6-2.6,5.2-3.8c1.1-0.8,2.3-1.5,3.5-2.2
		c1.3-0.6,2.7-0.8,4.1-0.8c1.5-0.1,2.9,0.4,4.1,1.2c0.8,0.6,1.6,1.4,2.1,2.2c-1.2,1.1-2.9,2.5-5.1,4.1c-2.1,1.6-4.3,3.2-6.6,4.9
		c-2.2,1.6-4.3,3.1-6.3,4.5s-3.4,2.4-4.3,3c4.9,3.6,9.5,7.7,13.7,12.1c3.7,3.9,7.2,8,10.4,12.3h-12.5c-1.4-1.6-2.9-3.4-4.5-5.2
		c-1.7-1.8-3.5-3.6-5.4-5.3s-3.8-3.4-5.8-5s-3.9-3.1-5.7-4.5v20h-10L383.4,71.4z"/>
	<path d="M455,79.6c-0.1-1.3,0.4-2.7,1.4-3.6c1.1-0.8,2.5-1.2,3.9-1.1c1,0,2,0.1,3,0.4c0.9,0.3,1.5,0.5,1.8,0.6v11.5h12.8
		c1.5-0.1,2.9,0.3,4.1,1.2c0.9,0.9,1.3,2.2,1.2,3.5c0,0.9-0.1,1.9-0.4,2.8s-0.5,1.4-0.7,1.8H465v19.7c0,1.3,0.2,2.6,0.6,3.8
		c0.4,0.9,1,1.7,1.7,2.3c0.8,0.6,1.6,1,2.6,1.2s2,0.4,3,0.4c1.6,0,3.2-0.3,4.8-0.8c1.1-0.4,2.2-0.9,3.2-1.5l4.1,6.7
		c-0.5,0.4-1.1,0.8-2,1.3c-1,0.6-2,1.1-3.1,1.5c-1.3,0.5-2.7,0.9-4.1,1.2c-1.7,0.3-3.3,0.5-5,0.5c-5.2,0-9.1-1.3-11.7-4
		c-2.7-2.8-4.1-6.6-4-10.5L455,79.6z"/>
	<path d="M512.6,86.3c3.3,0,6.5,0.6,9.6,1.8c2.9,1.1,5.5,2.8,7.7,4.9s3.9,4.6,5.1,7.4c1.3,2.9,1.9,6.1,1.9,9.3
		c0,3.2-0.6,6.3-1.9,9.2c-1.2,2.8-2.9,5.3-5.1,7.4c-2.2,2.1-4.9,3.8-7.7,4.9c-6.2,2.4-13,2.4-19.1,0c-2.9-1.1-5.5-2.8-7.7-4.9
		s-3.9-4.6-5.1-7.4c-1.2-2.9-1.9-6-1.9-9.2s0.6-6.4,1.9-9.3c1.2-2.8,2.9-5.3,5.1-7.4s4.8-3.8,7.7-4.9
		C506.1,86.8,509.3,86.2,512.6,86.3z M512.6,124.1c1.9,0,3.8-0.4,5.6-1.1c1.7-0.7,3.1-1.8,4.4-3.1c1.2-1.3,2.2-2.9,2.8-4.6
		c0.7-1.8,1-3.7,1-5.7s-0.3-3.9-1-5.8c-0.6-1.7-1.6-3.3-2.8-4.6c-1.2-1.3-2.7-2.3-4.4-3c-3.6-1.5-7.6-1.5-11.2,0
		c-1.6,0.7-3.1,1.7-4.3,3c-1.2,1.3-2.2,2.9-2.8,4.6c-0.7,1.8-1,3.8-1,5.8c0,1.9,0.3,3.9,1,5.7c0.6,1.7,1.6,3.2,2.8,4.6
		c1.2,1.3,2.7,2.4,4.3,3.1C508.8,123.7,510.7,124.1,512.6,124.1z"/>
	<path d="M545.3,71.4c-0.1-1.3,0.4-2.6,1.4-3.5c1.1-0.8,2.6-1.2,4-1.1c1,0,2,0.1,2.9,0.4s1.5,0.5,1.8,0.6v36
		c0.8-0.5,1.8-1.3,3.2-2.3s2.9-2.1,4.6-3.4s3.5-2.5,5.3-3.9s3.6-2.6,5.2-3.8c1.1-0.8,2.3-1.5,3.5-2.2c1.3-0.6,2.7-0.8,4.1-0.8
		c1.5-0.1,2.9,0.4,4.1,1.2c0.8,0.6,1.6,1.4,2.1,2.2c-1.2,1.1-2.9,2.5-5.1,4.1c-2.1,1.6-4.3,3.2-6.6,4.9s-4.3,3.1-6.3,4.5
		s-3.4,2.4-4.3,3c4.9,3.6,9.5,7.7,13.7,12.1c3.7,3.9,7.2,8,10.4,12.3h-12.5c-1.4-1.6-2.9-3.4-4.5-5.2c-1.7-1.8-3.5-3.6-5.4-5.3
		s-3.8-3.4-5.8-5s-3.9-3.1-5.7-4.5v20h-10V71.4H545.3z"/>
	<path d="M632.8,128.5c-0.5,0.3-1.2,0.7-2.2,1.2c-1.2,0.6-2.5,1.1-3.8,1.5c-1.7,0.5-3.4,0.9-5.2,1.2c-2.1,0.4-4.3,0.5-6.5,0.5
		c-3.1,0-6.2-0.5-9.2-1.5c-2.8-1-5.3-2.5-7.5-4.4c-2.2-2-3.9-4.5-5.1-7.2c-1.3-3.1-1.9-6.5-1.9-9.8s0.6-6.6,1.9-9.7
		c1.1-2.8,2.8-5.4,5-7.5s4.8-3.8,7.6-4.9c3.1-1.2,6.3-1.8,9.6-1.7c2.8,0,5.5,0.4,8.1,1.2c2.2,0.7,4.2,1.8,6,3.2
		c3.1,2.5,4.9,6.3,4.9,10.3c0,1.9-0.4,3.8-1.1,5.6c-0.9,1.8-2.3,3.3-4.1,4.3c-2.4,1.4-5.1,2.3-7.8,2.8c-4.1,0.8-8.3,1.1-12.5,1
		c-1.2,0-2.3,0-3.3,0s-2.1-0.1-3.3-0.1c0.4,2.9,2,5.6,4.4,7.3c2.4,1.9,5.9,2.8,10.4,2.8c1.4,0,2.8-0.1,4.2-0.4
		c1.2-0.2,2.3-0.5,3.5-0.9c0.9-0.3,1.8-0.7,2.6-1.1l1.6-0.8L632.8,128.5z M601.8,107.6c1.4,0,2.6,0.1,3.9,0.1h3.7
		c2.6,0.1,5.3-0.2,7.8-0.6c1.6-0.3,3.2-0.8,4.7-1.6c0.9-0.5,1.7-1.3,2.2-2.2c0.3-0.8,0.5-1.7,0.5-2.6c0.1-2-0.9-4-2.7-5
		c-2-1.2-4.3-1.7-6.6-1.7c-2,0-3.9,0.3-5.7,1.1c-1.6,0.7-3,1.8-4.1,3c-1.1,1.3-2,2.8-2.6,4.4C602.2,104.2,601.9,105.9,601.8,107.6
		L601.8,107.6z"/>
	<path d="M642,105c-0.1-2.7,0.5-5.4,1.6-7.9c1-2.3,2.6-4.3,4.5-5.9c2-1.6,4.3-2.9,6.8-3.7c2.8-0.9,5.7-1.3,8.6-1.2
		c2.9,0,5.8,0.4,8.6,1.2c2.5,0.8,4.8,2,6.8,3.7c1.9,1.6,3.4,3.6,4.5,5.9c1.1,2.5,1.6,5.2,1.6,7.9v26.7h-10v-24.2c0-4-1-7-2.9-9.1
		s-4.8-3.1-8.5-3.1s-6.7,1-8.6,3.1c-1.9,2.1-2.9,5.1-2.9,9.1v24.2h-10L642,105z"/>
</g>
</svg>
