<?xml version="1.0" encoding="utf-8"?>
<!-- Generator: Adobe Illustrator 26.0.3, SVG Export Plug-In . SVG Version: 6.00 Build 0)  -->
<svg version="1.1" id="Layer_1" xmlns="http://www.w3.org/2000/svg" xmlns:xlink="http://www.w3.org/1999/xlink" x="0px" y="0px"
	 viewBox="0 0 1920 1080" style="enable-background:new 0 0 1920 1080;" xml:space="preserve">
<style type="text/css">
	.st0{fill:#F8FAFF;}
	.st1{clip-path:url(#SVGID_00000085250787314020515340000005166259281851016839_);}
	.st2{fill:#EBF3FF;}
</style>
<path id="Path_96" class="st0" d="M0,0h1920v1080c0,0-337.4-195.1-954.2-86.6S0.1,827.9,0.1,827.9L0,0z"/>
<g>
	<g>
		<defs>
			<path id="SVGID_1_" d="M0,0h1920v1080c0,0-337.4-195.1-954.2-86.6S0.1,827.9,0.1,827.9L0,0z"/>
		</defs>
		<clipPath id="SVGID_00000155834968587682736170000014549431444662667704_">
			<use xlink:href="#SVGID_1_"  style="overflow:visible;"/>
		</clipPath>
		<g style="clip-path:url(#SVGID_00000155834968587682736170000014549431444662667704_);">
			<g>
				<path class="st2" d="M89.3,218.4c7-3.5,11.9-10.2,13.1-17.9c1.3,7.7,6.1,14.4,13.1,17.9c1.5,0.6,3.1,1.1,4.6,1.5
					c-1.5,0.4-3.1,1-4.6,1.5c-7,3.5-11.9,10.2-13.1,17.9c-1.3-7.7-6.1-14.4-13.1-17.9c-1.5-0.6-3.1-1.1-4.6-1.5
					C86.2,219.5,87.7,219.1,89.3,218.4z"/>
				<path class="st2" d="M320.5,171.4c11.5-5.4,19.8-16.8,22.2-30.3c2.4,13.6,10.8,24.7,22.2,30.3c2.5,1,5.2,2,7.8,2.7
					c-2.7,0.7-5.3,1.7-7.8,2.7c-11.5,5.4-19.8,16.8-22.2,30.3c-2.4-13.6-10.8-24.7-22.2-30.3c-2.5-1-5.2-2-7.8-2.7
					C315.3,173.4,318,172.4,320.5,171.4z"/>
				<path class="st2" d="M147.8,27.7c10.5-5,18.2-15.2,20.3-27.7c2.1,12.3,9.8,22.6,20.3,27.7c2.4,1,4.8,1.8,7.1,2.5
					c-2.4,0.7-4.8,1.5-7.1,2.5c-10.5,5-18.2,15.2-20.3,27.7c-2.1-12.4-9.8-22.6-20.3-27.7c-2.4-1-4.8-1.8-7.1-2.5
					C143.1,29.3,145.6,28.5,147.8,27.7z"/>
				<circle class="st2" cx="209.8" cy="141.1" r="8.1"/>
				<circle class="st2" cx="445.8" cy="145.2" r="8.1"/>
				<circle class="st2" cx="397.5" cy="260.6" r="8.1"/>
				<circle class="st2" cx="56" cy="312.5" r="8.1"/>
				<circle class="st2" cx="8.1" cy="141.1" r="8.1"/>
				<path class="st2" d="M395.8,63.4c0.4,1.5,0.4,3.1,0,4.6c-1.3,4.9-6.1,7.8-11,6.7c-4.2-1-7.1-4.9-7-9.2c0-0.3-0.1-0.6-0.4-0.7
					c-4.3-2.5-6-8-3.5-12.4c1.8-3.1,5.2-4.9,8.8-4.6c2.1,0.1,3.9,1,5.4,2.5l0.3,0.3l0.1,0.1c0.1-0.1,0.3-0.1,0.4-0.3
					c5-2.8,10.1-5.6,15.1-8.4c0.3-0.1,0.4-0.4,0.4-0.7l0,0c-1.1-4.9,2.1-9.8,7-10.9c4.9-1.1,9.8,2.1,10.9,7c0.1,0.7,0.3,1.5,0.1,2.2
					c0,0.3,0.1,0.6,0.4,0.7c4.3,2.5,6,8,3.5,12.4c-1.8,3.2-5.2,5-8.8,4.6c-2.1-0.1-4.1-1.1-5.4-2.5c-0.3-0.3-0.4-0.3-0.7-0.1
					C406.3,57.6,401.1,60.4,395.8,63.4L395.8,63.4z M383.8,51.6c-2.9-1-6,0.7-7,3.6c-0.8,2.9,0.7,5.9,3.5,6.8c1,0.1,1.7,1.1,1.5,2.1
					c0,0.1,0,0.3-0.1,0.3c-0.7,2.9,1.1,5.9,4.1,6.6c1.8,0.4,3.6,0,5-1.3c1.8-1.5,2.2-4.2,1.3-6.3c-0.6-0.8-0.3-2,0.6-2.5
					c0.1,0,0.1-0.1,0.3-0.1l18.4-10.3c0.8-0.6,2-0.4,2.5,0.4c0,0.1,0.1,0.1,0.1,0.3c1.3,2,3.8,2.9,6,2.2c2.9-0.8,4.6-3.9,3.8-6.7
					c-0.6-1.8-1.8-3.1-3.6-3.6c-1-0.1-1.7-1.1-1.5-2.1c0-0.1,0-0.3,0.1-0.4c0.6-2.4-0.4-4.8-2.5-6c-2.1-1.3-4.6-1-6.4,0.7
					c-1.8,1.5-2.4,4.2-1.3,6.3c0.6,0.8,0.3,2-0.6,2.5c-0.1,0-0.3,0.1-0.3,0.1l-18.4,10.3c-0.8,0.6-2,0.4-2.5-0.4
					c-0.1-0.1-0.1-0.1-0.1-0.3C385.9,52.8,384.9,52,383.8,51.6z"/>
				<path class="st2" d="M297.4,316.7c-1,1-2.4,1.7-3.6,2.1c-4.5,1.1-9.1-1.7-10.2-6.3c-1-3.8,0.8-7.7,4.3-9.5
					c0.3-0.1,0.4-0.4,0.4-0.7c0.1-4.6,3.9-8.4,8.7-8.2c3.4,0,6.3,2.1,7.5,5.2c0.7,1.7,0.8,3.6,0.4,5.4l-0.1,0.4v0.1l0.4,0.3
					c4.5,2.9,9.1,5.7,13.6,8.7c0.3,0.1,0.6,0.1,0.8,0l0,0c3.5-3.1,8.8-2.7,11.9,1c3.1,3.5,2.7,8.8-1,11.9c-0.6,0.4-1.1,0.8-1.8,1.1
					c-0.3,0.1-0.4,0.3-0.4,0.6c0,4.6-3.9,8.4-8.5,8.4c-3.4,0-6.3-2.1-7.7-5.2c-0.8-1.8-0.8-3.8-0.3-5.6c0.1-0.3,0.1-0.4-0.1-0.6
					c-4.6-2.9-9.2-5.9-14-8.9C297.6,316.9,297.6,316.7,297.4,316.7z M301.8,301.8c-0.6-2.8-3.2-4.6-6-4.2c-2.7,0.6-4.5,3.2-4.1,5.9
					c0.3,0.8-0.1,1.8-1.1,2.1c-0.1,0-0.3,0-0.3,0.1c-2.7,0.7-4.3,3.5-3.6,6.1c0.4,1.7,1.7,2.9,3.2,3.5c2.1,0.7,4.3,0,5.7-1.8
					c0.4-0.8,1.5-1.1,2.4-0.6c0.1,0,0.1,0.1,0.3,0.1l16.5,10.5c0.8,0.4,1.3,1.4,0.8,2.2c0,0.1-0.1,0.1-0.1,0.3
					c-1.1,2-0.7,4.3,0.8,5.9c2,2,5.2,2.1,7.1,0.1c1.3-1.1,1.8-2.9,1.5-4.6c-0.3-0.8,0.3-1.8,1.1-2.2c0.1,0,0.1,0,0.3,0
					c2.7-0.7,4.3-3.5,3.6-6.1c-0.4-1.7-1.7-2.9-3.2-3.5c-2.1-0.8-4.5-0.1-5.7,1.7c-0.4,0.8-1.5,1.1-2.4,0.6c-0.1,0-0.1-0.1-0.3-0.1
					l-16.5-10.5c-0.8-0.4-1.3-1.4-0.8-2.2c0-0.1,0.1-0.1,0.1-0.3C301.8,304,302.1,302.9,301.8,301.8z"/>
				<path class="st2" d="M39.8,37.7c-1.3-1.1-2.1-2.5-2.7-4.1c-1.7-5.2,1.1-10.6,6.1-12.4c4.5-1.5,9.2,0.4,11.6,4.3
					c0.1,0.3,0.4,0.6,0.8,0.4c5.4-0.3,9.9,3.9,10.2,9.4c0.1,3.8-2,7.4-5.3,9.1c-2,1-4.2,1.4-6.3,0.8l-0.4-0.1h-0.1
					c-0.1,0.1-0.1,0.3-0.3,0.4c-2.9,5.4-6,10.9-8.9,16.3c-0.3,0.3-0.1,0.7,0.1,0.8l0,0c3.8,3.9,3.8,10.1-0.1,13.8
					c-3.9,3.8-10.1,3.8-13.8-0.1c-0.6-0.6-1.1-1.3-1.5-2c-0.1-0.3-0.4-0.4-0.8-0.4c-5.4,0.3-10.1-3.9-10.3-9.2
					c-0.1-3.9,2-7.5,5.3-9.2c2-1,4.3-1.4,6.4-0.8c0.3,0.1,0.6,0,0.7-0.3C33.5,48.9,36.6,43.2,39.8,37.7
					C44.3,29.5,39.8,37.9,39.8,37.7z M57.6,41.5c3.2-0.8,5.2-4.1,4.3-7.3c-0.8-3.1-4.1-5-7.1-4.2c-1,0.4-2.2-0.1-2.5-1.1
					c0-0.1-0.1-0.3-0.1-0.4c-0.8-2.5-3.2-4.1-5.7-4.1c-2.5,0.1-4.8,1.8-5.4,4.3s0.3,5,2.5,6.4c1,0.4,1.4,1.7,1,2.7
					c0,0.1-0.1,0.1-0.1,0.3l-10.9,20c-0.4,1-1.5,1.5-2.5,1.1c-0.1,0-0.1-0.1-0.3-0.1c-2.4-1.1-5-0.6-6.7,1.4c-2.2,2.4-2,6.1,0.4,8.2
					c1.4,1.3,3.5,1.8,5.4,1.3c1-0.4,2.2,0.1,2.5,1.1c0,0.1,0.1,0.3,0.1,0.4c0.8,2.5,3.2,4.1,5.7,4.1c2.5-0.1,4.8-1.8,5.4-4.3
					s-0.3-5.2-2.5-6.6c-1-0.4-1.4-1.7-1-2.7c0-0.1,0.1-0.3,0.1-0.3l10.6-19.7c0.4-1,1.5-1.5,2.5-1.1c0.1,0,0.3,0.1,0.3,0.1
					C54.9,41.8,56.3,41.9,57.6,41.5L57.6,41.5z"/>
			</g>
			<g>
				<path class="st2" d="M579.2,218.4c7-3.5,11.9-10.2,13.1-17.9c1.3,7.7,6.1,14.4,13.1,17.9c1.5,0.6,3.1,1.1,4.6,1.5
					c-1.5,0.4-3.1,1-4.6,1.5c-7,3.5-11.9,10.2-13.1,17.9c-1.3-7.7-6.1-14.4-13.1-17.9c-1.5-0.6-3.1-1.1-4.6-1.5
					C576.1,219.5,577.6,219.1,579.2,218.4z"/>
				<path class="st2" d="M810.4,171.4c11.5-5.4,19.8-16.8,22.2-30.3c2.4,13.6,10.8,24.7,22.2,30.3c2.5,1,5.2,2,7.8,2.7
					c-2.7,0.7-5.3,1.7-7.8,2.7c-11.5,5.4-19.8,16.8-22.2,30.3c-2.4-13.6-10.8-24.7-22.2-30.3c-2.5-1-5.2-2-7.8-2.7
					C805.2,173.4,807.9,172.4,810.4,171.4z"/>
				<path class="st2" d="M637.7,27.7c10.5-5,18.2-15.2,20.3-27.7c2.1,12.3,9.8,22.6,20.3,27.7c2.4,1,4.8,1.8,7.1,2.5
					c-2.4,0.7-4.8,1.5-7.1,2.5c-10.5,5-18.2,15.2-20.3,27.7c-2.1-12.4-9.8-22.6-20.3-27.7c-2.4-1-4.8-1.8-7.1-2.5
					C632.9,29.3,635.5,28.5,637.7,27.7z"/>
				<circle class="st2" cx="699.7" cy="141.1" r="8.1"/>
				<circle class="st2" cx="935.7" cy="145.2" r="8.1"/>
				<circle class="st2" cx="887.4" cy="260.6" r="8.1"/>
				<circle class="st2" cx="545.9" cy="312.5" r="8.1"/>
				<circle class="st2" cx="498" cy="141.1" r="8.1"/>
				<path class="st2" d="M885.7,63.4c0.4,1.5,0.4,3.1,0,4.6c-1.3,4.9-6.1,7.8-11,6.7c-4.2-1-7.1-4.9-7-9.2c0-0.3-0.1-0.6-0.4-0.7
					c-4.3-2.5-6-8-3.5-12.4c1.8-3.1,5.2-4.9,8.8-4.6c2.1,0.1,3.9,1,5.4,2.5l0.3,0.3l0.1,0.1c0.1-0.1,0.3-0.1,0.4-0.3
					c5-2.8,10.1-5.6,15.1-8.4c0.3-0.1,0.4-0.4,0.4-0.7l0,0c-1.1-4.9,2.1-9.8,7-10.9c4.9-1.1,9.8,2.1,10.9,7c0.1,0.7,0.3,1.5,0.1,2.2
					c0,0.3,0.1,0.6,0.4,0.7c4.3,2.5,6,8,3.5,12.4c-1.8,3.2-5.2,5-8.8,4.6c-2.1-0.1-4.1-1.1-5.4-2.5c-0.3-0.3-0.4-0.3-0.7-0.1
					C896.2,57.6,891,60.4,885.7,63.4L885.7,63.4z M873.7,51.6c-2.9-1-6,0.7-7,3.6c-0.8,2.9,0.7,5.9,3.5,6.8c1,0.1,1.7,1.1,1.5,2.1
					c0,0.1,0,0.3-0.1,0.3c-0.7,2.9,1.1,5.9,4.1,6.6c1.8,0.4,3.6,0,5-1.3c1.8-1.5,2.2-4.2,1.3-6.3c-0.6-0.8-0.3-2,0.6-2.5
					c0.1,0,0.1-0.1,0.3-0.1l18.4-10.3c0.8-0.6,2-0.4,2.5,0.4c0,0.1,0.1,0.1,0.1,0.3c1.3,2,3.8,2.9,6,2.2c2.9-0.8,4.6-3.9,3.8-6.7
					c-0.6-1.8-1.8-3.1-3.6-3.6c-1-0.1-1.7-1.1-1.5-2.1c0-0.1,0-0.3,0.1-0.4c0.6-2.4-0.4-4.8-2.5-6c-2.1-1.3-4.6-1-6.4,0.7
					c-1.8,1.5-2.4,4.2-1.3,6.3c0.6,0.8,0.3,2-0.6,2.5c-0.1,0-0.3,0.1-0.3,0.1l-18.4,10.3c-0.8,0.6-2,0.4-2.5-0.4
					c-0.1-0.1-0.1-0.1-0.1-0.3C875.8,52.8,874.8,52,873.7,51.6z"/>
				<path class="st2" d="M787.3,316.7c-1,1-2.4,1.7-3.6,2.1c-4.5,1.1-9.1-1.7-10.2-6.3c-1-3.8,0.8-7.7,4.3-9.5
					c0.3-0.1,0.4-0.4,0.4-0.7c0.1-4.6,3.9-8.4,8.7-8.2c3.4,0,6.3,2.1,7.5,5.2c0.7,1.7,0.8,3.6,0.4,5.4l-0.1,0.4v0.1l0.4,0.3
					c4.5,2.9,9.1,5.7,13.6,8.7c0.3,0.1,0.6,0.1,0.8,0l0,0c3.5-3.1,8.8-2.7,11.9,1c3.1,3.5,2.7,8.8-1,11.9c-0.6,0.4-1.1,0.8-1.8,1.1
					c-0.3,0.1-0.4,0.3-0.4,0.6c0,4.6-3.9,8.4-8.5,8.4c-3.4,0-6.3-2.1-7.7-5.2c-0.8-1.8-0.8-3.8-0.3-5.6c0.1-0.3,0.1-0.4-0.1-0.6
					c-4.6-2.9-9.2-5.9-14-8.9C787.5,316.9,787.5,316.7,787.3,316.7z M791.7,301.8c-0.6-2.8-3.2-4.6-6-4.2c-2.7,0.6-4.5,3.2-4.1,5.9
					c0.3,0.8-0.1,1.8-1.1,2.1c-0.1,0-0.3,0-0.3,0.1c-2.7,0.7-4.3,3.5-3.6,6.1c0.4,1.7,1.7,2.9,3.2,3.5c2.1,0.7,4.3,0,5.7-1.8
					c0.4-0.8,1.5-1.1,2.4-0.6c0.1,0,0.1,0.1,0.3,0.1l16.5,10.5c0.8,0.4,1.3,1.4,0.8,2.2c0,0.1-0.1,0.1-0.1,0.3
					c-1.1,2-0.7,4.3,0.8,5.9c2,2,5.2,2.1,7.1,0.1c1.3-1.1,1.8-2.9,1.5-4.6c-0.3-0.8,0.3-1.8,1.1-2.2c0.1,0,0.1,0,0.3,0
					c2.7-0.7,4.3-3.5,3.6-6.1c-0.4-1.7-1.7-2.9-3.2-3.5c-2.1-0.8-4.5-0.1-5.7,1.7c-0.4,0.8-1.5,1.1-2.4,0.6c-0.1,0-0.1-0.1-0.3-0.1
					l-16.5-10.5c-0.8-0.4-1.3-1.4-0.8-2.2c0-0.1,0.1-0.1,0.1-0.3C791.7,304,791.9,302.9,791.7,301.8z"/>
				<path class="st2" d="M529.7,37.7c-1.3-1.1-2.1-2.5-2.7-4.1c-1.7-5.2,1.1-10.6,6.1-12.4c4.5-1.5,9.2,0.4,11.6,4.3
					c0.1,0.3,0.4,0.6,0.8,0.4c5.4-0.3,9.9,3.9,10.2,9.4c0.1,3.8-2,7.4-5.3,9.1c-2,1-4.2,1.4-6.3,0.8l-0.4-0.1h-0.1
					c-0.1,0.1-0.1,0.3-0.3,0.4c-2.9,5.4-6,10.9-8.9,16.3c-0.3,0.3-0.1,0.7,0.1,0.8l0,0c3.8,3.9,3.8,10.1-0.1,13.8
					c-3.9,3.8-10.1,3.8-13.8-0.1c-0.6-0.6-1.1-1.3-1.5-2c-0.1-0.3-0.4-0.4-0.8-0.4c-5.4,0.3-10.1-3.9-10.3-9.2
					c-0.1-3.9,2-7.5,5.3-9.2c2-1,4.3-1.4,6.4-0.8c0.3,0.1,0.6,0,0.7-0.3C523.4,48.9,526.5,43.2,529.7,37.7
					C534.2,29.5,529.7,37.9,529.7,37.7z M547.4,41.5c3.2-0.8,5.2-4.1,4.3-7.3c-0.8-3.1-4.1-5-7.1-4.2c-1,0.4-2.2-0.1-2.5-1.1
					c0-0.1-0.1-0.3-0.1-0.4c-0.8-2.5-3.2-4.1-5.7-4.1c-2.5,0.1-4.8,1.8-5.4,4.3s0.3,5,2.5,6.4c1,0.4,1.4,1.7,1,2.7
					c0,0.1-0.1,0.1-0.1,0.3l-10.9,20c-0.4,1-1.5,1.5-2.5,1.1c-0.1,0-0.1-0.1-0.3-0.1c-2.4-1.1-5-0.6-6.7,1.4c-2.2,2.4-2,6.1,0.4,8.2
					c1.4,1.3,3.5,1.8,5.4,1.3c1-0.4,2.2,0.1,2.5,1.1c0,0.1,0.1,0.3,0.1,0.4c0.8,2.5,3.2,4.1,5.7,4.1c2.5-0.1,4.8-1.8,5.4-4.3
					s-0.3-5.2-2.5-6.6c-1-0.4-1.4-1.7-1-2.7c0-0.1,0.1-0.3,0.1-0.3l10.6-19.7c0.4-1,1.5-1.5,2.5-1.1c0.1,0,0.3,0.1,0.3,0.1
					C544.8,41.8,546.2,41.9,547.4,41.5L547.4,41.5z"/>
			</g>
			<g>
				<path class="st2" d="M1057.7,218.4c7-3.5,11.9-10.2,13.1-17.9c1.3,7.7,6.1,14.4,13.1,17.9c1.5,0.6,3.1,1.1,4.6,1.5
					c-1.5,0.4-3.1,1-4.6,1.5c-7,3.5-11.9,10.2-13.1,17.9c-1.3-7.7-6.1-14.4-13.1-17.9c-1.5-0.6-3.1-1.1-4.6-1.5
					C1054.7,219.5,1056.2,219.1,1057.7,218.4z"/>
				<path class="st2" d="M1289,171.4c11.5-5.4,19.8-16.8,22.2-30.3c2.4,13.6,10.8,24.7,22.2,30.3c2.5,1,5.2,2,7.8,2.7
					c-2.7,0.7-5.3,1.7-7.8,2.7c-11.5,5.4-19.8,16.8-22.2,30.3c-2.4-13.6-10.8-24.7-22.2-30.3c-2.5-1-5.2-2-7.8-2.7
					C1283.8,173.4,1286.5,172.4,1289,171.4z"/>
				<path class="st2" d="M1116.3,27.7c10.5-5,18.2-15.2,20.3-27.7c2.1,12.3,9.8,22.6,20.3,27.7c2.4,1,4.8,1.8,7.1,2.5
					c-2.4,0.7-4.8,1.5-7.1,2.5c-10.5,5-18.2,15.2-20.3,27.7c-2.1-12.4-9.8-22.6-20.3-27.7c-2.4-1-4.8-1.8-7.1-2.5
					C1111.5,29.3,1114.1,28.5,1116.3,27.7z"/>
				<circle class="st2" cx="1178.3" cy="141.1" r="8.1"/>
				<circle class="st2" cx="1414.3" cy="145.2" r="8.1"/>
				<circle class="st2" cx="1366" cy="260.6" r="8.1"/>
				<circle class="st2" cx="1024.5" cy="312.5" r="8.1"/>
				<circle class="st2" cx="976.6" cy="141.1" r="8.1"/>
				<path class="st2" d="M1364.3,63.4c0.4,1.5,0.4,3.1,0,4.6c-1.3,4.9-6.1,7.8-11,6.7c-4.2-1-7.1-4.9-7-9.2c0-0.3-0.1-0.6-0.4-0.7
					c-4.3-2.5-6-8-3.5-12.4c1.8-3.1,5.2-4.9,8.8-4.6c2.1,0.1,3.9,1,5.4,2.5l0.3,0.3l0.1,0.1c0.1-0.1,0.3-0.1,0.4-0.3
					c5-2.8,10.1-5.6,15.1-8.4c0.3-0.1,0.4-0.4,0.4-0.7l0,0c-1.1-4.9,2.1-9.8,7-10.9c4.9-1.1,9.8,2.1,10.9,7c0.1,0.7,0.3,1.5,0.1,2.2
					c0,0.3,0.1,0.6,0.4,0.7c4.3,2.5,6,8,3.5,12.4c-1.8,3.2-5.2,5-8.8,4.6c-2.1-0.1-4.1-1.1-5.4-2.5c-0.3-0.3-0.4-0.3-0.7-0.1
					C1374.8,57.6,1369.6,60.4,1364.3,63.4L1364.3,63.4z M1352.3,51.6c-2.9-1-6,0.7-7,3.6c-0.8,2.9,0.7,5.9,3.5,6.8
					c1,0.1,1.7,1.1,1.5,2.1c0,0.1,0,0.3-0.1,0.3c-0.7,2.9,1.1,5.9,4.1,6.6c1.8,0.4,3.6,0,5-1.3c1.8-1.5,2.2-4.2,1.3-6.3
					c-0.6-0.8-0.3-2,0.6-2.5c0.1,0,0.1-0.1,0.3-0.1l18.4-10.3c0.8-0.6,2-0.4,2.5,0.4c0,0.1,0.1,0.1,0.1,0.3c1.3,2,3.8,2.9,6,2.2
					c2.9-0.8,4.6-3.9,3.8-6.7c-0.6-1.8-1.8-3.1-3.6-3.6c-1-0.1-1.7-1.1-1.5-2.1c0-0.1,0-0.3,0.1-0.4c0.6-2.4-0.4-4.8-2.5-6
					c-2.1-1.3-4.6-1-6.4,0.7c-1.8,1.5-2.4,4.2-1.3,6.3c0.6,0.8,0.3,2-0.6,2.5c-0.1,0-0.3,0.1-0.3,0.1l-18.4,10.3
					c-0.8,0.6-2,0.4-2.5-0.4c-0.1-0.1-0.1-0.1-0.1-0.3C1354.4,52.8,1353.4,52,1352.3,51.6z"/>
				<path class="st2" d="M1265.9,316.7c-1,1-2.4,1.7-3.6,2.1c-4.5,1.1-9.1-1.7-10.2-6.3c-1-3.8,0.8-7.7,4.3-9.5
					c0.3-0.1,0.4-0.4,0.4-0.7c0.1-4.6,3.9-8.4,8.7-8.2c3.4,0,6.3,2.1,7.5,5.2c0.7,1.7,0.8,3.6,0.4,5.4l-0.1,0.4v0.1l0.4,0.3
					c4.5,2.9,9.1,5.7,13.6,8.7c0.3,0.1,0.6,0.1,0.8,0l0,0c3.5-3.1,8.8-2.7,11.9,1c3.1,3.5,2.7,8.8-1,11.9c-0.6,0.4-1.1,0.8-1.8,1.1
					c-0.3,0.1-0.4,0.3-0.4,0.6c0,4.6-3.9,8.4-8.5,8.4c-3.4,0-6.3-2.1-7.7-5.2c-0.8-1.8-0.8-3.8-0.3-5.6c0.1-0.3,0.1-0.4-0.1-0.6
					c-4.6-2.9-9.2-5.9-14-8.9C1266.1,316.9,1266.1,316.7,1265.9,316.7z M1270.2,301.8c-0.6-2.8-3.2-4.6-6-4.2
					c-2.7,0.6-4.5,3.2-4.1,5.9c0.3,0.8-0.1,1.8-1.1,2.1c-0.1,0-0.3,0-0.3,0.1c-2.7,0.7-4.3,3.5-3.6,6.1c0.4,1.7,1.7,2.9,3.2,3.5
					c2.1,0.7,4.3,0,5.7-1.8c0.4-0.8,1.5-1.1,2.4-0.6c0.1,0,0.1,0.1,0.3,0.1l16.5,10.5c0.8,0.4,1.3,1.4,0.8,2.2
					c0,0.1-0.1,0.1-0.1,0.3c-1.1,2-0.7,4.3,0.8,5.9c2,2,5.2,2.1,7.1,0.1c1.3-1.1,1.8-2.9,1.5-4.6c-0.3-0.8,0.3-1.8,1.1-2.2
					c0.1,0,0.1,0,0.3,0c2.7-0.7,4.3-3.5,3.6-6.1c-0.4-1.7-1.7-2.9-3.2-3.5c-2.1-0.8-4.5-0.1-5.7,1.7c-0.4,0.8-1.5,1.1-2.4,0.6
					c-0.1,0-0.1-0.1-0.3-0.1l-16.5-10.5c-0.8-0.4-1.3-1.4-0.8-2.2c0-0.1,0.1-0.1,0.1-0.3C1270.2,304,1270.5,302.9,1270.2,301.8z"/>
				<path class="st2" d="M1008.3,37.7c-1.3-1.1-2.1-2.5-2.7-4.1c-1.7-5.2,1.1-10.6,6.1-12.4c4.5-1.5,9.2,0.4,11.6,4.3
					c0.1,0.3,0.4,0.6,0.8,0.4c5.4-0.3,9.9,3.9,10.2,9.4c0.1,3.8-2,7.4-5.3,9.1c-2,1-4.2,1.4-6.3,0.8l-0.4-0.1h-0.1
					c-0.1,0.1-0.1,0.3-0.3,0.4c-2.9,5.4-6,10.9-8.9,16.3c-0.3,0.3-0.1,0.7,0.1,0.8l0,0c3.8,3.9,3.8,10.1-0.1,13.8
					c-3.9,3.8-10.1,3.8-13.8-0.1c-0.6-0.6-1.1-1.3-1.5-2c-0.1-0.3-0.4-0.4-0.8-0.4c-5.4,0.3-10.1-3.9-10.3-9.2
					c-0.1-3.9,2-7.5,5.3-9.2c2-1,4.3-1.4,6.4-0.8c0.3,0.1,0.6,0,0.7-0.3C1002,48.9,1005.1,43.2,1008.3,37.7
					C1012.8,29.5,1008.3,37.9,1008.3,37.7z M1026,41.5c3.2-0.8,5.2-4.1,4.3-7.3c-0.8-3.1-4.1-5-7.1-4.2c-1,0.4-2.2-0.1-2.5-1.1
					c0-0.1-0.1-0.3-0.1-0.4c-0.8-2.5-3.2-4.1-5.7-4.1c-2.5,0.1-4.8,1.8-5.4,4.3c-0.7,2.5,0.3,5,2.5,6.4c1,0.4,1.4,1.7,1,2.7
					c0,0.1-0.1,0.1-0.1,0.3l-10.9,20c-0.4,1-1.5,1.5-2.5,1.1c-0.1,0-0.1-0.1-0.3-0.1c-2.4-1.1-5-0.6-6.7,1.4c-2.2,2.4-2,6.1,0.4,8.2
					c1.4,1.3,3.5,1.8,5.4,1.3c1-0.4,2.2,0.1,2.5,1.1c0,0.1,0.1,0.3,0.1,0.4c0.8,2.5,3.2,4.1,5.7,4.1c2.5-0.1,4.8-1.8,5.4-4.3
					c0.7-2.5-0.3-5.2-2.5-6.6c-1-0.4-1.4-1.7-1-2.7c0-0.1,0.1-0.3,0.1-0.3l10.6-19.7c0.4-1,1.5-1.5,2.5-1.1c0.1,0,0.3,0.1,0.3,0.1
					C1023.4,41.8,1024.8,41.9,1026,41.5L1026,41.5z"/>
			</g>
			<g>
				<path class="st2" d="M1563.9,218.4c7-3.5,11.9-10.2,13.1-17.9c1.3,7.7,6.1,14.4,13.1,17.9c1.5,0.6,3.1,1.1,4.6,1.5
					c-1.5,0.4-3.1,1-4.6,1.5c-7,3.5-11.9,10.2-13.1,17.9c-1.3-7.7-6.1-14.4-13.1-17.9c-1.5-0.6-3.1-1.1-4.6-1.5
					C1560.8,219.5,1562.3,219.1,1563.9,218.4z"/>
				<path class="st2" d="M1795.1,171.4c11.5-5.4,19.8-16.8,22.2-30.3c2.4,13.6,10.8,24.7,22.2,30.3c2.5,1,5.2,2,7.8,2.7
					c-2.7,0.7-5.3,1.7-7.8,2.7c-11.5,5.4-19.8,16.8-22.2,30.3c-2.4-13.6-10.8-24.7-22.2-30.3c-2.5-1-5.2-2-7.8-2.7
					C1789.9,173.4,1792.6,172.4,1795.1,171.4z"/>
				<path class="st2" d="M1622.4,27.7c10.5-5,18.2-15.2,20.3-27.7c2.1,12.3,9.8,22.6,20.3,27.7c2.4,1,4.8,1.8,7.1,2.5
					c-2.4,0.7-4.8,1.5-7.1,2.5c-10.5,5-18.2,15.2-20.3,27.7c-2.1-12.4-9.8-22.6-20.3-27.7c-2.4-1-4.8-1.8-7.1-2.5
					C1617.7,29.3,1620.2,28.5,1622.4,27.7z"/>
				<circle class="st2" cx="1684.4" cy="141.1" r="8.1"/>
				<circle class="st2" cx="1920.4" cy="145.2" r="8.1"/>
				<circle class="st2" cx="1872.1" cy="260.6" r="8.1"/>
				<circle class="st2" cx="1530.6" cy="312.5" r="8.1"/>
				<circle class="st2" cx="1482.7" cy="141.1" r="8.1"/>
				<path class="st2" d="M1870.4,63.4c0.4,1.5,0.4,3.1,0,4.6c-1.3,4.9-6.1,7.8-11,6.7c-4.2-1-7.1-4.9-7-9.2c0-0.3-0.1-0.6-0.4-0.7
					c-4.3-2.5-6-8-3.5-12.4c1.8-3.1,5.2-4.9,8.8-4.6c2.1,0.1,3.9,1,5.4,2.5l0.3,0.3l0.1,0.1c0.1-0.1,0.3-0.1,0.4-0.3
					c5-2.8,10.1-5.6,15.1-8.4c0.3-0.1,0.4-0.4,0.4-0.7l0,0c-1.1-4.9,2.1-9.8,7-10.9c4.9-1.1,9.8,2.1,10.9,7c0.1,0.7,0.3,1.5,0.1,2.2
					c0,0.3,0.1,0.6,0.4,0.7c4.3,2.5,6,8,3.5,12.4c-1.8,3.2-5.2,5-8.8,4.6c-2.1-0.1-4.1-1.1-5.4-2.5c-0.3-0.3-0.4-0.3-0.7-0.1
					C1880.9,57.6,1875.7,60.4,1870.4,63.4L1870.4,63.4z M1858.4,51.6c-2.9-1-6,0.7-7,3.6c-0.8,2.9,0.7,5.9,3.5,6.8
					c1,0.1,1.7,1.1,1.5,2.1c0,0.1,0,0.3-0.1,0.3c-0.7,2.9,1.1,5.9,4.1,6.6c1.8,0.4,3.6,0,5-1.3c1.8-1.5,2.2-4.2,1.3-6.3
					c-0.6-0.8-0.3-2,0.6-2.5c0.1,0,0.1-0.1,0.3-0.1l18.4-10.3c0.8-0.6,2-0.4,2.5,0.4c0,0.1,0.1,0.1,0.1,0.3c1.3,2,3.8,2.9,6,2.2
					c2.9-0.8,4.6-3.9,3.8-6.7c-0.6-1.8-1.8-3.1-3.6-3.6c-1-0.1-1.7-1.1-1.5-2.1c0-0.1,0-0.3,0.1-0.4c0.6-2.4-0.4-4.8-2.5-6
					c-2.1-1.3-4.6-1-6.4,0.7c-1.8,1.5-2.4,4.2-1.3,6.3c0.6,0.8,0.3,2-0.6,2.5c-0.1,0-0.3,0.1-0.3,0.1l-18.4,10.3
					c-0.8,0.6-2,0.4-2.5-0.4c-0.1-0.1-0.1-0.1-0.1-0.3C1860.5,52.8,1859.5,52,1858.4,51.6z"/>
				<path class="st2" d="M1772,316.7c-1,1-2.4,1.7-3.6,2.1c-4.5,1.1-9.1-1.7-10.2-6.3c-1-3.8,0.8-7.7,4.3-9.5
					c0.3-0.1,0.4-0.4,0.4-0.7c0.1-4.6,3.9-8.4,8.7-8.2c3.4,0,6.3,2.1,7.5,5.2c0.7,1.7,0.8,3.6,0.4,5.4l-0.1,0.4v0.1l0.4,0.3
					c4.5,2.9,9.1,5.7,13.6,8.7c0.3,0.1,0.6,0.1,0.8,0l0,0c3.5-3.1,8.8-2.7,11.9,1c3.1,3.5,2.7,8.8-1,11.9c-0.6,0.4-1.1,0.8-1.8,1.1
					c-0.3,0.1-0.4,0.3-0.4,0.6c0,4.6-3.9,8.4-8.5,8.4c-3.4,0-6.3-2.1-7.7-5.2c-0.8-1.8-0.8-3.8-0.3-5.6c0.1-0.3,0.1-0.4-0.1-0.6
					c-4.6-2.9-9.2-5.9-14-8.9C1772.2,316.9,1772.2,316.7,1772,316.7z M1776.4,301.8c-0.6-2.8-3.2-4.6-6-4.2
					c-2.7,0.6-4.5,3.2-4.1,5.9c0.3,0.8-0.1,1.8-1.1,2.1c-0.1,0-0.3,0-0.3,0.1c-2.7,0.7-4.3,3.5-3.6,6.1c0.4,1.7,1.7,2.9,3.2,3.5
					c2.1,0.7,4.3,0,5.7-1.8c0.4-0.8,1.5-1.1,2.4-0.6c0.1,0,0.1,0.1,0.3,0.1l16.5,10.5c0.8,0.4,1.3,1.4,0.8,2.2
					c0,0.1-0.1,0.1-0.1,0.3c-1.1,2-0.7,4.3,0.8,5.9c2,2,5.2,2.1,7.1,0.1c1.3-1.1,1.8-2.9,1.5-4.6c-0.3-0.8,0.3-1.8,1.1-2.2
					c0.1,0,0.1,0,0.3,0c2.7-0.7,4.3-3.5,3.6-6.1c-0.4-1.7-1.7-2.9-3.2-3.5c-2.1-0.8-4.5-0.1-5.7,1.7c-0.4,0.8-1.5,1.1-2.4,0.6
					c-0.1,0-0.1-0.1-0.3-0.1l-16.5-10.5c-0.8-0.4-1.3-1.4-0.8-2.2c0-0.1,0.1-0.1,0.1-0.3C1776.4,304,1776.6,302.9,1776.4,301.8z"/>
				<path class="st2" d="M1514.4,37.7c-1.3-1.1-2.1-2.5-2.7-4.1c-1.7-5.2,1.1-10.6,6.1-12.4c4.5-1.5,9.2,0.4,11.6,4.3
					c0.1,0.3,0.4,0.6,0.8,0.4c5.4-0.3,9.9,3.9,10.2,9.4c0.1,3.8-2,7.4-5.3,9.1c-2,1-4.2,1.4-6.3,0.8l-0.4-0.1h-0.1
					c-0.1,0.1-0.1,0.3-0.3,0.4c-2.9,5.4-6,10.9-8.9,16.3c-0.3,0.3-0.1,0.7,0.1,0.8l0,0c3.8,3.9,3.8,10.1-0.1,13.8
					c-3.9,3.8-10.1,3.8-13.8-0.1c-0.6-0.6-1.1-1.3-1.5-2c-0.1-0.3-0.4-0.4-0.8-0.4c-5.4,0.3-10.1-3.9-10.3-9.2
					c-0.1-3.9,2-7.5,5.3-9.2c2-1,4.3-1.4,6.4-0.8c0.3,0.1,0.6,0,0.7-0.3C1508.1,48.9,1511.2,43.2,1514.4,37.7
					C1518.9,29.5,1514.4,37.9,1514.4,37.7z M1532.1,41.5c3.2-0.8,5.2-4.1,4.3-7.3c-0.8-3.1-4.1-5-7.1-4.2c-1,0.4-2.2-0.1-2.5-1.1
					c0-0.1-0.1-0.3-0.1-0.4c-0.8-2.5-3.2-4.1-5.7-4.1c-2.5,0.1-4.8,1.8-5.4,4.3s0.3,5,2.5,6.4c1,0.4,1.4,1.7,1,2.7
					c0,0.1-0.1,0.1-0.1,0.3l-10.9,20c-0.4,1-1.5,1.5-2.5,1.1c-0.1,0-0.1-0.1-0.3-0.1c-2.4-1.1-5-0.6-6.7,1.4c-2.2,2.4-2,6.1,0.4,8.2
					c1.4,1.3,3.5,1.8,5.4,1.3c1-0.4,2.2,0.1,2.5,1.1c0,0.1,0.1,0.3,0.1,0.4c0.8,2.5,3.2,4.1,5.7,4.1c2.5-0.1,4.8-1.8,5.4-4.3
					s-0.3-5.2-2.5-6.6c-1-0.4-1.4-1.7-1-2.7c0-0.1,0.1-0.3,0.1-0.3l10.6-19.7c0.4-1,1.5-1.5,2.5-1.1c0.1,0,0.3,0.1,0.3,0.1
					C1529.5,41.8,1530.9,41.9,1532.1,41.5L1532.1,41.5z"/>
			</g>
		</g>
		<g style="clip-path:url(#SVGID_00000155834968587682736170000014549431444662667704_);">
			<g>
				<path class="st2" d="M89.3,569.9c7-3.5,11.9-10.2,13.1-17.9c1.3,7.7,6.1,14.4,13.1,17.9c1.5,0.6,3.1,1.1,4.6,1.5
					c-1.5,0.4-3.1,1-4.6,1.5c-7,3.5-11.9,10.2-13.1,17.9c-1.3-7.7-6.1-14.4-13.1-17.9c-1.5-0.6-3.1-1.1-4.6-1.5
					C86.2,571,87.7,570.6,89.3,569.9z"/>
				<path class="st2" d="M320.5,523c11.5-5.4,19.8-16.8,22.2-30.3c2.4,13.6,10.8,24.7,22.2,30.3c2.5,1,5.2,2,7.8,2.7
					c-2.7,0.7-5.3,1.7-7.8,2.7c-11.5,5.4-19.8,16.8-22.2,30.3c-2.4-13.6-10.8-24.7-22.2-30.3c-2.5-1-5.2-2-7.8-2.7
					C315.3,524.9,318,523.9,320.5,523z"/>
				<path class="st2" d="M147.8,379.2c10.5-5,18.2-15.2,20.3-27.7c2.1,12.3,9.8,22.6,20.3,27.7c2.4,1,4.8,1.8,7.1,2.5
					c-2.4,0.7-4.8,1.5-7.1,2.5c-10.5,5-18.2,15.2-20.3,27.7c-2.1-12.4-9.8-22.6-20.3-27.7c-2.4-1-4.8-1.8-7.1-2.5
					C143.1,380.9,145.6,380,147.8,379.2z"/>
				<circle class="st2" cx="209.8" cy="492.6" r="8.1"/>
				<circle class="st2" cx="445.8" cy="496.7" r="8.1"/>
				<circle class="st2" cx="397.5" cy="612.1" r="8.1"/>
				<circle class="st2" cx="56" cy="664.1" r="8.1"/>
				<circle class="st2" cx="8.1" cy="492.6" r="8.1"/>
				<path class="st2" d="M395.8,415c0.4,1.5,0.4,3.1,0,4.6c-1.3,4.9-6.1,7.8-11,6.7c-4.2-1-7.1-4.9-7-9.2c0-0.3-0.1-0.6-0.4-0.7
					c-4.3-2.5-6-8-3.5-12.4c1.8-3.1,5.2-4.9,8.8-4.6c2.1,0.1,3.9,1,5.4,2.5l0.3,0.3l0.1,0.1c0.1-0.1,0.3-0.1,0.4-0.3
					c5-2.8,10.1-5.6,15.1-8.4c0.3-0.1,0.4-0.4,0.4-0.7l0,0c-1.1-4.9,2.1-9.8,7-10.9c4.9-1.1,9.8,2.1,10.9,7c0.1,0.7,0.3,1.5,0.1,2.2
					c0,0.3,0.1,0.6,0.4,0.7c4.3,2.5,6,8,3.5,12.4c-1.8,3.2-5.2,5-8.8,4.6c-2.1-0.1-4.1-1.1-5.4-2.5c-0.3-0.3-0.4-0.3-0.7-0.1
					C406.3,409.1,401.1,411.9,395.8,415L395.8,415z M383.8,403.1c-2.9-1-6,0.7-7,3.6c-0.8,2.9,0.7,5.9,3.5,6.8
					c1,0.1,1.7,1.1,1.5,2.1c0,0.1,0,0.3-0.1,0.3c-0.7,2.9,1.1,5.9,4.1,6.6c1.8,0.4,3.6,0,5-1.3c1.8-1.5,2.2-4.2,1.3-6.3
					c-0.6-0.8-0.3-2,0.6-2.5c0.1,0,0.1-0.1,0.3-0.1l18.4-10.3c0.8-0.6,2-0.4,2.5,0.4c0,0.1,0.1,0.1,0.1,0.3c1.3,2,3.8,2.9,6,2.2
					c2.9-0.8,4.6-3.9,3.8-6.7c-0.6-1.8-1.8-3.1-3.6-3.6c-1-0.1-1.7-1.1-1.5-2.1c0-0.1,0-0.3,0.1-0.4c0.6-2.4-0.4-4.8-2.5-6
					c-2.1-1.3-4.6-1-6.4,0.7c-1.8,1.5-2.4,4.2-1.3,6.3c0.6,0.8,0.3,2-0.6,2.5c-0.1,0-0.3,0.1-0.3,0.1L389.2,406
					c-0.8,0.6-2,0.4-2.5-0.4c-0.1-0.1-0.1-0.1-0.1-0.3C385.9,404.3,384.9,403.5,383.8,403.1z"/>
				<path class="st2" d="M297.4,668.3c-1,1-2.4,1.7-3.6,2.1c-4.5,1.1-9.1-1.7-10.2-6.3c-1-3.8,0.8-7.7,4.3-9.5
					c0.3-0.1,0.4-0.4,0.4-0.7c0.1-4.6,3.9-8.4,8.7-8.2c3.4,0,6.3,2.1,7.5,5.2c0.7,1.7,0.8,3.6,0.4,5.4l-0.1,0.4v0.1l0.4,0.3
					c4.5,2.9,9.1,5.7,13.6,8.7c0.3,0.1,0.6,0.1,0.8,0l0,0c3.5-3.1,8.8-2.7,11.9,1c3.1,3.5,2.7,8.8-1,11.9c-0.6,0.4-1.1,0.8-1.8,1.1
					c-0.3,0.1-0.4,0.3-0.4,0.6c0,4.6-3.9,8.4-8.5,8.4c-3.4,0-6.3-2.1-7.7-5.2c-0.8-1.8-0.8-3.8-0.3-5.6c0.1-0.3,0.1-0.4-0.1-0.6
					c-4.6-2.9-9.2-5.9-14-8.9C297.6,668.4,297.6,668.3,297.4,668.3z M301.8,653.3c-0.6-2.8-3.2-4.6-6-4.2c-2.7,0.6-4.5,3.2-4.1,5.9
					c0.3,0.8-0.1,1.8-1.1,2.1c-0.1,0-0.3,0-0.3,0.1c-2.7,0.7-4.3,3.5-3.6,6.1c0.4,1.7,1.7,2.9,3.2,3.5c2.1,0.7,4.3,0,5.7-1.8
					c0.4-0.8,1.5-1.1,2.4-0.6c0.1,0,0.1,0.1,0.3,0.1l16.5,10.5c0.8,0.4,1.3,1.4,0.8,2.2c0,0.1-0.1,0.1-0.1,0.3
					c-1.1,2-0.7,4.3,0.8,5.9c2,2,5.2,2.1,7.1,0.1c1.3-1.1,1.8-2.9,1.5-4.6c-0.3-0.8,0.3-1.8,1.1-2.2c0.1,0,0.1,0,0.3,0
					c2.7-0.7,4.3-3.5,3.6-6.1c-0.4-1.7-1.7-2.9-3.2-3.5c-2.1-0.8-4.5-0.1-5.7,1.7c-0.4,0.8-1.5,1.1-2.4,0.6c-0.1,0-0.1-0.1-0.3-0.1
					l-16.5-10.5c-0.8-0.4-1.3-1.4-0.8-2.2c0-0.1,0.1-0.1,0.1-0.3C301.8,655.5,302.1,654.4,301.8,653.3z"/>
				<path class="st2" d="M39.8,389.3c-1.3-1.1-2.1-2.5-2.7-4.1c-1.7-5.2,1.1-10.6,6.1-12.4c4.5-1.5,9.2,0.4,11.6,4.3
					c0.1,0.3,0.4,0.6,0.8,0.4c5.4-0.3,9.9,3.9,10.2,9.4c0.1,3.8-2,7.4-5.3,9.1c-2,1-4.2,1.4-6.3,0.8l-0.4-0.1h-0.1
					c-0.1,0.1-0.1,0.3-0.3,0.4c-2.9,5.4-6,10.9-8.9,16.3c-0.3,0.3-0.1,0.7,0.1,0.8l0,0c3.8,3.9,3.8,10.1-0.1,13.8
					c-3.9,3.8-10.1,3.8-13.8-0.1c-0.6-0.6-1.1-1.3-1.5-2c-0.1-0.3-0.4-0.4-0.8-0.4c-5.4,0.3-10.1-3.9-10.3-9.2
					c-0.1-3.9,2-7.5,5.3-9.2c2-1,4.3-1.4,6.4-0.8c0.3,0.1,0.6,0,0.7-0.3C33.5,400.4,36.6,394.7,39.8,389.3
					C44.3,381,39.8,389.4,39.8,389.3z M57.6,393c3.2-0.8,5.2-4.1,4.3-7.3c-0.8-3.1-4.1-5-7.1-4.2c-1,0.4-2.2-0.1-2.5-1.1
					c0-0.1-0.1-0.3-0.1-0.4c-0.8-2.5-3.2-4.1-5.7-4.1c-2.5,0.1-4.8,1.8-5.4,4.3s0.3,5,2.5,6.4c1,0.4,1.4,1.7,1,2.7
					c0,0.1-0.1,0.1-0.1,0.3l-10.9,20c-0.4,1-1.5,1.5-2.5,1.1c-0.1,0-0.1-0.1-0.3-0.1c-2.4-1.1-5-0.6-6.7,1.4c-2.2,2.4-2,6.1,0.4,8.2
					c1.4,1.3,3.5,1.8,5.4,1.3c1-0.4,2.2,0.1,2.5,1.1c0,0.1,0.1,0.3,0.1,0.4c0.8,2.5,3.2,4.1,5.7,4.1c2.5-0.1,4.8-1.8,5.4-4.3
					c0.7-2.5-0.3-5.2-2.5-6.6c-1-0.4-1.4-1.7-1-2.7c0-0.1,0.1-0.3,0.1-0.3l10.6-19.7c0.4-1,1.5-1.5,2.5-1.1c0.1,0,0.3,0.1,0.3,0.1
					C54.9,393.3,56.3,393.4,57.6,393L57.6,393z"/>
			</g>
			<g>
				<path class="st2" d="M579.2,569.9c7-3.5,11.9-10.2,13.1-17.9c1.3,7.7,6.1,14.4,13.1,17.9c1.5,0.6,3.1,1.1,4.6,1.5
					c-1.5,0.4-3.1,1-4.6,1.5c-7,3.5-11.9,10.2-13.1,17.9c-1.3-7.7-6.1-14.4-13.1-17.9c-1.5-0.6-3.1-1.1-4.6-1.5
					C576.1,571,577.6,570.6,579.2,569.9z"/>
				<path class="st2" d="M810.4,523c11.5-5.4,19.8-16.8,22.2-30.3c2.4,13.6,10.8,24.7,22.2,30.3c2.5,1,5.2,2,7.8,2.7
					c-2.7,0.7-5.3,1.7-7.8,2.7c-11.5,5.4-19.8,16.8-22.2,30.3c-2.4-13.6-10.8-24.7-22.2-30.3c-2.5-1-5.2-2-7.8-2.7
					C805.2,524.9,807.9,523.9,810.4,523z"/>
				<path class="st2" d="M637.7,379.2c10.5-5,18.2-15.2,20.3-27.7c2.1,12.3,9.8,22.6,20.3,27.7c2.4,1,4.8,1.8,7.1,2.5
					c-2.4,0.7-4.8,1.5-7.1,2.5c-10.5,5-18.2,15.2-20.3,27.7c-2.1-12.4-9.8-22.6-20.3-27.7c-2.4-1-4.8-1.8-7.1-2.5
					C632.9,380.9,635.5,380,637.7,379.2z"/>
				<circle class="st2" cx="699.7" cy="492.6" r="8.1"/>
				<circle class="st2" cx="935.7" cy="496.7" r="8.1"/>
				<circle class="st2" cx="887.4" cy="612.1" r="8.1"/>
				<circle class="st2" cx="545.9" cy="664.1" r="8.1"/>
				<circle class="st2" cx="498" cy="492.6" r="8.1"/>
				<path class="st2" d="M885.7,415c0.4,1.5,0.4,3.1,0,4.6c-1.3,4.9-6.1,7.8-11,6.7c-4.2-1-7.1-4.9-7-9.2c0-0.3-0.1-0.6-0.4-0.7
					c-4.3-2.5-6-8-3.5-12.4c1.8-3.1,5.2-4.9,8.8-4.6c2.1,0.1,3.9,1,5.4,2.5l0.3,0.3l0.1,0.1c0.1-0.1,0.3-0.1,0.4-0.3
					c5-2.8,10.1-5.6,15.1-8.4c0.3-0.1,0.4-0.4,0.4-0.7l0,0c-1.1-4.9,2.1-9.8,7-10.9c4.9-1.1,9.8,2.1,10.9,7c0.1,0.7,0.3,1.5,0.1,2.2
					c0,0.3,0.1,0.6,0.4,0.7c4.3,2.5,6,8,3.5,12.4c-1.8,3.2-5.2,5-8.8,4.6c-2.1-0.1-4.1-1.1-5.4-2.5c-0.3-0.3-0.4-0.3-0.7-0.1
					C896.2,409.1,891,411.9,885.7,415L885.7,415z M873.7,403.1c-2.9-1-6,0.7-7,3.6c-0.8,2.9,0.7,5.9,3.5,6.8c1,0.1,1.7,1.1,1.5,2.1
					c0,0.1,0,0.3-0.1,0.3c-0.7,2.9,1.1,5.9,4.1,6.6c1.8,0.4,3.6,0,5-1.3c1.8-1.5,2.2-4.2,1.3-6.3c-0.6-0.8-0.3-2,0.6-2.5
					c0.1,0,0.1-0.1,0.3-0.1l18.4-10.3c0.8-0.6,2-0.4,2.5,0.4c0,0.1,0.1,0.1,0.1,0.3c1.3,2,3.8,2.9,6,2.2c2.9-0.8,4.6-3.9,3.8-6.7
					c-0.6-1.8-1.8-3.1-3.6-3.6c-1-0.1-1.7-1.1-1.5-2.1c0-0.1,0-0.3,0.1-0.4c0.6-2.4-0.4-4.8-2.5-6c-2.1-1.3-4.6-1-6.4,0.7
					c-1.8,1.5-2.4,4.2-1.3,6.3c0.6,0.8,0.3,2-0.6,2.5c-0.1,0-0.3,0.1-0.3,0.1L879.1,406c-0.8,0.6-2,0.4-2.5-0.4
					c-0.1-0.1-0.1-0.1-0.1-0.3C875.8,404.3,874.8,403.5,873.7,403.1z"/>
				<path class="st2" d="M787.3,668.3c-1,1-2.4,1.7-3.6,2.1c-4.5,1.1-9.1-1.7-10.2-6.3c-1-3.8,0.8-7.7,4.3-9.5
					c0.3-0.1,0.4-0.4,0.4-0.7c0.1-4.6,3.9-8.4,8.7-8.2c3.4,0,6.3,2.1,7.5,5.2c0.7,1.7,0.8,3.6,0.4,5.4l-0.1,0.4v0.1l0.4,0.3
					c4.5,2.9,9.1,5.7,13.6,8.7c0.3,0.1,0.6,0.1,0.8,0l0,0c3.5-3.1,8.8-2.7,11.9,1c3.1,3.5,2.7,8.8-1,11.9c-0.6,0.4-1.1,0.8-1.8,1.1
					c-0.3,0.1-0.4,0.3-0.4,0.6c0,4.6-3.9,8.4-8.5,8.4c-3.4,0-6.3-2.1-7.7-5.2c-0.8-1.8-0.8-3.8-0.3-5.6c0.1-0.3,0.1-0.4-0.1-0.6
					c-4.6-2.9-9.2-5.9-14-8.9C787.5,668.4,787.5,668.3,787.3,668.3z M791.7,653.3c-0.6-2.8-3.2-4.6-6-4.2c-2.7,0.6-4.5,3.2-4.1,5.9
					c0.3,0.8-0.1,1.8-1.1,2.1c-0.1,0-0.3,0-0.3,0.1c-2.7,0.7-4.3,3.5-3.6,6.1c0.4,1.7,1.7,2.9,3.2,3.5c2.1,0.7,4.3,0,5.7-1.8
					c0.4-0.8,1.5-1.1,2.4-0.6c0.1,0,0.1,0.1,0.3,0.1l16.5,10.5c0.8,0.4,1.3,1.4,0.8,2.2c0,0.1-0.1,0.1-0.1,0.3
					c-1.1,2-0.7,4.3,0.8,5.9c2,2,5.2,2.1,7.1,0.1c1.3-1.1,1.8-2.9,1.5-4.6c-0.3-0.8,0.3-1.8,1.1-2.2c0.1,0,0.1,0,0.3,0
					c2.7-0.7,4.3-3.5,3.6-6.1c-0.4-1.7-1.7-2.9-3.2-3.5c-2.1-0.8-4.5-0.1-5.7,1.7c-0.4,0.8-1.5,1.1-2.4,0.6c-0.1,0-0.1-0.1-0.3-0.1
					l-16.5-10.5c-0.8-0.4-1.3-1.4-0.8-2.2c0-0.1,0.1-0.1,0.1-0.3C791.7,655.5,791.9,654.4,791.7,653.3z"/>
				<path class="st2" d="M529.7,389.3c-1.3-1.1-2.1-2.5-2.7-4.1c-1.7-5.2,1.1-10.6,6.1-12.4c4.5-1.5,9.2,0.4,11.6,4.3
					c0.1,0.3,0.4,0.6,0.8,0.4c5.4-0.3,9.9,3.9,10.2,9.4c0.1,3.8-2,7.4-5.3,9.1c-2,1-4.2,1.4-6.3,0.8l-0.4-0.1h-0.1
					c-0.1,0.1-0.1,0.3-0.3,0.4c-2.9,5.4-6,10.9-8.9,16.3c-0.3,0.3-0.1,0.7,0.1,0.8l0,0c3.8,3.9,3.8,10.1-0.1,13.8
					c-3.9,3.8-10.1,3.8-13.8-0.1c-0.6-0.6-1.1-1.3-1.5-2c-0.1-0.3-0.4-0.4-0.8-0.4c-5.4,0.3-10.1-3.9-10.3-9.2
					c-0.1-3.9,2-7.5,5.3-9.2c2-1,4.3-1.4,6.4-0.8c0.3,0.1,0.6,0,0.7-0.3C523.4,400.4,526.5,394.7,529.7,389.3
					C534.2,381,529.7,389.4,529.7,389.3z M547.4,393c3.2-0.8,5.2-4.1,4.3-7.3c-0.8-3.1-4.1-5-7.1-4.2c-1,0.4-2.2-0.1-2.5-1.1
					c0-0.1-0.1-0.3-0.1-0.4c-0.8-2.5-3.2-4.1-5.7-4.1c-2.5,0.1-4.8,1.8-5.4,4.3s0.3,5,2.5,6.4c1,0.4,1.4,1.7,1,2.7
					c0,0.1-0.1,0.1-0.1,0.3l-10.9,20c-0.4,1-1.5,1.5-2.5,1.1c-0.1,0-0.1-0.1-0.3-0.1c-2.4-1.1-5-0.6-6.7,1.4c-2.2,2.4-2,6.1,0.4,8.2
					c1.4,1.3,3.5,1.8,5.4,1.3c1-0.4,2.2,0.1,2.5,1.1c0,0.1,0.1,0.3,0.1,0.4c0.8,2.5,3.2,4.1,5.7,4.1c2.5-0.1,4.8-1.8,5.4-4.3
					c0.7-2.5-0.3-5.2-2.5-6.6c-1-0.4-1.4-1.7-1-2.7c0-0.1,0.1-0.3,0.1-0.3l10.6-19.7c0.4-1,1.5-1.5,2.5-1.1c0.1,0,0.3,0.1,0.3,0.1
					C544.8,393.3,546.2,393.4,547.4,393L547.4,393z"/>
			</g>
			<g>
				<path class="st2" d="M1057.7,569.9c7-3.5,11.9-10.2,13.1-17.9c1.3,7.7,6.1,14.4,13.1,17.9c1.5,0.6,3.1,1.1,4.6,1.5
					c-1.5,0.4-3.1,1-4.6,1.5c-7,3.5-11.9,10.2-13.1,17.9c-1.3-7.7-6.1-14.4-13.1-17.9c-1.5-0.6-3.1-1.1-4.6-1.5
					C1054.7,571,1056.2,570.6,1057.7,569.9z"/>
				<path class="st2" d="M1289,523c11.5-5.4,19.8-16.8,22.2-30.3c2.4,13.6,10.8,24.7,22.2,30.3c2.5,1,5.2,2,7.8,2.7
					c-2.7,0.7-5.3,1.7-7.8,2.7c-11.5,5.4-19.8,16.8-22.2,30.3c-2.4-13.6-10.8-24.7-22.2-30.3c-2.5-1-5.2-2-7.8-2.7
					C1283.8,524.9,1286.5,523.9,1289,523z"/>
				<path class="st2" d="M1116.3,379.2c10.5-5,18.2-15.2,20.3-27.7c2.1,12.3,9.8,22.6,20.3,27.7c2.4,1,4.8,1.8,7.1,2.5
					c-2.4,0.7-4.8,1.5-7.1,2.5c-10.5,5-18.2,15.2-20.3,27.7c-2.1-12.4-9.8-22.6-20.3-27.7c-2.4-1-4.8-1.8-7.1-2.5
					C1111.5,380.9,1114.1,380,1116.3,379.2z"/>
				<circle class="st2" cx="1178.3" cy="492.6" r="8.1"/>
				<circle class="st2" cx="1414.3" cy="496.7" r="8.1"/>
				<circle class="st2" cx="1366" cy="612.1" r="8.1"/>
				<circle class="st2" cx="1024.5" cy="664.1" r="8.1"/>
				<circle class="st2" cx="976.6" cy="492.6" r="8.1"/>
				<path class="st2" d="M1364.3,415c0.4,1.5,0.4,3.1,0,4.6c-1.3,4.9-6.1,7.8-11,6.7c-4.2-1-7.1-4.9-7-9.2c0-0.3-0.1-0.6-0.4-0.7
					c-4.3-2.5-6-8-3.5-12.4c1.8-3.1,5.2-4.9,8.8-4.6c2.1,0.1,3.9,1,5.4,2.5l0.3,0.3l0.1,0.1c0.1-0.1,0.3-0.1,0.4-0.3
					c5-2.8,10.1-5.6,15.1-8.4c0.3-0.1,0.4-0.4,0.4-0.7l0,0c-1.1-4.9,2.1-9.8,7-10.9c4.9-1.1,9.8,2.1,10.9,7c0.1,0.7,0.3,1.5,0.1,2.2
					c0,0.3,0.1,0.6,0.4,0.7c4.3,2.5,6,8,3.5,12.4c-1.8,3.2-5.2,5-8.8,4.6c-2.1-0.1-4.1-1.1-5.4-2.5c-0.3-0.3-0.4-0.3-0.7-0.1
					C1374.8,409.1,1369.6,411.9,1364.3,415L1364.3,415z M1352.3,403.1c-2.9-1-6,0.7-7,3.6c-0.8,2.9,0.7,5.9,3.5,6.8
					c1,0.1,1.7,1.1,1.5,2.1c0,0.1,0,0.3-0.1,0.3c-0.7,2.9,1.1,5.9,4.1,6.6c1.8,0.4,3.6,0,5-1.3c1.8-1.5,2.2-4.2,1.3-6.3
					c-0.6-0.8-0.3-2,0.6-2.5c0.1,0,0.1-0.1,0.3-0.1l18.4-10.3c0.8-0.6,2-0.4,2.5,0.4c0,0.1,0.1,0.1,0.1,0.3c1.3,2,3.8,2.9,6,2.2
					c2.9-0.8,4.6-3.9,3.8-6.7c-0.6-1.8-1.8-3.1-3.6-3.6c-1-0.1-1.7-1.1-1.5-2.1c0-0.1,0-0.3,0.1-0.4c0.6-2.4-0.4-4.8-2.5-6
					c-2.1-1.3-4.6-1-6.4,0.7c-1.8,1.5-2.4,4.2-1.3,6.3c0.6,0.8,0.3,2-0.6,2.5c-0.1,0-0.3,0.1-0.3,0.1l-18.4,10.3
					c-0.8,0.6-2,0.4-2.5-0.4c-0.1-0.1-0.1-0.1-0.1-0.3C1354.4,404.3,1353.4,403.5,1352.3,403.1z"/>
				<path class="st2" d="M1265.9,668.3c-1,1-2.4,1.7-3.6,2.1c-4.5,1.1-9.1-1.7-10.2-6.3c-1-3.8,0.8-7.7,4.3-9.5
					c0.3-0.1,0.4-0.4,0.4-0.7c0.1-4.6,3.9-8.4,8.7-8.2c3.4,0,6.3,2.1,7.5,5.2c0.7,1.7,0.8,3.6,0.4,5.4l-0.1,0.4v0.1l0.4,0.3
					c4.5,2.9,9.1,5.7,13.6,8.7c0.3,0.1,0.6,0.1,0.8,0l0,0c3.5-3.1,8.8-2.7,11.9,1c3.1,3.5,2.7,8.8-1,11.9c-0.6,0.4-1.1,0.8-1.8,1.1
					c-0.3,0.1-0.4,0.3-0.4,0.6c0,4.6-3.9,8.4-8.5,8.4c-3.4,0-6.3-2.1-7.7-5.2c-0.8-1.8-0.8-3.8-0.3-5.6c0.1-0.3,0.1-0.4-0.1-0.6
					c-4.6-2.9-9.2-5.9-14-8.9C1266.1,668.4,1266.1,668.3,1265.9,668.3z M1270.2,653.3c-0.6-2.8-3.2-4.6-6-4.2
					c-2.7,0.6-4.5,3.2-4.1,5.9c0.3,0.8-0.1,1.8-1.1,2.1c-0.1,0-0.3,0-0.3,0.1c-2.7,0.7-4.3,3.5-3.6,6.1c0.4,1.7,1.7,2.9,3.2,3.5
					c2.1,0.7,4.3,0,5.7-1.8c0.4-0.8,1.5-1.1,2.4-0.6c0.1,0,0.1,0.1,0.3,0.1l16.5,10.5c0.8,0.4,1.3,1.4,0.8,2.2
					c0,0.1-0.1,0.1-0.1,0.3c-1.1,2-0.7,4.3,0.8,5.9c2,2,5.2,2.1,7.1,0.1c1.3-1.1,1.8-2.9,1.5-4.6c-0.3-0.8,0.3-1.8,1.1-2.2
					c0.1,0,0.1,0,0.3,0c2.7-0.7,4.3-3.5,3.6-6.1c-0.4-1.7-1.7-2.9-3.2-3.5c-2.1-0.8-4.5-0.1-5.7,1.7c-0.4,0.8-1.5,1.1-2.4,0.6
					c-0.1,0-0.1-0.1-0.3-0.1l-16.5-10.5c-0.8-0.4-1.3-1.4-0.8-2.2c0-0.1,0.1-0.1,0.1-0.3C1270.2,655.5,1270.5,654.4,1270.2,653.3z"
					/>
				<path class="st2" d="M1008.3,389.3c-1.3-1.1-2.1-2.5-2.7-4.1c-1.7-5.2,1.1-10.6,6.1-12.4c4.5-1.5,9.2,0.4,11.6,4.3
					c0.1,0.3,0.4,0.6,0.8,0.4c5.4-0.3,9.9,3.9,10.2,9.4c0.1,3.8-2,7.4-5.3,9.1c-2,1-4.2,1.4-6.3,0.8l-0.4-0.1h-0.1
					c-0.1,0.1-0.1,0.3-0.3,0.4c-2.9,5.4-6,10.9-8.9,16.3c-0.3,0.3-0.1,0.7,0.1,0.8l0,0c3.8,3.9,3.8,10.1-0.1,13.8
					c-3.9,3.8-10.1,3.8-13.8-0.1c-0.6-0.6-1.1-1.3-1.5-2c-0.1-0.3-0.4-0.4-0.8-0.4c-5.4,0.3-10.1-3.9-10.3-9.2
					c-0.1-3.9,2-7.5,5.3-9.2c2-1,4.3-1.4,6.4-0.8c0.3,0.1,0.6,0,0.7-0.3C1002,400.4,1005.1,394.7,1008.3,389.3
					C1012.8,381,1008.3,389.4,1008.3,389.3z M1026,393c3.2-0.8,5.2-4.1,4.3-7.3c-0.8-3.1-4.1-5-7.1-4.2c-1,0.4-2.2-0.1-2.5-1.1
					c0-0.1-0.1-0.3-0.1-0.4c-0.8-2.5-3.2-4.1-5.7-4.1c-2.5,0.1-4.8,1.8-5.4,4.3c-0.7,2.5,0.3,5,2.5,6.4c1,0.4,1.4,1.7,1,2.7
					c0,0.1-0.1,0.1-0.1,0.3l-10.9,20c-0.4,1-1.5,1.5-2.5,1.1c-0.1,0-0.1-0.1-0.3-0.1c-2.4-1.1-5-0.6-6.7,1.4c-2.2,2.4-2,6.1,0.4,8.2
					c1.4,1.3,3.5,1.8,5.4,1.3c1-0.4,2.2,0.1,2.5,1.1c0,0.1,0.1,0.3,0.1,0.4c0.8,2.5,3.2,4.1,5.7,4.1c2.5-0.1,4.8-1.8,5.4-4.3
					c0.7-2.5-0.3-5.2-2.5-6.6c-1-0.4-1.4-1.7-1-2.7c0-0.1,0.1-0.3,0.1-0.3l10.6-19.7c0.4-1,1.5-1.5,2.5-1.1c0.1,0,0.3,0.1,0.3,0.1
					C1023.4,393.3,1024.8,393.4,1026,393L1026,393z"/>
			</g>
			<g>
				<path class="st2" d="M1563.9,569.9c7-3.5,11.9-10.2,13.1-17.9c1.3,7.7,6.1,14.4,13.1,17.9c1.5,0.6,3.1,1.1,4.6,1.5
					c-1.5,0.4-3.1,1-4.6,1.5c-7,3.5-11.9,10.2-13.1,17.9c-1.3-7.7-6.1-14.4-13.1-17.9c-1.5-0.6-3.1-1.1-4.6-1.5
					C1560.8,571,1562.3,570.6,1563.9,569.9z"/>
				<path class="st2" d="M1795.1,523c11.5-5.4,19.8-16.8,22.2-30.3c2.4,13.6,10.8,24.7,22.2,30.3c2.5,1,5.2,2,7.8,2.7
					c-2.7,0.7-5.3,1.7-7.8,2.7c-11.5,5.4-19.8,16.8-22.2,30.3c-2.4-13.6-10.8-24.7-22.2-30.3c-2.5-1-5.2-2-7.8-2.7
					C1789.9,524.9,1792.6,523.9,1795.1,523z"/>
				<path class="st2" d="M1622.4,379.2c10.5-5,18.2-15.2,20.3-27.7c2.1,12.3,9.8,22.6,20.3,27.7c2.4,1,4.8,1.8,7.1,2.5
					c-2.4,0.7-4.8,1.5-7.1,2.5c-10.5,5-18.2,15.2-20.3,27.7c-2.1-12.4-9.8-22.6-20.3-27.7c-2.4-1-4.8-1.8-7.1-2.5
					C1617.7,380.9,1620.2,380,1622.4,379.2z"/>
				<circle class="st2" cx="1684.4" cy="492.6" r="8.1"/>
				<circle class="st2" cx="1920.4" cy="496.7" r="8.1"/>
				<circle class="st2" cx="1872.1" cy="612.1" r="8.1"/>
				<circle class="st2" cx="1530.6" cy="664.1" r="8.1"/>
				<circle class="st2" cx="1482.7" cy="492.6" r="8.1"/>
				<path class="st2" d="M1870.4,415c0.4,1.5,0.4,3.1,0,4.6c-1.3,4.9-6.1,7.8-11,6.7c-4.2-1-7.1-4.9-7-9.2c0-0.3-0.1-0.6-0.4-0.7
					c-4.3-2.5-6-8-3.5-12.4c1.8-3.1,5.2-4.9,8.8-4.6c2.1,0.1,3.9,1,5.4,2.5l0.3,0.3l0.1,0.1c0.1-0.1,0.3-0.1,0.4-0.3
					c5-2.8,10.1-5.6,15.1-8.4c0.3-0.1,0.4-0.4,0.4-0.7l0,0c-1.1-4.9,2.1-9.8,7-10.9c4.9-1.1,9.8,2.1,10.9,7c0.1,0.7,0.3,1.5,0.1,2.2
					c0,0.3,0.1,0.6,0.4,0.7c4.3,2.5,6,8,3.5,12.4c-1.8,3.2-5.2,5-8.8,4.6c-2.1-0.1-4.1-1.1-5.4-2.5c-0.3-0.3-0.4-0.3-0.7-0.1
					C1880.9,409.1,1875.7,411.9,1870.4,415L1870.4,415z M1858.4,403.1c-2.9-1-6,0.7-7,3.6c-0.8,2.9,0.7,5.9,3.5,6.8
					c1,0.1,1.7,1.1,1.5,2.1c0,0.1,0,0.3-0.1,0.3c-0.7,2.9,1.1,5.9,4.1,6.6c1.8,0.4,3.6,0,5-1.3c1.8-1.5,2.2-4.2,1.3-6.3
					c-0.6-0.8-0.3-2,0.6-2.5c0.1,0,0.1-0.1,0.3-0.1l18.4-10.3c0.8-0.6,2-0.4,2.5,0.4c0,0.1,0.1,0.1,0.1,0.3c1.3,2,3.8,2.9,6,2.2
					c2.9-0.8,4.6-3.9,3.8-6.7c-0.6-1.8-1.8-3.1-3.6-3.6c-1-0.1-1.7-1.1-1.5-2.1c0-0.1,0-0.3,0.1-0.4c0.6-2.4-0.4-4.8-2.5-6
					c-2.1-1.3-4.6-1-6.4,0.7c-1.8,1.5-2.4,4.2-1.3,6.3c0.6,0.8,0.3,2-0.6,2.5c-0.1,0-0.3,0.1-0.3,0.1l-18.4,10.3
					c-0.8,0.6-2,0.4-2.5-0.4c-0.1-0.1-0.1-0.1-0.1-0.3C1860.5,404.3,1859.5,403.5,1858.4,403.1z"/>
				<path class="st2" d="M1772,668.3c-1,1-2.4,1.7-3.6,2.1c-4.5,1.1-9.1-1.7-10.2-6.3c-1-3.8,0.8-7.7,4.3-9.5
					c0.3-0.1,0.4-0.4,0.4-0.7c0.1-4.6,3.9-8.4,8.7-8.2c3.4,0,6.3,2.1,7.5,5.2c0.7,1.7,0.8,3.6,0.4,5.4l-0.1,0.4v0.1l0.4,0.3
					c4.5,2.9,9.1,5.7,13.6,8.7c0.3,0.1,0.6,0.1,0.8,0l0,0c3.5-3.1,8.8-2.7,11.9,1c3.1,3.5,2.7,8.8-1,11.9c-0.6,0.4-1.1,0.8-1.8,1.1
					c-0.3,0.1-0.4,0.3-0.4,0.6c0,4.6-3.9,8.4-8.5,8.4c-3.4,0-6.3-2.1-7.7-5.2c-0.8-1.8-0.8-3.8-0.3-5.6c0.1-0.3,0.1-0.4-0.1-0.6
					c-4.6-2.9-9.2-5.9-14-8.9C1772.2,668.4,1772.2,668.3,1772,668.3z M1776.4,653.3c-0.6-2.8-3.2-4.6-6-4.2
					c-2.7,0.6-4.5,3.2-4.1,5.9c0.3,0.8-0.1,1.8-1.1,2.1c-0.1,0-0.3,0-0.3,0.1c-2.7,0.7-4.3,3.5-3.6,6.1c0.4,1.7,1.7,2.9,3.2,3.5
					c2.1,0.7,4.3,0,5.7-1.8c0.4-0.8,1.5-1.1,2.4-0.6c0.1,0,0.1,0.1,0.3,0.1l16.5,10.5c0.8,0.4,1.3,1.4,0.8,2.2
					c0,0.1-0.1,0.1-0.1,0.3c-1.1,2-0.7,4.3,0.8,5.9c2,2,5.2,2.1,7.1,0.1c1.3-1.1,1.8-2.9,1.5-4.6c-0.3-0.8,0.3-1.8,1.1-2.2
					c0.1,0,0.1,0,0.3,0c2.7-0.7,4.3-3.5,3.6-6.1c-0.4-1.7-1.7-2.9-3.2-3.5c-2.1-0.8-4.5-0.1-5.7,1.7c-0.4,0.8-1.5,1.1-2.4,0.6
					c-0.1,0-0.1-0.1-0.3-0.1l-16.5-10.5c-0.8-0.4-1.3-1.4-0.8-2.2c0-0.1,0.1-0.1,0.1-0.3C1776.4,655.5,1776.6,654.4,1776.4,653.3z"
					/>
				<path class="st2" d="M1514.4,389.3c-1.3-1.1-2.1-2.5-2.7-4.1c-1.7-5.2,1.1-10.6,6.1-12.4c4.5-1.5,9.2,0.4,11.6,4.3
					c0.1,0.3,0.4,0.6,0.8,0.4c5.4-0.3,9.9,3.9,10.2,9.4c0.1,3.8-2,7.4-5.3,9.1c-2,1-4.2,1.4-6.3,0.8l-0.4-0.1h-0.1
					c-0.1,0.1-0.1,0.3-0.3,0.4c-2.9,5.4-6,10.9-8.9,16.3c-0.3,0.3-0.1,0.7,0.1,0.8l0,0c3.8,3.9,3.8,10.1-0.1,13.8
					c-3.9,3.8-10.1,3.8-13.8-0.1c-0.6-0.6-1.1-1.3-1.5-2c-0.1-0.3-0.4-0.4-0.8-0.4c-5.4,0.3-10.1-3.9-10.3-9.2
					c-0.1-3.9,2-7.5,5.3-9.2c2-1,4.3-1.4,6.4-0.8c0.3,0.1,0.6,0,0.7-0.3C1508.1,400.4,1511.2,394.7,1514.4,389.3
					C1518.9,381,1514.4,389.4,1514.4,389.3z M1532.1,393c3.2-0.8,5.2-4.1,4.3-7.3c-0.8-3.1-4.1-5-7.1-4.2c-1,0.4-2.2-0.1-2.5-1.1
					c0-0.1-0.1-0.3-0.1-0.4c-0.8-2.5-3.2-4.1-5.7-4.1c-2.5,0.1-4.8,1.8-5.4,4.3s0.3,5,2.5,6.4c1,0.4,1.4,1.7,1,2.7
					c0,0.1-0.1,0.1-0.1,0.3l-10.9,20c-0.4,1-1.5,1.5-2.5,1.1c-0.1,0-0.1-0.1-0.3-0.1c-2.4-1.1-5-0.6-6.7,1.4c-2.2,2.4-2,6.1,0.4,8.2
					c1.4,1.3,3.5,1.8,5.4,1.3c1-0.4,2.2,0.1,2.5,1.1c0,0.1,0.1,0.3,0.1,0.4c0.8,2.5,3.2,4.1,5.7,4.1c2.5-0.1,4.8-1.8,5.4-4.3
					c0.7-2.5-0.3-5.2-2.5-6.6c-1-0.4-1.4-1.7-1-2.7c0-0.1,0.1-0.3,0.1-0.3l10.6-19.7c0.4-1,1.5-1.5,2.5-1.1c0.1,0,0.3,0.1,0.3,0.1
					C1529.5,393.3,1530.9,393.4,1532.1,393L1532.1,393z"/>
			</g>
		</g>
		<g style="clip-path:url(#SVGID_00000155834968587682736170000014549431444662667704_);">
			<g>
				<path class="st2" d="M89.3,915.1c7-3.5,11.9-10.2,13.1-17.9c1.3,7.7,6.1,14.4,13.1,17.9c1.5,0.6,3.1,1.1,4.6,1.5
					c-1.5,0.4-3.1,1-4.6,1.5c-7,3.5-11.9,10.2-13.1,17.9c-1.3-7.7-6.1-14.4-13.1-17.9c-1.5-0.6-3.1-1.1-4.6-1.5
					C86.2,916.2,87.7,915.8,89.3,915.1z"/>
				<path class="st2" d="M320.5,868.1c11.5-5.4,19.8-16.8,22.2-30.3c2.4,13.6,10.8,24.7,22.2,30.3c2.5,1,5.2,2,7.8,2.7
					c-2.7,0.7-5.3,1.7-7.8,2.7c-11.5,5.4-19.8,16.8-22.2,30.3c-2.4-13.6-10.8-24.7-22.2-30.3c-2.5-1-5.2-2-7.8-2.7
					C315.3,870.1,318,869.1,320.5,868.1z"/>
				<path class="st2" d="M147.8,724.4c10.5-5,18.2-15.2,20.3-27.7c2.1,12.3,9.8,22.6,20.3,27.7c2.4,1,4.8,1.8,7.1,2.5
					c-2.4,0.7-4.8,1.5-7.1,2.5c-10.5,5-18.2,15.2-20.3,27.7c-2.1-12.4-9.8-22.6-20.3-27.7c-2.4-1-4.8-1.8-7.1-2.5
					C143.1,726,145.6,725.2,147.8,724.4z"/>
				<circle class="st2" cx="209.8" cy="837.8" r="8.1"/>
				<circle class="st2" cx="445.8" cy="841.9" r="8.1"/>
				<circle class="st2" cx="397.5" cy="957.3" r="8.1"/>
				<circle class="st2" cx="56" cy="1009.2" r="8.1"/>
				<circle class="st2" cx="8.1" cy="837.8" r="8.1"/>
				<path class="st2" d="M395.8,760.1c0.4,1.5,0.4,3.1,0,4.6c-1.3,4.9-6.1,7.8-11,6.7c-4.2-1-7.1-4.9-7-9.2c0-0.3-0.1-0.6-0.4-0.7
					c-4.3-2.5-6-8-3.5-12.4c1.8-3.1,5.2-4.9,8.8-4.6c2.1,0.1,3.9,1,5.4,2.5l0.3,0.3l0.1,0.1c0.1-0.1,0.3-0.1,0.4-0.3
					c5-2.8,10.1-5.6,15.1-8.4c0.3-0.1,0.4-0.4,0.4-0.7l0,0c-1.1-4.9,2.1-9.8,7-10.9c4.9-1.1,9.8,2.1,10.9,7c0.1,0.7,0.3,1.5,0.1,2.2
					c0,0.3,0.1,0.6,0.4,0.7c4.3,2.5,6,8,3.5,12.4c-1.8,3.2-5.2,5-8.8,4.6c-2.1-0.1-4.1-1.1-5.4-2.5c-0.3-0.3-0.4-0.3-0.7-0.1
					C406.3,754.3,401.1,757.1,395.8,760.1L395.8,760.1z M383.8,748.3c-2.9-1-6,0.7-7,3.6c-0.8,2.9,0.7,5.9,3.5,6.8
					c1,0.1,1.7,1.1,1.5,2.1c0,0.1,0,0.3-0.1,0.3c-0.7,2.9,1.1,5.9,4.1,6.6c1.8,0.4,3.6,0,5-1.3c1.8-1.5,2.2-4.2,1.3-6.3
					c-0.6-0.8-0.3-2,0.6-2.5c0.1,0,0.1-0.1,0.3-0.1l18.4-10.3c0.8-0.6,2-0.4,2.5,0.4c0,0.1,0.1,0.1,0.1,0.3c1.3,2,3.8,2.9,6,2.2
					c2.9-0.8,4.6-3.9,3.8-6.7c-0.6-1.8-1.8-3.1-3.6-3.6c-1-0.1-1.7-1.1-1.5-2.1c0-0.1,0-0.3,0.1-0.4c0.6-2.4-0.4-4.8-2.5-6
					c-2.1-1.3-4.6-1-6.4,0.7c-1.8,1.5-2.4,4.2-1.3,6.3c0.6,0.8,0.3,2-0.6,2.5c-0.1,0-0.3,0.1-0.3,0.1l-18.4,10.3
					c-0.8,0.6-2,0.4-2.5-0.4c-0.1-0.1-0.1-0.1-0.1-0.3C385.9,749.5,384.9,748.7,383.8,748.3z"/>
				<path class="st2" d="M297.4,1013.4c-1,1-2.4,1.7-3.6,2.1c-4.5,1.1-9.1-1.7-10.2-6.3c-1-3.8,0.8-7.7,4.3-9.5
					c0.3-0.1,0.4-0.4,0.4-0.7c0.1-4.6,3.9-8.4,8.7-8.2c3.4,0,6.3,2.1,7.5,5.2c0.7,1.7,0.8,3.6,0.4,5.4l-0.1,0.4v0.1l0.4,0.3
					c4.5,2.9,9.1,5.7,13.6,8.7c0.3,0.1,0.6,0.1,0.8,0l0,0c3.5-3.1,8.8-2.7,11.9,1c3.1,3.5,2.7,8.8-1,11.9c-0.6,0.4-1.1,0.8-1.8,1.1
					c-0.3,0.1-0.4,0.3-0.4,0.6c0,4.6-3.9,8.4-8.5,8.4c-3.4,0-6.3-2.1-7.7-5.2c-0.8-1.8-0.8-3.8-0.3-5.6c0.1-0.3,0.1-0.4-0.1-0.6
					c-4.6-2.9-9.2-5.9-14-8.9C297.6,1013.6,297.6,1013.4,297.4,1013.4z M301.8,998.5c-0.6-2.8-3.2-4.6-6-4.2
					c-2.7,0.6-4.5,3.2-4.1,5.9c0.3,0.8-0.1,1.8-1.1,2.1c-0.1,0-0.3,0-0.3,0.1c-2.7,0.7-4.3,3.5-3.6,6.1c0.4,1.7,1.7,2.9,3.2,3.5
					c2.1,0.7,4.3,0,5.7-1.8c0.4-0.8,1.5-1.1,2.4-0.6c0.1,0,0.1,0.1,0.3,0.1l16.5,10.5c0.8,0.4,1.3,1.4,0.8,2.2
					c0,0.1-0.1,0.1-0.1,0.3c-1.1,2-0.7,4.3,0.8,5.9c2,2,5.2,2.1,7.1,0.1c1.3-1.1,1.8-2.9,1.5-4.6c-0.3-0.8,0.3-1.8,1.1-2.2
					c0.1,0,0.1,0,0.3,0c2.7-0.7,4.3-3.5,3.6-6.1c-0.4-1.7-1.7-2.9-3.2-3.5c-2.1-0.8-4.5-0.1-5.7,1.7c-0.4,0.8-1.5,1.1-2.4,0.6
					c-0.1,0-0.1-0.1-0.3-0.1l-16.5-10.5c-0.8-0.4-1.3-1.4-0.8-2.2c0-0.1,0.1-0.1,0.1-0.3C301.8,1000.7,302.1,999.6,301.8,998.5z"/>
				<path class="st2" d="M39.8,734.4c-1.3-1.1-2.1-2.5-2.7-4.1c-1.7-5.2,1.1-10.6,6.1-12.4c4.5-1.5,9.2,0.4,11.6,4.3
					c0.1,0.3,0.4,0.6,0.8,0.4c5.4-0.3,9.9,3.9,10.2,9.4c0.1,3.8-2,7.4-5.3,9.1c-2,1-4.2,1.4-6.3,0.8l-0.4-0.1h-0.1
					c-0.1,0.1-0.1,0.3-0.3,0.4c-2.9,5.4-6,10.9-8.9,16.3c-0.3,0.3-0.1,0.7,0.1,0.8l0,0c3.8,3.9,3.8,10.1-0.1,13.8
					c-3.9,3.8-10.1,3.8-13.8-0.1c-0.6-0.6-1.1-1.3-1.5-2c-0.1-0.3-0.4-0.4-0.8-0.4c-5.4,0.3-10.1-3.9-10.3-9.2
					c-0.1-3.9,2-7.5,5.3-9.2c2-1,4.3-1.4,6.4-0.8c0.3,0.1,0.6,0,0.7-0.3C33.5,745.6,36.6,739.9,39.8,734.4
					C44.3,726.2,39.8,734.6,39.8,734.4z M57.6,738.2c3.2-0.8,5.2-4.1,4.3-7.3c-0.8-3.1-4.1-5-7.1-4.2c-1,0.4-2.2-0.1-2.5-1.1
					c0-0.1-0.1-0.3-0.1-0.4c-0.8-2.5-3.2-4.1-5.7-4.1c-2.5,0.1-4.8,1.8-5.4,4.3c-0.7,2.5,0.3,5,2.5,6.4c1,0.4,1.4,1.7,1,2.7
					c0,0.1-0.1,0.1-0.1,0.3l-10.9,20c-0.4,1-1.5,1.5-2.5,1.1c-0.1,0-0.1-0.1-0.3-0.1c-2.4-1.1-5-0.6-6.7,1.4c-2.2,2.4-2,6.1,0.4,8.2
					c1.4,1.3,3.5,1.8,5.4,1.3c1-0.4,2.2,0.1,2.5,1.1c0,0.1,0.1,0.3,0.1,0.4c0.8,2.5,3.2,4.1,5.7,4.1c2.5-0.1,4.8-1.8,5.4-4.3
					c0.7-2.5-0.3-5.2-2.5-6.6c-1-0.4-1.4-1.7-1-2.7c0-0.1,0.1-0.3,0.1-0.3l10.6-19.7c0.4-1,1.5-1.5,2.5-1.1c0.1,0,0.3,0.1,0.3,0.1
					C54.9,738.5,56.3,738.6,57.6,738.2L57.6,738.2z"/>
			</g>
			<g>
				<path class="st2" d="M579.2,915.1c7-3.5,11.9-10.2,13.1-17.9c1.3,7.7,6.1,14.4,13.1,17.9c1.5,0.6,3.1,1.1,4.6,1.5
					c-1.5,0.4-3.1,1-4.6,1.5c-7,3.5-11.9,10.2-13.1,17.9c-1.3-7.7-6.1-14.4-13.1-17.9c-1.5-0.6-3.1-1.1-4.6-1.5
					C576.1,916.2,577.6,915.8,579.2,915.1z"/>
				<path class="st2" d="M810.4,868.1c11.5-5.4,19.8-16.8,22.2-30.3c2.4,13.6,10.8,24.7,22.2,30.3c2.5,1,5.2,2,7.8,2.7
					c-2.7,0.7-5.3,1.7-7.8,2.7c-11.5,5.4-19.8,16.8-22.2,30.3c-2.4-13.6-10.8-24.7-22.2-30.3c-2.5-1-5.2-2-7.8-2.7
					C805.2,870.1,807.9,869.1,810.4,868.1z"/>
				<path class="st2" d="M637.7,724.4c10.5-5,18.2-15.2,20.3-27.7c2.1,12.3,9.8,22.6,20.3,27.7c2.4,1,4.8,1.8,7.1,2.5
					c-2.4,0.7-4.8,1.5-7.1,2.5c-10.5,5-18.2,15.2-20.3,27.7c-2.1-12.4-9.8-22.6-20.3-27.7c-2.4-1-4.8-1.8-7.1-2.5
					C632.9,726,635.5,725.2,637.7,724.4z"/>
				<circle class="st2" cx="699.7" cy="837.8" r="8.1"/>
				<circle class="st2" cx="935.7" cy="841.9" r="8.1"/>
				<circle class="st2" cx="887.4" cy="957.3" r="8.1"/>
				<circle class="st2" cx="545.9" cy="1009.2" r="8.1"/>
				<circle class="st2" cx="498" cy="837.8" r="8.1"/>
				<path class="st2" d="M885.7,760.1c0.4,1.5,0.4,3.1,0,4.6c-1.3,4.9-6.1,7.8-11,6.7c-4.2-1-7.1-4.9-7-9.2c0-0.3-0.1-0.6-0.4-0.7
					c-4.3-2.5-6-8-3.5-12.4c1.8-3.1,5.2-4.9,8.8-4.6c2.1,0.1,3.9,1,5.4,2.5l0.3,0.3l0.1,0.1c0.1-0.1,0.3-0.1,0.4-0.3
					c5-2.8,10.1-5.6,15.1-8.4c0.3-0.1,0.4-0.4,0.4-0.7l0,0c-1.1-4.9,2.1-9.8,7-10.9s9.8,2.1,10.9,7c0.1,0.7,0.3,1.5,0.1,2.2
					c0,0.3,0.1,0.6,0.4,0.7c4.3,2.5,6,8,3.5,12.4c-1.8,3.2-5.2,5-8.8,4.6c-2.1-0.1-4.1-1.1-5.4-2.5c-0.3-0.3-0.4-0.3-0.7-0.1
					C896.2,754.3,891,757.1,885.7,760.1L885.7,760.1z M873.7,748.3c-2.9-1-6,0.7-7,3.6c-0.8,2.9,0.7,5.9,3.5,6.8
					c1,0.1,1.7,1.1,1.5,2.1c0,0.1,0,0.3-0.1,0.3c-0.7,2.9,1.1,5.9,4.1,6.6c1.8,0.4,3.6,0,5-1.3c1.8-1.5,2.2-4.2,1.3-6.3
					c-0.6-0.8-0.3-2,0.6-2.5c0.1,0,0.1-0.1,0.3-0.1l18.4-10.3c0.8-0.6,2-0.4,2.5,0.4c0,0.1,0.1,0.1,0.1,0.3c1.3,2,3.8,2.9,6,2.2
					c2.9-0.8,4.6-3.9,3.8-6.7c-0.6-1.8-1.8-3.1-3.6-3.6c-1-0.1-1.7-1.1-1.5-2.1c0-0.1,0-0.3,0.1-0.4c0.6-2.4-0.4-4.8-2.5-6
					c-2.1-1.3-4.6-1-6.4,0.7c-1.8,1.5-2.4,4.2-1.3,6.3c0.6,0.8,0.3,2-0.6,2.5c-0.1,0-0.3,0.1-0.3,0.1l-18.4,10.3
					c-0.8,0.6-2,0.4-2.5-0.4c-0.1-0.1-0.1-0.1-0.1-0.3C875.8,749.5,874.8,748.7,873.7,748.3z"/>
				<path class="st2" d="M787.3,1013.4c-1,1-2.4,1.7-3.6,2.1c-4.5,1.1-9.1-1.7-10.2-6.3c-1-3.8,0.8-7.7,4.3-9.5
					c0.3-0.1,0.4-0.4,0.4-0.7c0.1-4.6,3.9-8.4,8.7-8.2c3.4,0,6.3,2.1,7.5,5.2c0.7,1.7,0.8,3.6,0.4,5.4l-0.1,0.4v0.1l0.4,0.3
					c4.5,2.9,9.1,5.7,13.6,8.7c0.3,0.1,0.6,0.1,0.8,0l0,0c3.5-3.1,8.8-2.7,11.9,1c3.1,3.5,2.7,8.8-1,11.9c-0.6,0.4-1.1,0.8-1.8,1.1
					c-0.3,0.1-0.4,0.3-0.4,0.6c0,4.6-3.9,8.4-8.5,8.4c-3.4,0-6.3-2.1-7.7-5.2c-0.8-1.8-0.8-3.8-0.3-5.6c0.1-0.3,0.1-0.4-0.1-0.6
					c-4.6-2.9-9.2-5.9-14-8.9C787.5,1013.6,787.5,1013.4,787.3,1013.4z M791.7,998.5c-0.6-2.8-3.2-4.6-6-4.2
					c-2.7,0.6-4.5,3.2-4.1,5.9c0.3,0.8-0.1,1.8-1.1,2.1c-0.1,0-0.3,0-0.3,0.1c-2.7,0.7-4.3,3.5-3.6,6.1c0.4,1.7,1.7,2.9,3.2,3.5
					c2.1,0.7,4.3,0,5.7-1.8c0.4-0.8,1.5-1.1,2.4-0.6c0.1,0,0.1,0.1,0.3,0.1l16.5,10.5c0.8,0.4,1.3,1.4,0.8,2.2
					c0,0.1-0.1,0.1-0.1,0.3c-1.1,2-0.7,4.3,0.8,5.9c2,2,5.2,2.1,7.1,0.1c1.3-1.1,1.8-2.9,1.5-4.6c-0.3-0.8,0.3-1.8,1.1-2.2
					c0.1,0,0.1,0,0.3,0c2.7-0.7,4.3-3.5,3.6-6.1c-0.4-1.7-1.7-2.9-3.2-3.5c-2.1-0.8-4.5-0.1-5.7,1.7c-0.4,0.8-1.5,1.1-2.4,0.6
					c-0.1,0-0.1-0.1-0.3-0.1l-16.5-10.5c-0.8-0.4-1.3-1.4-0.8-2.2c0-0.1,0.1-0.1,0.1-0.3C791.7,1000.7,791.9,999.6,791.7,998.5z"/>
				<path class="st2" d="M529.7,734.4c-1.3-1.1-2.1-2.5-2.7-4.1c-1.7-5.2,1.1-10.6,6.1-12.4c4.5-1.5,9.2,0.4,11.6,4.3
					c0.1,0.3,0.4,0.6,0.8,0.4c5.4-0.3,9.9,3.9,10.2,9.4c0.1,3.8-2,7.4-5.3,9.1c-2,1-4.2,1.4-6.3,0.8l-0.4-0.1h-0.1
					c-0.1,0.1-0.1,0.3-0.3,0.4c-2.9,5.4-6,10.9-8.9,16.3c-0.3,0.3-0.1,0.7,0.1,0.8l0,0c3.8,3.9,3.8,10.1-0.1,13.8
					c-3.9,3.8-10.1,3.8-13.8-0.1c-0.6-0.6-1.1-1.3-1.5-2c-0.1-0.3-0.4-0.4-0.8-0.4c-5.4,0.3-10.1-3.9-10.3-9.2
					c-0.1-3.9,2-7.5,5.3-9.2c2-1,4.3-1.4,6.4-0.8c0.3,0.1,0.6,0,0.7-0.3C523.4,745.6,526.5,739.9,529.7,734.4
					C534.2,726.2,529.7,734.6,529.7,734.4z M547.4,738.2c3.2-0.8,5.2-4.1,4.3-7.3c-0.8-3.1-4.1-5-7.1-4.2c-1,0.4-2.2-0.1-2.5-1.1
					c0-0.1-0.1-0.3-0.1-0.4c-0.8-2.5-3.2-4.1-5.7-4.1c-2.5,0.1-4.8,1.8-5.4,4.3c-0.7,2.5,0.3,5,2.5,6.4c1,0.4,1.4,1.7,1,2.7
					c0,0.1-0.1,0.1-0.1,0.3l-10.9,20c-0.4,1-1.5,1.5-2.5,1.1c-0.1,0-0.1-0.1-0.3-0.1c-2.4-1.1-5-0.6-6.7,1.4c-2.2,2.4-2,6.1,0.4,8.2
					c1.4,1.3,3.5,1.8,5.4,1.3c1-0.4,2.2,0.1,2.5,1.1c0,0.1,0.1,0.3,0.1,0.4c0.8,2.5,3.2,4.1,5.7,4.1c2.5-0.1,4.8-1.8,5.4-4.3
					c0.7-2.5-0.3-5.2-2.5-6.6c-1-0.4-1.4-1.7-1-2.7c0-0.1,0.1-0.3,0.1-0.3l10.6-19.7c0.4-1,1.5-1.5,2.5-1.1c0.1,0,0.3,0.1,0.3,0.1
					C544.8,738.5,546.2,738.6,547.4,738.2L547.4,738.2z"/>
			</g>
			<g>
				<path class="st2" d="M1057.7,915.1c7-3.5,11.9-10.2,13.1-17.9c1.3,7.7,6.1,14.4,13.1,17.9c1.5,0.6,3.1,1.1,4.6,1.5
					c-1.5,0.4-3.1,1-4.6,1.5c-7,3.5-11.9,10.2-13.1,17.9c-1.3-7.7-6.1-14.4-13.1-17.9c-1.5-0.6-3.1-1.1-4.6-1.5
					C1054.7,916.2,1056.2,915.8,1057.7,915.1z"/>
				<path class="st2" d="M1289,868.1c11.5-5.4,19.8-16.8,22.2-30.3c2.4,13.6,10.8,24.7,22.2,30.3c2.5,1,5.2,2,7.8,2.7
					c-2.7,0.7-5.3,1.7-7.8,2.7c-11.5,5.4-19.8,16.8-22.2,30.3c-2.4-13.6-10.8-24.7-22.2-30.3c-2.5-1-5.2-2-7.8-2.7
					C1283.8,870.1,1286.5,869.1,1289,868.1z"/>
				<path class="st2" d="M1116.3,724.4c10.5-5,18.2-15.2,20.3-27.7c2.1,12.3,9.8,22.6,20.3,27.7c2.4,1,4.8,1.8,7.1,2.5
					c-2.4,0.7-4.8,1.5-7.1,2.5c-10.5,5-18.2,15.2-20.3,27.7c-2.1-12.4-9.8-22.6-20.3-27.7c-2.4-1-4.8-1.8-7.1-2.5
					C1111.5,726,1114.1,725.2,1116.3,724.4z"/>
				<circle class="st2" cx="1178.3" cy="837.8" r="8.1"/>
				<circle class="st2" cx="1414.3" cy="841.9" r="8.1"/>
				<circle class="st2" cx="1366" cy="957.3" r="8.1"/>
				<circle class="st2" cx="1024.5" cy="1009.2" r="8.1"/>
				<circle class="st2" cx="976.6" cy="837.8" r="8.1"/>
				<path class="st2" d="M1364.3,760.1c0.4,1.5,0.4,3.1,0,4.6c-1.3,4.9-6.1,7.8-11,6.7c-4.2-1-7.1-4.9-7-9.2c0-0.3-0.1-0.6-0.4-0.7
					c-4.3-2.5-6-8-3.5-12.4c1.8-3.1,5.2-4.9,8.8-4.6c2.1,0.1,3.9,1,5.4,2.5l0.3,0.3l0.1,0.1c0.1-0.1,0.3-0.1,0.4-0.3
					c5-2.8,10.1-5.6,15.1-8.4c0.3-0.1,0.4-0.4,0.4-0.7l0,0c-1.1-4.9,2.1-9.8,7-10.9s9.8,2.1,10.9,7c0.1,0.7,0.3,1.5,0.1,2.2
					c0,0.3,0.1,0.6,0.4,0.7c4.3,2.5,6,8,3.5,12.4c-1.8,3.2-5.2,5-8.8,4.6c-2.1-0.1-4.1-1.1-5.4-2.5c-0.3-0.3-0.4-0.3-0.7-0.1
					C1374.8,754.3,1369.6,757.1,1364.3,760.1L1364.3,760.1z M1352.3,748.3c-2.9-1-6,0.7-7,3.6c-0.8,2.9,0.7,5.9,3.5,6.8
					c1,0.1,1.7,1.1,1.5,2.1c0,0.1,0,0.3-0.1,0.3c-0.7,2.9,1.1,5.9,4.1,6.6c1.8,0.4,3.6,0,5-1.3c1.8-1.5,2.2-4.2,1.3-6.3
					c-0.6-0.8-0.3-2,0.6-2.5c0.1,0,0.1-0.1,0.3-0.1l18.4-10.3c0.8-0.6,2-0.4,2.5,0.4c0,0.1,0.1,0.1,0.1,0.3c1.3,2,3.8,2.9,6,2.2
					c2.9-0.8,4.6-3.9,3.8-6.7c-0.6-1.8-1.8-3.1-3.6-3.6c-1-0.1-1.7-1.1-1.5-2.1c0-0.1,0-0.3,0.1-0.4c0.6-2.4-0.4-4.8-2.5-6
					c-2.1-1.3-4.6-1-6.4,0.7c-1.8,1.5-2.4,4.2-1.3,6.3c0.6,0.8,0.3,2-0.6,2.5c-0.1,0-0.3,0.1-0.3,0.1l-18.4,10.3
					c-0.8,0.6-2,0.4-2.5-0.4c-0.1-0.1-0.1-0.1-0.1-0.3C1354.4,749.5,1353.4,748.7,1352.3,748.3z"/>
				<path class="st2" d="M1265.9,1013.4c-1,1-2.4,1.7-3.6,2.1c-4.5,1.1-9.1-1.7-10.2-6.3c-1-3.8,0.8-7.7,4.3-9.5
					c0.3-0.1,0.4-0.4,0.4-0.7c0.1-4.6,3.9-8.4,8.7-8.2c3.4,0,6.3,2.1,7.5,5.2c0.7,1.7,0.8,3.6,0.4,5.4l-0.1,0.4v0.1l0.4,0.3
					c4.5,2.9,9.1,5.7,13.6,8.7c0.3,0.1,0.6,0.1,0.8,0l0,0c3.5-3.1,8.8-2.7,11.9,1c3.1,3.5,2.7,8.8-1,11.9c-0.6,0.4-1.1,0.8-1.8,1.1
					c-0.3,0.1-0.4,0.3-0.4,0.6c0,4.6-3.9,8.4-8.5,8.4c-3.4,0-6.3-2.1-7.7-5.2c-0.8-1.8-0.8-3.8-0.3-5.6c0.1-0.3,0.1-0.4-0.1-0.6
					c-4.6-2.9-9.2-5.9-14-8.9C1266.1,1013.6,1266.1,1013.4,1265.9,1013.4z M1270.2,998.5c-0.6-2.8-3.2-4.6-6-4.2
					c-2.7,0.6-4.5,3.2-4.1,5.9c0.3,0.8-0.1,1.8-1.1,2.1c-0.1,0-0.3,0-0.3,0.1c-2.7,0.7-4.3,3.5-3.6,6.1c0.4,1.7,1.7,2.9,3.2,3.5
					c2.1,0.7,4.3,0,5.7-1.8c0.4-0.8,1.5-1.1,2.4-0.6c0.1,0,0.1,0.1,0.3,0.1l16.5,10.5c0.8,0.4,1.3,1.4,0.8,2.2
					c0,0.1-0.1,0.1-0.1,0.3c-1.1,2-0.7,4.3,0.8,5.9c2,2,5.2,2.1,7.1,0.1c1.3-1.1,1.8-2.9,1.5-4.6c-0.3-0.8,0.3-1.8,1.1-2.2
					c0.1,0,0.1,0,0.3,0c2.7-0.7,4.3-3.5,3.6-6.1c-0.4-1.7-1.7-2.9-3.2-3.5c-2.1-0.8-4.5-0.1-5.7,1.7c-0.4,0.8-1.5,1.1-2.4,0.6
					c-0.1,0-0.1-0.1-0.3-0.1l-16.5-10.5c-0.8-0.4-1.3-1.4-0.8-2.2c0-0.1,0.1-0.1,0.1-0.3C1270.2,1000.7,1270.5,999.6,1270.2,998.5z"
					/>
				<path class="st2" d="M1008.3,734.4c-1.3-1.1-2.1-2.5-2.7-4.1c-1.7-5.2,1.1-10.6,6.1-12.4c4.5-1.5,9.2,0.4,11.6,4.3
					c0.1,0.3,0.4,0.6,0.8,0.4c5.4-0.3,9.9,3.9,10.2,9.4c0.1,3.8-2,7.4-5.3,9.1c-2,1-4.2,1.4-6.3,0.8l-0.4-0.1h-0.1
					c-0.1,0.1-0.1,0.3-0.3,0.4c-2.9,5.4-6,10.9-8.9,16.3c-0.3,0.3-0.1,0.7,0.1,0.8l0,0c3.8,3.9,3.8,10.1-0.1,13.8
					c-3.9,3.8-10.1,3.8-13.8-0.1c-0.6-0.6-1.1-1.3-1.5-2c-0.1-0.3-0.4-0.4-0.8-0.4c-5.4,0.3-10.1-3.9-10.3-9.2
					c-0.1-3.9,2-7.5,5.3-9.2c2-1,4.3-1.4,6.4-0.8c0.3,0.1,0.6,0,0.7-0.3C1002,745.6,1005.1,739.9,1008.3,734.4
					C1012.8,726.2,1008.3,734.6,1008.3,734.4z M1026,738.2c3.2-0.8,5.2-4.1,4.3-7.3c-0.8-3.1-4.1-5-7.1-4.2c-1,0.4-2.2-0.1-2.5-1.1
					c0-0.1-0.1-0.3-0.1-0.4c-0.8-2.5-3.2-4.1-5.7-4.1c-2.5,0.1-4.8,1.8-5.4,4.3c-0.7,2.5,0.3,5,2.5,6.4c1,0.4,1.4,1.7,1,2.7
					c0,0.1-0.1,0.1-0.1,0.3l-10.9,20c-0.4,1-1.5,1.5-2.5,1.1c-0.1,0-0.1-0.1-0.3-0.1c-2.4-1.1-5-0.6-6.7,1.4c-2.2,2.4-2,6.1,0.4,8.2
					c1.4,1.3,3.5,1.8,5.4,1.3c1-0.4,2.2,0.1,2.5,1.1c0,0.1,0.1,0.3,0.1,0.4c0.8,2.5,3.2,4.1,5.7,4.1c2.5-0.1,4.8-1.8,5.4-4.3
					c0.7-2.5-0.3-5.2-2.5-6.6c-1-0.4-1.4-1.7-1-2.7c0-0.1,0.1-0.3,0.1-0.3l10.6-19.7c0.4-1,1.5-1.5,2.5-1.1c0.1,0,0.3,0.1,0.3,0.1
					C1023.4,738.5,1024.8,738.6,1026,738.2L1026,738.2z"/>
			</g>
			<g>
				<path class="st2" d="M1563.9,915.1c7-3.5,11.9-10.2,13.1-17.9c1.3,7.7,6.1,14.4,13.1,17.9c1.5,0.6,3.1,1.1,4.6,1.5
					c-1.5,0.4-3.1,1-4.6,1.5c-7,3.5-11.9,10.2-13.1,17.9c-1.3-7.7-6.1-14.4-13.1-17.9c-1.5-0.6-3.1-1.1-4.6-1.5
					C1560.8,916.2,1562.3,915.8,1563.9,915.1z"/>
				<path class="st2" d="M1795.1,868.1c11.5-5.4,19.8-16.8,22.2-30.3c2.4,13.6,10.8,24.7,22.2,30.3c2.5,1,5.2,2,7.8,2.7
					c-2.7,0.7-5.3,1.7-7.8,2.7c-11.5,5.4-19.8,16.8-22.2,30.3c-2.4-13.6-10.8-24.7-22.2-30.3c-2.5-1-5.2-2-7.8-2.7
					C1789.9,870.1,1792.6,869.1,1795.1,868.1z"/>
				<path class="st2" d="M1622.4,724.4c10.5-5,18.2-15.2,20.3-27.7c2.1,12.3,9.8,22.6,20.3,27.7c2.4,1,4.8,1.8,7.1,2.5
					c-2.4,0.7-4.8,1.5-7.1,2.5c-10.5,5-18.2,15.2-20.3,27.7c-2.1-12.4-9.8-22.6-20.3-27.7c-2.4-1-4.8-1.8-7.1-2.5
					C1617.7,726,1620.2,725.2,1622.4,724.4z"/>
				<circle class="st2" cx="1684.4" cy="837.8" r="8.1"/>
				<circle class="st2" cx="1920.4" cy="841.9" r="8.1"/>
				<circle class="st2" cx="1872.1" cy="957.3" r="8.1"/>
				<circle class="st2" cx="1530.6" cy="1009.2" r="8.1"/>
				<circle class="st2" cx="1482.7" cy="837.8" r="8.1"/>
				<path class="st2" d="M1870.4,760.1c0.4,1.5,0.4,3.1,0,4.6c-1.3,4.9-6.1,7.8-11,6.7c-4.2-1-7.1-4.9-7-9.2c0-0.3-0.1-0.6-0.4-0.7
					c-4.3-2.5-6-8-3.5-12.4c1.8-3.1,5.2-4.9,8.8-4.6c2.1,0.1,3.9,1,5.4,2.5l0.3,0.3l0.1,0.1c0.1-0.1,0.3-0.1,0.4-0.3
					c5-2.8,10.1-5.6,15.1-8.4c0.3-0.1,0.4-0.4,0.4-0.7l0,0c-1.1-4.9,2.1-9.8,7-10.9c4.9-1.1,9.8,2.1,10.9,7c0.1,0.7,0.3,1.5,0.1,2.2
					c0,0.3,0.1,0.6,0.4,0.7c4.3,2.5,6,8,3.5,12.4c-1.8,3.2-5.2,5-8.8,4.6c-2.1-0.1-4.1-1.1-5.4-2.5c-0.3-0.3-0.4-0.3-0.7-0.1
					C1880.9,754.3,1875.7,757.1,1870.4,760.1L1870.4,760.1z M1858.4,748.3c-2.9-1-6,0.7-7,3.6c-0.8,2.9,0.7,5.9,3.5,6.8
					c1,0.1,1.7,1.1,1.5,2.1c0,0.1,0,0.3-0.1,0.3c-0.7,2.9,1.1,5.9,4.1,6.6c1.8,0.4,3.6,0,5-1.3c1.8-1.5,2.2-4.2,1.3-6.3
					c-0.6-0.8-0.3-2,0.6-2.5c0.1,0,0.1-0.1,0.3-0.1l18.4-10.3c0.8-0.6,2-0.4,2.5,0.4c0,0.1,0.1,0.1,0.1,0.3c1.3,2,3.8,2.9,6,2.2
					c2.9-0.8,4.6-3.9,3.8-6.7c-0.6-1.8-1.8-3.1-3.6-3.6c-1-0.1-1.7-1.1-1.5-2.1c0-0.1,0-0.3,0.1-0.4c0.6-2.4-0.4-4.8-2.5-6
					c-2.1-1.3-4.6-1-6.4,0.7c-1.8,1.5-2.4,4.2-1.3,6.3c0.6,0.8,0.3,2-0.6,2.5c-0.1,0-0.3,0.1-0.3,0.1l-18.4,10.3
					c-0.8,0.6-2,0.4-2.5-0.4c-0.1-0.1-0.1-0.1-0.1-0.3C1860.5,749.5,1859.5,748.7,1858.4,748.3z"/>
				<path class="st2" d="M1772,1013.4c-1,1-2.4,1.7-3.6,2.1c-4.5,1.1-9.1-1.7-10.2-6.3c-1-3.8,0.8-7.7,4.3-9.5
					c0.3-0.1,0.4-0.4,0.4-0.7c0.1-4.6,3.9-8.4,8.7-8.2c3.4,0,6.3,2.1,7.5,5.2c0.7,1.7,0.8,3.6,0.4,5.4l-0.1,0.4v0.1l0.4,0.3
					c4.5,2.9,9.1,5.7,13.6,8.7c0.3,0.1,0.6,0.1,0.8,0l0,0c3.5-3.1,8.8-2.7,11.9,1c3.1,3.5,2.7,8.8-1,11.9c-0.6,0.4-1.1,0.8-1.8,1.1
					c-0.3,0.1-0.4,0.3-0.4,0.6c0,4.6-3.9,8.4-8.5,8.4c-3.4,0-6.3-2.1-7.7-5.2c-0.8-1.8-0.8-3.8-0.3-5.6c0.1-0.3,0.1-0.4-0.1-0.6
					c-4.6-2.9-9.2-5.9-14-8.9C1772.2,1013.6,1772.2,1013.4,1772,1013.4z M1776.4,998.5c-0.6-2.8-3.2-4.6-6-4.2
					c-2.7,0.6-4.5,3.2-4.1,5.9c0.3,0.8-0.1,1.8-1.1,2.1c-0.1,0-0.3,0-0.3,0.1c-2.7,0.7-4.3,3.5-3.6,6.1c0.4,1.7,1.7,2.9,3.2,3.5
					c2.1,0.7,4.3,0,5.7-1.8c0.4-0.8,1.5-1.1,2.4-0.6c0.1,0,0.1,0.1,0.3,0.1l16.5,10.5c0.8,0.4,1.3,1.4,0.8,2.2
					c0,0.1-0.1,0.1-0.1,0.3c-1.1,2-0.7,4.3,0.8,5.9c2,2,5.2,2.1,7.1,0.1c1.3-1.1,1.8-2.9,1.5-4.6c-0.3-0.8,0.3-1.8,1.1-2.2
					c0.1,0,0.1,0,0.3,0c2.7-0.7,4.3-3.5,3.6-6.1c-0.4-1.7-1.7-2.9-3.2-3.5c-2.1-0.8-4.5-0.1-5.7,1.7c-0.4,0.8-1.5,1.1-2.4,0.6
					c-0.1,0-0.1-0.1-0.3-0.1l-16.5-10.5c-0.8-0.4-1.3-1.4-0.8-2.2c0-0.1,0.1-0.1,0.1-0.3C1776.4,1000.7,1776.6,999.6,1776.4,998.5z"
					/>
				<path class="st2" d="M1514.4,734.4c-1.3-1.1-2.1-2.5-2.7-4.1c-1.7-5.2,1.1-10.6,6.1-12.4c4.5-1.5,9.2,0.4,11.6,4.3
					c0.1,0.3,0.4,0.6,0.8,0.4c5.4-0.3,9.9,3.9,10.2,9.4c0.1,3.8-2,7.4-5.3,9.1c-2,1-4.2,1.4-6.3,0.8l-0.4-0.1h-0.1
					c-0.1,0.1-0.1,0.3-0.3,0.4c-2.9,5.4-6,10.9-8.9,16.3c-0.3,0.3-0.1,0.7,0.1,0.8l0,0c3.8,3.9,3.8,10.1-0.1,13.8
					c-3.9,3.8-10.1,3.8-13.8-0.1c-0.6-0.6-1.1-1.3-1.5-2c-0.1-0.3-0.4-0.4-0.8-0.4c-5.4,0.3-10.1-3.9-10.3-9.2
					c-0.1-3.9,2-7.5,5.3-9.2c2-1,4.3-1.4,6.4-0.8c0.3,0.1,0.6,0,0.7-0.3C1508.1,745.6,1511.2,739.9,1514.4,734.4
					C1518.9,726.2,1514.4,734.6,1514.4,734.4z M1532.1,738.2c3.2-0.8,5.2-4.1,4.3-7.3c-0.8-3.1-4.1-5-7.1-4.2
					c-1,0.4-2.2-0.1-2.5-1.1c0-0.1-0.1-0.3-0.1-0.4c-0.8-2.5-3.2-4.1-5.7-4.1c-2.5,0.1-4.8,1.8-5.4,4.3c-0.7,2.5,0.3,5,2.5,6.4
					c1,0.4,1.4,1.7,1,2.7c0,0.1-0.1,0.1-0.1,0.3l-10.9,20c-0.4,1-1.5,1.5-2.5,1.1c-0.1,0-0.1-0.1-0.3-0.1c-2.4-1.1-5-0.6-6.7,1.4
					c-2.2,2.4-2,6.1,0.4,8.2c1.4,1.3,3.5,1.8,5.4,1.3c1-0.4,2.2,0.1,2.5,1.1c0,0.1,0.1,0.3,0.1,0.4c0.8,2.5,3.2,4.1,5.7,4.1
					c2.5-0.1,4.8-1.8,5.4-4.3c0.7-2.5-0.3-5.2-2.5-6.6c-1-0.4-1.4-1.7-1-2.7c0-0.1,0.1-0.3,0.1-0.3l10.6-19.7c0.4-1,1.5-1.5,2.5-1.1
					c0.1,0,0.3,0.1,0.3,0.1C1529.5,738.5,1530.9,738.6,1532.1,738.2L1532.1,738.2z"/>
			</g>
		</g>
	</g>
</g>
</svg>
