<?xml version="1.0" encoding="utf-8"?>
<!-- Generator: Adobe Illustrator 26.0.3, SVG Export Plug-In . SVG Version: 6.00 Build 0)  -->
<svg version="1.1" id="Layer_1" xmlns="http://www.w3.org/2000/svg" xmlns:xlink="http://www.w3.org/1999/xlink" x="0px" y="0px"
	 viewBox="0 0 265.9 250.1" style="enable-background:new 0 0 265.9 250.1;" xml:space="preserve">
<style type="text/css">
	.st0{opacity:0.3;}
	.st1{fill:#CC156D;}
	.st2{fill:#0DD6AF;}
	.st3{opacity:0.5;enable-background:new    ;}
	.st4{opacity:0.2;enable-background:new    ;}
	.st5{fill:none;stroke:#CC156D;stroke-width:2;stroke-miterlimit:10;}
	.st6{fill:none;stroke:#CC156D;stroke-miterlimit:10;}
	.st7{fill:none;stroke:#000000;stroke-miterlimit:10;}
	.st8{opacity:0.5;fill:none;stroke:#000000;stroke-miterlimit:10;enable-background:new    ;}
	.st9{fill:url(#SVGID_1_);}
	.st10{fill:url(#SVGID_00000039106393679572509190000010385333180607130547_);}
	.st11{fill:url(#SVGID_00000051343807757886020890000010090283188628677785_);}
	.st12{fill:url(#SVGID_00000164506385965500031910000008309458999815875972_);}
	.st13{fill:url(#SVGID_00000005228275631582416770000012873391290490624954_);}
	.st14{fill:url(#SVGID_00000088814585477501833790000011996846346602430620_);}
</style>
<g id="Industry_best_practices">
	<g class="st0">
		<path class="st1" d="M24.7,32.3c4.5-2.3,7.7-6.6,8.5-11.6c0.8,5,4,9.3,8.5,11.6c0.9,0.4,3,1,3,1c-1,0.3-2,0.6-3,1
			C37.1,36.6,34,41,33.2,46c-0.8-5-4-9.3-8.5-11.6c-1-0.4-2-0.7-3-1C21.7,33.4,23.8,32.8,24.7,32.3z"/>
		<path class="st1" d="M218.1,67.7c4.5-2.3,7.7-6.6,8.5-11.6c0.8,5,4,9.3,8.5,11.6c0.9,0.4,3,1,3,1c-1,0.3-2,0.6-3,1
			c-4.5,2.3-7.7,6.6-8.5,11.6c-0.8-5-4-9.3-8.5-11.6c-1-0.4-2-0.7-3-1C216.2,68.4,217.2,68.1,218.1,67.7z"/>
		<circle class="st2" cx="245.4" cy="42" r="6"/>
		<circle class="st2" cx="150.5" cy="224.6" r="6"/>
		<circle class="st3" cx="44.7" cy="158.6" r="4"/>
		<circle class="st3" cx="236.8" cy="216.6" r="2.5"/>
		<circle class="st4" cx="88.7" cy="33.1" r="8.9"/>
		<path class="st2" d="M45.4,204.8c7.1-3.5,12-10.2,13.3-18c1.3,7.8,6.2,14.5,13.3,18c1.5,0.6,3.1,1.2,4.7,1.6
			c-1.6,0.5-3.1,1-4.7,1.6c-7.1,3.5-12,10.2-13.3,18c-1.3-7.8-6.2-14.5-13.3-18c-1.5-0.6-3.1-1.2-4.7-1.6
			C42.3,206,43.9,205.4,45.4,204.8z"/>
		<path class="st5" d="M181.1,27.4c-2.2-0.7-4.6,0.5-5.4,2.7c-0.7,2.2,0.5,4.5,2.7,5.2c0.8,0.1,1.3,0.9,1.1,1.7c0,0.1,0,0.2-0.1,0.3
			c-0.5,2.2,0.8,4.5,3.1,5.1c1.4,0.3,2.8,0,3.8-1c1.4-1.2,1.8-3.2,1-4.8c-0.4-0.7-0.2-1.5,0.4-1.9c0.1,0,0.1-0.1,0.2-0.1l14.1-7.9
			c0.6-0.5,1.5-0.3,2,0.3c0,0.1,0.1,0.1,0.1,0.2c1,1.5,2.9,2.2,4.6,1.7c2.2-0.6,3.5-2.9,2.9-5.2c-0.4-1.3-1.4-2.4-2.7-2.8
			c-0.8-0.1-1.3-0.9-1.1-1.7c0-0.1,0-0.2,0.1-0.3c0.6-2.2-0.8-4.5-3-5.1c-1.3-0.3-2.8,0-3.8,1c-1.4,1.2-1.8,3.2-1,4.8
			c0.4,0.7,0.2,1.5-0.5,1.9c-0.1,0-0.1,0.1-0.2,0.1l-14.1,7.9c-0.6,0.5-1.5,0.3-2-0.3c-0.1-0.1-0.1-0.1-0.1-0.2
			C182.8,28.3,182,27.7,181.1,27.4z"/>
		<path class="st6" d="M106.9,216.2c0.3-1.5-0.7-3-2.3-3.3c-1.5-0.2-2.9,0.8-3.2,2.3c0,0.5-0.5,0.9-1,0.9c-0.1,0-0.1,0-0.2,0
			c-1.5-0.2-2.9,1-3.1,2.5c-0.1,0.9,0.3,1.8,1,2.4c0.9,0.8,2.3,0.9,3.3,0.2c0.4-0.3,1-0.3,1.3,0.1c0,0,0.1,0.1,0.1,0.1l6.5,8.6
			c0.4,0.4,0.3,1,0,1.3c0,0-0.1,0.1-0.1,0.1c-0.9,0.8-1.2,2.1-0.7,3.2c0.6,1.4,2.3,2.1,3.7,1.4c0.9-0.4,1.5-1.1,1.6-2.1
			c0-0.5,0.5-0.9,1-0.9c0.1,0,0.1,0,0.2,0c1.5,0.2,2.9-1,3.1-2.5c0.1-0.9-0.3-1.8-1-2.4c-0.9-0.8-2.3-0.9-3.3-0.2
			c-0.4,0.3-1,0.3-1.3-0.1c0,0-0.1-0.1-0.1-0.1l-6.5-8.6c-0.4-0.4-0.4-0.9,0-1.3c0,0,0.1-0.1,0.1-0.1
			C106.5,217.4,106.8,216.8,106.9,216.2z"/>
		<path class="st2" d="M169.1,213.1c5.2,0.1,10.1-2.3,13.2-6.5c-1.6,4.9-0.8,10.3,2.3,14.5c0.7,0.8,1.4,1.6,2.2,2.3
			c-1.1-0.2-2.1-0.4-3.2-0.4c-5.2-0.1-10.1,2.3-13.2,6.5c1.6-4.9,0.8-10.3-2.3-14.5c-0.7-0.8-1.4-1.6-2.2-2.3
			C167,212.9,168.1,213,169.1,213.1z"/>
		<path class="st7" d="M32.5,86.1c3.7,0.1,7.2-1.7,9.3-4.6c-1.1,3.5-0.5,7.3,1.6,10.3c0.5,0.6,1,1.1,1.6,1.7
			c-0.8-0.2-1.5-0.3-2.3-0.3c-3.7-0.1-7.2,1.7-9.3,4.6c1.1-3.5,0.5-7.3-1.6-10.3c-0.5-0.6-1-1.1-1.6-1.7C31,85.9,31.7,86,32.5,86.1z
			"/>
		<path class="st8" d="M239.1,98.1c3.7,0.1,7.2-1.7,9.3-4.6c-1.1,3.5-0.5,7.3,1.6,10.3c0.5,0.6,1,1.1,1.6,1.7
			c-0.8-0.1-1.5-0.3-2.3-0.3c-3.7-0.1-7.2,1.7-9.3,4.6c1.1-3.5,0.5-7.3-1.6-10.3c-0.5-0.6-1-1.1-1.6-1.7
			C237.6,97.9,238.3,98.1,239.1,98.1z"/>
		<path class="st2" d="M235,153.3c-0.9-0.8-1.6-1.8-2-3c-1.3-3.8,0.8-7.9,4.6-9.1c3.2-1.1,6.8,0.3,8.5,3.2c0.1,0.2,0.3,0.4,0.6,0.3
			c4-0.2,7.4,2.9,7.6,6.9c0.1,2.9-1.4,5.5-4,6.8c-1.4,0.8-3.1,1-4.7,0.7l-0.4-0.1c0,0-0.1,0-0.1,0l-0.2,0.3c-2.2,4-4.4,8-6.6,12.1
			c-0.2,0.2-0.1,0.5,0.1,0.7c0,0,0,0,0,0c2.8,2.9,2.7,7.4-0.2,10.2c-2.9,2.8-7.4,2.7-10.2-0.2c-0.4-0.4-0.8-0.9-1.1-1.4
			c-0.1-0.2-0.3-0.4-0.6-0.3c-4,0.2-7.4-2.8-7.6-6.8c-0.2-2.9,1.4-5.6,4-6.9c1.5-0.8,3.2-1,4.8-0.6c0.2,0,0.4,0,0.5-0.2l6.9-12.4
			C235,153.4,235,153.4,235,153.3z M248.1,156.2c2.4-0.6,3.8-3,3.2-5.3c-0.6-2.3-3-3.7-5.3-3.1c-0.8,0.3-1.6-0.1-1.9-0.8
			c0-0.1-0.1-0.2-0.1-0.3c-0.6-1.8-2.3-3-4.3-3c-1.9,0.1-3.5,1.4-4.1,3.2c-0.5,1.8,0.2,3.8,1.8,4.8c0.7,0.3,1,1.2,0.7,1.9
			c0,0.1-0.1,0.2-0.1,0.2l-8.1,14.8c-0.3,0.8-1.2,1.1-1.9,0.8c-0.1,0-0.1-0.1-0.2-0.1c-1.7-0.8-3.7-0.4-5,1
			c-1.6,1.8-1.4,4.5,0.3,6.1c1.1,1,2.6,1.3,4,1c0.8-0.3,1.6,0.1,1.9,0.8c0,0.1,0.1,0.2,0.1,0.3c0.8,2.3,3.2,3.5,5.5,2.7
			c1.4-0.5,2.4-1.5,2.8-2.9c0.5-1.8-0.2-3.8-1.8-4.8c-0.7-0.3-1-1.2-0.7-1.9c0-0.1,0.1-0.2,0.1-0.2c2.7-4.9,5.3-9.8,8.1-14.7
			c0.3-0.7,1.1-1.1,1.9-0.8c0.1,0,0.2,0.1,0.3,0.1C246.1,156.3,247.1,156.4,248.1,156.2z"/>
		<path class="st4" d="M29.8,128.5c0-0.8,0.2-1.6,0.6-2.3c1.2-2.3,4.1-3.2,6.4-2c2,1.1,3,3.4,2.3,5.6c-0.1,0.2,0,0.3,0.1,0.4
			c1.9,1.8,2,4.8,0.2,6.7c-1.3,1.4-3.3,1.8-5.1,1.2c-1-0.4-1.9-1.1-2.4-2l-0.1-0.2c0,0,0,0-0.1-0.1l-0.2,0.1l-8.8,2.3
			c-0.2,0-0.3,0.1-0.3,0.4c-0.1,2.6-2.3,4.7-4.9,4.6c-2.6-0.1-4.7-2.3-4.6-4.9c0-0.4,0.1-0.8,0.2-1.2c0.1-0.1,0-0.3-0.1-0.4
			c-1.9-1.8-2-4.8-0.2-6.7c1.3-1.4,3.3-1.8,5.1-1.2c1,0.4,1.9,1.1,2.5,2c0.1,0.1,0.1,0.2,0.3,0.1l9-2.4L29.8,128.5z M34.3,136
			c1.4,0.8,3.1,0.5,4-0.9c0.8-1.3,0.4-3.1-0.9-3.9c-0.5-0.3-0.7-0.9-0.4-1.3c0,0,0-0.1,0.1-0.1c0.6-1.1,0.4-2.5-0.5-3.4
			c-0.9-0.9-2.2-1.1-3.3-0.5c-1.1,0.6-1.7,1.8-1.5,3c0.1,0.5-0.2,1.1-0.7,1.2c0,0-0.1,0-0.1,0L20.3,133c-0.5,0.2-1.1-0.1-1.3-0.6
			c0,0,0-0.1,0-0.1c-0.4-1.2-1.5-2-2.8-1.9c-1.6,0-2.8,1.4-2.8,2.9c0,0.9,0.5,1.8,1.3,2.3c0.5,0.3,0.7,0.9,0.4,1.3
			c0,0,0,0.1-0.1,0.1c-0.8,1.4-0.3,3.1,1.1,3.9c0.8,0.5,1.9,0.5,2.7,0c1.1-0.6,1.7-1.8,1.5-3c-0.1-0.5,0.2-1.1,0.7-1.2
			c0,0,0.1,0,0.1,0l10.7-2.8c0.5-0.2,1.1,0.1,1.3,0.6c0,0,0,0,0,0.1C33.5,135.2,33.8,135.7,34.3,136z"/>
	</g>
	
		<linearGradient id="SVGID_1_" gradientUnits="userSpaceOnUse" x1="132.9565" y1="24.97" x2="132.9565" y2="225" gradientTransform="matrix(1 0 0 -1 0 250)">
		<stop  offset="0" style="stop-color:#690ABC"/>
		<stop  offset="0.43" style="stop-color:#084DBC"/>
		<stop  offset="1" style="stop-color:#00C1FC"/>
	</linearGradient>
	<path class="st9" d="M134.1,25c24.7,14.7,51.3,26.1,78.9,34c4.4,1.2,5,2,5,6.6c0,15.1,0.2,30.2-0.1,45.3
		c-0.8,31.4-11.8,58.7-33.2,81.8c-10.4,11.4-22.9,20.8-36.7,27.5c-4.3,2.1-9,3.3-13.4,4.9h-3.1c-29.7-7.4-63.4-38.9-75.6-73.2
		c-4-11.1-7-22.4-7.3-34.2C47.9,99.8,48,81.9,47.8,64c0-2.6,1-3.8,3.8-4.6c13.1-3.7,26-8.1,38.6-13.4c13.3-5.6,26.3-12.1,38.8-19.4
		l2.7-1.6H134.1z M209.9,92.2h-0.3c0-7.9,0-15.8,0-23.6c0.2-1.1-0.5-2-1.6-2.2c0,0,0,0-0.1,0c-3.1-0.8-6.2-1.8-9.3-2.8
		c-22.3-7.2-43.8-16.8-64.1-28.5c-0.9-0.7-2.2-0.7-3.2-0.1C108.3,48.3,83.6,58.8,58,66.2c-1.2,0.1-2,1.2-1.9,2.4c0,0,0,0.1,0,0.1
		c0.1,12.4,0,24.7,0,37.1c-0.1,14.5,2.4,28.8,7.3,42.4c5.9,16,15.3,30.6,27.6,42.5c10.3,10.1,21.9,18.4,35.2,24
		c4.1,1.8,8.2,2.3,12.4,0.4c1.8-0.9,3.7-1.6,5.5-2.4c21.6-10.7,39.4-27.7,51.1-48.8c7.8-13.9,12.5-29.3,13.7-45.2
		C209.6,109.9,209.6,101,209.9,92.2L209.9,92.2z"/>
	
		<linearGradient id="SVGID_00000117672699477407707020000014329026587910011276_" gradientUnits="userSpaceOnUse" x1="132.8695" y1="85.3377" x2="132.8695" y2="164.5433" gradientTransform="matrix(1 0 0 -1 0 250)">
		<stop  offset="0" style="stop-color:#690ABC"/>
		<stop  offset="0.43" style="stop-color:#084DBC"/>
		<stop  offset="1" style="stop-color:#00C1FC"/>
	</linearGradient>
	<path style="fill:url(#SVGID_00000117672699477407707020000014329026587910011276_);" d="M119.3,132.3c0.5-0.8,1.1-1.6,1.8-2.3
		c13.3-13.3,26.5-26.6,39.8-39.9c5.1-5.1,11.6-6,17.4-2.6c6.4,3.9,8.4,12.4,4.5,18.8c-0.2,0.4-0.5,0.8-0.8,1.1
		c-0.6,0.7-1.1,1.4-1.8,2.1L129.8,160c-4.2,4.2-9.2,5.8-14.9,3.8c-1.9-0.7-3.7-1.8-5.2-3.3c-8.2-8.1-16.4-16.2-24.4-24.4
		c-6.9-7.1-5.2-17.9,3.5-22.1c5-2.4,10.1-2.1,14.2,1.6c5.1,4.5,9.7,9.4,14.5,14.2C118.1,130.5,118.7,131.4,119.3,132.3z
		 M118.4,156.2c2.1,0.1,4.1-0.7,5.5-2.3c16.7-16.8,33.5-33.6,50.3-50.4c0.4-0.4,0.8-0.8,1.2-1.3c1.7-2.3,1.3-5.5-1-7.3
		c-0.5-0.4-1.1-0.7-1.8-0.9c-2.6-0.8-4.3,0.4-6,2.2c-14.4,14.4-28.7,28.8-43.1,43.2c-3.1,3.1-5,3.1-8.1,0
		c-5.6-5.6-11.2-11.2-16.8-16.8c-2.4-2.3-5.5-2.4-7.7-0.2s-2.1,5.3,0.2,7.7c8,8.1,16.1,16.2,24.3,24.3
		C116.4,155.1,117.3,155.7,118.4,156.2z"/>
	
		<linearGradient id="SVGID_00000079446461762667128630000009120449975579683480_" gradientUnits="userSpaceOnUse" x1="80.1566" y1="153.5" x2="80.1566" y2="186.2125" gradientTransform="matrix(1 0 0 -1 0 250)">
		<stop  offset="0" style="stop-color:#690ABC"/>
		<stop  offset="0.43" style="stop-color:#084DBC"/>
		<stop  offset="1" style="stop-color:#00C1FC"/>
	</linearGradient>
	<path style="fill:url(#SVGID_00000079446461762667128630000009120449975579683480_);" d="M64.4,84c0-2.4,0-4.8,0-7.2
		c0.1-2.7,1-4,3.4-4.9c7.3-2.6,14.7-5.2,22-7.8c2.4-0.8,4.2-0.3,5.4,1.3c1.1,1.5,1.1,3.6-0.2,5c-0.8,0.8-1.7,1.3-2.8,1.7
		c-5.8,2.1-11.6,4.2-17.4,6.2c-1.4,0.5-2.1,1-2,2.7c0.2,3.3,0.1,6.6,0,9.9c0,0.8-0.1,1.7-0.3,2.5c-0.5,1.7-2.1,2.9-3.9,2.9
		c-1.8,0-3.7-1.3-3.9-3.2c-0.2-3.1-0.1-6.2-0.1-9.3L64.4,84z"/>
	
		<linearGradient id="SVGID_00000173133265774006780910000017203985148109851302_" gradientUnits="userSpaceOnUse" x1="168.0728" y1="54.6971" x2="168.0728" y2="89.9025" gradientTransform="matrix(1 0 0 -1 0 250)">
		<stop  offset="0" style="stop-color:#690ABC"/>
		<stop  offset="0.43" style="stop-color:#084DBC"/>
		<stop  offset="1" style="stop-color:#00C1FC"/>
	</linearGradient>
	<path style="fill:url(#SVGID_00000173133265774006780910000017203985148109851302_);" d="M184.7,164.8c-0.3,0.8-0.6,1.6-1,2.3
		c-6.9,10.3-15.4,19.5-25.3,27.1c-2.1,1.6-4.4,1.5-6-0.3c-1.5-1.8-1.3-4.4,0.4-6c0,0,0.1-0.1,0.2-0.1c2.3-2.1,4.7-3.9,7-5.9
		c6.3-5.6,11.8-12.1,16.5-19.1c1.1-1.6,2.3-2.8,4.4-2.7S184.8,162,184.7,164.8z"/>
	
		<linearGradient id="SVGID_00000103976055087233486020000013021983923792323751_" gradientUnits="userSpaceOnUse" x1="145.255" y1="47.66" x2="145.255" y2="56.18" gradientTransform="matrix(1 0 0 -1 0 250)">
		<stop  offset="0" style="stop-color:#690ABC"/>
		<stop  offset="0.43" style="stop-color:#084DBC"/>
		<stop  offset="1" style="stop-color:#00C1FC"/>
	</linearGradient>
	<path style="fill:url(#SVGID_00000103976055087233486020000013021983923792323751_);" d="M141,198.2c0-2.4,1.9-4.3,4.3-4.4
		c2.2,0,4.1,1.8,4.2,4c-0.1,2.4-2,4.4-4.5,4.5C142.8,202.3,141,200.4,141,198.2z"/>
	
		<linearGradient id="SVGID_00000137105297619968165270000000230411283276589235_" gradientUnits="userSpaceOnUse" x1="103.685" y1="182.86" x2="103.685" y2="191.26" gradientTransform="matrix(1 0 0 -1 0 250)">
		<stop  offset="0" style="stop-color:#690ABC"/>
		<stop  offset="0.43" style="stop-color:#084DBC"/>
		<stop  offset="1" style="stop-color:#00C1FC"/>
	</linearGradient>
	<path style="fill:url(#SVGID_00000137105297619968165270000000230411283276589235_);" d="M103.8,58.7c2.3,0.1,4.1,2,4.1,4.3
		c-0.2,2.3-2.1,4.1-4.4,4.1c-2.2-0.2-4-2-4-4.2C99.6,60.6,101.5,58.8,103.8,58.7z"/>
</g>
</svg>
