<?xml version="1.0" encoding="utf-8"?>
<!-- Generator: Adobe Illustrator 26.0.3, SVG Export Plug-In . SVG Version: 6.00 Build 0)  -->
<svg version="1.1" id="Layer_1" xmlns="http://www.w3.org/2000/svg" xmlns:xlink="http://www.w3.org/1999/xlink" x="0px" y="0px"
	 viewBox="0 0 265.9 250.1" style="enable-background:new 0 0 265.9 250.1;" xml:space="preserve">
<style type="text/css">
	.st0{fill:#690ABC;}
	.st1{fill:#0DD6AF;}
	.st2{opacity:0.5;enable-background:new    ;}
	.st3{opacity:0.2;enable-background:new    ;}
	.st4{fill:none;stroke:#690ABC;stroke-width:2;stroke-miterlimit:10;}
	.st5{fill:none;stroke:#690ABC;stroke-miterlimit:10;}
	.st6{fill:none;stroke:#000000;stroke-miterlimit:10;}
	.st7{opacity:0.5;fill:none;stroke:#000000;stroke-miterlimit:10;enable-background:new    ;}
	.st8{fill:url(#SVGID_1_);}
	.st9{fill:#FFFFFF;}
	.st10{fill:url(#SVGID_00000092414968952061024850000003683113919179452088_);}
	.st11{fill:url(#SVGID_00000149365416334161452790000007602982352356795779_);}
	.st12{fill:url(#SVGID_00000076579369192403590250000003562017867594112183_);}
	.st13{fill:url(#SVGID_00000024707629324176295740000000836608246272422829_);}
	.st14{fill:url(#SVGID_00000056427078934438252000000012617937446814892956_);}
	.st15{fill:url(#SVGID_00000001656991387061360210000011108802182981428924_);}
	.st16{fill:url(#SVGID_00000016035693880241097550000017863998576177082525_);}
	.st17{fill:url(#SVGID_00000171719399992979133680000001421968324755253946_);}
	.st18{fill:url(#SVGID_00000134236923062253951270000015066752553506836886_);}
</style>
<g>
	<path class="st0" d="M14.7,25.5c4.5-2.3,7.7-6.6,8.5-11.6c0.8,5,4,9.3,8.5,11.6c0.9,0.4,3,1,3,1c-1,0.3-2,0.6-3,1
		C27.2,29.7,24,34,23.2,39c-0.8-5-4-9.3-8.5-11.6c-1-0.4-2-0.7-3-1C12.7,26.2,13.7,25.9,14.7,25.5z"/>
	<circle class="st1" cx="245.4" cy="35.1" r="6"/>
	<circle class="st2" cx="31.7" cy="161.7" r="4"/>
	<circle class="st2" cx="216.8" cy="201.7" r="2.5"/>
	<circle class="st3" cx="68.7" cy="24.2" r="8.9"/>
	<path class="st1" d="M24.4,217.9c7.1-3.5,12-10.2,13.3-18c1.3,7.8,6.2,14.5,13.3,18c1.5,0.6,3.1,1.2,4.7,1.6
		c-1.6,0.5-3.1,1-4.7,1.6c-7.1,3.5-12,10.2-13.3,18c-1.3-7.8-6.2-14.5-13.3-18c-1.5-0.6-3.1-1.2-4.7-1.6
		C21.3,219.1,22.9,218.6,24.4,217.9z"/>
	<path class="st4" d="M152.4,14.8c-1.8-1.5-4.5-1.3-6,0.5s-1.2,4.4,0.5,5.9c0.7,0.4,0.9,1.3,0.4,1.9c-0.1,0.1-0.1,0.2-0.2,0.2
		c-1.1,1.5-1.1,3.5,0.1,5c1.1,1.5,3.1,2,4.8,1.4s2.8-2.3,2.7-4.1c-0.1-0.8,0.4-1.5,1.2-1.6c0.1,0,0.2,0,0.2,0l16-1.9
		c0.7-0.2,1.5,0.3,1.7,1c0,0.1,0,0.2,0,0.2c0.3,1.8,1.8,3.1,3.6,3.3c1.8,0.2,3.6-0.8,4.3-2.5s0.3-3.7-1.1-4.9
		c-0.7-0.4-0.8-1.3-0.4-2c0-0.1,0.1-0.1,0.2-0.2c1.4-1.9,0.9-4.5-0.9-5.8c-1.1-0.8-2.6-1-3.9-0.6c-1.7,0.6-2.9,2.3-2.8,4.1
		c0.1,0.8-0.4,1.5-1.1,1.6c-0.1,0-0.2,0-0.3,0l-16,1.9c-0.8,0.2-1.5-0.3-1.7-1c0-0.1,0-0.2,0-0.2C153.5,16.2,153.1,15.4,152.4,14.8z
		"/>
	<path class="st5" d="M106.9,29.4c0.3-1.5-0.7-3-2.3-3.3c-1.5-0.2-2.9,0.8-3.2,2.3c-0.1,0.5-0.6,0.9-1.1,0.9c0,0,0,0-0.1,0
		c-1.5-0.2-2.9,1-3.1,2.5c-0.1,0.9,0.3,1.8,1,2.4c0.9,0.8,2.3,0.9,3.3,0.2c0.4-0.3,1-0.3,1.3,0.1l0.1,0.1l6.5,8.6
		c0.4,0.4,0.4,1,0,1.3l-0.1,0.1c-0.9,0.8-1.2,2.1-0.7,3.2c0.6,1.4,2.3,2.1,3.7,1.4c0.9-0.4,1.5-1.1,1.6-2.1c0-0.5,0.5-0.9,1-0.9
		c0.1,0,0.1,0,0.2,0c1.5,0.2,2.9-1,3.1-2.5c0.1-0.9-0.3-1.8-1-2.4c-0.9-0.8-2.3-0.9-3.3-0.2c-0.4,0.3-1,0.3-1.3-0.1l-0.1-0.1
		l-6.5-8.6c-0.4-0.4-0.3-1,0-1.3l0.1-0.1C106.5,30.5,106.8,30,106.9,29.4z"/>
	<path class="st6" d="M91.4,213.9c-0.6-1.4-2.2-2.1-3.7-1.5c-1.4,0.6-2.1,2.2-1.5,3.6c0.3,0.4,0.1,1-0.3,1.3c-0.1,0-0.1,0.1-0.2,0.1
		c-1.1,0.6-1.7,1.8-1.5,3s1.2,2.1,2.4,2.2c1.2,0.2,2.4-0.5,2.8-1.6c0.2-0.5,0.8-0.8,1.3-0.6l0,0l10.1,3.7c0.5,0.1,0.8,0.6,0.7,1.1
		c0,0.1,0,0.1,0,0.2c-0.3,1.2,0.1,2.4,1.2,3.1c1.3,0.8,3,0.5,3.9-0.8c0.5-0.8,0.6-1.8,0.2-2.6c-0.3-0.4-0.1-1,0.3-1.3
		c0.1,0,0.1-0.1,0.2-0.1c1.4-0.7,1.9-2.4,1.2-3.7c-0.4-0.8-1.2-1.4-2.1-1.5c-1.2-0.2-2.4,0.5-2.9,1.6c-0.2,0.5-0.8,0.8-1.3,0.6l0,0
		L92.1,217c-0.5-0.1-0.8-0.6-0.7-1.1c0-0.1,0-0.1,0-0.2C91.7,215.1,91.6,214.5,91.4,213.9z"/>
	<path class="st1" d="M152.1,216.2c5.2,0.1,10.1-2.3,13.2-6.5c-1.6,4.9-0.8,10.3,2.3,14.5c0.7,0.8,1.4,1.6,2.2,2.3
		c-1.1-0.2-2.1-0.4-3.2-0.4c-5.2-0.1-10.1,2.3-13.2,6.5c1.6-4.9,0.8-10.3-2.3-14.5c-0.7-0.8-1.4-1.6-2.2-2.3
		C150,216,151.1,216.1,152.1,216.2z"/>
	<path class="st6" d="M29.5,69.2c3.7,0.1,7.2-1.7,9.3-4.6c-1.1,3.5-0.5,7.3,1.6,10.3c0.5,0.6,1,1.1,1.6,1.7
		c-0.8-0.2-1.5-0.3-2.3-0.3c-3.7-0.1-7.2,1.7-9.3,4.6c1.1-3.5,0.5-7.3-1.6-10.3c-0.5-0.6-1-1.1-1.6-1.7C28,69,28.7,69.1,29.5,69.2z"
		/>
	<path class="st7" d="M219.1,96.2c3.7,0.1,7.2-1.7,9.3-4.6c-1.1,3.5-0.5,7.3,1.6,10.3c0.5,0.6,1,1.1,1.6,1.7
		c-0.8-0.1-1.5-0.3-2.3-0.3c-3.7-0.1-7.2,1.7-9.3,4.6c1.1-3.5,0.5-7.3-1.6-10.3c-0.5-0.6-1-1.1-1.6-1.7
		C217.6,96.1,218.3,96.2,219.1,96.2z"/>
	<path class="st1" d="M214,146.1c-0.9,0.4-1.9,0.6-2.9,0.5c-3.3-0.4-5.7-3.3-5.3-6.6c0.3-2.6,2.3-4.8,4.9-5.2c0.2,0,0.4-0.1,0.4-0.3
		c1.2-3.1,4.7-4.6,7.7-3.5c2.1,0.8,3.6,2.7,3.8,5c0.1,1.3-0.2,2.7-1,3.8l-0.2,0.2v0.1l0.2,0.3c2.4,2.9,4.8,5.9,7.1,8.8
		c0.1,0.2,0.3,0.3,0.5,0.2l0,0c3-1.4,6.6,0,7.9,3c1.4,3,0,6.6-3,7.9c-0.6,0.3-1.2,0.4-1.9,0.5c-0.2,0-0.4,0.1-0.4,0.3
		c-1.2,3.1-4.6,4.7-7.7,3.5c-2.1-0.8-3.6-2.7-3.8-5c-0.1-1.4,0.2-2.7,1-3.8c0.1-0.2,0.1-0.3,0-0.4
		C218.9,152.2,216.5,149.2,214,146.1L214,146.1z M220.3,137c0.3-2-1.1-3.8-3.1-4.1c-1.9-0.2-3.7,1.1-4,3.1c0,0.7-0.6,1.2-1.2,1.2
		c-0.1,0-0.2,0-0.2,0c-2-0.1-3.7,1.4-3.8,3.3c-0.1,1.2,0.4,2.3,1.4,3.1c1.2,1,2.9,1,4.2,0.1c0.5-0.4,1.3-0.4,1.7,0.1
		c0,0.1,0.1,0.1,0.1,0.2c2.9,3.6,5.8,7.2,8.7,10.8c0.5,0.5,0.5,1.2,0,1.7l-0.1,0.1c-1.1,1.1-1.5,2.7-0.8,4.1c0.9,1.8,3,2.5,4.8,1.7
		c1.1-0.5,1.8-1.5,2-2.7c0-0.7,0.6-1.2,1.2-1.2c0.1,0,0.2,0,0.2,0c1.6,0.1,3-0.8,3.6-2.3s0.1-3.1-1.1-4.1c-1.2-1-3-1-4.2-0.1
		c-0.5,0.4-1.3,0.4-1.7-0.1c0-0.1-0.1-0.1-0.1-0.2l-8.7-10.8c-0.5-0.5-0.5-1.2,0-1.7c0.1-0.1,0.1-0.1,0.2-0.1
		C219.8,138.5,220.2,137.8,220.3,137L220.3,137z"/>
	<path class="st3" d="M47.9,119.1c0-0.8,0.2-1.6,0.6-2.3c1.2-2.3,4.1-3.2,6.4-1.9c2,1.1,3,3.4,2.3,5.5c-0.1,0.2,0,0.3,0.1,0.4
		c1.9,1.8,2,4.8,0.2,6.7c-1.3,1.4-3.3,1.8-5.1,1.2c-1-0.4-1.9-1.1-2.4-2l-0.1-0.2h-0.1l-0.2,0.1l-8.8,2.3c-0.2,0-0.3,0.2-0.3,0.3
		l0,0c-0.1,2.6-2.3,4.7-4.9,4.6c-2.6-0.1-4.7-2.3-4.6-4.9c0-0.4,0.1-0.8,0.2-1.2c0.1-0.1,0-0.3-0.1-0.4c-1.9-1.8-2-4.8-0.2-6.7
		c1.3-1.4,3.3-1.8,5.1-1.2c1,0.4,1.9,1.1,2.5,2c0.1,0.1,0.2,0.2,0.3,0.2L47.9,119.1L47.9,119.1z M52.4,126.6c1.3,0.9,3.1,0.5,4-0.9
		c0.8-1.3,0.4-3.1-0.9-3.9c-0.5-0.3-0.7-0.9-0.4-1.3c0,0,0-0.1,0.1-0.1c0.6-1.1,0.4-2.5-0.5-3.4s-2.2-1.1-3.3-0.5s-1.7,1.8-1.5,3
		c0.1,0.5-0.2,1.1-0.7,1.2h-0.1l-10.7,2.8c-0.5,0.2-1.1-0.1-1.3-0.6v-0.1c-0.4-1.2-1.5-2-2.8-1.9c-1.6,0-2.8,1.4-2.8,2.9
		c0,0.9,0.5,1.8,1.3,2.3c0.5,0.2,0.7,0.9,0.4,1.3c0,0,0,0.1-0.1,0.1c-0.7,1.4-0.2,3.1,1.2,3.9c0.8,0.5,1.8,0.5,2.7,0
		c1.1-0.6,1.7-1.8,1.5-3c-0.1-0.5,0.2-1.1,0.7-1.2h0.1l10.7-2.8c0.5-0.2,1.1,0.1,1.3,0.6c0,0,0,0,0,0.1
		C51.5,125.7,51.9,126.3,52.4,126.6z"/>
</g>
<g>
	
		<linearGradient id="SVGID_1_" gradientUnits="userSpaceOnUse" x1="141.9581" y1="759.7094" x2="141.9581" y2="596.1" gradientTransform="matrix(1 0 0 1 0 -562)">
		<stop  offset="0" style="stop-color:#690ABC"/>
		<stop  offset="0.43" style="stop-color:#084DBC"/>
		<stop  offset="1" style="stop-color:#00C1FC"/>
	</linearGradient>
	<path class="st8" d="M223.9,53.9c-0.4,3-0.6,6-1,9c-2.7,22.7-11.7,44.1-26,61.9c-3,3.8-6.5,7.3-9.7,11c-0.6,0.6-1,1.6-1.2,2.4
		c-2.8,18.6-10.2,35-22.6,49.1c-3.2,3.7-6.9,6.9-10.5,10.4c-2.6-2.6-5-5.1-7.6-7.7c-5.7-5.7-11.2-11.2-16.8-16.9
		c-0.6-0.8-1.7-1-2.6-0.5c-3.3,1.6-6.7,3.1-10,4.8c-0.8,0.5-2,0.4-2.6-0.5l0,0c-1.3-1.5-2.7-2.7-4-4.1l-12.1,12.3l-24.4-24.4
		l12.3-12.3c-1.6-1.6-3.1-3-4.7-4.4c-0.6-0.5-0.8-1.4-0.4-2l0,0c1.6-3.3,3-6.7,4.8-10c0.7-1,0.5-2.4-0.5-3
		c-7.9-7.7-15.5-15.5-23.3-23.3c-0.4-0.4-0.6-0.7-1.1-1.1c6.6-6.9,13.1-13.6,21.5-18.7l2.6,4c-5.7,4.8-11.2,9.5-16.6,14.2L88.4,125
		c7.6-16.2,14.3-32.9,26.6-46.5l-0.4-0.6l-16.5,5.1l-2-4.6c5.7-2.5,11.5-4.3,17.6-5.5c0.8-0.2,1.6-0.4,2.5-0.4
		c3.5-0.1,5.9-1.7,8.4-4.1c16.7-16.1,37.7-27.1,60.4-31.6c5.7-1.2,11.5-1.6,17.3-2.4c0.5-0.1,1.2-0.2,1.7-0.3h13.2l6,0.7l0.7,6
		L223.9,53.9z M149.7,155.6c0.5-0.2,0.9-0.4,1.3-0.5c30.2-15.1,50.8-38.6,61.6-70.6c0.5-0.9,0.2-2-0.5-2.7c-12.1-12-24.1-24-36-36
		c-0.5-0.7-1.6-1-2.5-0.6c-31,10.1-56.6,32.4-70.8,61.7c-0.5,0.7-0.5,1.7,0.3,2.3c15.3,15.2,30.5,30.4,45.6,45.5
		C149,155.1,149.4,155.4,149.7,155.6z M143.9,158.4l-44.4-44.4c-4.3,9.2-8.7,18.7-13.1,28l29.5,29.5L143.9,158.4z M179.6,143
		c-13.8,12.1-30.6,18.8-46.7,26.4l20.5,20.5C167.2,177.3,175.5,161.4,179.6,143z M181.6,43l33.4,33.4c3-12,4.1-24.4,3.3-36.7
		C209.8,38.4,189.8,40.2,181.6,43L181.6,43z M80.7,161l15.9,16l8.2-8.1l-15.9-16L80.7,161z"/>
	<path class="st9" d="M223.9,40.7l-0.7-6l-6-0.7h6.8L223.9,40.7z"/>
	
		<linearGradient id="SVGID_00000121249571796334668390000001736083837653353621_" gradientUnits="userSpaceOnUse" x1="61.0679" y1="778.1281" x2="61.0679" y2="739.9921" gradientTransform="matrix(1 0 0 1 0 -562)">
		<stop  offset="0" style="stop-color:#690ABC"/>
		<stop  offset="0.43" style="stop-color:#084DBC"/>
		<stop  offset="1" style="stop-color:#00C1FC"/>
	</linearGradient>
	<path style="fill:url(#SVGID_00000121249571796334668390000001736083837653353621_);" d="M76.7,178l3.5,3.3
		c-11.7,11.6-23.3,23.2-34.8,34.8l-3.3-3.5L76.7,178z"/>
	
		<linearGradient id="SVGID_00000085212135807237746820000006916462886492665783_" gradientUnits="userSpaceOnUse" x1="61.2051" y1="746.778" x2="61.2051" y2="729.786" gradientTransform="matrix(1 0 0 1 0 -562)">
		<stop  offset="0" style="stop-color:#690ABC"/>
		<stop  offset="0.43" style="stop-color:#084DBC"/>
		<stop  offset="1" style="stop-color:#00C1FC"/>
	</linearGradient>
	<path style="fill:url(#SVGID_00000085212135807237746820000006916462886492665783_);" d="M56,184.8l-3.3-3.2l13.8-13.8l3.2,3.5
		L56,184.8z"/>
	
		<linearGradient id="SVGID_00000093879094632103436120000000423381730272138925_" gradientUnits="userSpaceOnUse" x1="81.5077" y1="767.0623" x2="81.5077" y2="750.1526" gradientTransform="matrix(1 0 0 1 0 -562)">
		<stop  offset="0" style="stop-color:#690ABC"/>
		<stop  offset="0.43" style="stop-color:#084DBC"/>
		<stop  offset="1" style="stop-color:#00C1FC"/>
	</linearGradient>
	<path style="fill:url(#SVGID_00000093879094632103436120000000423381730272138925_);" d="M76.2,205l-3.1-3.2l13.6-13.6l3.2,3.4
		L76.2,205z"/>
	
		<linearGradient id="SVGID_00000011748282703882771070000014965905125817228199_" gradientUnits="userSpaceOnUse" x1="89.8299" y1="649.8743" x2="89.8299" y2="642.6587" gradientTransform="matrix(1 0 0 1 0 -562)">
		<stop  offset="0" style="stop-color:#690ABC"/>
		<stop  offset="0.43" style="stop-color:#084DBC"/>
		<stop  offset="1" style="stop-color:#00C1FC"/>
	</linearGradient>
	<path style="fill:url(#SVGID_00000011748282703882771070000014965905125817228199_);" d="M93.5,85.5l-4.7,2.4
		c-0.9-1.6-1.7-3-2.7-4.7l4.8-2.6L93.5,85.5z"/>
	
		<linearGradient id="SVGID_00000172398435058401398240000011197119457195543692_" gradientUnits="userSpaceOnUse" x1="159.3739" y1="691.0508" x2="159.3739" y2="649.002" gradientTransform="matrix(1 0 0 1 0 -562)">
		<stop  offset="0" style="stop-color:#690ABC"/>
		<stop  offset="0.43" style="stop-color:#084DBC"/>
		<stop  offset="1" style="stop-color:#00C1FC"/>
	</linearGradient>
	<path style="fill:url(#SVGID_00000172398435058401398240000011197119457195543692_);" d="M185,104.2l4.8,1.2
		c-0.9,7-7.9,17.8-19.7,21.9c-12.2,4.3-25.7,0.5-34-9.3c-8-9.4-9.1-22.5-5.1-31l4.7,1.8c-5.5,17,5,30.5,16.9,33.8
		C165,126.2,180.5,120.2,185,104.2z"/>
	
		<linearGradient id="SVGID_00000022556930103872211040000007017065679354703508_" gradientUnits="userSpaceOnUse" x1="162.1294" y1="662.5863" x2="162.1294" y2="628.8134" gradientTransform="matrix(1 0 0 1 0 -562)">
		<stop  offset="0" style="stop-color:#690ABC"/>
		<stop  offset="0.43" style="stop-color:#084DBC"/>
		<stop  offset="1" style="stop-color:#00C1FC"/>
	</linearGradient>
	<path style="fill:url(#SVGID_00000022556930103872211040000007017065679354703508_);" d="M137.4,85l-4.4-2.5
		c5.8-11.4,21.5-19.5,37.3-14c13.3,4.7,23.5,20.6,20.4,32l-4.9-0.5c-0.1-13.4-5.9-23.1-19-26.9C154.5,69.8,144.7,74.5,137.4,85z"/>
	
		<linearGradient id="SVGID_00000109718621420121555120000013579416919472979372_" gradientUnits="userSpaceOnUse" x1="159.5171" y1="674.6215" x2="159.5171" y2="644.8536" gradientTransform="matrix(1 0 0 1 0 -562)">
		<stop  offset="0" style="stop-color:#690ABC"/>
		<stop  offset="0.43" style="stop-color:#084DBC"/>
		<stop  offset="1" style="stop-color:#00C1FC"/>
	</linearGradient>
	<path style="fill:url(#SVGID_00000109718621420121555120000013579416919472979372_);" d="M148.7,112.7l-3.7-3.7l2.1-2.3l-2.7-8
		l5.4-1.2c0.2,1.1,0.5,2.2,0.8,3.2c0.8,1.6,1.8,3,3,4.2c1.4,1.1,3.4,1.1,4.8-0.1c1.3-1.1,1.5-2.4,0.7-4.4c-0.9-2.2-1.7-4.4-2.5-6.7
		c-1.6-5.9,4.4-10,8.6-9.1c2.4,0.5,4,0.4,5.4-1.9l3.7,3.9l-1.9,2l1.5,8.2l-5.6,0.3c-0.1-1.1-0.2-2.1-0.2-3.1c0-1.8-1.1-3.4-2.7-4
		c-1-0.3-2-0.1-2.8,0.5c-0.5,0.6-0.7,1.6-0.5,2.3c0.5,1.8,1.3,3.6,2,5.3c1.5,3.4,1.3,6.5-1.1,9.3c-2.6,2.9-5.9,4-9.6,2.8
		c-1.7-0.5-2.7-0.3-3.7,1.1C149.5,112,149.1,112.3,148.7,112.7z"/>
	
		<linearGradient id="SVGID_00000109746936407532553850000001969341242394495158_" gradientUnits="userSpaceOnUse" x1="97.1919" y1="706.2917" x2="97.1919" y2="699.4053" gradientTransform="matrix(1 0 0 1 0 -562)">
		<stop  offset="0" style="stop-color:#690ABC"/>
		<stop  offset="0.43" style="stop-color:#084DBC"/>
		<stop  offset="1" style="stop-color:#00C1FC"/>
	</linearGradient>
	<path style="fill:url(#SVGID_00000109746936407532553850000001969341242394495158_);" d="M100.7,141l-3.3,3.3l-3.7-3.8l3.5-3
		L100.7,141z"/>
	
		<linearGradient id="SVGID_00000044167962892671984070000017755511872702233007_" gradientUnits="userSpaceOnUse" x1="104.5996" y1="713.6171" x2="104.5996" y2="706.8313" gradientTransform="matrix(1 0 0 1 0 -562)">
		<stop  offset="0" style="stop-color:#690ABC"/>
		<stop  offset="0.43" style="stop-color:#084DBC"/>
		<stop  offset="1" style="stop-color:#00C1FC"/>
	</linearGradient>
	<path style="fill:url(#SVGID_00000044167962892671984070000017755511872702233007_);" d="M104.6,151.6l-3.5-3.3l3.7-3.5l3.3,3.7
		L104.6,151.6z"/>
</g>
</svg>
