<?xml version="1.0" encoding="utf-8"?>
<!-- Generator: Adobe Illustrator 26.0.3, SVG Export Plug-In . SVG Version: 6.00 Build 0)  -->
<svg version="1.1" id="Layer_1" xmlns="http://www.w3.org/2000/svg" xmlns:xlink="http://www.w3.org/1999/xlink" x="0px" y="0px"
	 viewBox="0 0 265.9 250.1" style="enable-background:new 0 0 265.9 250.1;" xml:space="preserve">
<style type="text/css">
	.st0{display:none;opacity:0.5;}
	.st1{display:inline;fill:#CC156D;}
	.st2{display:inline;fill:#0DD6AF;}
	.st3{display:inline;opacity:0.5;enable-background:new    ;}
	.st4{display:inline;opacity:0.2;enable-background:new    ;}
	.st5{display:inline;fill:none;stroke:#CC156D;stroke-width:2;stroke-miterlimit:10;}
	.st6{display:inline;fill:none;stroke:#CC156D;stroke-miterlimit:10;}
	.st7{display:inline;fill:none;stroke:#000000;stroke-miterlimit:10;}
	.st8{display:inline;opacity:0.5;fill:none;stroke:#000000;stroke-miterlimit:10;enable-background:new    ;}
	.st9{fill:#FFFFFF;}
</style>
<g class="st0">
	<path class="st1" d="M14.7,25.5c4.5-2.3,7.7-6.6,8.5-11.6c0.8,5,4,9.3,8.5,11.6c0.9,0.4,3,1,3,1c-1,0.3-2,0.6-3,1
		C27.2,29.7,24,34,23.2,39c-0.8-5-4-9.3-8.5-11.6c-1-0.4-2-0.7-3-1C12.7,26.2,13.7,25.9,14.7,25.5z"/>
	<circle class="st2" cx="245.4" cy="35.1" r="6"/>
	<circle class="st3" cx="31.7" cy="161.7" r="4"/>
	<circle class="st3" cx="216.8" cy="201.7" r="2.5"/>
	<circle class="st4" cx="68.7" cy="24.2" r="8.9"/>
	<path class="st2" d="M24.4,217.9c7.1-3.5,12-10.2,13.3-18c1.3,7.8,6.2,14.5,13.3,18c1.5,0.6,3.1,1.2,4.7,1.6
		c-1.6,0.5-3.1,1-4.7,1.6c-7.1,3.5-12,10.2-13.3,18c-1.3-7.8-6.2-14.5-13.3-18c-1.5-0.6-3.1-1.2-4.7-1.6
		C21.3,219.1,22.9,218.6,24.4,217.9z"/>
	<path class="st5" d="M152.4,14.8c-1.8-1.5-4.5-1.3-6,0.5c-1.5,1.8-1.2,4.4,0.5,5.9c0.7,0.4,0.9,1.3,0.4,1.9
		c-0.1,0.1-0.1,0.2-0.2,0.2c-1.1,1.5-1.1,3.5,0.1,5c1.1,1.5,3.1,2,4.8,1.4c1.7-0.6,2.8-2.3,2.7-4.1c-0.1-0.8,0.4-1.5,1.2-1.6
		c0.1,0,0.2,0,0.2,0l16-1.9c0.7-0.2,1.5,0.3,1.7,1c0,0.1,0,0.2,0,0.2c0.3,1.8,1.8,3.1,3.6,3.3c1.8,0.2,3.6-0.8,4.3-2.5
		c0.7-1.7,0.3-3.7-1.1-4.9c-0.7-0.4-0.8-1.3-0.4-2c0-0.1,0.1-0.1,0.2-0.2c1.4-1.9,0.9-4.5-0.9-5.8c-1.1-0.8-2.6-1-3.9-0.6
		c-1.7,0.6-2.9,2.3-2.8,4.1c0.1,0.8-0.4,1.5-1.1,1.6c-0.1,0-0.2,0-0.3,0l-16,1.9c-0.8,0.2-1.5-0.3-1.7-1c0-0.1,0-0.2,0-0.2
		C153.5,16.2,153.1,15.4,152.4,14.8z"/>
	<path class="st6" d="M106.9,29.4c0.3-1.5-0.7-3-2.3-3.3c-1.5-0.2-2.9,0.8-3.2,2.3c-0.1,0.5-0.6,0.9-1.1,0.9c0,0,0,0-0.1,0
		c-1.5-0.2-2.9,1-3.1,2.5c-0.1,0.9,0.3,1.8,1,2.4c0.9,0.8,2.3,0.9,3.3,0.2c0.4-0.3,1-0.3,1.3,0.1c0,0,0.1,0.1,0.1,0.1l6.5,8.6
		c0.4,0.4,0.4,1,0,1.3c0,0-0.1,0.1-0.1,0.1c-0.9,0.8-1.2,2.1-0.7,3.2c0.6,1.4,2.3,2.1,3.7,1.4c0.9-0.4,1.5-1.1,1.6-2.1
		c0-0.5,0.5-0.9,1-0.9c0.1,0,0.1,0,0.2,0c1.5,0.2,2.9-1,3.1-2.5c0.1-0.9-0.3-1.8-1-2.4c-0.9-0.8-2.3-0.9-3.3-0.2
		c-0.4,0.3-1,0.3-1.3-0.1c0,0-0.1-0.1-0.1-0.1l-6.5-8.6c-0.4-0.4-0.3-1,0-1.3c0,0,0.1-0.1,0.1-0.1C106.5,30.5,106.8,30,106.9,29.4z"
		/>
	<path class="st7" d="M91.4,213.9c-0.6-1.4-2.2-2.1-3.7-1.5c-1.4,0.6-2.1,2.2-1.5,3.6c0.3,0.4,0.1,1-0.3,1.3c-0.1,0-0.1,0.1-0.2,0.1
		c-1.1,0.6-1.7,1.8-1.5,3c0.2,1.2,1.2,2.1,2.4,2.2c1.2,0.2,2.4-0.5,2.8-1.6c0.2-0.5,0.8-0.8,1.3-0.6c0,0,0,0,0,0l10.1,3.7
		c0.5,0.1,0.8,0.6,0.7,1.1c0,0.1,0,0.1,0,0.2c-0.3,1.2,0.1,2.4,1.2,3.1c1.3,0.8,3,0.5,3.9-0.8c0.5-0.8,0.6-1.8,0.2-2.6
		c-0.3-0.4-0.1-1,0.3-1.3c0.1,0,0.1-0.1,0.2-0.1c1.4-0.7,1.9-2.4,1.2-3.7c-0.4-0.8-1.2-1.4-2.1-1.5c-1.2-0.2-2.4,0.5-2.9,1.6
		c-0.2,0.5-0.8,0.8-1.3,0.6c0,0,0,0,0,0L92.1,217c-0.5-0.1-0.8-0.6-0.7-1.1c0-0.1,0-0.1,0-0.2C91.7,215.1,91.6,214.5,91.4,213.9z"/>
	<path class="st2" d="M152.1,216.2c5.2,0.1,10.1-2.3,13.2-6.5c-1.6,4.9-0.8,10.3,2.3,14.5c0.7,0.8,1.4,1.6,2.2,2.3
		c-1.1-0.2-2.1-0.4-3.2-0.4c-5.2-0.1-10.1,2.3-13.2,6.5c1.6-4.9,0.8-10.3-2.3-14.5c-0.7-0.8-1.4-1.6-2.2-2.3
		C150,216,151.1,216.1,152.1,216.2z"/>
	<path class="st7" d="M29.5,69.2c3.7,0.1,7.2-1.7,9.3-4.6c-1.1,3.5-0.5,7.3,1.6,10.3c0.5,0.6,1,1.1,1.6,1.7
		c-0.8-0.2-1.5-0.3-2.3-0.3c-3.7-0.1-7.2,1.7-9.3,4.6c1.1-3.5,0.5-7.3-1.6-10.3c-0.5-0.6-1-1.1-1.6-1.7C28,69,28.7,69.1,29.5,69.2z"
		/>
	<path class="st8" d="M219.1,96.2c3.7,0.1,7.2-1.7,9.3-4.6c-1.1,3.5-0.5,7.3,1.6,10.3c0.5,0.6,1,1.1,1.6,1.7
		c-0.8-0.1-1.5-0.3-2.3-0.3c-3.7-0.1-7.2,1.7-9.3,4.6c1.1-3.5,0.5-7.3-1.6-10.3c-0.5-0.6-1-1.1-1.6-1.7
		C217.6,96.1,218.3,96.2,219.1,96.2z"/>
	<path class="st2" d="M214,146.1c-0.9,0.4-1.9,0.6-2.9,0.5c-3.3-0.4-5.7-3.3-5.3-6.6c0.3-2.6,2.3-4.8,4.9-5.2c0.2,0,0.4-0.1,0.4-0.3
		c1.2-3.1,4.7-4.6,7.7-3.5c2.1,0.8,3.6,2.7,3.8,5c0.1,1.3-0.2,2.7-1,3.8l-0.2,0.2c0,0,0,0.1,0,0.1l0.2,0.3c2.4,2.9,4.8,5.9,7.1,8.8
		c0.1,0.2,0.3,0.3,0.5,0.2c0,0,0,0,0,0c3-1.4,6.6,0,7.9,3c1.4,3,0,6.6-3,7.9c-0.6,0.3-1.2,0.4-1.9,0.5c-0.2,0-0.4,0.1-0.4,0.3
		c-1.2,3.1-4.6,4.7-7.7,3.5c-2.1-0.8-3.6-2.7-3.8-5c-0.1-1.4,0.2-2.7,1-3.8c0.1-0.2,0.1-0.3,0-0.4
		C218.9,152.2,216.5,149.2,214,146.1L214,146.1z M220.3,137c0.3-2-1.1-3.8-3.1-4.1c-1.9-0.2-3.7,1.1-4,3.1c0,0.7-0.6,1.2-1.2,1.2
		c-0.1,0-0.2,0-0.2,0c-2-0.1-3.7,1.4-3.8,3.3c-0.1,1.2,0.4,2.3,1.4,3.1c1.2,1,2.9,1,4.2,0.1c0.5-0.4,1.3-0.4,1.7,0.1
		c0,0.1,0.1,0.1,0.1,0.2c2.9,3.6,5.8,7.2,8.7,10.8c0.5,0.5,0.5,1.2,0,1.7c0,0-0.1,0.1-0.1,0.1c-1.1,1.1-1.5,2.7-0.8,4.1
		c0.9,1.8,3,2.5,4.8,1.7c1.1-0.5,1.8-1.5,2-2.7c0-0.7,0.6-1.2,1.2-1.2c0.1,0,0.2,0,0.2,0c1.6,0.1,3-0.8,3.6-2.3
		c0.6-1.5,0.1-3.1-1.1-4.1c-1.2-1-3-1-4.2-0.1c-0.5,0.4-1.3,0.4-1.7-0.1c0-0.1-0.1-0.1-0.1-0.2l-8.7-10.8c-0.5-0.5-0.5-1.2,0-1.7
		c0.1-0.1,0.1-0.1,0.2-0.1C219.8,138.5,220.2,137.8,220.3,137L220.3,137z"/>
	<path class="st4" d="M47.9,119.1c0-0.8,0.2-1.6,0.6-2.3c1.2-2.3,4.1-3.2,6.4-1.9c2,1.1,3,3.4,2.3,5.5c-0.1,0.2,0,0.3,0.1,0.4
		c1.9,1.8,2,4.8,0.2,6.7c-1.3,1.4-3.3,1.8-5.1,1.2c-1-0.4-1.9-1.1-2.4-2l-0.1-0.2h-0.1l-0.2,0.1l-8.8,2.3c-0.2,0-0.3,0.2-0.3,0.3
		c0,0,0,0,0,0c-0.1,2.6-2.3,4.7-4.9,4.6c-2.6-0.1-4.7-2.3-4.6-4.9c0-0.4,0.1-0.8,0.2-1.2c0.1-0.1,0-0.3-0.1-0.4
		c-1.9-1.8-2-4.8-0.2-6.7c1.3-1.4,3.3-1.8,5.1-1.2c1,0.4,1.9,1.1,2.5,2c0.1,0.1,0.2,0.2,0.3,0.2L47.9,119.1L47.9,119.1z M52.4,126.6
		c1.3,0.9,3.1,0.5,4-0.9c0.8-1.3,0.4-3.1-0.9-3.9c-0.5-0.3-0.7-0.9-0.4-1.3c0,0,0-0.1,0.1-0.1c0.6-1.1,0.4-2.5-0.5-3.4
		c-0.9-0.9-2.2-1.1-3.3-0.5c-1.1,0.6-1.7,1.8-1.5,3c0.1,0.5-0.2,1.1-0.7,1.2c0,0-0.1,0-0.1,0l-10.7,2.8c-0.5,0.2-1.1-0.1-1.3-0.6
		c0,0,0-0.1,0-0.1c-0.4-1.2-1.5-2-2.8-1.9c-1.6,0-2.8,1.4-2.8,2.9c0,0.9,0.5,1.8,1.3,2.3c0.5,0.2,0.7,0.9,0.4,1.3c0,0,0,0.1-0.1,0.1
		c-0.7,1.4-0.2,3.1,1.2,3.9c0.8,0.5,1.8,0.5,2.7,0c1.1-0.6,1.7-1.8,1.5-3c-0.1-0.5,0.2-1.1,0.7-1.2c0,0,0.1,0,0.1,0l10.7-2.8
		c0.5-0.2,1.1,0.1,1.3,0.6c0,0,0,0,0,0.1C51.5,125.7,51.9,126.3,52.4,126.6z"/>
</g>
<path class="st9" d="M232.4,47.3c-0.4,3.3-0.7,6.6-1.1,9.8c-3,24.8-12.8,48.2-28.4,67.7c-3.3,4.2-7.1,8-10.6,12
	c-0.7,0.7-1.1,1.7-1.3,2.6c-3.1,20.3-11.1,38.3-24.7,53.7c-3.5,4-7.5,7.5-11.5,11.4c-2.8-2.8-5.5-5.6-8.3-8.4
	c-6.2-6.2-12.3-12.3-18.4-18.5c-0.7-0.9-1.9-1.1-2.8-0.5c-3.6,1.8-7.3,3.4-10.9,5.2c-0.9,0.6-2.2,0.4-2.8-0.5c0,0,0,0,0,0
	c-1.4-1.6-2.9-3-4.4-4.5L94,190.8l-26.7-26.7l13.5-13.4c-1.8-1.7-3.4-3.3-5.1-4.8c-0.7-0.5-0.9-1.5-0.4-2.2c0,0,0,0,0,0
	c1.8-3.6,3.3-7.3,5.2-10.9c0.8-1.1,0.5-2.6-0.6-3.3c-8.6-8.4-17-17-25.5-25.5c-0.4-0.4-0.7-0.8-1.2-1.2c7.2-7.5,14.3-14.9,23.5-20.4
	l2.8,4.4c-6.2,5.3-12.3,10.4-18.2,15.5L84.2,125c8.3-17.7,15.6-36,29.1-50.9l-0.4-0.7l-18,5.6L92.7,74c6.2-2.7,12.6-4.7,19.2-6
	c0.9-0.2,1.8-0.4,2.7-0.4c3.8-0.1,6.5-1.9,9.2-4.5c18.3-17.6,41.2-29.6,66-34.6c6.2-1.3,12.6-1.8,18.9-2.6c0.6-0.1,1.3-0.2,1.9-0.3
	H225l6.6,0.8l0.8,6.6L232.4,47.3z M151.3,158.5c0.6-0.2,1-0.4,1.4-0.6c33-16.5,55.5-42.2,67.4-77.2c0.5-1,0.2-2.2-0.6-2.9
	c-13.2-13.1-26.3-26.2-39.4-39.4c-0.6-0.8-1.7-1.1-2.7-0.7c-33.9,11-61.9,35.4-77.4,67.5c-0.6,0.8-0.5,1.9,0.3,2.5
	c16.7,16.6,33.3,33.2,49.9,49.8C150.5,157.9,150.9,158.2,151.3,158.5z M144.9,161.5l-48.6-48.6c-4.7,10.1-9.5,20.4-14.3,30.6
	l32.3,32.3L144.9,161.5z M184,144.7c-15.1,13.2-33.5,20.6-51.1,28.9l22.4,22.4C170.4,182.2,179.5,164.8,184,144.7z M186.1,35.3
	l36.5,36.5c3.3-13.1,4.5-26.7,3.6-40.1C217,30.3,195.1,32.3,186.1,35.3L186.1,35.3z M75.8,164.4l17.4,17.5l9-8.9l-17.4-17.5
	L75.8,164.4z"/>
<path class="st9" d="M232.4,32.8l-0.8-6.6l-6.6-0.8h7.4L232.4,32.8z"/>
<path class="st9" d="M71.4,183l3.8,3.6c-12.8,12.7-25.5,25.4-38.1,38.1l-3.6-3.8L71.4,183z"/>
<path class="st9" d="M48.8,190.4l-3.6-3.5l15.1-15.1l3.5,3.8L48.8,190.4z"/>
<path class="st9" d="M70.9,212.5l-3.4-3.5l14.9-14.9l3.5,3.7L70.9,212.5z"/>
<path class="st9" d="M89.8,81.8l-5.1,2.6c-1-1.7-1.9-3.3-2.9-5.1l5.3-2.8L89.8,81.8z"/>
<path class="st9" d="M189.9,102.2l5.3,1.3c-1,7.7-8.6,19.5-21.5,24c-13.3,4.7-28.1,0.6-37.2-10.2c-8.7-10.3-9.9-24.6-5.6-33.9l5.1,2
	c-6,18.6,5.5,33.3,18.5,37C168,126.3,184.9,119.7,189.9,102.2z"/>
<path class="st9" d="M137.8,81.3l-4.8-2.7c6.3-12.5,23.5-21.3,40.8-15.3c14.5,5.1,25.7,22.5,22.3,35l-5.4-0.5
	c-0.1-14.6-6.4-25.3-20.8-29.4C156.5,64.6,145.8,69.8,137.8,81.3z"/>
<path class="st9" d="M150.2,111.5l-4-4.1l2.3-2.5l-2.9-8.7l5.9-1.3c0.2,1.2,0.5,2.4,0.9,3.5c0.9,1.7,2,3.3,3.3,4.6
	c1.5,1.2,3.7,1.2,5.2-0.1c1.4-1.2,1.6-2.6,0.8-4.8c-1-2.4-1.9-4.8-2.7-7.3c-1.8-6.4,4.8-10.9,9.4-9.9c2.6,0.6,4.4,0.4,5.9-2.1
	l4.1,4.3l-2.1,2.2l1.6,9l-6.1,0.3c-0.1-1.2-0.2-2.3-0.2-3.4c0-2-1.2-3.7-3-4.4c-1.1-0.3-2.2-0.1-3.1,0.5c-0.6,0.7-0.8,1.7-0.5,2.5
	c0.6,2,1.4,3.9,2.2,5.8c1.6,3.7,1.4,7.1-1.2,10.2c-2.8,3.2-6.5,4.4-10.5,3.1c-1.9-0.6-3-0.3-4.1,1.2
	C151,110.8,150.6,111.1,150.2,111.5z"/>
<path class="st9" d="M97.7,142.5l-3.6,3.6l-4.1-4.2l3.8-3.3L97.7,142.5z"/>
<path class="st9" d="M101.9,154.1l-3.8-3.6l4.1-3.8l3.6,4L101.9,154.1z"/>
</svg>
