<?xml version="1.0" encoding="utf-8"?>
<!-- Generator: Adobe Illustrator 26.0.3, SVG Export Plug-In . SVG Version: 6.00 Build 0)  -->
<svg version="1.1" id="Layer_1" xmlns="http://www.w3.org/2000/svg" xmlns:xlink="http://www.w3.org/1999/xlink" x="0px" y="0px"
	 viewBox="0 0 383.4 287.8" style="enable-background:new 0 0 383.4 287.8;" xml:space="preserve">
<style type="text/css">
	.st0{fill:#FFFFFF;}
</style>
<path class="st0" d="M0,19.4c1.2-2.8,2.1-5.9,3.8-8.5C8.4,3.6,15.3,0.1,23.9,0.1C37.2,0,50.6,0,63.9,0c97.9,0,195.8,0,293.8,0
	c7.5,0,14.1,1.9,19.2,7.5c6.4,7.1,8.2,15.4,4.6,24.4s-10.3,13.9-19.9,14.7c-1.9,0.2-3.7,0.1-5.6,0.1H28.9C11.8,46.7,6.5,43.2,0,27.6
	V19.4z"/>
<path class="st0" d="M0,260.1c0.8-2.2,1.7-4.4,2.7-6.5c4-7.5,10.3-11.7,18.8-12.5c0.8-0.1,1.5-0.1,2.2-0.1c111.9,0,223.8,0,335.7,0
	c11.3,0,20.4,7,23.1,17.2c3.8,14.8-6.7,28.7-22.1,29.4c-1.5,0.1-3,0-4.5,0H28.8c-16.9,0-22.7-3.9-28.8-19.4V260.1z"/>
<path class="st0" d="M0,140.1c1.4-3.2,2.3-6.6,4.2-9.5c4.9-7.1,11.9-10.2,20.5-10.1c52.9,0.1,105.8,0.1,158.7,0
	c58.5,0,117,0,175.5,0c12.4,0,21.5,7.4,23.9,19c2.7,13.5-7.6,26.8-21.2,27.5c-1.9,0.1-3.7,0.1-5.6,0.1H28.5
	C11.6,167.2,6,163.4,0,147.6V140.1z"/>
</svg>
