<svg id="Layer_1" data-name="Layer 1" xmlns="http://www.w3.org/2000/svg" xmlns:xlink="http://www.w3.org/1999/xlink" viewBox="0 0 115 115"><defs><style>.cls-1{fill:url(#linear-gradient);}.cls-2{fill:#e2761b;stroke:#e2761b;}.cls-10,.cls-11,.cls-2,.cls-3,.cls-4,.cls-5,.cls-6,.cls-7,.cls-8,.cls-9{stroke-linecap:round;stroke-linejoin:round;}.cls-3{fill:#e4761b;stroke:#e4761b;}.cls-4{fill:#d7c1b3;stroke:#d7c1b3;}.cls-5{fill:#233447;stroke:#233447;}.cls-6{fill:#cd6116;stroke:#cd6116;}.cls-7{fill:#e4751f;stroke:#e4751f;}.cls-8{fill:#f6851b;stroke:#f6851b;}.cls-9{fill:#c0ad9e;stroke:#c0ad9e;}.cls-10{fill:#161616;stroke:#161616;}.cls-11{fill:#763d16;stroke:#763d16;}</style><linearGradient id="linear-gradient" x1="1.82" y1="57.5" x2="101.28" y2="57.5" gradientUnits="userSpaceOnUse"><stop offset="0" stop-color="#eef3ff"/><stop offset="0.43" stop-color="#eef3ff"/><stop offset="1" stop-color="#fff"/></linearGradient></defs><g id="BNB"><circle class="cls-1" cx="51.55" cy="57.5" r="49.73"/><g id="Metamask"><polygon class="cls-2" points="107.26 25.75 77.73 47.68 83.19 34.74 107.26 25.75"/><polygon class="cls-3" points="39.08 25.75 68.38 47.89 63.18 34.74 39.08 25.75"/><polygon class="cls-3" points="96.63 76.59 88.77 88.65 105.6 93.28 110.44 76.86 96.63 76.59"/><polygon class="cls-3" points="35.96 76.86 40.77 93.28 57.6 88.65 49.73 76.59 35.96 76.86"/><polygon class="cls-3" points="56.65 56.23 51.96 63.33 68.67 64.07 68.08 46.11 56.65 56.23"/><polygon class="cls-3" points="89.69 56.23 78.11 45.9 77.73 64.07 94.41 63.33 89.69 56.23"/><polygon class="cls-3" points="57.6 88.65 67.63 83.75 58.97 76.98 57.6 88.65"/><polygon class="cls-3" points="78.7 83.75 88.77 88.65 87.37 76.98 78.7 83.75"/><polygon class="cls-4" points="88.77 88.65 78.7 83.75 79.51 90.31 79.42 93.07 88.77 88.65"/><polygon class="cls-4" points="57.6 88.65 66.95 93.07 66.89 90.31 67.63 83.75 57.6 88.65"/><polygon class="cls-5" points="67.1 72.65 58.73 70.18 64.64 67.48 67.1 72.65"/><polygon class="cls-5" points="79.24 72.65 81.7 67.48 87.64 70.18 79.24 72.65"/><polygon class="cls-6" points="57.6 88.65 59.03 76.59 49.73 76.86 57.6 88.65"/><polygon class="cls-6" points="87.34 76.59 88.77 88.65 96.63 76.86 87.34 76.59"/><polygon class="cls-6" points="94.41 63.33 77.73 64.07 79.27 72.65 81.73 67.48 87.67 70.18 94.41 63.33"/><polygon class="cls-6" points="58.73 70.18 64.67 67.48 67.1 72.65 68.67 64.07 51.96 63.33 58.73 70.18"/><polygon class="cls-7" points="51.96 63.33 58.97 76.98 58.73 70.18 51.96 63.33"/><polygon class="cls-7" points="87.67 70.18 87.37 76.98 94.41 63.33 87.67 70.18"/><polygon class="cls-7" points="68.67 64.07 67.1 72.65 69.06 82.77 69.5 69.44 68.67 64.07"/><polygon class="cls-7" points="77.73 64.07 76.92 69.41 77.28 82.77 79.27 72.65 77.73 64.07"/><polygon class="cls-8" points="79.27 72.65 77.28 82.77 78.7 83.75 87.37 76.98 87.67 70.18 79.27 72.65"/><polygon class="cls-8" points="58.73 70.18 58.97 76.98 67.63 83.75 69.06 82.77 67.1 72.65 58.73 70.18"/><polygon class="cls-9" points="79.42 93.07 79.51 90.31 78.77 89.66 67.58 89.66 66.89 90.31 66.95 93.07 57.6 88.65 60.87 91.32 67.48 95.92 78.85 95.92 85.5 91.32 88.77 88.65 79.42 93.07"/><polygon class="cls-10" points="78.7 83.75 77.28 82.77 69.06 82.77 67.63 83.75 66.89 90.31 67.58 89.66 78.77 89.66 79.51 90.31 78.7 83.75"/><polygon class="cls-11" points="108.51 49.11 111.03 37 107.26 25.75 78.7 46.94 89.69 56.23 105.21 60.77 108.66 56.77 107.17 55.7 109.55 53.53 107.7 52.11 110.08 50.3 108.51 49.11"/><polygon class="cls-11" points="35.34 37 37.86 49.11 36.26 50.3 38.63 52.11 36.82 53.53 39.2 55.7 37.71 56.77 41.13 60.77 56.65 56.23 67.63 46.94 39.08 25.75 35.34 37"/><polygon class="cls-8" points="105.21 60.77 89.69 56.23 94.41 63.33 87.37 76.98 96.63 76.86 110.44 76.86 105.21 60.77"/><polygon class="cls-8" points="56.65 56.23 41.13 60.77 35.96 76.86 49.73 76.86 58.97 76.98 51.96 63.33 56.65 56.23"/><polygon class="cls-8" points="77.73 64.07 78.7 46.94 83.22 34.74 63.18 34.74 67.63 46.94 68.67 64.07 69.03 69.47 69.06 82.77 77.28 82.77 77.34 69.47 77.73 64.07"/></g></g></svg>