<svg id="Layer_1" data-name="Layer 1" xmlns="http://www.w3.org/2000/svg" xmlns:xlink="http://www.w3.org/1999/xlink" viewBox="0 0 115 115"><defs><style>.cls-1{fill:url(#New_Gradient_Swatch_1);}.cls-2{fill:#e2761b;stroke:#e2761b;}.cls-10,.cls-11,.cls-2,.cls-3,.cls-4,.cls-5,.cls-6,.cls-7,.cls-8,.cls-9{stroke-linecap:round;stroke-linejoin:round;}.cls-3{fill:#e4761b;stroke:#e4761b;}.cls-4{fill:#d7c1b3;stroke:#d7c1b3;}.cls-5{fill:#233447;stroke:#233447;}.cls-6{fill:#cd6116;stroke:#cd6116;}.cls-7{fill:#e4751f;stroke:#e4751f;}.cls-8{fill:#f6851b;stroke:#f6851b;}.cls-9{fill:#c0ad9e;stroke:#c0ad9e;}.cls-10{fill:#161616;stroke:#161616;}.cls-11{fill:#763d16;stroke:#763d16;}</style><linearGradient id="New_Gradient_Swatch_1" x1="26.68" y1="100.57" x2="76.42" y2="14.43" gradientUnits="userSpaceOnUse"><stop offset="0" stop-color="#690abc"/><stop offset="0.43" stop-color="#084dbc"/><stop offset="1" stop-color="#00c1fc"/></linearGradient></defs><g id="Metamask"><circle class="cls-1" cx="51.55" cy="57.5" r="49.73"/><g id="Metamask-2" data-name="Metamask"><polygon class="cls-2" points="109.26 25.75 79.73 47.68 85.19 34.74 109.26 25.75"/><polygon class="cls-3" points="41.08 25.75 70.38 47.89 65.18 34.74 41.08 25.75"/><polygon class="cls-3" points="98.63 76.59 90.77 88.65 107.6 93.28 112.44 76.86 98.63 76.59"/><polygon class="cls-3" points="37.96 76.86 42.77 93.28 59.6 88.65 51.73 76.59 37.96 76.86"/><polygon class="cls-3" points="58.65 56.23 53.96 63.33 70.67 64.07 70.08 46.11 58.65 56.23"/><polygon class="cls-3" points="91.69 56.23 80.11 45.9 79.73 64.07 96.41 63.33 91.69 56.23"/><polygon class="cls-3" points="59.6 88.65 69.63 83.75 60.97 76.98 59.6 88.65"/><polygon class="cls-3" points="80.7 83.75 90.77 88.65 89.37 76.98 80.7 83.75"/><polygon class="cls-4" points="90.77 88.65 80.7 83.75 81.51 90.31 81.42 93.07 90.77 88.65"/><polygon class="cls-4" points="59.6 88.65 68.95 93.07 68.89 90.31 69.63 83.75 59.6 88.65"/><polygon class="cls-5" points="69.1 72.65 60.73 70.18 66.64 67.48 69.1 72.65"/><polygon class="cls-5" points="81.24 72.65 83.7 67.48 89.64 70.18 81.24 72.65"/><polygon class="cls-6" points="59.6 88.65 61.03 76.59 51.73 76.86 59.6 88.65"/><polygon class="cls-6" points="89.34 76.59 90.77 88.65 98.63 76.86 89.34 76.59"/><polygon class="cls-6" points="96.41 63.33 79.73 64.07 81.27 72.65 83.73 67.48 89.67 70.18 96.41 63.33"/><polygon class="cls-6" points="60.73 70.18 66.67 67.48 69.1 72.65 70.67 64.07 53.96 63.33 60.73 70.18"/><polygon class="cls-7" points="53.96 63.33 60.97 76.98 60.73 70.18 53.96 63.33"/><polygon class="cls-7" points="89.67 70.18 89.37 76.98 96.41 63.33 89.67 70.18"/><polygon class="cls-7" points="70.67 64.07 69.1 72.65 71.06 82.77 71.5 69.44 70.67 64.07"/><polygon class="cls-7" points="79.73 64.07 78.92 69.41 79.28 82.77 81.27 72.65 79.73 64.07"/><polygon class="cls-8" points="81.27 72.65 79.28 82.77 80.7 83.75 89.37 76.98 89.67 70.18 81.27 72.65"/><polygon class="cls-8" points="60.73 70.18 60.97 76.98 69.63 83.75 71.06 82.77 69.1 72.65 60.73 70.18"/><polygon class="cls-9" points="81.42 93.07 81.51 90.31 80.77 89.66 69.58 89.66 68.89 90.31 68.95 93.07 59.6 88.65 62.87 91.32 69.48 95.92 80.85 95.92 87.5 91.32 90.77 88.65 81.42 93.07"/><polygon class="cls-10" points="80.7 83.75 79.28 82.77 71.06 82.77 69.63 83.75 68.89 90.31 69.58 89.66 80.77 89.66 81.51 90.31 80.7 83.75"/><polygon class="cls-11" points="110.51 49.11 113.03 37 109.26 25.75 80.7 46.94 91.69 56.23 107.21 60.77 110.66 56.77 109.17 55.7 111.55 53.53 109.7 52.11 112.08 50.3 110.51 49.11"/><polygon class="cls-11" points="37.34 37 39.86 49.11 38.26 50.3 40.63 52.11 38.82 53.53 41.2 55.7 39.71 56.77 43.13 60.77 58.65 56.23 69.63 46.94 41.08 25.75 37.34 37"/><polygon class="cls-8" points="107.21 60.77 91.69 56.23 96.41 63.33 89.37 76.98 98.63 76.86 112.44 76.86 107.21 60.77"/><polygon class="cls-8" points="58.65 56.23 43.13 60.77 37.96 76.86 51.73 76.86 60.97 76.98 53.96 63.33 58.65 56.23"/><polygon class="cls-8" points="79.73 64.07 80.7 46.94 85.22 34.74 65.18 34.74 69.63 46.94 70.67 64.07 71.03 69.47 71.06 82.77 79.28 82.77 79.34 69.47 79.73 64.07"/></g></g></svg>