<svg id="Layer_1" data-name="Layer 1" xmlns="http://www.w3.org/2000/svg" xmlns:xlink="http://www.w3.org/1999/xlink" viewBox="0 0 115 115"><defs><style>.cls-1{fill:none;}.cls-2{fill:url(#linear-gradient);}.cls-3{fill:url(#linear-gradient-2);}.cls-4{clip-path:url(#clip-path);}.cls-5{fill:#fff;}.cls-6{fill:url(#linear-gradient-3);}.cls-7{fill:#e2761b;stroke:#e2761b;}.cls-10,.cls-11,.cls-12,.cls-13,.cls-14,.cls-15,.cls-16,.cls-7,.cls-8,.cls-9{stroke-linecap:round;stroke-linejoin:round;}.cls-8{fill:#e4761b;stroke:#e4761b;}.cls-9{fill:#d7c1b3;stroke:#d7c1b3;}.cls-10{fill:#233447;stroke:#233447;}.cls-11{fill:#cd6116;stroke:#cd6116;}.cls-12{fill:#e4751f;stroke:#e4751f;}.cls-13{fill:#f6851b;stroke:#f6851b;}.cls-14{fill:#c0ad9e;stroke:#c0ad9e;}.cls-15{fill:#161616;stroke:#161616;}.cls-16{fill:#763d16;stroke:#763d16;}</style><linearGradient id="linear-gradient" x1="51.5" y1="106.68" x2="51.5" y2="24.1" gradientUnits="userSpaceOnUse"><stop offset="0" stop-color="#690abc"/><stop offset="0.43" stop-color="#084dbc"/><stop offset="1" stop-color="#00c1fc"/></linearGradient><linearGradient id="linear-gradient-2" x1="51.5" y1="110.78" x2="51.5" y2="27.87" xlink:href="#linear-gradient"/><clipPath id="clip-path"><circle class="cls-1" cx="51.5" cy="57.5" r="43.25"/></clipPath><linearGradient id="linear-gradient-3" x1="43.4" y1="110.78" x2="43.4" y2="27.87" xlink:href="#linear-gradient"/></defs><g id="BNB"><path class="cls-2" d="M51.5,7.77A49.73,49.73,0,1,0,101.23,57.5,49.79,49.79,0,0,0,51.5,7.77ZM97.29,57.5A45.79,45.79,0,1,1,51.5,11.71,45.84,45.84,0,0,1,97.29,57.5Z"/><circle class="cls-3" cx="51.5" cy="57.5" r="43.25"/><g class="cls-4"><circle class="cls-5" cx="65.85" cy="51.63" r="38.1"/><path class="cls-6" d="M84.83,49.68c-.2-1.18-.5-2.35-.76-3.52s-.39-1.24-1.48-1c-2.09.47-4.17,1-6.25,1.5A2.58,2.58,0,0,1,74,46.25C72.21,45,72,43.19,68,43.59c-.3,0-.66-.33-.82-.6-.93-1.52-1.81-3.08-2.72-4.62A17.73,17.73,0,0,0,63,36.06a1,1,0,0,0-1.69,0,5.66,5.66,0,0,0-.74,1.62c-.45,1.44-.84,2.54-1.24,4a27.32,27.32,0,0,1-.76,2.86c-1.13,2.82-3.11,5.43-4.34,8.21C52.83,56,52.67,59.44,52,62.85c0,.06,0,.12,0,.18a35.44,35.44,0,0,0-6.38,1.86C26.49,72.37,8,44.9,8,44.9L1.9,81.32s29,5.91,45-6c-3.81,9.27-6.69,17.11-6.69,17.11C36.31,101.68,34.17,106,34.17,106l35.49,3.78c-.33-5.57-.69-10.62-.69-10.62,10-17.87,6-24.56,4.71-26.11A2.51,2.51,0,0,0,73,68.66c.09-2.31.21-4.61.29-6.91a2.22,2.22,0,0,1,1.54-2.2c1.25-.51,2.44-1.15,3.69-1.63a11.4,11.4,0,0,0,5.39-4.49A5,5,0,0,0,84.83,49.68Z"/><path class="cls-5" d="M8.67,74.42c.54.06,5.89,5.37,23.37,4.13,0,0-7.92,2.88-22.75-.08Z"/><path class="cls-5" d="M8.78,46.57S18,60.33,31.26,64.75c0,0-17-9.09-21.41-20.93Z"/><path class="cls-5" d="M15,81.74S26.36,83.89,40.47,79c0,0-9.68,4.9-25,4.9Z"/><path class="cls-5" d="M70.36,70.21s-11.7-8.29-21,2.92A18.93,18.93,0,0,1,70.36,70.21Z"/><path class="cls-5" d="M24.86,64.28S35,70.61,44.42,66.79C44.42,66.79,34.67,73.25,24.86,64.28Z"/></g><path class="cls-5" d="M29.83,87.72A2.25,2.25,0,0,0,31,86.07a2.23,2.23,0,0,0,1.21,1.65,3.85,3.85,0,0,0,.43.15s-.31.09-.43.14A2.23,2.23,0,0,0,31,89.66,2.25,2.25,0,0,0,29.83,88c-.12-.05-.43-.14-.43-.14A3.85,3.85,0,0,0,29.83,87.72Z"/><circle class="cls-5" cx="32.25" cy="27.02" r="0.61"/><circle class="cls-5" cx="22.56" cy="48.73" r="0.61"/><path class="cls-5" d="M22.58,33.3a4.26,4.26,0,0,0,2.31-3.15,4.27,4.27,0,0,0,2.32,3.15,8.08,8.08,0,0,0,.81.28s-.58.18-.81.29A4.28,4.28,0,0,0,24.89,37a4.26,4.26,0,0,0-2.31-3.14c-.23-.11-.81-.29-.81-.29A8.08,8.08,0,0,0,22.58,33.3Z"/><path class="cls-5" d="M16.82,39.93a2.66,2.66,0,0,0,1.45-2,2.62,2.62,0,0,0,1.44,2c.15.07.51.18.51.18s-.36.11-.51.18a2.62,2.62,0,0,0-1.44,2,2.66,2.66,0,0,0-1.45-2c-.15-.07-.51-.18-.51-.18S16.67,40,16.82,39.93Z"/><circle class="cls-5" cx="38.42" cy="88.11" r="0.61"/><path class="cls-5" d="M51.5,101A43.53,43.53,0,1,1,95,57.5,43.58,43.58,0,0,1,51.5,101Zm0-86.51a43,43,0,1,0,43,43A43,43,0,0,0,51.5,14.52Z"/><g id="Metamask"><polygon class="cls-7" points="107.26 25.75 77.73 47.68 83.19 34.74 107.26 25.75"/><polygon class="cls-8" points="39.08 25.75 68.38 47.89 63.18 34.74 39.08 25.75"/><polygon class="cls-8" points="96.63 76.59 88.77 88.65 105.6 93.28 110.44 76.86 96.63 76.59"/><polygon class="cls-8" points="35.96 76.86 40.77 93.28 57.6 88.65 49.73 76.59 35.96 76.86"/><polygon class="cls-8" points="56.65 56.23 51.96 63.33 68.67 64.07 68.08 46.11 56.65 56.23"/><polygon class="cls-8" points="89.69 56.23 78.11 45.9 77.73 64.07 94.41 63.33 89.69 56.23"/><polygon class="cls-8" points="57.6 88.65 67.63 83.75 58.97 76.98 57.6 88.65"/><polygon class="cls-8" points="78.7 83.75 88.77 88.65 87.37 76.98 78.7 83.75"/><polygon class="cls-9" points="88.77 88.65 78.7 83.75 79.51 90.31 79.42 93.07 88.77 88.65"/><polygon class="cls-9" points="57.6 88.65 66.95 93.07 66.89 90.31 67.63 83.75 57.6 88.65"/><polygon class="cls-10" points="67.1 72.65 58.73 70.18 64.64 67.48 67.1 72.65"/><polygon class="cls-10" points="79.24 72.65 81.7 67.48 87.64 70.18 79.24 72.65"/><polygon class="cls-11" points="57.6 88.65 59.03 76.59 49.73 76.86 57.6 88.65"/><polygon class="cls-11" points="87.34 76.59 88.77 88.65 96.63 76.86 87.34 76.59"/><polygon class="cls-11" points="94.41 63.33 77.73 64.07 79.27 72.65 81.73 67.48 87.67 70.18 94.41 63.33"/><polygon class="cls-11" points="58.73 70.18 64.67 67.48 67.1 72.65 68.67 64.07 51.96 63.33 58.73 70.18"/><polygon class="cls-12" points="51.96 63.33 58.97 76.98 58.73 70.18 51.96 63.33"/><polygon class="cls-12" points="87.67 70.18 87.37 76.98 94.41 63.33 87.67 70.18"/><polygon class="cls-12" points="68.67 64.07 67.1 72.65 69.06 82.77 69.5 69.44 68.67 64.07"/><polygon class="cls-12" points="77.73 64.07 76.92 69.41 77.28 82.77 79.27 72.65 77.73 64.07"/><polygon class="cls-13" points="79.27 72.65 77.28 82.77 78.7 83.75 87.37 76.98 87.67 70.18 79.27 72.65"/><polygon class="cls-13" points="58.73 70.18 58.97 76.98 67.63 83.75 69.06 82.77 67.1 72.65 58.73 70.18"/><polygon class="cls-14" points="79.42 93.07 79.51 90.31 78.77 89.66 67.58 89.66 66.89 90.31 66.95 93.07 57.6 88.65 60.87 91.32 67.48 95.92 78.85 95.92 85.5 91.32 88.77 88.65 79.42 93.07"/><polygon class="cls-15" points="78.7 83.75 77.28 82.77 69.06 82.77 67.63 83.75 66.89 90.31 67.58 89.66 78.77 89.66 79.51 90.31 78.7 83.75"/><polygon class="cls-16" points="108.51 49.11 111.03 37 107.26 25.75 78.7 46.94 89.69 56.23 105.21 60.77 108.66 56.77 107.17 55.7 109.55 53.53 107.7 52.11 110.08 50.3 108.51 49.11"/><polygon class="cls-16" points="35.34 37 37.86 49.11 36.26 50.3 38.63 52.11 36.82 53.53 39.2 55.7 37.71 56.77 41.13 60.77 56.65 56.23 67.63 46.94 39.08 25.75 35.34 37"/><polygon class="cls-13" points="105.21 60.77 89.69 56.23 94.41 63.33 87.37 76.98 96.63 76.86 110.44 76.86 105.21 60.77"/><polygon class="cls-13" points="56.65 56.23 41.13 60.77 35.96 76.86 49.73 76.86 58.97 76.98 51.96 63.33 56.65 56.23"/><polygon class="cls-13" points="77.73 64.07 78.7 46.94 83.22 34.74 63.18 34.74 67.63 46.94 68.67 64.07 69.03 69.47 69.06 82.77 77.28 82.77 77.34 69.47 77.73 64.07"/></g></g></svg>