<?xml version="1.0" encoding="utf-8"?>
<!-- Generator: Adobe Illustrator 26.0.3, SVG Export Plug-In . SVG Version: 6.00 Build 0)  -->
<svg version="1.1" id="Layer_1" xmlns="http://www.w3.org/2000/svg" xmlns:xlink="http://www.w3.org/1999/xlink" x="0px" y="0px"
	 viewBox="0 0 265.9 250.1" style="enable-background:new 0 0 265.9 250.1;" xml:space="preserve">
<style type="text/css">
	.st0{fill:#690ABC;}
	.st1{fill:#0DD6AF;}
	.st2{opacity:0.5;enable-background:new    ;}
	.st3{opacity:0.2;enable-background:new    ;}
	.st4{fill:none;stroke:#690ABC;stroke-width:2;stroke-miterlimit:10;}
	.st5{fill:none;stroke:#690ABC;stroke-miterlimit:10;}
	.st6{fill:none;stroke:#000000;stroke-miterlimit:10;}
	.st7{opacity:0.5;fill:none;stroke:#000000;stroke-miterlimit:10;enable-background:new    ;}
	.st8{fill:url(#SVGID_1_);}
</style>
<g>
	<path class="st0" d="M24.7,31.5c4.5-2.3,7.7-6.6,8.5-11.6c0.8,5,4,9.3,8.5,11.6c0.9,0.4,3,1,3,1c-1,0.3-2,0.6-3,1
		C37.2,35.7,34,40,33.2,45c-0.8-5-4-9.3-8.5-11.6c-1-0.4-2-0.7-3-1C22.7,32.2,23.7,31.9,24.7,31.5z"/>
	<path class="st0" d="M140.6,172.9c4.5-2.3,7.7-6.6,8.5-11.6c0.8,5,4,9.3,8.5,11.6c1,0.4,2,0.7,3,1c-1,0.3-2,0.6-3,1
		c-4.5,2.3-7.7,6.6-8.5,11.6c-0.8-5-4-9.3-8.5-11.6c-0.9-0.4-3-1-3-1C138.6,173.6,139.6,173.3,140.6,172.9z"/>
	<circle class="st1" cx="225.4" cy="41.1" r="6"/>
	<circle class="st2" cx="31.7" cy="167.7" r="4"/>
	<circle class="st2" cx="216.8" cy="207.7" r="2.5"/>
	<circle class="st3" cx="78.7" cy="26.2" r="8.9"/>
	<circle class="st3" cx="105.6" cy="161.5" r="6.3"/>
	<path class="st1" d="M25.4,213.9c7.1-3.5,12-10.2,13.3-18c1.3,7.8,6.2,14.5,13.3,18c1.5,0.6,3.1,1.2,4.7,1.6
		c-1.6,0.5-3.1,1-4.7,1.6c-7.1,3.5-12,10.2-13.3,18c-1.3-7.8-6.2-14.5-13.3-18c-1.5-0.6-3.1-1.2-4.7-1.6
		C22.3,215.1,23.9,214.6,25.4,213.9z"/>
	<path class="st1" d="M96.7,95.4c4.7-2.3,8-6.8,8.8-12c0.8,5.2,4.1,9.7,8.8,12c0.9,0.4,3.1,1.1,3.1,1.1c-1.1,0.3-2.1,0.7-3.1,1.1
		c-4.7,2.3-8,6.8-8.8,12c-0.8-5.2-4.1-9.7-8.8-12c-1-0.4-2-0.8-3.1-1.1C93.6,96.4,95.8,95.8,96.7,95.4z"/>
	<path class="st4" d="M163.4,17.8c-1.8-1.5-4.5-1.3-6,0.5s-1.2,4.4,0.5,5.9c0.7,0.4,0.9,1.3,0.4,1.9c-0.1,0.1-0.1,0.2-0.2,0.2
		c-1.1,1.5-1.1,3.5,0.1,5c1.1,1.5,3.1,2,4.8,1.4s2.8-2.3,2.7-4.1c-0.1-0.8,0.4-1.5,1.2-1.6c0.1,0,0.2,0,0.2,0l16-1.9
		c0.7-0.2,1.5,0.3,1.7,1c0,0.1,0,0.2,0,0.2c0.3,1.8,1.8,3.1,3.6,3.3c1.8,0.2,3.6-0.8,4.3-2.5s0.3-3.7-1.1-4.9
		c-0.7-0.4-0.8-1.3-0.4-2c0-0.1,0.1-0.1,0.2-0.2c1.4-1.9,0.9-4.5-0.9-5.8c-1.1-0.8-2.6-1-3.9-0.6c-1.7,0.6-2.9,2.3-2.8,4.1
		c0.1,0.8-0.4,1.5-1.1,1.6c-0.1,0-0.2,0-0.3,0l-16,1.9c-0.8,0.2-1.5-0.3-1.7-1c0-0.1,0-0.2,0-0.2C164.5,19.2,164.1,18.4,163.4,17.8z
		"/>
	<path class="st5" d="M137.2,58.5c0.1-0.9-0.5-1.8-1.4-2s-1.8,0.5-2,1.4c0,0.3-0.3,0.6-0.6,0.6h-0.1c-0.8-0.1-1.5,0.4-1.8,1.1
		c-0.3,0.7-0.1,1.5,0.5,2s1.4,0.5,2,0.1c0.2-0.2,0.6-0.2,0.8,0.1c0,0,0,0.1,0.1,0.1l4,5.4c0.2,0.2,0.2,0.6,0,0.8c0,0-0.1,0-0.1,0.1
		c-0.6,0.5-0.8,1.3-0.4,2c0.3,0.7,1.1,1.1,1.9,0.9c0.8-0.1,1.4-0.7,1.5-1.4c0-0.3,0.3-0.6,0.6-0.6h0.1c1,0.1,1.8-0.7,1.9-1.6
		c0-0.5-0.2-1-0.5-1.4c-0.6-0.5-1.4-0.5-2-0.1c-0.3,0.2-0.6,0.2-0.8-0.1c0,0,0-0.1-0.1-0.1c-1.3-1.8-2.7-3.6-4-5.4
		c-0.2-0.2-0.2-0.6,0-0.8c0,0,0.1,0,0.1-0.1C137,59.2,137.2,58.9,137.2,58.5z"/>
	<path class="st6" d="M91.4,212.9c-0.6-1.4-2.2-2.1-3.7-1.5c-1.4,0.6-2.1,2.2-1.5,3.6l0,0c0.3,0.4,0.1,1-0.3,1.3
		c-0.1,0-0.1,0.1-0.2,0.1c-1.1,0.6-1.7,1.8-1.5,3s1.2,2.1,2.4,2.2c1.2,0.2,2.4-0.5,2.8-1.6c0.2-0.5,0.8-0.8,1.3-0.6l0,0l10.1,3.7
		c0.5,0.1,0.8,0.6,0.7,1.1c0,0.1,0,0.1,0,0.2c-0.3,1.2,0.1,2.4,1.2,3.1c1.3,0.8,3,0.5,3.9-0.8c0.5-0.8,0.6-1.8,0.2-2.6
		c-0.3-0.4-0.1-1,0.3-1.3c0.1,0,0.1-0.1,0.2-0.1c1.4-0.7,1.9-2.4,1.2-3.7c-0.4-0.8-1.2-1.4-2.1-1.5c-1.2-0.2-2.4,0.5-2.9,1.6
		c-0.2,0.5-0.8,0.8-1.3,0.6l0,0L92.1,216c-0.5-0.1-0.8-0.6-0.7-1.1c0-0.1,0-0.1,0-0.2C91.7,214.1,91.6,213.5,91.4,212.9z"/>
	<path class="st1" d="M172.1,225.2c5.2,0.1,10.1-2.3,13.2-6.5c-1.6,4.9-0.8,10.3,2.3,14.5c0.7,0.8,1.4,1.6,2.2,2.3
		c-1.1-0.2-2.1-0.4-3.2-0.4c-5.2-0.1-10.1,2.3-13.2,6.5c1.6-4.9,0.8-10.3-2.3-14.5c-0.7-0.8-1.4-1.6-2.2-2.3
		C170,225,171.1,225.1,172.1,225.2z"/>
	<path class="st6" d="M32.5,65.2c3.7,0.1,7.2-1.7,9.3-4.6c-1.1,3.5-0.5,7.3,1.6,10.3c0.5,0.6,1,1.1,1.6,1.7
		c-0.8-0.2-1.5-0.3-2.3-0.3c-3.7-0.1-7.2,1.7-9.3,4.6c1.1-3.5,0.5-7.3-1.6-10.3c-0.5-0.6-1-1.1-1.6-1.7C31,65,31.7,65.1,32.5,65.2z"
		/>
	<path class="st7" d="M166.1,103.2c3.7,0.1,7.2-1.7,9.3-4.6c-1.1,3.5-0.5,7.3,1.6,10.3c0.5,0.6,1,1.1,1.6,1.7
		c-0.8-0.1-1.5-0.3-2.3-0.3c-3.7-0.1-7.2,1.7-9.3,4.6c1.1-3.5,0.5-7.3-1.6-10.3c-0.5-0.6-1-1.1-1.6-1.7
		C164.6,103.1,165.3,103.2,166.1,103.2z"/>
	<path class="st1" d="M224,112.1c-0.9,0.4-1.9,0.6-2.9,0.5c-3.3-0.4-5.7-3.3-5.3-6.6c0.3-2.6,2.3-4.8,4.9-5.2c0.2,0,0.4-0.1,0.4-0.3
		c1.2-3.1,4.7-4.6,7.7-3.5c2.1,0.8,3.6,2.7,3.8,5c0.1,1.3-0.2,2.7-1,3.8l-0.2,0.2v0.1l0.2,0.3c2.4,2.9,4.8,5.9,7.1,8.8
		c0.1,0.2,0.3,0.3,0.5,0.2l0,0c3-1.4,6.6,0,7.9,3c1.4,3,0,6.6-3,7.9c-0.6,0.3-1.2,0.4-1.9,0.5c-0.2,0-0.4,0.1-0.4,0.3
		c-1.2,3.1-4.6,4.7-7.7,3.5c-2.1-0.8-3.6-2.7-3.8-5c-0.1-1.4,0.2-2.7,1-3.8c0.1-0.2,0.1-0.3,0-0.4
		C228.9,118.2,226.5,115.2,224,112.1L224,112.1z M230.3,103c0.3-2-1.1-3.8-3.1-4.1c-1.9-0.2-3.7,1.1-4,3.1c0,0.7-0.6,1.2-1.2,1.2
		c-0.1,0-0.2,0-0.2,0c-2-0.1-3.7,1.4-3.8,3.3c-0.1,1.2,0.4,2.3,1.4,3.1c1.2,1,2.9,1,4.2,0.1c0.5-0.4,1.3-0.4,1.7,0.1
		c0,0.1,0.1,0.1,0.1,0.2c2.9,3.6,5.8,7.2,8.7,10.8c0.5,0.5,0.5,1.2,0,1.7l-0.1,0.1c-1.1,1.1-1.5,2.7-0.8,4.1c0.9,1.8,3,2.5,4.8,1.7
		c1.1-0.5,1.8-1.5,2-2.7c0-0.7,0.6-1.2,1.2-1.2c0.1,0,0.2,0,0.2,0c1.6,0.1,3-0.8,3.6-2.3s0.1-3.1-1.1-4.1c-1.2-1-3-1-4.2-0.1
		c-0.5,0.4-1.3,0.4-1.7-0.1c0-0.1-0.1-0.1-0.1-0.2l-8.7-10.8c-0.5-0.5-0.5-1.2,0-1.7c0.1-0.1,0.1-0.1,0.2-0.1
		C229.8,104.5,230.2,103.8,230.3,103L230.3,103z"/>
	<path class="st3" d="M37.9,105.1c0-0.8,0.2-1.6,0.6-2.3c1.2-2.3,4.1-3.2,6.4-1.9c2,1.1,3,3.4,2.3,5.5c-0.1,0.2,0,0.3,0.1,0.4
		c1.9,1.8,2,4.8,0.2,6.7c-1.3,1.4-3.3,1.8-5.1,1.2c-1-0.4-1.9-1.1-2.4-2l-0.1-0.2h-0.1l-0.2,0.1l-8.8,2.3c-0.2,0-0.3,0.2-0.3,0.3
		l0,0c-0.1,2.6-2.3,4.7-4.9,4.6s-4.7-2.3-4.6-4.9c0-0.4,0.1-0.8,0.2-1.2c0.1-0.1,0-0.3-0.1-0.4c-1.9-1.8-2-4.8-0.2-6.7
		c1.3-1.4,3.3-1.8,5.1-1.2c1,0.4,1.9,1.1,2.5,2c0.1,0.1,0.1,0.2,0.3,0.2L37.9,105.1L37.9,105.1z M42.4,112.6c1.3,0.9,3.1,0.5,4-0.9
		c0.8-1.3,0.4-3.1-0.9-3.9c-0.5-0.3-0.7-0.9-0.4-1.3c0,0,0-0.1,0.1-0.1c0.6-1.1,0.4-2.5-0.5-3.4s-2.2-1.1-3.3-0.5s-1.7,1.8-1.5,3
		c0.1,0.5-0.2,1.1-0.7,1.2h-0.1l-10.7,2.8c-0.5,0.2-1.1-0.1-1.3-0.6v-0.1c-0.4-1.2-1.5-2-2.8-1.9c-1.6,0-2.8,1.4-2.8,2.9
		c0,0.9,0.5,1.8,1.3,2.3c0.5,0.2,0.7,0.9,0.4,1.3c0,0,0,0.1-0.1,0.1c-0.7,1.4-0.2,3.1,1.2,3.9c0.8,0.5,1.8,0.5,2.7,0
		c1.1-0.6,1.7-1.8,1.5-3c-0.1-0.5,0.2-1.1,0.7-1.2h0.1l10.7-2.8c0.5-0.2,1.1,0.1,1.3,0.6c0,0,0,0,0,0.1
		C41.5,111.7,41.9,112.3,42.4,112.6z"/>
</g>
<linearGradient id="SVGID_1_" gradientUnits="userSpaceOnUse" x1="132.95" y1="-532.3608" x2="132.95" y2="-339.7392" gradientTransform="matrix(1 0 0 -1 0 -311)">
	<stop  offset="0" style="stop-color:#690ABC"/>
	<stop  offset="0.43" style="stop-color:#084DBC"/>
	<stop  offset="1" style="stop-color:#00C1FC"/>
</linearGradient>
<path class="st8" d="M215.2,157.6c-0.5,1-0.7,1.7-1,2.4c-6,13-16.1,19.9-30.5,20.9c-2.1,0.2-3.7-0.5-4.2-2.8
	c-0.1-0.4-0.7-0.7-1.2-0.9c-7.1-2.5-11.1-8-11.2-15.6c0-10,0-19.9,0-29.9c0-7.5,4.1-13,11.2-15.5c0.6-0.3,1-0.7,1.3-1.3
	c0.6-1.6,1.7-2.5,3.3-2.4c3,0.3,5.9,0.6,8.9,1v-9.8c-1.9-0.6-3.8-1.4-5.6-2.3c-2.6-1.6-3.7-4.3-4.1-7.2
	c-2.9-25.1-20.5-44.2-45.2-49.1c-30.6-6.2-60.9,15.1-65.6,46c-0.1,0.7-0.3,1.6-0.4,2.3c-0.6,6-3.4,9.1-9.6,9.8v10.4
	c2-0.3,3.9-0.6,5.8-0.9c1.1-0.2,2.2-0.3,3.2-0.1c1,0.2,2.4,0.8,2.6,1.6c0.5,1.8,1.8,2.1,3.1,2.6c5.8,2.2,9.8,7.9,9.8,14.1
	c0.1,10.6,0.1,21.1,0,31.7c-0.1,6.7-4.4,12.6-10.8,14.5c-0.8,0.2-1.6,0.8-1.8,1.7c-0.5,1.8-1.9,2.2-3.6,2.2
	c-13.3,0-26-8.9-31.1-21.7c-6.2-15.7,0.1-33.6,14.7-41.9c1-0.5,1.7-1.6,1.6-2.7c0-6.9-0.2-13.7,0.4-20.6
	c1.9-20.3,10.8-36.8,26.4-49.4c14-11.5,30.3-16.6,48.2-15.9c33,1.2,61.5,26.5,67,59c1.5,8.7,1,17.4,1,26.1c-0.2,1.5,0.6,3,2,3.6
	c7,4.1,12.3,10.6,14.8,18.2c0.4,1.2,0.9,1.8,2.3,1.7c2.8-0.1,5.6-0.1,8.3,0c2.5,0,3.6,1.1,3.7,3.7c0.1,2.6,0,5.3,0,8
	c0,2.7-1.1,3.8-3.9,3.9c-0.9,0-1.8,0-2.8,0c-0.7,4.1-1.3,8-2.2,11.8c-5.7,23.9-20,40.8-42.4,50.9c-1.1,0.6-2.1,1.4-2.9,2.3
	c-1.4,1.9-3.6,3.2-6,3.3c-4.4,0.1-8.7,0.1-13,0c-4.3,0-7.8-3.4-7.8-7.8c0-4.3,3.4-7.8,7.8-7.8c4.3-0.1,8.5-0.1,12.8,0
	c2.7,0.1,5.2,1.5,6.6,3.8C192.5,206.2,215.3,176.7,215.2,157.6z M67.6,174.3v-55.1c-9.8,0.2-24.7,10-24.7,27.4
	S57.7,174.1,67.6,174.3z M186,174.3c10.1-0.3,24.8-10.2,24.7-27.7c-0.1-17.3-14.7-27.2-24.7-27.4V174.3z M61.9,96.8
	c2-0.2,2.8-1,3.1-3.1c0.5-2.8,0.7-5.6,1.5-8.4c7.6-30.3,35.1-50,66.3-46.9c23,2.2,39.6,14.2,50.1,34.8c3.1,6.3,5.1,13.1,5.7,20.2
	c0.3,2.5,1.1,3.4,3.1,3.4C191,65.2,163.5,33.6,124.5,35C86.6,36.3,62.4,68,61.9,96.8z M74.1,122.8v48.1c3.5-1.1,5.9-4.3,6-8
	c0.1-10.6,0.1-21.4,0-32C80,127,77.6,123.8,74.1,122.8z M179.6,170.7v-48c-3.5,1.1-6,4.3-6,8c-0.1,10.6-0.1,21.4,0,32
	C173.6,166.5,176,169.7,179.6,170.7z M162.5,215.1c1.9,0.1,3.9,0.1,5.8-0.1c0.7-0.1,1.4-1,2-1.5c-0.6-0.6-1.4-1.5-2-1.5
	c-3.8-0.2-7.6-0.2-11.4,0c-0.7,0-1.4,1-2,1.5c0.6,0.6,1.3,1.4,2,1.5C158.7,215.2,160.6,215.2,162.5,215.1z M217,146.6h6v-2.8h-6
	V146.6z"/>
</svg>
