<?xml version="1.0" encoding="utf-8"?>
<!-- Generator: Adobe Illustrator 26.0.3, SVG Export Plug-In . SVG Version: 6.00 Build 0)  -->
<svg version="1.1" id="Layer_1" xmlns="http://www.w3.org/2000/svg" xmlns:xlink="http://www.w3.org/1999/xlink" x="0px" y="0px"
	 viewBox="0 0 265.9 250.1" style="enable-background:new 0 0 265.9 250.1;" xml:space="preserve">
<style type="text/css">
	.st0{display:none;opacity:0.5;}
	.st1{display:inline;fill:#CC156D;}
	.st2{display:inline;fill:#0DD6AF;}
	.st3{display:inline;opacity:0.5;enable-background:new    ;}
	.st4{display:inline;opacity:0.2;enable-background:new    ;}
	.st5{display:inline;fill:none;stroke:#CC156D;stroke-width:2;stroke-miterlimit:10;}
	.st6{display:inline;fill:none;stroke:#CC156D;stroke-miterlimit:10;}
	.st7{display:inline;fill:none;stroke:#000000;stroke-miterlimit:10;}
	.st8{display:inline;opacity:0.5;fill:none;stroke:#000000;stroke-miterlimit:10;enable-background:new    ;}
	.st9{fill:#FFFFFF;}
</style>
<g class="st0">
	<path class="st1" d="M24.7,31.5c4.5-2.3,7.7-6.6,8.5-11.6c0.8,5,4,9.3,8.5,11.6c0.9,0.4,3,1,3,1c-1,0.3-2,0.6-3,1
		C37.2,35.7,34,40,33.2,45c-0.8-5-4-9.3-8.5-11.6c-1-0.4-2-0.7-3-1C22.7,32.2,23.7,31.9,24.7,31.5z"/>
	<path class="st1" d="M140.6,172.9c4.5-2.3,7.7-6.6,8.5-11.6c0.8,5,4,9.3,8.5,11.6c1,0.4,2,0.7,3,1c-1,0.3-2,0.6-3,1
		c-4.5,2.3-7.7,6.6-8.5,11.6c-0.8-5-4-9.3-8.5-11.6c-0.9-0.4-3-1-3-1C138.6,173.6,139.6,173.3,140.6,172.9z"/>
	<circle class="st2" cx="225.4" cy="41.1" r="6"/>
	<circle class="st3" cx="31.7" cy="167.7" r="4"/>
	<circle class="st3" cx="216.8" cy="207.7" r="2.5"/>
	<circle class="st4" cx="78.7" cy="26.2" r="8.9"/>
	<circle class="st4" cx="105.6" cy="161.5" r="6.3"/>
	<path class="st2" d="M25.4,213.9c7.1-3.5,12-10.2,13.3-18c1.3,7.8,6.2,14.5,13.3,18c1.5,0.6,3.1,1.2,4.7,1.6
		c-1.6,0.5-3.1,1-4.7,1.6c-7.1,3.5-12,10.2-13.3,18c-1.3-7.8-6.2-14.5-13.3-18c-1.5-0.6-3.1-1.2-4.7-1.6
		C22.3,215.1,23.9,214.6,25.4,213.9z"/>
	<path class="st2" d="M96.7,95.4c4.7-2.3,8-6.8,8.8-12c0.8,5.2,4.1,9.7,8.8,12c0.9,0.4,3.1,1.1,3.1,1.1c-1.1,0.3-2.1,0.7-3.1,1.1
		c-4.7,2.3-8,6.8-8.8,12c-0.8-5.2-4.1-9.7-8.8-12c-1-0.4-2-0.8-3.1-1.1C93.6,96.4,95.8,95.8,96.7,95.4z"/>
	<path class="st5" d="M163.4,17.8c-1.8-1.5-4.5-1.3-6,0.5s-1.2,4.4,0.5,5.9c0.7,0.4,0.9,1.3,0.4,1.9c-0.1,0.1-0.1,0.2-0.2,0.2
		c-1.1,1.5-1.1,3.5,0.1,5c1.1,1.5,3.1,2,4.8,1.4s2.8-2.3,2.7-4.1c-0.1-0.8,0.4-1.5,1.2-1.6c0.1,0,0.2,0,0.2,0l16-1.9
		c0.7-0.2,1.5,0.3,1.7,1c0,0.1,0,0.2,0,0.2c0.3,1.8,1.8,3.1,3.6,3.3c1.8,0.2,3.6-0.8,4.3-2.5s0.3-3.7-1.1-4.9
		c-0.7-0.4-0.8-1.3-0.4-2c0-0.1,0.1-0.1,0.2-0.2c1.4-1.9,0.9-4.5-0.9-5.8c-1.1-0.8-2.6-1-3.9-0.6c-1.7,0.6-2.9,2.3-2.8,4.1
		c0.1,0.8-0.4,1.5-1.1,1.6c-0.1,0-0.2,0-0.3,0l-16,1.9c-0.8,0.2-1.5-0.3-1.7-1c0-0.1,0-0.2,0-0.2C164.5,19.2,164.1,18.4,163.4,17.8z
		"/>
	<path class="st6" d="M137.2,58.5c0.1-0.9-0.5-1.8-1.4-2s-1.8,0.5-2,1.4c0,0.3-0.3,0.6-0.6,0.6h-0.1c-0.8-0.1-1.5,0.4-1.8,1.1
		c-0.3,0.7-0.1,1.5,0.5,2s1.4,0.5,2,0.1c0.2-0.2,0.6-0.2,0.8,0.1c0,0,0,0.1,0.1,0.1l4,5.4c0.2,0.2,0.2,0.6,0,0.8c0,0-0.1,0-0.1,0.1
		c-0.6,0.5-0.8,1.3-0.4,2c0.3,0.7,1.1,1.1,1.9,0.9c0.8-0.1,1.4-0.7,1.5-1.4c0-0.3,0.3-0.6,0.6-0.6h0.1c1,0.1,1.8-0.7,1.9-1.6
		c0-0.5-0.2-1-0.5-1.4c-0.6-0.5-1.4-0.5-2-0.1c-0.3,0.2-0.6,0.2-0.8-0.1c0,0,0-0.1-0.1-0.1c-1.3-1.8-2.7-3.6-4-5.4
		c-0.2-0.2-0.2-0.6,0-0.8c0,0,0.1,0,0.1-0.1C137,59.2,137.2,58.9,137.2,58.5z"/>
	<path class="st7" d="M91.4,212.9c-0.6-1.4-2.2-2.1-3.7-1.5c-1.4,0.6-2.1,2.2-1.5,3.6l0,0c0.3,0.4,0.1,1-0.3,1.3
		c-0.1,0-0.1,0.1-0.2,0.1c-1.1,0.6-1.7,1.8-1.5,3s1.2,2.1,2.4,2.2c1.2,0.2,2.4-0.5,2.8-1.6c0.2-0.5,0.8-0.8,1.3-0.6l0,0l10.1,3.7
		c0.5,0.1,0.8,0.6,0.7,1.1c0,0.1,0,0.1,0,0.2c-0.3,1.2,0.1,2.4,1.2,3.1c1.3,0.8,3,0.5,3.9-0.8c0.5-0.8,0.6-1.8,0.2-2.6
		c-0.3-0.4-0.1-1,0.3-1.3c0.1,0,0.1-0.1,0.2-0.1c1.4-0.7,1.9-2.4,1.2-3.7c-0.4-0.8-1.2-1.4-2.1-1.5c-1.2-0.2-2.4,0.5-2.9,1.6
		c-0.2,0.5-0.8,0.8-1.3,0.6l0,0L92.1,216c-0.5-0.1-0.8-0.6-0.7-1.1c0-0.1,0-0.1,0-0.2C91.7,214.1,91.6,213.5,91.4,212.9z"/>
	<path class="st2" d="M172.1,225.2c5.2,0.1,10.1-2.3,13.2-6.5c-1.6,4.9-0.8,10.3,2.3,14.5c0.7,0.8,1.4,1.6,2.2,2.3
		c-1.1-0.2-2.1-0.4-3.2-0.4c-5.2-0.1-10.1,2.3-13.2,6.5c1.6-4.9,0.8-10.3-2.3-14.5c-0.7-0.8-1.4-1.6-2.2-2.3
		C170,225,171.1,225.1,172.1,225.2z"/>
	<path class="st7" d="M32.5,65.2c3.7,0.1,7.2-1.7,9.3-4.6c-1.1,3.5-0.5,7.3,1.6,10.3c0.5,0.6,1,1.1,1.6,1.7
		c-0.8-0.2-1.5-0.3-2.3-0.3c-3.7-0.1-7.2,1.7-9.3,4.6c1.1-3.5,0.5-7.3-1.6-10.3c-0.5-0.6-1-1.1-1.6-1.7C31,65,31.7,65.1,32.5,65.2z"
		/>
	<path class="st8" d="M166.1,103.2c3.7,0.1,7.2-1.7,9.3-4.6c-1.1,3.5-0.5,7.3,1.6,10.3c0.5,0.6,1,1.1,1.6,1.7
		c-0.8-0.1-1.5-0.3-2.3-0.3c-3.7-0.1-7.2,1.7-9.3,4.6c1.1-3.5,0.5-7.3-1.6-10.3c-0.5-0.6-1-1.1-1.6-1.7
		C164.6,103.1,165.3,103.2,166.1,103.2z"/>
	<path class="st2" d="M224,112.1c-0.9,0.4-1.9,0.6-2.9,0.5c-3.3-0.4-5.7-3.3-5.3-6.6c0.3-2.6,2.3-4.8,4.9-5.2c0.2,0,0.4-0.1,0.4-0.3
		c1.2-3.1,4.7-4.6,7.7-3.5c2.1,0.8,3.6,2.7,3.8,5c0.1,1.3-0.2,2.7-1,3.8l-0.2,0.2v0.1l0.2,0.3c2.4,2.9,4.8,5.9,7.1,8.8
		c0.1,0.2,0.3,0.3,0.5,0.2l0,0c3-1.4,6.6,0,7.9,3c1.4,3,0,6.6-3,7.9c-0.6,0.3-1.2,0.4-1.9,0.5c-0.2,0-0.4,0.1-0.4,0.3
		c-1.2,3.1-4.6,4.7-7.7,3.5c-2.1-0.8-3.6-2.7-3.8-5c-0.1-1.4,0.2-2.7,1-3.8c0.1-0.2,0.1-0.3,0-0.4
		C228.9,118.2,226.5,115.2,224,112.1L224,112.1z M230.3,103c0.3-2-1.1-3.8-3.1-4.1c-1.9-0.2-3.7,1.1-4,3.1c0,0.7-0.6,1.2-1.2,1.2
		c-0.1,0-0.2,0-0.2,0c-2-0.1-3.7,1.4-3.8,3.3c-0.1,1.2,0.4,2.3,1.4,3.1c1.2,1,2.9,1,4.2,0.1c0.5-0.4,1.3-0.4,1.7,0.1
		c0,0.1,0.1,0.1,0.1,0.2c2.9,3.6,5.8,7.2,8.7,10.8c0.5,0.5,0.5,1.2,0,1.7l-0.1,0.1c-1.1,1.1-1.5,2.7-0.8,4.1c0.9,1.8,3,2.5,4.8,1.7
		c1.1-0.5,1.8-1.5,2-2.7c0-0.7,0.6-1.2,1.2-1.2c0.1,0,0.2,0,0.2,0c1.6,0.1,3-0.8,3.6-2.3s0.1-3.1-1.1-4.1c-1.2-1-3-1-4.2-0.1
		c-0.5,0.4-1.3,0.4-1.7-0.1c0-0.1-0.1-0.1-0.1-0.2l-8.7-10.8c-0.5-0.5-0.5-1.2,0-1.7c0.1-0.1,0.1-0.1,0.2-0.1
		C229.8,104.5,230.2,103.8,230.3,103L230.3,103z"/>
	<path class="st4" d="M37.9,105.1c0-0.8,0.2-1.6,0.6-2.3c1.2-2.3,4.1-3.2,6.4-1.9c2,1.1,3,3.4,2.3,5.5c-0.1,0.2,0,0.3,0.1,0.4
		c1.9,1.8,2,4.8,0.2,6.7c-1.3,1.4-3.3,1.8-5.1,1.2c-1-0.4-1.9-1.1-2.4-2l-0.1-0.2h-0.1l-0.2,0.1l-8.8,2.3c-0.2,0-0.3,0.2-0.3,0.3
		l0,0c-0.1,2.6-2.3,4.7-4.9,4.6s-4.7-2.3-4.6-4.9c0-0.4,0.1-0.8,0.2-1.2c0.1-0.1,0-0.3-0.1-0.4c-1.9-1.8-2-4.8-0.2-6.7
		c1.3-1.4,3.3-1.8,5.1-1.2c1,0.4,1.9,1.1,2.5,2c0.1,0.1,0.1,0.2,0.3,0.2L37.9,105.1L37.9,105.1z M42.4,112.6c1.3,0.9,3.1,0.5,4-0.9
		c0.8-1.3,0.4-3.1-0.9-3.9c-0.5-0.3-0.7-0.9-0.4-1.3c0,0,0-0.1,0.1-0.1c0.6-1.1,0.4-2.5-0.5-3.4s-2.2-1.1-3.3-0.5s-1.7,1.8-1.5,3
		c0.1,0.5-0.2,1.1-0.7,1.2h-0.1l-10.7,2.8c-0.5,0.2-1.1-0.1-1.3-0.6v-0.1c-0.4-1.2-1.5-2-2.8-1.9c-1.6,0-2.8,1.4-2.8,2.9
		c0,0.9,0.5,1.8,1.3,2.3c0.5,0.2,0.7,0.9,0.4,1.3c0,0,0,0.1-0.1,0.1c-0.7,1.4-0.2,3.1,1.2,3.9c0.8,0.5,1.8,0.5,2.7,0
		c1.1-0.6,1.7-1.8,1.5-3c-0.1-0.5,0.2-1.1,0.7-1.2h0.1l10.7-2.8c0.5-0.2,1.1,0.1,1.3,0.6c0,0,0,0,0,0.1
		C41.5,111.7,41.9,112.3,42.4,112.6z"/>
</g>
<path class="st9" d="M221.7,160.2c-0.5,1.1-0.8,1.8-1.1,2.6c-6.5,14-17.4,21.5-32.9,22.6c-2.3,0.2-4-0.5-4.5-3
	c-0.1-0.4-0.8-0.8-1.3-1c-7.7-2.7-12-8.6-12.1-16.8c0-10.8,0-21.5,0-32.3c0-8.1,4.4-14,12.1-16.7c0.6-0.3,1.1-0.8,1.4-1.4
	c0.7-1.7,1.8-2.7,3.6-2.6c3.2,0.3,6.4,0.7,9.6,1.1v-10.6c-2.1-0.7-4.1-1.5-6-2.5c-2.8-1.7-4-4.6-4.4-7.8
	c-3.1-27.1-22.1-47.7-48.8-53c-33.1-6.7-65.8,16.3-70.8,49.7c-0.1,0.8-0.3,1.7-0.4,2.5c-0.6,6.5-3.7,9.8-10.4,10.6v11.2
	c2.2-0.3,4.2-0.7,6.3-1c1.2-0.2,2.4-0.3,3.5-0.1c1.1,0.2,2.6,0.9,2.8,1.7c0.5,1.9,1.9,2.3,3.4,2.8c6.3,2.4,10.6,8.5,10.6,15.2
	c0.1,11.4,0.1,22.8,0,34.2c-0.1,7.2-4.8,13.6-11.7,15.7c-0.9,0.2-1.7,0.9-1.9,1.8c-0.5,1.9-2.1,2.4-3.9,2.4
	c-14.4,0-28.1-9.6-33.6-23.4c-6.7-17,0.1-36.3,15.9-45.3c1.1-0.5,1.8-1.7,1.7-2.9c0-7.4-0.2-14.8,0.4-22.2
	C51.3,69.8,60.9,52,77.7,38.3c15.1-12.4,32.7-17.9,52.1-17.2c35.6,1.3,66.4,28.6,72.4,63.7c1.6,9.4,1.1,18.8,1.1,28.2
	c-0.2,1.6,0.7,3.2,2.2,3.9c7.6,4.4,13.3,11.4,16,19.7c0.4,1.3,1,1.9,2.5,1.8c3-0.1,6-0.1,9,0c2.7,0,3.9,1.2,4,4s0,5.7,0,8.6
	c0,2.9-1.2,4.1-4.2,4.2c-1,0-1.9,0-3,0c-0.8,4.4-1.4,8.6-2.4,12.7c-6.2,25.8-21.6,44.1-45.8,55c-1.2,0.6-2.3,1.5-3.1,2.5
	c-1.5,2.1-3.9,3.5-6.5,3.6c-4.7,0.1-9.4,0.1-14,0c-4.6,0-8.4-3.7-8.4-8.4c0-4.6,3.7-8.4,8.4-8.4c4.6-0.1,9.2-0.1,13.8,0
	c2.9,0.1,5.6,1.6,7.1,4.1C197.2,212.7,221.8,180.8,221.7,160.2z M62.3,178.2v-59.5c-10.6,0.2-26.7,10.8-26.7,29.6
	S51.6,178,62.3,178.2z M190.1,178.2c10.9-0.3,26.8-11,26.7-29.9c-0.1-18.7-15.9-29.4-26.7-29.6V178.2z M56.1,94.6
	c2.2-0.2,3-1.1,3.4-3.4c0.5-3,0.8-6.1,1.6-9.1c8.2-32.7,37.9-54,71.6-50.6c24.8,2.4,42.8,15.3,54.1,37.6c3.4,6.8,5.5,14.2,6.2,21.8
	c0.3,2.7,1.2,3.7,3.4,3.7c-0.9-34.2-30.6-68.3-72.7-66.8C82.8,29.2,56.6,63.4,56.1,94.6z M69.3,122.6v51.9c3.8-1.2,6.4-4.6,6.5-8.6
	c0.1-11.5,0.1-23.1,0-34.6C75.7,127.2,73.1,123.7,69.3,122.6z M183.2,174.4v-51.8c-3.8,1.2-6.5,4.6-6.5,8.6
	c-0.1,11.5-0.1,23.1,0,34.6C176.7,169.8,179.3,173.3,183.2,174.4z M164.7,222.3c2.1,0.1,4.2,0.1,6.3-0.1c0.8-0.1,1.5-1.1,2.2-1.6
	c-0.7-0.6-1.5-1.6-2.2-1.6c-4.1-0.2-8.2-0.2-12.3,0c-0.8,0-1.5,1.1-2.2,1.6c0.7,0.6,1.4,1.5,2.2,1.6
	C160.7,222.4,162.7,222.4,164.7,222.3z M223.6,148.3h6.5v-3h-6.5V148.3z"/>
</svg>
