<svg id="Layer_1" data-name="Layer 1" xmlns="http://www.w3.org/2000/svg" xmlns:xlink="http://www.w3.org/1999/xlink" viewBox="0 0 115 115"><defs><style>.cls-1{fill:url(#linear-gradient);}.cls-2,.cls-5{fill:#633001;}.cls-2,.cls-4{fill-rule:evenodd;}.cls-3{fill:#fedc90;}.cls-4{fill:#d1884f;}</style><linearGradient id="linear-gradient" x1="1.82" y1="57.5" x2="101.28" y2="57.5" gradientUnits="userSpaceOnUse"><stop offset="0" stop-color="#eef3ff"/><stop offset="0.43" stop-color="#eef3ff"/><stop offset="1" stop-color="#fff"/></linearGradient></defs><g id="BNB"><circle class="cls-1" cx="51.55" cy="57.5" r="49.73"/><path class="cls-2" d="M49,34.57a10,10,0,1,1,19.82-1.91V45.07c1.43,0,2.86-.23,4.3-.23a23.93,23.93,0,0,1,4.05.23V32.66a10.09,10.09,0,0,1,10-10,10.32,10.32,0,0,1,10,11.94L94.55,49.13C103.87,53.19,111,60.36,111,69.19v5.49c0,7.4-4.78,13.61-11.7,17.67-6.92,4.3-16,6.69-26.26,6.69S53.72,96.65,46.8,92.35c-6.69-4.06-11.46-10.27-11.46-17.67V69.19c0-8.83,6.92-16,16.24-20.06ZM91,51l3.11-17.19a7.06,7.06,0,0,0-6.93-8.35,6.92,6.92,0,0,0-6.92,6.92V48.18a13.6,13.6,0,0,0-3.11-.24c-1.43,0-2.62-.24-4.05-.24a25.79,25.79,0,0,0-4.3.24c-1,0-2.15.24-3.11.24V32.66a6.89,6.89,0,1,0-13.61,1.43l3.11,17.19c-10,3.82-16.72,10.51-16.72,18.15v5.49c0,11.7,15.52,21.25,34.63,21.25s34.62-9.55,34.62-21.25V69.43C107.93,61.55,101.24,54.86,91,51Z"/><path class="cls-3" d="M107.93,74.68c0,11.7-15.52,21.25-34.63,21.25S38.68,86.38,38.68,74.68V69.19h69.48v5.49Z"/><path class="cls-4" d="M52.05,34.09a6.89,6.89,0,1,1,13.61-1.43V48.42a72.08,72.08,0,0,1,7.41-.48c2.38,0,4.77.24,7.16.48V32.66a6.93,6.93,0,0,1,6.92-6.93,7.19,7.19,0,0,1,6.93,8.36L91,51.28c10,3.82,17,10.51,17,18.15,0,11.7-15.52,21.25-34.63,21.25S38.68,81.13,38.68,69.43c0-7.64,6.69-14.33,16.72-18.15Z"/><path class="cls-5" d="M63.51,67.76c0,3.1-1.67,5.73-3.82,5.73s-3.82-2.63-3.82-5.73S57.55,62,59.69,62,63.51,64.65,63.51,67.76Z"/><path class="cls-5" d="M90,67.76c0,3.1-1.67,5.73-3.82,5.73s-3.82-2.63-3.82-5.73S84.05,62,86.2,62,90,64.65,90,67.76Z"/></g></svg>