<?xml version="1.0" encoding="utf-8"?>
<!-- Generator: Adobe Illustrator 26.0.3, SVG Export Plug-In . SVG Version: 6.00 Build 0)  -->
<svg version="1.1" id="Layer_1" xmlns="http://www.w3.org/2000/svg" xmlns:xlink="http://www.w3.org/1999/xlink" x="0px" y="0px"
	 viewBox="0 0 265.9 250.1" style="enable-background:new 0 0 265.9 250.1;" xml:space="preserve">
<style type="text/css">
	.st0{display:none;opacity:0.5;}
	.st1{display:inline;fill:#CC156D;}
	.st2{display:inline;fill:#0DD6AF;}
	.st3{display:inline;opacity:0.5;enable-background:new    ;}
	.st4{display:inline;opacity:0.2;enable-background:new    ;}
	.st5{display:inline;fill:none;stroke:#CC156D;stroke-width:2;stroke-miterlimit:10;}
	.st6{display:inline;fill:none;stroke:#CC156D;stroke-miterlimit:10;}
	.st7{display:inline;fill:none;stroke:#000000;stroke-miterlimit:10;}
	.st8{display:inline;opacity:0.5;fill:none;stroke:#000000;stroke-miterlimit:10;enable-background:new    ;}
	.st9{fill:#FFFFFF;}
</style>
<g class="st0">
	<path class="st1" d="M14.7,31.5c4.5-2.3,7.7-6.6,8.5-11.6c0.8,5,4,9.3,8.5,11.6c0.9,0.4,3,1,3,1c-1,0.3-2,0.6-3,1
		C27.2,35.7,24,40,23.2,45c-0.8-5-4-9.3-8.5-11.6c-1-0.4-2-0.7-3-1C12.7,32.2,13.7,31.9,14.7,31.5z"/>
	<circle class="st2" cx="235.4" cy="51.1" r="6"/>
	<circle class="st3" cx="21.7" cy="167.7" r="4"/>
	<circle class="st3" cx="216.8" cy="207.7" r="2.5"/>
	<circle class="st4" cx="68.7" cy="30.2" r="8.9"/>
	<path class="st2" d="M14.4,222.9c7.1-3.5,12-10.2,13.3-18c1.3,7.8,6.2,14.5,13.3,18c1.5,0.6,3.1,1.2,4.7,1.6
		c-1.6,0.5-3.1,1-4.7,1.6c-7.1,3.5-12,10.2-13.3,18c-1.3-7.8-6.2-14.5-13.3-18c-1.5-0.6-3.1-1.2-4.7-1.6
		C11.3,224.1,12.9,223.6,14.4,222.9z"/>
	<path class="st5" d="M212.4,11.8c-1.8-1.5-4.5-1.3-6,0.5s-1.2,4.4,0.5,5.9c0.7,0.4,0.9,1.3,0.4,1.9c-0.1,0.1-0.1,0.2-0.2,0.2
		c-1.1,1.5-1.1,3.5,0.1,5c1.1,1.5,3.1,2,4.8,1.4s2.8-2.3,2.7-4.1c-0.1-0.8,0.4-1.5,1.2-1.6c0.1,0,0.2,0,0.2,0l16-1.9
		c0.7-0.2,1.5,0.3,1.7,1c0,0.1,0,0.2,0,0.2c0.3,1.8,1.8,3.1,3.6,3.3c1.8,0.2,3.6-0.8,4.3-2.5s0.3-3.7-1.1-4.9
		c-0.7-0.4-0.8-1.3-0.4-2c0-0.1,0.1-0.1,0.2-0.2c1.4-1.9,0.9-4.5-0.9-5.8c-1.1-0.8-2.6-1-3.9-0.6c-1.7,0.6-2.9,2.3-2.8,4.1
		c0.1,0.8-0.4,1.5-1.1,1.6c-0.1,0-0.2,0-0.3,0l-16,1.9c-0.8,0.2-1.5-0.3-1.7-1c0-0.1,0-0.2,0-0.2C213.5,13.2,213.1,12.4,212.4,11.8z
		"/>
	<path class="st6" d="M36.9,65.3c0.3-1.5-0.7-3-2.3-3.3c-1.5-0.2-2.9,0.8-3.2,2.3c-0.1,0.5-0.6,0.9-1.1,0.9c0,0,0,0-0.1,0
		c-1.5-0.2-2.9,1-3.1,2.5c-0.1,0.9,0.3,1.8,1,2.4c0.9,0.8,2.3,0.9,3.3,0.2c0.4-0.3,1-0.3,1.3,0.1l0.1,0.1l6.5,8.6
		c0.4,0.4,0.4,1,0,1.3l-0.1,0.1c-0.9,0.8-1.2,2.1-0.7,3.2c0.6,1.4,2.3,2.1,3.7,1.4c0.9-0.4,1.5-1.1,1.6-2.1c0-0.5,0.4-0.9,1-0.9
		c0.1,0,0.2,0,0.2,0c1.5,0.2,2.9-1,3.1-2.5c0.1-0.9-0.3-1.8-1-2.4c-0.9-0.8-2.3-0.9-3.3-0.2c-0.4,0.3-1,0.3-1.3-0.1l-0.1-0.1
		l-6.5-8.6c-0.4-0.4-0.4-0.9,0-1.3l0.1-0.1C36.5,66.5,36.8,66,36.9,65.3z"/>
	<path class="st7" d="M98.4,224.9c-0.6-1.4-2.2-2.1-3.7-1.5c-1.4,0.6-2.1,2.2-1.5,3.6c0.3,0.4,0.1,1-0.3,1.3c-0.1,0-0.1,0.1-0.2,0.1
		c-1.1,0.6-1.7,1.8-1.5,3s1.2,2.1,2.4,2.2c1.2,0.2,2.4-0.5,2.8-1.6c0.2-0.5,0.8-0.8,1.3-0.6l0,0l10.1,3.7c0.5,0.1,0.8,0.6,0.7,1.1
		c0,0.1,0,0.1,0,0.2c-0.3,1.2,0.1,2.4,1.2,3.1c1.3,0.8,3,0.5,3.9-0.8c0.5-0.8,0.6-1.8,0.2-2.6c-0.3-0.4-0.1-1,0.3-1.3
		c0.1,0,0.1-0.1,0.2-0.1c1.4-0.7,1.9-2.4,1.2-3.7c-0.4-0.8-1.2-1.4-2.1-1.5c-1.2-0.2-2.4,0.5-2.9,1.6c-0.2,0.5-0.8,0.8-1.3,0.6l0,0
		L99.1,228c-0.5-0.1-0.8-0.6-0.7-1.1c0-0.1,0-0.1,0-0.2C98.7,226.1,98.6,225.5,98.4,224.9z"/>
	<path class="st2" d="M182.1,224.2c5.2,0.1,10.1-2.3,13.2-6.5c-1.6,4.9-0.8,10.3,2.3,14.5c0.7,0.8,1.4,1.6,2.2,2.3
		c-1.1-0.2-2.1-0.4-3.2-0.4c-5.2-0.1-10.1,2.3-13.2,6.5c1.6-4.9,0.8-10.3-2.3-14.5c-0.7-0.8-1.4-1.6-2.2-2.3
		C180,224,181.1,224.1,182.1,224.2z"/>
	<path class="st7" d="M109.5,15.2c3.7,0.1,7.2-1.7,9.3-4.6c-1.1,3.5-0.5,7.3,1.6,10.3c0.5,0.6,1,1.1,1.6,1.7
		c-0.8-0.2-1.5-0.3-2.3-0.3c-3.7-0.1-7.2,1.7-9.3,4.6c1.1-3.5,0.5-7.3-1.6-10.3c-0.5-0.6-1-1.1-1.6-1.7
		C108,15,108.7,15.1,109.5,15.2z"/>
	<path class="st8" d="M79.1,112.2c3.7,0.1,7.2-1.7,9.3-4.6c-1.1,3.5-0.5,7.3,1.6,10.3c0.5,0.6,1,1.1,1.6,1.7
		c-0.8-0.1-1.5-0.3-2.3-0.3c-3.7-0.1-7.2,1.7-9.4,4.6c1.1-3.5,0.5-7.3-1.6-10.3c-0.5-0.6-1-1.1-1.6-1.7
		C77.6,112.1,78.3,112.2,79.1,112.2z"/>
	<path class="st2" d="M234,122.1c-0.9,0.4-1.9,0.6-2.9,0.5c-3.3-0.4-5.7-3.3-5.3-6.6c0.3-2.6,2.3-4.8,4.9-5.2c0.2,0,0.4-0.1,0.4-0.3
		c1.2-3.1,4.7-4.6,7.7-3.5c2.1,0.8,3.6,2.7,3.8,5c0.1,1.3-0.2,2.7-1,3.8l-0.2,0.2v0.1l0.2,0.3c2.4,2.9,4.8,5.9,7.1,8.8
		c0.1,0.2,0.3,0.3,0.5,0.2l0,0c3-1.4,6.6,0,7.9,3c1.4,3,0,6.6-3,7.9c-0.6,0.3-1.2,0.4-1.9,0.5c-0.2,0-0.4,0.1-0.4,0.3
		c-1.2,3.1-4.6,4.7-7.7,3.5c-2.1-0.8-3.6-2.7-3.8-5c-0.1-1.4,0.2-2.7,1-3.8c0.1-0.2,0.1-0.3,0-0.4
		C238.9,128.2,236.5,125.2,234,122.1L234,122.1z M240.3,113c0.3-2-1.1-3.8-3.1-4.1c-1.9-0.2-3.7,1.1-4,3.1c0,0.7-0.6,1.2-1.2,1.2
		c-0.1,0-0.2,0-0.2,0c-2-0.1-3.7,1.4-3.8,3.3c-0.1,1.2,0.4,2.3,1.4,3.1c1.2,1,2.9,1,4.2,0.1c0.5-0.4,1.3-0.4,1.7,0.1
		c0,0.1,0.1,0.1,0.1,0.2c2.9,3.6,5.8,7.2,8.7,10.8c0.5,0.5,0.5,1.2,0,1.7l-0.1,0.1c-1.1,1.1-1.5,2.7-0.8,4.1c0.9,1.8,3,2.5,4.8,1.7
		c1.1-0.5,1.8-1.5,2-2.7c0-0.7,0.6-1.2,1.2-1.2c0.1,0,0.2,0,0.2,0c1.6,0.1,3-0.8,3.6-2.3s0.1-3.1-1.1-4.1c-1.2-1-3-1-4.2-0.1
		c-0.5,0.4-1.3,0.4-1.7-0.1c0-0.1-0.1-0.1-0.1-0.2l-8.7-10.8c-0.5-0.5-0.5-1.2,0-1.7c0.1-0.1,0.1-0.1,0.2-0.1
		C239.8,114.5,240.2,113.8,240.3,113L240.3,113z"/>
	<path class="st4" d="M47.9,115.1c0-0.8,0.2-1.6,0.6-2.3c1.2-2.3,4.1-3.2,6.4-1.9c2,1.1,3,3.4,2.3,5.5c-0.1,0.2,0,0.3,0.1,0.4
		c1.9,1.8,2,4.8,0.2,6.7c-1.3,1.4-3.3,1.8-5.1,1.2c-1-0.4-1.9-1.1-2.4-2l-0.1-0.2h-0.1l-0.2,0.1l-8.8,2.3c-0.2,0-0.3,0.2-0.3,0.3
		l0,0c-0.1,2.6-2.3,4.7-4.9,4.6c-2.6-0.1-4.7-2.3-4.6-4.9c0-0.4,0.1-0.8,0.2-1.2c0.1-0.1,0-0.3-0.1-0.4c-1.9-1.8-2-4.8-0.2-6.7
		c1.3-1.4,3.3-1.8,5.1-1.2c1,0.4,1.9,1.1,2.5,2c0.1,0.1,0.2,0.2,0.3,0.2L47.9,115.1L47.9,115.1z M52.4,122.6c1.3,0.9,3.1,0.5,4-0.9
		c0.8-1.3,0.4-3.1-0.9-3.9c-0.5-0.3-0.7-0.9-0.4-1.3c0,0,0-0.1,0.1-0.1c0.6-1.1,0.4-2.5-0.5-3.4s-2.2-1.1-3.3-0.5s-1.7,1.8-1.5,3
		c0.1,0.5-0.2,1.1-0.7,1.2h-0.1l-10.7,2.8c-0.5,0.2-1.1-0.1-1.3-0.6v-0.1c-0.4-1.2-1.5-2-2.8-1.9c-1.6,0-2.8,1.4-2.8,2.9
		c0,0.9,0.5,1.8,1.3,2.3c0.5,0.2,0.7,0.9,0.4,1.3c0,0,0,0.1-0.1,0.1c-0.7,1.4-0.2,3.1,1.2,3.9c0.8,0.5,1.8,0.5,2.7,0
		c1.1-0.6,1.7-1.8,1.5-3c-0.1-0.5,0.2-1.1,0.7-1.2h0.1l10.7-2.8c0.5-0.2,1.1,0.1,1.3,0.6c0,0,0,0,0,0.1
		C51.5,121.7,51.9,122.3,52.4,122.6z"/>
</g>
<path class="st9" d="M131.8,25.2h101v196.9c-0.9,1.8-2.7,2.8-4.7,2.8c-38.9-0.1-77.7-0.1-116.6,0c-4.9,0.1-9.7-1.7-13.4-5l-4.3-3.7
	c-0.1,0.2-0.3,0.4-0.4,0.6c-2.2,5.7-6.4,8.2-12.4,8.1c-11.7-0.1-23.4,0-35.1,0c-7.9,0-12.8-4.8-12.8-12.7c0-20.5,0-41.1,0-61.6
	c0-7.8,4.9-12.6,12.6-12.6c11.2,0,22.4,0.1,33.5,0c5-0.1,9.4,0.7,12.6,5.1c5.1-5.1,9.9-10,14.9-14.9c1.2-1,1.6-2.6,1.1-4
	c-6.1-22.7-12.2-45.3-18.3-68c-1-3.6,0-5.2,3.6-6.2c8-2.1,15.9-4.3,23.9-6.4l12-3.2c0-3.4,0.1-6.6,0-9.7
	C128.9,28.1,129.7,26.4,131.8,25.2z M195.5,54.2h-29.2c-1.8,6.5-5.6,11.1-12.1,13.3c-1.7,0.6-2,1.3-2,2.9c0.1,23.2,0.1,46.4,0,69.6
	v2.1H173c-11.6-6.2-13.5-19.4-7.1-28.1c6.1-8.3,17.8-10,26-3.9c0.4,0.3,0.8,0.6,1.2,0.9c4,3.4,6.4,8.4,6.4,13.7
	c0.1,7.8-3.8,13.5-10.5,17.3c14-2.4,21.5,9,17.7,18.8l2.8,0.2v-42.2c0-3.9,1.2-5.8,3.9-5.8s3.9,1.8,3.9,5.9c0,15.1,0,30.3,0,45.4
	c0,1.1,0.3,2.3,0.9,3.3c3.6,6.4,1.4,14.5-5,18.1c-0.4,0.2-0.8,0.4-1.2,0.6l-1.7,0.8c2,4.8,1.8,9.2-1.1,13.3s-7,5.8-12,5.8
	c1.4,3.4,1.5,7.3,0.1,10.7h27.5V33.1H137v109h7.5V66.8c0-0.7,0-1.4,0-2.1c-0.1-2.1,1.5-3.9,3.7-4c0.1,0,0.2,0,0.2,0
	c6.2-0.5,9.7-3.9,10.4-10.2c0.3-2.9,1.7-4.2,4.6-4.2c11.6,0,23.3,0,34.9,0c3,0,4.3,1.2,4.7,4.1c0.8,6.5,4.1,9.7,10.6,10.3
	c2.2,0.2,3.7,1.5,3.8,3.7c0.1,5.3,0.1,10.7,0,16c0,1.5-0.9,2.8-2.3,3.3c-2.6,1.2-5.3-0.7-5.4-3.8c-0.1-3.4,0-6.9-0.1-10.3
	c0-0.7-0.4-1.3-1-1.7C201.6,65.7,197.4,61,195.5,54.2z M111,135c-5.7,5.7-11.1,11.1-16.5,16.6c-0.4,0.5-0.5,1.1-0.5,1.8
	c0,17.1,0,34.2,0,51.3c0.1,0.9,0.4,1.7,1.1,2.3c2.4,2.2,4.9,4.2,7.3,6.4c2.7,2.6,6.4,3.9,10.1,3.8c23.2-0.1,46.4,0,69.6,0
	c1.1,0,2.2,0,3.3,0c2.3-0.1,4.3-1.7,4.9-4c0.9-3.6-1.6-6.8-5.6-6.8c-9.6,0-19.1,0-28.6,0c-2.8,0-4.7-1.5-4.7-3.8s1.8-4,4.7-4h41.7
	c2.9,0,5-1.4,5.7-3.8c1.2-3.8-1.4-7.1-5.8-7.1c-13.8,0-27.7,0-41.5,0c-3,0-4.8-1.5-4.9-3.8s1.8-3.9,5-4h15.8c11.3,0,22.6,0,33.9,0
	c2.4,0,4.3-0.8,5.5-3c1.4-2.6,0.4-5.9-2.2-7.3c-0.8-0.4-1.8-0.7-2.7-0.6c-6.2-0.1-12.5,0-18.7,0c-10.7,0-21.3,0-32,0
	c-2,0-3.6-0.7-4.3-2.6c-1-2.7,1-5.1,4.2-5.1c12.4,0,24.8,0,37.2,0c4.3,0,6.9-2,6.9-5.4s-2.6-5.5-7-5.5h-74.1c-3.2,0-4.3-0.9-5.1-3.9
	C112.9,142.5,112,138.9,111,135z M59.7,145.7c-5.2,0-10-0.1-14.9,0c-2.4,0-3.8,1.7-3.8,4.3c0,20.9,0,41.8,0,62.8
	c0,2.7,1.5,4.3,4.2,4.3c12.3,0,24.6,0,36.8,0c2.1,0.2,4-1.4,4.1-3.5c0-0.2,0-0.5,0-0.7c0-21,0-42,0-63c0-2.7-1.6-4.2-4.3-4.2
	s-5.5,0-8.2,0h-6.2v2.4c0,13.6,0,27.3,0,40.9c0,0.6,0,1.3,0,1.9c-0.2,2.1-2.1,3.7-4.2,3.5c-1.9-0.2-3.3-1.7-3.5-3.6c0-0.7,0-1.3,0-2
	V145.7L59.7,145.7z M97.8,56.7c7.7,28.6,15.4,57.1,23,85.3h7.8c-0.2-0.8-0.4-1.5-0.6-2.2c-4.7-17.6-9.4-35.2-14.2-52.8
	c-1-3.6-0.3-4.9,3.3-6.2c4.9-1.8,7.8-6.9,6.7-12c-0.6-3.2,0.2-4.8,3.5-5.5c1.5-0.4,1.8-1,1.8-2.4c-0.1-3.6,0-7.2,0-10.7
	c0-0.5-0.1-1.1-0.1-1.8L97.8,56.7z M181,135.9c6-0.1,10.8-5,10.7-11s-5-10.8-11-10.7c-5.9,0.1-10.7,4.9-10.7,10.8
	C170.1,131,175,135.9,181,135.9z M128.7,112.3h0.2V81.6c-2,1.7-4.1,3.4-6.1,5.2c-0.4,0.4-0.6,1-0.6,1.5
	C124.4,96.3,126.5,104.3,128.7,112.3z"/>
<path class="st9" d="M213.3,95.4c2.1-0.1,4,1.5,4.1,3.6s-1.5,4-3.6,4.1c-0.1,0-0.3,0-0.4,0c-2.1-0.1-3.8-1.9-3.7-4
	C209.8,97.1,211.3,95.5,213.3,95.4z"/>
<path class="st9" d="M63.6,201.4c2.1,0,3.9,1.8,3.9,3.9c0,2.1-1.8,3.9-3.9,3.9s-3.9-1.8-3.9-3.9v-0.1
	C59.7,203.1,61.5,201.5,63.6,201.4z"/>
</svg>
