<?xml version="1.0" encoding="utf-8"?>
<!-- Generator: Adobe Illustrator 26.0.3, SVG Export Plug-In . SVG Version: 6.00 Build 0)  -->
<svg version="1.1" id="Layer_1" xmlns="http://www.w3.org/2000/svg" xmlns:xlink="http://www.w3.org/1999/xlink" x="0px" y="0px"
	 viewBox="0 0 265.9 250.1" style="enable-background:new 0 0 265.9 250.1;" xml:space="preserve">
<style type="text/css">
	.st0{fill:#690ABC;}
	.st1{fill:#0DD6AF;}
	.st2{opacity:0.5;enable-background:new    ;}
	.st3{opacity:0.2;enable-background:new    ;}
	.st4{fill:none;stroke:#690ABC;stroke-width:2;stroke-miterlimit:10;}
	.st5{fill:none;stroke:#690ABC;stroke-miterlimit:10;}
	.st6{fill:none;stroke:#000000;stroke-miterlimit:10;}
	.st7{opacity:0.5;fill:none;stroke:#000000;stroke-miterlimit:10;enable-background:new    ;}
	.st8{fill:url(#SVGID_1_);}
	.st9{fill:url(#SVGID_00000047042182194999510900000012304106172591710141_);}
	.st10{fill:url(#SVGID_00000073717233692936491380000016690194964574053004_);}
</style>
<g>
	<path class="st0" d="M14.7,31.5c4.5-2.3,7.7-6.6,8.5-11.6c0.8,5,4,9.3,8.5,11.6c0.9,0.4,3,1,3,1c-1,0.3-2,0.6-3,1
		C27.2,35.7,24,40,23.2,45c-0.8-5-4-9.3-8.5-11.6c-1-0.4-2-0.7-3-1C12.7,32.2,13.7,31.9,14.7,31.5z"/>
	<circle class="st1" cx="235.4" cy="51.1" r="6"/>
	<circle class="st2" cx="21.7" cy="167.7" r="4"/>
	<circle class="st2" cx="216.8" cy="207.7" r="2.5"/>
	<circle class="st3" cx="68.7" cy="30.2" r="8.9"/>
	<path class="st1" d="M14.4,222.9c7.1-3.5,12-10.2,13.3-18c1.3,7.8,6.2,14.5,13.3,18c1.5,0.6,3.1,1.2,4.7,1.6
		c-1.6,0.5-3.1,1-4.7,1.6c-7.1,3.5-12,10.2-13.3,18c-1.3-7.8-6.2-14.5-13.3-18c-1.5-0.6-3.1-1.2-4.7-1.6
		C11.3,224.1,12.9,223.6,14.4,222.9z"/>
	<path class="st4" d="M212.4,11.8c-1.8-1.5-4.5-1.3-6,0.5s-1.2,4.4,0.5,5.9c0.7,0.4,0.9,1.3,0.4,1.9c-0.1,0.1-0.1,0.2-0.2,0.2
		c-1.1,1.5-1.1,3.5,0.1,5c1.1,1.5,3.1,2,4.8,1.4s2.8-2.3,2.7-4.1c-0.1-0.8,0.4-1.5,1.2-1.6c0.1,0,0.2,0,0.2,0l16-1.9
		c0.7-0.2,1.5,0.3,1.7,1c0,0.1,0,0.2,0,0.2c0.3,1.8,1.8,3.1,3.6,3.3c1.8,0.2,3.6-0.8,4.3-2.5s0.3-3.7-1.1-4.9
		c-0.7-0.4-0.8-1.3-0.4-2c0-0.1,0.1-0.1,0.2-0.2c1.4-1.9,0.9-4.5-0.9-5.8c-1.1-0.8-2.6-1-3.9-0.6c-1.7,0.6-2.9,2.3-2.8,4.1
		c0.1,0.8-0.4,1.5-1.1,1.6c-0.1,0-0.2,0-0.3,0l-16,1.9c-0.8,0.2-1.5-0.3-1.7-1c0-0.1,0-0.2,0-0.2C213.5,13.2,213.1,12.4,212.4,11.8z
		"/>
	<path class="st5" d="M36.9,65.3c0.3-1.5-0.7-3-2.3-3.3c-1.5-0.2-2.9,0.8-3.2,2.3c-0.1,0.5-0.6,0.9-1.1,0.9c0,0,0,0-0.1,0
		c-1.5-0.2-2.9,1-3.1,2.5c-0.1,0.9,0.3,1.8,1,2.4c0.9,0.8,2.3,0.9,3.3,0.2c0.4-0.3,1-0.3,1.3,0.1l0.1,0.1l6.5,8.6
		c0.4,0.4,0.4,1,0,1.3l-0.1,0.1c-0.9,0.8-1.2,2.1-0.7,3.2c0.6,1.4,2.3,2.1,3.7,1.4c0.9-0.4,1.5-1.1,1.6-2.1c0-0.5,0.4-0.9,1-0.9
		c0.1,0,0.2,0,0.2,0c1.5,0.2,2.9-1,3.1-2.5c0.1-0.9-0.3-1.8-1-2.4c-0.9-0.8-2.3-0.9-3.3-0.2c-0.4,0.3-1,0.3-1.3-0.1l-0.1-0.1
		l-6.5-8.6c-0.4-0.4-0.4-0.9,0-1.3l0.1-0.1C36.5,66.5,36.8,66,36.9,65.3z"/>
	<path class="st6" d="M98.4,224.9c-0.6-1.4-2.2-2.1-3.7-1.5c-1.4,0.6-2.1,2.2-1.5,3.6c0.3,0.4,0.1,1-0.3,1.3c-0.1,0-0.1,0.1-0.2,0.1
		c-1.1,0.6-1.7,1.8-1.5,3s1.2,2.1,2.4,2.2c1.2,0.2,2.4-0.5,2.8-1.6c0.2-0.5,0.8-0.8,1.3-0.6l0,0l10.1,3.7c0.5,0.1,0.8,0.6,0.7,1.1
		c0,0.1,0,0.1,0,0.2c-0.3,1.2,0.1,2.4,1.2,3.1c1.3,0.8,3,0.5,3.9-0.8c0.5-0.8,0.6-1.8,0.2-2.6c-0.3-0.4-0.1-1,0.3-1.3
		c0.1,0,0.1-0.1,0.2-0.1c1.4-0.7,1.9-2.4,1.2-3.7c-0.4-0.8-1.2-1.4-2.1-1.5c-1.2-0.2-2.4,0.5-2.9,1.6c-0.2,0.5-0.8,0.8-1.3,0.6l0,0
		L99.1,228c-0.5-0.1-0.8-0.6-0.7-1.1c0-0.1,0-0.1,0-0.2C98.7,226.1,98.6,225.5,98.4,224.9z"/>
	<path class="st1" d="M182.1,224.2c5.2,0.1,10.1-2.3,13.2-6.5c-1.6,4.9-0.8,10.3,2.3,14.5c0.7,0.8,1.4,1.6,2.2,2.3
		c-1.1-0.2-2.1-0.4-3.2-0.4c-5.2-0.1-10.1,2.3-13.2,6.5c1.6-4.9,0.8-10.3-2.3-14.5c-0.7-0.8-1.4-1.6-2.2-2.3
		C180,224,181.1,224.1,182.1,224.2z"/>
	<path class="st6" d="M109.5,15.2c3.7,0.1,7.2-1.7,9.3-4.6c-1.1,3.5-0.5,7.3,1.6,10.3c0.5,0.6,1,1.1,1.6,1.7
		c-0.8-0.2-1.5-0.3-2.3-0.3c-3.7-0.1-7.2,1.7-9.3,4.6c1.1-3.5,0.5-7.3-1.6-10.3c-0.5-0.6-1-1.1-1.6-1.7
		C108,15,108.7,15.1,109.5,15.2z"/>
	<path class="st7" d="M79.1,112.2c3.7,0.1,7.2-1.7,9.3-4.6c-1.1,3.5-0.5,7.3,1.6,10.3c0.5,0.6,1,1.1,1.6,1.7
		c-0.8-0.1-1.5-0.3-2.3-0.3c-3.7-0.1-7.2,1.7-9.4,4.6c1.1-3.5,0.5-7.3-1.6-10.3c-0.5-0.6-1-1.1-1.6-1.7
		C77.6,112.1,78.3,112.2,79.1,112.2z"/>
	<path class="st1" d="M234,122.1c-0.9,0.4-1.9,0.6-2.9,0.5c-3.3-0.4-5.7-3.3-5.3-6.6c0.3-2.6,2.3-4.8,4.9-5.2c0.2,0,0.4-0.1,0.4-0.3
		c1.2-3.1,4.7-4.6,7.7-3.5c2.1,0.8,3.6,2.7,3.8,5c0.1,1.3-0.2,2.7-1,3.8l-0.2,0.2v0.1l0.2,0.3c2.4,2.9,4.8,5.9,7.1,8.8
		c0.1,0.2,0.3,0.3,0.5,0.2l0,0c3-1.4,6.6,0,7.9,3c1.4,3,0,6.6-3,7.9c-0.6,0.3-1.2,0.4-1.9,0.5c-0.2,0-0.4,0.1-0.4,0.3
		c-1.2,3.1-4.6,4.7-7.7,3.5c-2.1-0.8-3.6-2.7-3.8-5c-0.1-1.4,0.2-2.7,1-3.8c0.1-0.2,0.1-0.3,0-0.4
		C238.9,128.2,236.5,125.2,234,122.1L234,122.1z M240.3,113c0.3-2-1.1-3.8-3.1-4.1c-1.9-0.2-3.7,1.1-4,3.1c0,0.7-0.6,1.2-1.2,1.2
		c-0.1,0-0.2,0-0.2,0c-2-0.1-3.7,1.4-3.8,3.3c-0.1,1.2,0.4,2.3,1.4,3.1c1.2,1,2.9,1,4.2,0.1c0.5-0.4,1.3-0.4,1.7,0.1
		c0,0.1,0.1,0.1,0.1,0.2c2.9,3.6,5.8,7.2,8.7,10.8c0.5,0.5,0.5,1.2,0,1.7l-0.1,0.1c-1.1,1.1-1.5,2.7-0.8,4.1c0.9,1.8,3,2.5,4.8,1.7
		c1.1-0.5,1.8-1.5,2-2.7c0-0.7,0.6-1.2,1.2-1.2c0.1,0,0.2,0,0.2,0c1.6,0.1,3-0.8,3.6-2.3s0.1-3.1-1.1-4.1c-1.2-1-3-1-4.2-0.1
		c-0.5,0.4-1.3,0.4-1.7-0.1c0-0.1-0.1-0.1-0.1-0.2l-8.7-10.8c-0.5-0.5-0.5-1.2,0-1.7c0.1-0.1,0.1-0.1,0.2-0.1
		C239.8,114.5,240.2,113.8,240.3,113L240.3,113z"/>
	<path class="st3" d="M47.9,115.1c0-0.8,0.2-1.6,0.6-2.3c1.2-2.3,4.1-3.2,6.4-1.9c2,1.1,3,3.4,2.3,5.5c-0.1,0.2,0,0.3,0.1,0.4
		c1.9,1.8,2,4.8,0.2,6.7c-1.3,1.4-3.3,1.8-5.1,1.2c-1-0.4-1.9-1.1-2.4-2l-0.1-0.2h-0.1l-0.2,0.1l-8.8,2.3c-0.2,0-0.3,0.2-0.3,0.3
		l0,0c-0.1,2.6-2.3,4.7-4.9,4.6c-2.6-0.1-4.7-2.3-4.6-4.9c0-0.4,0.1-0.8,0.2-1.2c0.1-0.1,0-0.3-0.1-0.4c-1.9-1.8-2-4.8-0.2-6.7
		c1.3-1.4,3.3-1.8,5.1-1.2c1,0.4,1.9,1.1,2.5,2c0.1,0.1,0.2,0.2,0.3,0.2L47.9,115.1L47.9,115.1z M52.4,122.6c1.3,0.9,3.1,0.5,4-0.9
		c0.8-1.3,0.4-3.1-0.9-3.9c-0.5-0.3-0.7-0.9-0.4-1.3c0,0,0-0.1,0.1-0.1c0.6-1.1,0.4-2.5-0.5-3.4s-2.2-1.1-3.3-0.5s-1.7,1.8-1.5,3
		c0.1,0.5-0.2,1.1-0.7,1.2h-0.1l-10.7,2.8c-0.5,0.2-1.1-0.1-1.3-0.6v-0.1c-0.4-1.2-1.5-2-2.8-1.9c-1.6,0-2.8,1.4-2.8,2.9
		c0,0.9,0.5,1.8,1.3,2.3c0.5,0.2,0.7,0.9,0.4,1.3c0,0,0,0.1-0.1,0.1c-0.7,1.4-0.2,3.1,1.2,3.9c0.8,0.5,1.8,0.5,2.7,0
		c1.1-0.6,1.7-1.8,1.5-3c-0.1-0.5,0.2-1.1,0.7-1.2h0.1l10.7-2.8c0.5-0.2,1.1,0.1,1.3,0.6c0,0,0,0,0,0.1
		C51.5,121.7,51.9,122.3,52.4,122.6z"/>
</g>
<g>
	
		<linearGradient id="SVGID_1_" gradientUnits="userSpaceOnUse" x1="132.95" y1="781.6314" x2="132.95" y2="592.4686" gradientTransform="matrix(1 0 0 1 0 -562)">
		<stop  offset="0" style="stop-color:#690ABC"/>
		<stop  offset="0.43" style="stop-color:#084DBC"/>
		<stop  offset="1" style="stop-color:#00C1FC"/>
	</linearGradient>
	<path class="st8" d="M131.9,30.5h95.7V217c-0.9,1.7-2.6,2.7-4.5,2.7c-36.8-0.1-73.6-0.1-110.4,0c-4.6,0.1-9.2-1.6-12.7-4.7
		l-4.1-3.5c-0.1,0.2-0.3,0.4-0.4,0.6c-2.1,5.4-6.1,7.8-11.7,7.7c-11.1-0.1-22.2,0-33.2,0c-7.5,0-12.1-4.5-12.1-12
		c0-19.4,0-38.9,0-58.3c0-7.4,4.6-11.9,11.9-11.9c10.6,0,21.2,0.1,31.7,0c4.7-0.1,8.9,0.7,11.9,4.8c4.8-4.8,9.4-9.5,14.1-14.1
		c1.1-0.9,1.5-2.5,1-3.8c-5.8-21.5-11.6-42.9-17.3-64.4c-0.9-3.4,0-4.9,3.4-5.9c7.6-2,15.1-4.1,22.6-6.1l11.4-3c0-3.2,0.1-6.3,0-9.2
		C129.1,33.2,129.9,31.6,131.9,30.5z M192.2,57.9h-27.7c-1.7,6.2-5.3,10.5-11.5,12.6c-1.6,0.6-1.9,1.2-1.9,2.7c0.1,22,0.1,44,0,65.9
		v2h19.7c-11-5.9-12.8-18.4-6.7-26.6c5.8-7.9,16.9-9.5,24.6-3.7c0.4,0.3,0.8,0.6,1.1,0.9c3.8,3.2,6.1,8,6.1,13
		c0.1,7.4-3.6,12.8-9.9,16.4c13.3-2.3,20.4,8.5,16.8,17.8l2.7,0.2v-40c0-3.7,1.1-5.5,3.7-5.5s3.7,1.7,3.7,5.6c0,14.3,0,28.7,0,43
		c0,1,0.3,2.2,0.9,3.1c3.4,6.1,1.3,13.7-4.7,17.1c-0.4,0.2-0.8,0.4-1.1,0.6l-1.6,0.8c1.9,4.5,1.7,8.7-1,12.6s-6.6,5.5-11.4,5.5
		c1.3,3.2,1.4,6.9,0.1,10.1h26V38h-83.2v103.2h7.1V69.9c0-0.7,0-1.3,0-2c-0.1-2,1.4-3.7,3.5-3.8c0.1,0,0.2,0,0.2,0
		c5.9-0.5,9.2-3.7,9.9-9.7c0.3-2.7,1.6-4,4.4-4c11,0,22.1,0,33.1,0c2.8,0,4.1,1.1,4.5,3.9c0.8,6.2,3.9,9.2,10,9.8
		c2.1,0.2,3.5,1.4,3.6,3.5c0.1,5,0.1,10.1,0,15.2c0,1.4-0.9,2.7-2.2,3.1c-2.5,1.1-5-0.7-5.1-3.6c-0.1-3.2,0-6.5-0.1-9.8
		c0-0.7-0.4-1.2-0.9-1.6C198,68.8,194,64.4,192.2,57.9z M112.2,134.5c-5.4,5.4-10.5,10.5-15.6,15.7c-0.4,0.5-0.5,1-0.5,1.7
		c0,16.2,0,32.4,0,48.6c0.1,0.9,0.4,1.6,1,2.2c2.3,2.1,4.6,4,6.9,6.1c2.6,2.5,6.1,3.7,9.6,3.6c22-0.1,44,0,65.9,0c1,0,2.1,0,3.1,0
		c2.2-0.1,4.1-1.6,4.6-3.8c0.9-3.4-1.5-6.4-5.3-6.4c-9.1,0-18.1,0-27.1,0c-2.7,0-4.5-1.4-4.5-3.6c0-2.2,1.7-3.8,4.5-3.8h39.5
		c2.7,0,4.7-1.3,5.4-3.6c1.1-3.6-1.3-6.7-5.5-6.7c-13.1,0-26.2,0-39.3,0c-2.8,0-4.5-1.4-4.6-3.6c-0.1-2.2,1.7-3.7,4.7-3.8h15
		c10.7,0,21.4,0,32.1,0c2.3,0,4.1-0.8,5.2-2.8c1.3-2.5,0.4-5.6-2.1-6.9c-0.8-0.4-1.7-0.7-2.6-0.6c-5.9-0.1-11.8,0-17.7,0
		c-10.1,0-20.2,0-30.3,0c-1.9,0-3.4-0.7-4.1-2.5c-0.9-2.6,0.9-4.8,4-4.8c11.7,0,23.5,0,35.2,0c4.1,0,6.5-1.9,6.5-5.1
		c0-3.2-2.5-5.2-6.6-5.2h-70.2c-3,0-4.1-0.9-4.8-3.7C114,141.6,113.1,138.2,112.2,134.5z M63.6,144.6c-4.9,0-9.5-0.1-14.1,0
		c-2.3,0-3.6,1.6-3.6,4.1c0,19.8,0,39.6,0,59.5c0,2.6,1.4,4.1,4,4.1c11.7,0,23.3,0,34.9,0c2,0.2,3.8-1.3,3.9-3.3c0-0.2,0-0.5,0-0.7
		c0-19.9,0-39.8,0-59.7c0-2.6-1.5-4-4.1-4s-5.2,0-7.8,0h-5.9v2.3c0,12.9,0,25.9,0,38.7c0,0.6,0,1.2,0,1.8c-0.2,2-2,3.5-4,3.3
		c-1.8-0.2-3.1-1.6-3.3-3.4c0-0.7,0-1.2,0-1.9V144.6L63.6,144.6z M99.7,60.3c7.3,27.1,14.6,54.1,21.8,80.8h7.4
		c-0.2-0.8-0.4-1.4-0.6-2.1c-4.5-16.7-8.9-33.3-13.5-50c-0.9-3.4-0.3-4.6,3.1-5.9c4.6-1.7,7.4-6.5,6.3-11.4c-0.6-3,0.2-4.5,3.3-5.2
		c1.4-0.4,1.7-0.9,1.7-2.3c-0.1-3.4,0-6.8,0-10.1c0-0.5-0.1-1-0.1-1.7L99.7,60.3z M178.5,135.3c5.7-0.1,10.2-4.7,10.1-10.4
		c-0.1-5.7-4.7-10.2-10.4-10.1c-5.6,0.1-10.1,4.6-10.1,10.2C168.1,130.7,172.8,135.3,178.5,135.3z M128.9,113h0.2V83.9
		c-1.9,1.6-3.9,3.2-5.8,4.9c-0.4,0.4-0.6,0.9-0.6,1.4C124.9,97.8,126.8,105.4,128.9,113z"/>
	
		<linearGradient id="SVGID_00000163761086005800134560000014259862911152198276_" gradientUnits="userSpaceOnUse" x1="132.95" y1="690.7775" x2="132.95" y2="683.4177" gradientTransform="matrix(1 0 0 1 0 -562)">
		<stop  offset="0" style="stop-color:#690ABC"/>
		<stop  offset="0.43" style="stop-color:#084DBC"/>
		<stop  offset="1" style="stop-color:#00C1FC"/>
	</linearGradient>
	<path style="fill:url(#SVGID_00000163761086005800134560000014259862911152198276_);" d="M132.7,121.4c2-0.1,3.8,1.4,3.9,3.4
		c0.1,2-1.4,3.8-3.4,3.9c-0.1,0-0.3,0-0.4,0c-2-0.1-3.6-1.8-3.5-3.8C129.4,123,130.8,121.5,132.7,121.4z"/>
	
		<linearGradient id="SVGID_00000029750567873608114650000016352690549705102491_" gradientUnits="userSpaceOnUse" x1="132.95" y1="690.7631" x2="132.95" y2="683.4033" gradientTransform="matrix(1 0 0 1 0 -562)">
		<stop  offset="0" style="stop-color:#690ABC"/>
		<stop  offset="0.43" style="stop-color:#084DBC"/>
		<stop  offset="1" style="stop-color:#00C1FC"/>
	</linearGradient>
	<path style="fill:url(#SVGID_00000029750567873608114650000016352690549705102491_);" d="M132.9,121.4c2,0,3.7,1.7,3.7,3.7
		c0,2-1.7,3.7-3.7,3.7s-3.7-1.7-3.7-3.7V125C129.3,123,131,121.5,132.9,121.4z"/>
</g>
</svg>
