<?xml version="1.0" encoding="utf-8"?>
<!-- Generator: Adobe Illustrator 26.0.3, SVG Export Plug-In . SVG Version: 6.00 Build 0)  -->
<svg version="1.1" id="OBJECTS" xmlns="http://www.w3.org/2000/svg" xmlns:xlink="http://www.w3.org/1999/xlink" x="0px" y="0px"
	 viewBox="0 0 650 362.1" style="enable-background:new 0 0 650 362.1;" xml:space="preserve">
<style type="text/css">
	.st0{fill:#E3EFFF;}
	.st1{fill:#6D89C9;}
	.st2{fill:#5872B4;}
	.st3{fill:#BED1F9;}
	.st4{fill:#A1BAF0;}
	.st5{fill:#DDE8FA;}
	.st6{fill:#5672B3;}
	.st7{fill:#486096;}
	.st8{fill:#FFBA53;}
	.st9{fill:#FFD353;}
	.st10{fill:#B1C9F1;}
	.st11{fill:#FFFFFF;}
	.st12{fill:#E3EDF7;}
	.st13{fill:#A7BDE3;}
	.st14{fill:#BED1F1;}
	.st15{fill:#C9D9F5;}
	.st16{fill:#FFE692;}
	.st17{fill:#EE9F53;}
	.st18{fill:#E38F6F;}
	.st19{fill:#5A4868;}
	.st20{fill:#519372;}
	.st21{fill:#4E4C71;}
	.st22{fill:#79D4AE;}
	.st23{fill:#C8776F;}
	.st24{fill:#5BA583;}
	.st25{fill:#383752;}
	.st26{fill:#D7EAFF;}
	.st27{fill:#CEE1F5;}
	.st28{fill:#B9D3F0;}
	.st29{fill:#FFF3D3;}
	.st30{fill:#AD1C6B;}
	.st31{fill:#7F1655;}
	.st32{fill:#75ADD3;}
	.st33{fill:#608EAD;}
	.st34{fill:#E9F3FF;}
	.st35{fill:#556A9C;}
	.st36{fill:#3D4C70;}
	.st37{font-family:'Montserrat-ExtraBold';}
	.st38{font-size:18.171px;}
	.st39{display:none;}
	.st40{display:inline;}
	.st41{fill:url(#SVGID_1_);}
</style>
<g>
	<path class="st0" d="M57.6,302.2c7,7.6,14.6,14.4,22.6,20.6c2.4,1.8,13.4,0,16.2,0c37.7,0,75.3,0,113,0c54.7,0,109.5,0,164.2,0
		c49.3,0,98.6,0,147.9,0c15.6,0,31.2,0,46.7,0c4,0,11.5,1.4,15.2-0.2c7.8-3.4,4.2-19,3.5-26.1c-1.1-11-3.7-22-9.6-31.5
		c-16.1-25.9-44.2-35.2-66.4-54.4c-21.6-18.7-36.6-43.8-54.4-66.2c-13.9-17.5-29.6-33.6-46.8-47.9c-11-9.1-22.8-17.6-36.5-21.7
		c-11.9-3.6-24.7-3.6-37.1-2.2c-36.3,4.2-71.1,20.6-97.3,46c-29.6,28.7-54.2,71.3-93.3,88.1c-21.4,9.2-45.5,10.4-67,19.5
		s-41,31.1-35,53.6C45.9,288.4,51.6,295.7,57.6,302.2z"/>
	<path class="st0" d="M568.7,232.1c4.1,0.7,8.6,0.7,12.3-1.2c1.9-0.9,3.6-2.6,3.8-4.7c0.1-0.9-0.2-1.9-0.5-2.8
		c-2.6-7.5-9-13-15.5-17.6c-4.8-3.5-10-6.9-15.9-7.4c-12.5-1.2-16.1,8.7-9.7,17.6C549.3,224.4,558.5,230.4,568.7,232.1z"/>
	<g>
		<path class="st1" d="M218.5,166.5c-36.8-9.3-47.1-28.8-47.1-28.8h-4.3h-34h-13.5c0,0-10.3,19.4-47.1,28.8c0,0-24.4,97,69.6,155.6
			h6.8C242.9,263.5,218.5,166.5,218.5,166.5z"/>
		<path class="st2" d="M206.9,176.6c-31-7.9-39.7-24.2-39.7-24.2h-3.6h-28.6h-11.3c0,0-8.7,16.4-39.7,24.2c0,0-20.5,81.6,58.6,130.9
			h5.7C227.4,258.2,206.9,176.6,206.9,176.6z"/>
		<path class="st3" d="M201.9,180.9c-28.5-7.2-36.5-22.3-36.5-22.3h-3.3h-26.3h-10.4c0,0-8,15-36.5,22.3c0,0-18.9,75,53.8,120.3h5.2
			C220.8,255.9,201.9,180.9,201.9,180.9z"/>
		
			<ellipse transform="matrix(0.2269 -0.9739 0.9739 0.2269 -104.352 313.8528)" class="st4" cx="145.5" cy="222.7" rx="48.9" ry="48.9"/>
		
			<ellipse transform="matrix(0.9925 -0.1222 0.1222 0.9925 -26.1141 19.4462)" class="st5" cx="145.5" cy="222.7" rx="41.2" ry="41.2"/>
		<polygon class="st1" points="125.5,225.3 143.2,236.2 165.8,197.4 169.9,200.2 146.4,247.9 121.1,234 		"/>
	</g>
	<g>
		<g>
			<polygon class="st1" points="532.2,160.3 540.8,156.8 543,149.6 538.1,141.8 546.6,138.3 548.9,131.1 543.9,123.4 552.5,119.9 
				556.1,108.4 553.4,87.3 540.2,83.1 526.5,99 483.4,235.2 512.9,244.6 537.2,168.1 			"/>
			<path class="st6" d="M488.5,219l-5.1,16.2l29.6,9.4l5.6-17.8c-8.6-5-18.6-7.8-29.3-7.8C489,219,488.8,219,488.5,219z"/>
			
				<rect x="443.3" y="167.7" transform="matrix(0.302 -0.9533 0.9533 0.302 198.0754 609.9131)" class="st6" width="144.4" height="4"/>
			<path class="st7" d="M495.6,239.1l6-18.8c-1.3-0.3-2.6-0.5-3.9-0.7l-5.8,18.3L495.6,239.1z"/>
		</g>
		<path class="st3" d="M489.3,225.7c-28.5,0-51.6,23.1-51.6,51.6c0,19.5,10.8,36.5,26.8,45.3h49.7c16-8.8,26.8-25.8,26.8-45.3
			C540.9,248.8,517.8,225.7,489.3,225.7z M489.3,304.9c-15.2,0-27.6-12.3-27.6-27.6c0-15.2,12.3-27.6,27.6-27.6
			c15.2,0,27.6,12.3,27.6,27.6C516.8,292.5,504.5,304.9,489.3,304.9z"/>
		<path class="st4" d="M489.3,320.5c23.9,0,43.2-19.3,43.2-43.2c0-23.9-19.3-43.2-43.2-43.2c-23.9,0-43.2,19.3-43.2,43.2
			C446.1,301.2,465.4,320.5,489.3,320.5z M489.3,247.2c16.6,0,30.1,13.5,30.1,30.1c0,16.6-13.5,30.1-30.1,30.1
			c-16.6,0-30.1-13.5-30.1-30.1C459.2,260.7,472.6,247.2,489.3,247.2z"/>
		<path class="st1" d="M489.3,316.9c21.8,0,39.5-17.7,39.5-39.5s-17.7-39.5-39.5-39.5c-21.8,0-39.5,17.7-39.5,39.5
			S467.4,316.9,489.3,316.9z M489.3,249.8c15.2,0,27.6,12.3,27.6,27.6c0,15.2-12.3,27.6-27.6,27.6c-15.2,0-27.6-12.3-27.6-27.6
			C461.7,262.1,474,249.8,489.3,249.8z"/>
	</g>
	<g>
		<path class="st3" d="M598.4,275.4c0-0.6,0-1.2-0.1-1.8l5.9-2.8l-2.5-7.5l-6.4,1.2c-0.6-1.1-1.4-2-2.2-3l3.1-5.8l-6.4-4.7l-4.5,4.7
			c-1.1-0.5-2.3-0.8-3.5-1.1l-0.9-6.5H573l-0.9,6.5c-1.2,0.3-2.4,0.6-3.5,1.1l-4.5-4.7l-6.4,4.7l3.1,5.8c-0.8,0.9-1.5,1.9-2.2,3
			l-6.4-1.2l-2.5,7.5l5.9,2.8c-0.1,0.6-0.1,1.2-0.1,1.8c0,0.6,0,1.2,0.1,1.8l-5.9,2.8l2.5,7.5l6.4-1.2c0.6,1.1,1.4,2,2.2,3l-3.1,5.8
			l6.4,4.7l4.5-4.7c1.1,0.5,2.3,0.8,3.5,1.1l0.9,6.5h7.9l0.9-6.5c1.2-0.3,2.4-0.6,3.5-1.1l4.5,4.7l6.4-4.7l-3.1-5.8
			c0.8-0.9,1.5-1.9,2.2-3l6.4,1.2l2.5-7.5l-5.9-2.8C598.4,276.6,598.4,276,598.4,275.4z M577,287.3c-6.6,0-12-5.4-12-12
			c0-6.6,5.4-12,12-12c6.6,0,12,5.4,12,12C589,282,583.6,287.3,577,287.3z"/>
		<path class="st4" d="M577,292.9c9.7,0,17.5-7.8,17.5-17.5c0-9.7-7.8-17.5-17.5-17.5c-9.7,0-17.5,7.8-17.5,17.5
			C559.5,285,567.3,292.9,577,292.9z M577,263.4c6.6,0,12,5.4,12,12c0,6.6-5.4,12-12,12c-6.6,0-12-5.4-12-12
			C565,268.8,570.4,263.4,577,263.4z"/>
	</g>
	<g>
		<rect x="522.1" y="198.8" class="st8" width="45.2" height="8.7"/>
		<rect x="519.5" y="181.5" class="st8" width="45.2" height="8.7"/>
		<rect x="523.7" y="172.8" class="st9" width="45.2" height="8.7"/>
		<rect x="515" y="190.1" class="st9" width="45.2" height="8.7"/>
	</g>
	<g>
		<path class="st1" d="M419.2,100.1L381,90.7c-2.1-0.5-3.4-2.6-2.9-4.7l5.1-20.9c0.5-2.1,2.6-3.4,4.7-2.9l38.2,9.4
			c2.1,0.5,3.4,2.6,2.9,4.7l-5.1,20.9C423.4,99.3,421.3,100.6,419.2,100.1z"/>
		<circle class="st10" cx="403.6" cy="81.2" r="13.3"/>
		<path class="st11" d="M396.4,85.7l2.8-11.6c0.2-1,1.4-1.4,2.2-0.7L412,82c0.9,0.7,0.6,2.2-0.6,2.4l-13.4,3
			C397,87.6,396.1,86.7,396.4,85.7z"/>
	</g>
	<path class="st10" d="M367.2,81.7l-20.2-5c-1.1-0.3-1.7-1.3-1.4-2.4l2.8-11.3c0.3-1.1,1.3-1.7,2.4-1.4l20.2,5
		c1.1,0.3,1.7,1.3,1.4,2.4l-2.8,11.3C369.4,81.3,368.3,82,367.2,81.7z"/>
	<path class="st3" d="M419.1,57l-16.6-4.1c-1.1-0.3-1.7-1.3-1.4-2.4l2.2-9c0.3-1.1,1.3-1.7,2.4-1.4l16.6,4.1
		c1.1,0.3,1.7,1.3,1.4,2.4l-2.2,9C421.2,56.6,420.1,57.3,419.1,57z"/>
	<g>
		<path class="st1" d="M381.8,205.1l-93.5-23c-3.1-0.8-5-3.9-4.3-7l21.1-85.9c0.8-3.1,3.9-5,7-4.3l93.5,23c3.1,0.8,5,3.9,4.3,7
			l-21.1,85.9C388.1,203.9,384.9,205.8,381.8,205.1z"/>
		<path class="st6" d="M379.9,200.8l-88-21.6c-2.5-0.6-4-3.1-3.4-5.7l19.9-81c0.6-2.5,3.1-4,5.7-3.4l88,21.6c2.5,0.6,4,3.1,3.4,5.7
			l-19.9,81C384.9,199.9,382.4,201.4,379.9,200.8z"/>
		<path class="st12" d="M378.3,198.4l-83.9-20.6c-2.5-0.6-4-3.1-3.4-5.7l19-77.2c0.6-2.5,3.1-4,5.7-3.4l83.9,20.6
			c2.5,0.6,4,3.1,3.4,5.7L384,195C383.4,197.5,380.8,199,378.3,198.4z"/>
		<path class="st11" d="M391.5,127.8c0,6.3-5.1,11.5-11.5,11.5c-6.3,0-11.5-5.1-11.5-11.5s5.1-11.5,11.5-11.5
			C386.3,116.4,391.5,121.5,391.5,127.8z"/>
		<path class="st13" d="M333,127.2c-9.5-3.7-36.3,20.3-36.3,20.3v0l-5.8,23.5c-0.6,2.4,0.9,4.9,3.3,5.5l60.4,14.8l9.5-5l-15.9-24
			C348.2,162.2,340.4,130.1,333,127.2z"/>
		<path class="st10" d="M369.1,147.8c-8.5,0.4-41.3,25.2-49.6,36.1l59.4,14.6c2.2,0.5,4.5-0.8,5-3l7-28.5
			C386,160.3,375.8,147.5,369.1,147.8z"/>
		<path class="st14" d="M305.5,180.5c0,0,30.5-28.4,39.3-30.5c8.8-2.1,22.4,45.7,22.4,45.7L305.5,180.5z"/>
		<path class="st15" d="M317,147.8c-1.8-1.3-12.6,5.9-23.5,13.9l-2.5,10.3c-0.6,2.5,0.9,5,3.4,5.7l29.9,7.4l0,0
			C324.4,185.1,320.9,150.7,317,147.8z"/>
		<path class="st15" d="M379.3,171c-4.7-0.5-33.3,19.4-33.3,19.4l0,0l32.3,7.9c2.5,0.6,5-0.9,5.7-3.4l3.4-14
			C385,175.8,382.6,171.3,379.3,171z"/>
	</g>
	<g>
		<circle class="st9" cx="249.3" cy="130.6" r="59.3"/>
		<path class="st16" d="M307.8,140.1l-46.3-9.8l45.9-11.4c-0.4-1.8-0.8-3.6-1.3-5.3l-45.9,11.4l36.2-30.4c-1.1-1.5-2.3-2.9-3.5-4.2
			l-36.2,30.4l19.2-43.1c-1.6-0.8-3.3-1.6-5-2.2l-18.8,42.2V71.4c-0.9,0-1.8-0.1-2.7-0.1s-1.8,0-2.7,0.1v47.2l-20.7-42.4
			c-1.7,0.7-3.3,1.5-4.9,2.4l20.7,42.4l-37.2-29.1c-1.2,1.4-2.3,2.8-3.4,4.3l37.2,29.1l-46.3-9.8c-0.5,1.8-0.8,3.6-1.1,5.4l46.3,9.8
			l-45.9,11.5c0.4,1.8,0.8,3.6,1.3,5.3l45.9-11.5l-36.3,30.5c1.1,1.5,2.3,2.9,3.5,4.2l36.3-30.5l-19.3,43.3c1.6,0.8,3.3,1.6,5,2.2
			l18.9-42.4v46.4c0.9,0,1.8,0.1,2.7,0.1s1.8,0,2.7-0.1v-47.4l20.8,42.6c1.7-0.7,3.3-1.5,4.9-2.4L257,140l37.3,29.2
			c1.2-1.4,2.3-2.8,3.4-4.3l-37.3-29.2l46.3,9.8C307.2,143.7,307.5,141.9,307.8,140.1z"/>
		<circle class="st17" cx="249.3" cy="130.6" r="49.9"/>
		
			<ellipse transform="matrix(0.9282 -0.372 0.372 0.9282 -30.6892 102.1134)" class="st8" cx="249.3" cy="130.6" rx="46.7" ry="46.7"/>
	</g>
	<polygon class="st18" points="427.3,301.3 425.4,315.9 417.6,315.3 418.8,300.8 	"/>
	<path class="st19" d="M436.7,117.4c-1.6-2.5-2.1-5.7-1.3-8.6c0.8-2.9,3-5.3,5.7-6.5c1.3-0.6,2.7-0.9,4-0.4c1.2,0.4,2.1,1.4,3.2,1.9
		c1.9,0.9,4.2,0.4,6,1.5c1.4,0.9,2,2.5,2.4,4c0.4,1.6,0.5,3.2,1.1,4.7c0.8,2,2.4,3.5,4,4.8c0.7,0.6,1.5,1.2,2,2
		c0.9,1.3,1.1,3.2,0.4,4.6c-1.2,2.7-1.1,5.8-0.6,8.7c1,5.4,3.1,10.5,5.2,15.5c0.6,1.5,0.8,3,1,4.6c0.1,0.9,0.1,2-0.6,2.6
		c-0.6,0.6-1.7,0.6-2.3,1.2c-0.8,0.7-0.8,2-1,3.1c-0.4,1.6-1.6,2.9-3.1,3.5c-1.5,0.5-3.3,0.2-4.6-0.8c-1.7-1.3-2.3-3.6-2.9-5.6
		c-1.5-5.3-3.6-10.5-5.6-15.6c-1.6-4-2.4-8.4-3.6-12.6c-0.7-2.6-1.5-5.2-2.9-7.5C441.9,120.3,439.3,118,436.7,117.4z"/>
	<polygon class="st18" points="502.6,238.7 517.2,238.7 517.2,246.5 502.6,246.3 	"/>
	<path class="st20" d="M525.9,267l-2.1-30.7c0,0-2.7-0.9-5.5,0.4c-2.8,1.2-4.2,1-3.7,2.7c0.4,1.7,2.3,2,1.6,3.6
		c-0.7,1.6-1.3,2.8-0.7,4c0.6,1.2,3.3,2.6,4.8,7.8c1.7,5.9,2.4,8.5,2.6,9.5C523.6,267.2,525.9,267,525.9,267z"/>
	<path class="st11" d="M523.4,265.5c0.9,1.6,2.5,1.5,2.5,1.5l-2.1-30.7c0,0-1-0.3-2.4-0.3L523.4,265.5z"/>
	<path class="st21" d="M457.1,179.1c0,0,3.2,7.7,0,27.3c-2.6,15.5,0,32.5,0,32.5s38.4-2.7,50.8-0.8v9.8c0,0-31.7,1.7-42.1,2.2
		c-10.4,0.5-17.2,0.2-19.3-4.5c-2.1-4.6-4.5-26.8-4.5-26.8s-4.1,12.1-5.6,15.8c-1.4,3.7-1.4,3.3-1.6,4.5c-0.2,1.1,1.1,18-3.2,41.3
		c-4.3,23.3-4,26.3-4,26.3s-7.2,1.6-10.8-1.6c0,0,3-45.4,4.5-56.9c1.4-11.5,3.5-30.9,5.3-39.4c1.8-8.4,4-28.7,3.9-30.6
		C430.5,176.3,457.1,179.1,457.1,179.1z"/>
	<path class="st22" d="M446.7,128.1c0,0,9.9,6.8,12.2,10.5c2.4,3.7,1.7,8.2,0.3,13.4c-1.4,5.3-1.7,18.8-1.5,23.4
		c0.2,4.5,0.2,4.5,0.2,4.5s0.2,0.5-5.5,1.3c-5.7,0.8-10.1-1.6-13.4-1.3c-3.2,0.2-10.2-0.2-10.2-0.2s0.7-10.9,0-11.4
		c-0.7-0.5-14.3,1.1-25.9-1.6l1-6c0,0,10.6,0.8,14.3,0.2c3.7-0.6,11.1-1.2,11.1-1.2s-0.4-3.8-0.6-6.7c-0.2-2.9,0.1-8.4,0.1-8.4
		s-9.2,8.2-11.5,9.1c-2.3,0.8-17-0.7-17-0.7l1.5-6c0,0,8.7-0.4,12.4-0.8c0,0,11.1-11.5,14.2-13.2c3.1-1.7,11.5-5.2,11.5-5.2H446.7z"
		/>
	<path class="st23" d="M447.1,121.9c0,0-0.5,5.5-0.4,6c0.1,0.4,1.4,1,1.4,2c-0.1,1-3.2,8.7-6.4,7.8c-3.2-0.9-3.9-7.8-3.2-8.7
		c0.8-0.9,1.6-1.6,1.4-5.1C439.7,120.3,447.1,121.9,447.1,121.9z"/>
	<path class="st18" d="M436.6,115.8c0,0-0.1,8.2,4.6,9.6c4.7,1.4,7.7-7.2,7.9-7.8c0.2-0.6,0.5,0.3,1.4-1.1c0.9-1.4,0.6-3.9-0.2-3.9
		c-0.8-0.1-1.5-0.1-1.8,1.1c-0.3,1.2-0.4,3.5-1.2,3.2c-0.8-0.4-0.5-3.9-0.8-4.1c-0.8-0.5-1.9,0-2.8-0.4c-0.5-0.2-0.9-0.7-1.4-0.8
		c-0.6-0.1-1.3,0.3-1.9,0.5c-1,0.4-2.1,0.2-2.9-0.4c-0.4,0.3-0.5,0.8-0.6,1.3C436.7,114,436.7,114.9,436.6,115.8z"/>
	<path class="st24" d="M448,165.9c-5,1.8-20.1,2.4-20.1,2.4l0,0c0.6,0,1,0,1.1,0.1c0.4,0.2,0.4,3,0.3,5.8c5.5-1.6,14.2-3.9,18.7-5.9
		c6.5-2.9,11.1-18.8,11.1-18.8S453,164.1,448,165.9z"/>
	<path class="st24" d="M439.2,156.7c-1.5,0.5-6.5,0.6-10,0.5c0.1,1.5,0.2,2.7,0.2,2.7s7.9-1.1,11.1-1c0,0,6.5-6.2,9.8-14.5
		C450.4,144.3,441.5,155.9,439.2,156.7z"/>
	<path class="st25" d="M438.6,196.2c0,0,2.2,23.9-2.1,38.4c1.4-3.7,5.6-15.8,5.6-15.8S442.2,205.9,438.6,196.2z"/>
	<path class="st18" d="M404,160.8c0,0-2.9-1-3.3-1.6c-0.4-0.6-1.1-2.4-1.1-2.4l-0.5,2.2c0,0-2.5-0.5-5.7-1.6
		c-3.2-1.2-5.3-2.6-5.9-2.6c-0.6,0-1.1,0.7-1,1.1c0.1,0.4,0.1,0.4,0.1,0.4s-2.4-1.4-3-1c-0.6,0.3-0.8,0.8-0.5,1.3
		c0.4,0.5,6.9,3.7,7.3,3.8c0.4,0.2-6.6-2.4-7.2-2.3c-0.6,0.2-1,1-0.3,1.4c0.7,0.4,7,2.4,7,2.4s-2.7-0.6-3.2-0.5
		c-0.5,0.2-0.7,0.6-0.3,1.2c0.4,0.6,4.3,2.3,5.9,2.5c1.6,0.2,5.6-0.1,6.2,0c0.6,0.1,4.6,1.1,4.6,1.1L404,160.8z"/>
	<path class="st22" d="M396.6,322.6h30.8c0,0,1-2.6,0-5.5c-1-2.9-0.7-4.2-2.5-3.9c-1.8,0.3-2.2,2.2-3.7,1.4c-1.5-0.8-2.7-1.5-4-1
		c-1.3,0.6-2.8,3.1-8.1,4.3c-6,1.3-8.7,1.8-9.6,1.9C396.6,320.3,396.6,322.6,396.6,322.6z"/>
	<path class="st11" d="M398.2,320.2c-1.6,0.8-1.7,2.4-1.7,2.4h30.8c0,0,0.4-1,0.4-2.4H398.2z"/>
	<g>
		<path class="st22" d="M380.4,55.5l-33.8-8.3c-2.1-0.5-3.4-2.6-2.9-4.7l4.1-16.6c0.5-2.1,2.6-3.4,4.7-2.9l33.8,8.3
			c2.1,0.5,3.4,2.6,2.9,4.7l-4.1,16.6C384.6,54.8,382.5,56,380.4,55.5z"/>
		<path class="st11" d="M377,32.6L363.4,29l-1.3-0.3l-0.4,1.5l-3.3,12.6c-0.6-0.6-1.3-1.1-2.3-1.3c-2.1-0.5-4.1,0.3-4.5,1.8
			c-0.4,1.5,1,3.2,3.1,3.8c2.1,0.5,4.1-0.3,4.5-1.8l3.8-14.7l13.6,3.6l-2.4,9.3c-0.6-0.6-1.3-1.1-2.3-1.3c-2.1-0.5-4.1,0.3-4.5,1.8
			c-0.4,1.5,1,3.2,3.1,3.8c2.1,0.5,4.1-0.3,4.5-1.8c0-0.1,0-0.3,0.1-0.4l0.1,0l2.9-11l0.4-1.5L377,32.6z"/>
	</g>
	<g>
		<polygon class="st26" points="494.3,99 480.1,89.6 494.3,80.2 508.5,89.6 		"/>
		<polygon class="st27" points="480.1,104.7 494.3,114.1 494.3,99 480.1,89.6 		"/>
		<polygon class="st28" points="508.5,104.7 494.3,114.1 494.3,99 508.5,89.6 		"/>
	</g>
	<g>
		<polygon class="st26" points="120.5,100.3 103.3,88.9 120.5,77.4 137.8,88.9 		"/>
		<polygon class="st27" points="103.3,107.1 120.5,118.6 120.5,100.3 103.3,88.9 		"/>
		<polygon class="st28" points="137.8,107.1 120.5,118.6 120.5,100.3 137.8,88.9 		"/>
	</g>
	<path class="st29" d="M275.1,134.9c-0.7-4.3-3.2-6.9-7.4-8c-0.5-0.1-1,0-1.5-0.5c0.1-0.1,0.2-0.3,0.3-0.3c2.6-1.8,3.7-4.4,3.7-7.6
		c0-4.8-2.7-8.5-7.4-9.8c-2.4-0.7-4.8-0.9-7.2-0.9c-0.9,0-1.3-0.2-1.4-1.2c-0.1-2.4-0.4-4.8-0.5-7.2c0-0.3-0.1-0.5-0.1-0.7l-5.8,0.4
		c0,0.1,0,0.1,0,0.2c0.3,2.5,0.4,5,0.7,7.5c0.1,0.7-0.1,1-0.8,1.1c-0.9,0.1-1.8,0.2-2.7,0.3c-1,0.2-1.2-0.2-1.2-1.1
		c-0.1-2.4-0.3-4.8-0.5-7.3c0-0.1,0-0.3-0.1-0.4l-5.6,0.4c0,0.2,0,0.3,0,0.5c0.2,2.3,0.3,4.5,0.5,6.8c0.1,1.7,0.1,1.8-1.6,2
		c-0.2,0-0.3,0-0.5,0c-2.8,0.2-5.6,0.5-8.4,0.7c-0.1,0-0.1,0-0.2,0l0.6,6.3c1-0.1,2.1-0.2,3.1-0.3c1.9-0.1,3,0.7,3.3,2.7
		c0.2,1.3,0.3,2.7,0.4,4c0.6,7.1,1.3,14.3,1.9,21.4c0.1,1.6-0.5,2.3-2.1,2.5c-0.9,0.1-1.7,0.2-2.6,0.2c-0.1,1.4-0.3,4.4-0.5,7.1
		c3-0.2,6-0.3,9-0.7c0.9-0.1,1.1,0.2,1.2,1.1c0.1,2.5,0.4,5,0.6,7.6l6-0.3c0,0,0-0.1,0-0.1c-0.2-2.4-0.4-4.8-0.6-7.1
		c-0.1-0.9,0.1-1.4,1.1-1.4c0.8,0,1.6-0.1,2.3-0.2c0.9-0.2,1.3,0.1,1.3,1.1c0.1,2.5,0.4,4.9,0.5,7.4c0,0.1,0,0.1,0,0.2l6-0.3
		c0,0,0,0,0,0c-0.2-2.5-0.3-4.9-0.5-7.4c-0.1-1.1,0.3-1.5,1.3-1.7c2.5-0.4,4.9-1,7.2-2c3.5-1.4,6.2-3.6,7.4-7.4
		C275.4,140,275.5,137.5,275.1,134.9z M246.2,127.1c-0.3-3.4-0.6-6.8-0.9-10.2c-0.1-0.7,0.1-0.9,0.8-1c3.2-0.2,6.3-0.6,9.4,0.3
		c3.9,1.2,5.3,5.6,2.6,8.3c-1,1-2.3,1.7-3.4,2c-2.7,0.9-5.2,1.1-7.7,1.2C246.5,127.9,246.3,127.7,246.2,127.1z M260.8,143.9
		c-0.8,0.4-1.6,0.8-2.3,1c-3.4,1.2-6.7,1.3-10,1.7c-0.6,0.1-0.8-0.2-0.8-0.7c-0.3-3.8-0.7-7.6-1.1-11.3c0-0.5,0-0.8,0.6-0.9
		c3.4-0.3,6.7-0.8,10.1-0.3c1.1,0.1,2.2,0.4,3.3,0.9c2,0.9,3.1,2.5,3.1,4.7C263.8,141.2,262.7,142.8,260.8,143.9z"/>
	<g>
		<path class="st1" d="M296.8,38.3c3.7,11.8-2.9,24.5-14.7,28.2c-11.8,3.7-24.5-2.9-28.2-14.7c-3.7-11.8,2.9-24.5,14.7-28.2
			C280.5,19.8,293.1,26.4,296.8,38.3z"/>
		<path class="st4" d="M293.3,39.4c3.1,9.9-2.4,20.5-12.3,23.6c-9.9,3.1-20.5-2.4-23.6-12.3c-3.1-9.9,2.4-20.5,12.3-23.6
			C279.6,23.9,290.2,29.5,293.3,39.4z"/>
		
			<ellipse transform="matrix(0.2009 -0.9796 0.9796 0.2009 175.946 305.6589)" class="st3" cx="275.3" cy="45" rx="16.3" ry="16.3"/>
		<path class="st11" d="M283.6,49.7c0.2-1.8-0.4-3.1-1.9-4c-0.2-0.1-0.4-0.1-0.5-0.3c0,0,0.1-0.1,0.1-0.1c1.2-0.4,1.9-1.3,2.3-2.6
			c0.6-1.9-0.1-3.7-1.7-4.7c-0.8-0.5-1.7-0.9-2.6-1.1c-0.3-0.1-0.5-0.2-0.4-0.6c0.2-1,0.4-1.9,0.6-2.9c0-0.1,0-0.2,0-0.3l-2.3-0.5
			c0,0,0,0,0,0.1c-0.2,1-0.4,2-0.6,3.1c-0.1,0.3-0.2,0.4-0.4,0.3c-0.3-0.1-0.7-0.1-1.1-0.2c-0.4,0-0.4-0.2-0.3-0.6
			c0.2-1,0.4-2,0.7-2.9c0-0.1,0-0.1,0-0.2l-2.2-0.4c0,0.1-0.1,0.1-0.1,0.2c-0.2,0.9-0.4,1.8-0.6,2.8c-0.1,0.7-0.2,0.7-0.8,0.6
			c-0.1,0-0.1,0-0.2,0c-1.1-0.2-2.2-0.4-3.3-0.6c0,0,0,0-0.1,0l-0.5,2.6c0.4,0.1,0.8,0.1,1.2,0.2c0.7,0.2,1.1,0.6,1,1.4
			c-0.1,0.5-0.2,1.1-0.3,1.6c-0.6,2.9-1.1,5.8-1.7,8.7c-0.1,0.6-0.5,0.9-1.1,0.8c-0.3-0.1-0.7-0.1-1-0.2c-0.2,0.5-0.6,1.7-1,2.8
			c1.2,0.2,2.3,0.5,3.5,0.7c0.3,0,0.4,0.2,0.3,0.6c-0.2,1-0.4,2.1-0.7,3.1l2.3,0.5c0,0,0,0,0,0c0.2-1,0.4-1.9,0.6-2.9
			c0.1-0.4,0.2-0.6,0.6-0.4c0.3,0.1,0.6,0.1,0.9,0.2c0.4,0,0.5,0.2,0.4,0.6c-0.2,1-0.4,2-0.7,3c0,0,0,0.1,0,0.1l2.3,0.5c0,0,0,0,0,0
			c0.2-1,0.5-2,0.7-3c0.1-0.4,0.3-0.6,0.7-0.5c1,0.1,2,0.1,3,0c1.5-0.2,2.8-0.8,3.6-2.1C283.1,51.7,283.4,50.7,283.6,49.7z
			 M273.6,43.4c0.3-1.4,0.6-2.8,0.8-4.1c0.1-0.3,0.1-0.4,0.4-0.3c1.2,0.3,2.5,0.4,3.5,1.2c1.3,0.9,1.4,2.8,0,3.6
			c-0.5,0.3-1.1,0.4-1.5,0.4c-1.1,0.1-2.1-0.1-3.1-0.3C273.6,43.8,273.5,43.7,273.6,43.4z M277.2,51.7c-0.3,0.1-0.7,0.2-1,0.2
			c-1.4,0.1-2.7-0.2-4-0.4c-0.2,0-0.3-0.2-0.2-0.4c0.3-1.5,0.6-3.1,0.9-4.6c0-0.2,0.1-0.3,0.3-0.3c1.3,0.2,2.6,0.4,3.8,1
			c0.4,0.2,0.8,0.4,1.1,0.7c0.7,0.6,0.9,1.3,0.6,2.2C278.6,50.9,278,51.5,277.2,51.7z"/>
	</g>
	<g>
		<polygon class="st18" points="182.1,301.4 181.1,315 188.6,315.8 189,313.5 189.9,302.3 		"/>
		<polygon class="st18" points="230.1,299.7 235.4,313.1 241.9,309.8 237.2,295.5 		"/>
		<path class="st19" d="M166.5,107.8c0,0,1.7-3,0.6-6.3c-1.1-3.3-3.8-3.5-5.4-4.3c-1.6-0.8-6.3-1.6-8.4,0.4c-2.1,2-3,3.5-3.8,4
			c-0.8,0.5-1.6,2.7-0.9,4.8c0.7,2.2,2.4,2.6,2.6,4.4c0.2,1.7,1.5,3.2,3.1,3.8c1.6,0.7,3.8-0.2,3.9-0.5
			C158.4,113.8,166.5,107.8,166.5,107.8z"/>
		<path class="st21" d="M171.6,171.6c0,0,1.1,11,5.8,20.4c4.7,9.3,9.2,22.5,9.5,24.1c0.2,1.7-1.4,19.6-0.6,35
			c0.8,15.4-3.6,47.5-5.7,51.9c0,0,5.5,3.2,10.8,1.7c0,0,5-34.1,7.3-46.3c2.3-12.2,3.6-45.3,3.6-45.3s3.3,6.2,4.9,11.4
			c1.6,5.1,6.6,30.2,13.6,49.4c7.1,19.1,8,27.1,8,27.1s8-1.3,10.9-3.7c0,0-10.3-26.1-18.8-63.8c0,0-4.5-24.2-6.7-29.8
			c-2.2-5.6-19.6-43.5-21-44.9C191.7,157.3,171.6,171.6,171.6,171.6z"/>
		<path class="st30" d="M158.9,120.2c0,0-5.9,5.9-7.4,9.8c-1.5,3.9,3.3,11.4,5,15.4c1.7,4,4.2,9.9,8.6,9.7c0,0,3.6,9,3.3,12.7
			c-0.3,3.6-0.3,4.5-0.3,4.5s14.8-2.5,18.8-5.5c4-3,8.3-8.3,8.3-8.3s-1.9-0.9-2.5-1.9c-0.6-1-3.2-7.2-3.2-7.2s11.4-3.6,15.1-5.8
			c3.8-2.2,4.5-2.6,4.5-2.6l-2.1-4.5c0,0-11.6,4.1-20.1,6.2l-3.6-9.1c0,0,4.2,2.2,5.1,2.4c0.9,0.2,1.6,0.2,1.6,0.2s-0.5-7.2-0.2-9.2
			c0,0-5.7-2.6-9.9-5.7c-4.2-3.1-4.3-3.2-5.4-3.4c-1-0.2-10,1-10,1L158.9,120.2z"/>
		<path class="st23" d="M166,118.2c0,0-1.3-2.8-1.4-5.2l-6.6,1.7c0,0,1.2,4.1,0.8,5.6c-0.4,1.5,6.3,1.9,7.4,1
			C167.4,120.3,166,118.2,166,118.2z"/>
		<path class="st18" d="M166.5,106.8c0,0,0.9,10-3.9,9.8c-4.9-0.2-7.3-6.1-7.3-6.1c-0.7,0.3-1.5,0-2.1-0.6c-0.5-0.5-0.8-1.2-1-1.9
			c-0.1-0.4-0.2-1,0.2-1.3c0.2-0.2,0.5-0.2,0.8-0.1c0.3,0.1,0.5,0.3,0.7,0.4c0.3,0.3,0.7,0.6,1,0.8c0.1,0.1,0.3,0.2,0.5,0.2
			c0.2,0,0.3-0.3,0.3-0.5c0.2-1.1,0.2-2.2-0.1-3.3c1.9,0,3.8-0.1,5.4-1.1c0.4,0.5,1.1,0.7,1.7,0.7c0.6,0,1.3-0.2,1.9-0.4
			c0.3,0.8,0.6,1.7,1,2.5C165.7,106.5,166.1,106.9,166.5,106.8z"/>
		<path class="st31" d="M167.4,161.7c7.8-4.4,18.9-10,22.5-11.8c-0.2-0.4-0.3-0.6-0.3-0.6s-15.8,5.3-24.6,5.7
			C165.1,155,166.5,158.3,167.4,161.7z"/>
		<path class="st31" d="M169.6,144.1c-3.4-7.2-7.9-11.8-7.9-11.8c3,4.3,7.2,14,7.2,14c8.8-0.9,18.3-3.7,18.3-3.7L169.6,144.1z"/>
		<path class="st18" d="M207.5,136.8c0,0,2-0.7,2.7-1.9c0.7-1.2,1.9-1.7,2.2-1.5c0.3,0.2-0.1,1.1,0.2,1c0.3-0.1,4.8-3.4,5.6-3.7
			c0.8-0.3,1.2,0.1,0.9,0.5c-0.3,0.4-4.2,3-4.2,3s5.1-2.8,5.7-2.9c0.6-0.1,0.7,0.5,0.7,0.7c0,0.2-5.9,3.5-5.9,3.5s3.9-1.6,4.3-1.5
			c0.4,0.1,0.5,0.4,0.2,0.8c-0.3,0.4-4.2,2.1-4.2,2.1s1.9-0.4,2-0.3c0.2,0.1,0,0.7-0.5,1c-0.5,0.2-1.3,0.9-3.3,1
			c-2,0.2-5.1,1.1-5.1,1.1L207.5,136.8z"/>
		<path class="st25" d="M204.4,217.5c1.1-5,2.6-15-1.8-20.1c-6.1-6.9-11.4-24.1-11.4-24.1c2.3,13.7,10.9,28.8,11.3,30.8
			c0.5,2-0.3,8.9-0.3,8.9S203.2,215,204.4,217.5z"/>
		<g>
			<path class="st32" d="M180.3,322.6h28.1c0,0,0.7-1.1-2.1-2.4s-7-1.2-14.2-4.3c0,0-1.1-0.3-2.2-1.8c-1-1.4-2.6-0.2-3,0
				c-0.5,0.2-1.8,0.8-3.3-0.1c-1.5-0.9-2.8-0.6-3.3,0.2c-0.6,0.8-0.6,2.6-0.5,3.1C180,317.9,180.5,321.5,180.3,322.6z"/>
			<path class="st33" d="M180.3,322.6h28.1c0,0,0.6-1-1.8-2.2h-26.4C180.3,321.3,180.4,322.1,180.3,322.6z"/>
		</g>
		<g>
			<path class="st32" d="M234.8,318.6l27.3-6.8c0,0,0.4-1.2-2.6-1.8c-3-0.6-7.1,0.5-14.8-0.8c0,0-1.2,0-2.5-1.2
				c-1.4-1.1-2.5,0.4-2.9,0.7c-0.4,0.3-1.6,1.2-3.3,0.7c-1.7-0.5-2.8,0.1-3.2,1c-0.3,0.9,0,2.7,0.3,3.1
				C233.3,314.1,234.7,317.5,234.8,318.6z"/>
			<path class="st33" d="M234.8,318.6l27.3-6.8c0,0,0.3-1.1-2.3-1.7l-25.6,6.4C234.5,317.3,234.7,318.2,234.8,318.6z"/>
		</g>
	</g>
	<g>
		<circle class="st22" cx="187.2" cy="51.8" r="29.7"/>
		<circle class="st24" cx="187.2" cy="51.8" r="24.8"/>
		<circle class="st34" cx="187.2" cy="51.8" r="22"/>
		<g>
			<polygon class="st24" points="187.2,31 187.2,61.1 200.1,52.2 			"/>
			<polygon class="st20" points="187.2,47.2 187.2,61.1 200.1,52.2 			"/>
			<polygon class="st22" points="187.2,31 187.2,61.1 174.2,52.2 			"/>
			<polygon class="st20" points="187.2,47.2 187.2,61.1 174.2,52.2 			"/>
			<g>
				<polygon class="st24" points="187.2,72.6 200.6,54.2 187.2,63.7 				"/>
				<polygon class="st22" points="187.2,72.6 173.8,54.2 187.2,63.7 				"/>
			</g>
		</g>
	</g>
	<g>
		<g>
			<path class="st1" d="M353.7,287h-61.4c-1.6,0-2.9-1.3-2.9-2.9v-61.4c0-1.6,1.3-2.9,2.9-2.9h61.4c1.6,0,2.9,1.3,2.9,2.9v61.4
				C356.6,285.7,355.3,287,353.7,287z"/>
			<rect x="295.9" y="226.3" class="st17" width="54.3" height="54.3"/>
			<rect x="299.5" y="229.9" class="st8" width="47" height="47"/>
			<g>
				<g>
					<path class="st35" d="M300.1,206.8L300.1,206.8c-1,0-1.9,0.8-1.9,1.9v11.2h3.7v-11.2C302,207.6,301.1,206.8,300.1,206.8z"/>
					<path class="st35" d="M311.6,206.8L311.6,206.8c-1,0-1.9,0.8-1.9,1.9v11.2h3.7v-11.2C313.4,207.6,312.6,206.8,311.6,206.8z"/>
					<path class="st35" d="M323,206.8L323,206.8c-1,0-1.9,0.8-1.9,1.9v11.2h3.7v-11.2C324.9,207.6,324.1,206.8,323,206.8z"/>
					<path class="st35" d="M334.5,206.8L334.5,206.8c-1,0-1.9,0.8-1.9,1.9v11.2h3.7v-11.2C336.4,207.6,335.5,206.8,334.5,206.8z"/>
					<path class="st35" d="M346,206.8L346,206.8c-1,0-1.9,0.8-1.9,1.9v11.2h3.7v-11.2C347.9,207.6,347,206.8,346,206.8z"/>
				</g>
				<g>
					<path class="st35" d="M346,300L346,300c1,0,1.9-0.8,1.9-1.9V287h-3.7v11.2C344.1,299.2,345,300,346,300z"/>
					<path class="st35" d="M334.5,300L334.5,300c1,0,1.9-0.8,1.9-1.9V287h-3.7v11.2C332.6,299.2,333.5,300,334.5,300z"/>
					<path class="st35" d="M323,300L323,300c1,0,1.9-0.8,1.9-1.9V287h-3.7v11.2C321.2,299.2,322,300,323,300z"/>
					<path class="st35" d="M311.6,300L311.6,300c1,0,1.9-0.8,1.9-1.9V287h-3.7v11.2C309.7,299.2,310.5,300,311.6,300z"/>
					<path class="st35" d="M300.1,300L300.1,300c1,0,1.9-0.8,1.9-1.9V287h-3.7v11.2C298.2,299.2,299,300,300.1,300z"/>
				</g>
				<g>
					<path class="st35" d="M369.7,230.5L369.7,230.5c0-1-0.8-1.9-1.9-1.9h-11.2v3.7h11.2C368.8,232.3,369.7,231.5,369.7,230.5z"/>
					<path class="st35" d="M369.7,241.9L369.7,241.9c0-1-0.8-1.9-1.9-1.9h-11.2v3.7h11.2C368.8,243.8,369.7,243,369.7,241.9z"/>
					<path class="st35" d="M369.7,253.4L369.7,253.4c0-1-0.8-1.9-1.9-1.9h-11.2v3.7h11.2C368.8,255.3,369.7,254.4,369.7,253.4z"/>
					<path class="st35" d="M369.7,264.9L369.7,264.9c0-1-0.8-1.9-1.9-1.9h-11.2v3.7h11.2C368.8,266.8,369.7,265.9,369.7,264.9z"/>
					<path class="st35" d="M369.7,276.4L369.7,276.4c0-1-0.8-1.9-1.9-1.9h-11.2v3.7h11.2C368.8,278.2,369.7,277.4,369.7,276.4z"/>
				</g>
				<g>
					<path class="st35" d="M276.4,276.4L276.4,276.4c0,1,0.8,1.9,1.9,1.9h11.2v-3.7h-11.2C277.2,274.5,276.4,275.3,276.4,276.4z"/>
					<path class="st35" d="M276.4,264.9L276.4,264.9c0,1,0.8,1.9,1.9,1.9h11.2V263h-11.2C277.2,263,276.4,263.9,276.4,264.9z"/>
					<path class="st35" d="M276.4,253.4L276.4,253.4c0,1,0.8,1.9,1.9,1.9h11.2v-3.7h-11.2C277.2,251.5,276.4,252.4,276.4,253.4z"/>
					<path class="st35" d="M276.4,241.9L276.4,241.9c0,1,0.8,1.9,1.9,1.9h11.2v-3.7h-11.2C277.2,240.1,276.4,240.9,276.4,241.9z"/>
					<path class="st35" d="M276.4,230.5L276.4,230.5c0,1,0.8,1.9,1.9,1.9h11.2v-3.7h-11.2C277.2,228.6,276.4,229.4,276.4,230.5z"/>
				</g>
			</g>
			<g>
				<rect x="332.6" y="217.1" class="st36" width="3.7" height="2.7"/>
				<rect x="321.2" y="217.1" class="st36" width="3.7" height="2.7"/>
				<rect x="298.2" y="217.1" class="st36" width="3.7" height="2.7"/>
				<rect x="309.7" y="217.1" class="st36" width="3.7" height="2.7"/>
				<rect x="356.6" y="228.6" class="st36" width="2.7" height="3.7"/>
				<rect x="356.6" y="274.5" class="st36" width="2.7" height="3.7"/>
				<rect x="356.6" y="240.1" class="st36" width="2.7" height="3.7"/>
				<rect x="356.6" y="251.5" class="st36" width="2.7" height="3.7"/>
				<rect x="356.6" y="263" class="st36" width="2.7" height="3.7"/>
				<rect x="298.2" y="287" class="st36" width="3.7" height="2.7"/>
				<rect x="286.7" y="251.5" class="st36" width="2.7" height="3.7"/>
				<rect x="286.7" y="240.1" class="st36" width="2.7" height="3.7"/>
				<rect x="286.7" y="228.6" class="st36" width="2.7" height="3.7"/>
				<rect x="286.7" y="263" class="st36" width="2.7" height="3.7"/>
				<rect x="286.7" y="274.5" class="st36" width="2.7" height="3.7"/>
				<rect x="344.1" y="217.1" class="st36" width="3.7" height="2.7"/>
				<rect x="321.2" y="287" class="st36" width="3.7" height="2.7"/>
				<rect x="332.6" y="287" class="st36" width="3.7" height="2.7"/>
				<rect x="309.7" y="287" class="st36" width="3.7" height="2.7"/>
				<rect x="344.1" y="287" class="st36" width="3.7" height="2.7"/>
			</g>
		</g>
		<g>
			<g>
				<path class="st1" d="M406.9,222.5h-15.6c-0.1,0-0.2,0.1-0.3,0.2l-8.3,11.3h-10.8c-0.2,0-0.4,0.2-0.4,0.4c0,0.2,0.2,0.4,0.4,0.4
					h11h11.7c0.2,0,0.4-0.2,0.4-0.4c0-0.2-0.2-0.4-0.4-0.4h-11l7.9-10.7h15.4c0.2,0,0.4-0.2,0.4-0.4
					C407.3,222.6,407.1,222.5,406.9,222.5z"/>
				<path class="st1" d="M400.6,246.7c0.2,0,0.4-0.2,0.4-0.4s-0.2-0.4-0.4-0.4h-28.8c-0.2,0-0.4,0.2-0.4,0.4s0.2,0.4,0.4,0.4H400.6z
					"/>
				<path class="st1" d="M403.3,265.3h-13.9L385,258c-0.1-0.1-0.2-0.2-0.3-0.2h-14.3c-0.2,0-0.4,0.2-0.4,0.4s0.2,0.4,0.4,0.4h14.1
					l4.4,7.4c0.1,0.1,0.2,0.2,0.3,0.2h14.1c0.2,0,0.4-0.2,0.4-0.4S403.5,265.3,403.3,265.3z"/>
				<path class="st1" d="M396.2,275.1H375c-0.2,0-0.4,0.2-0.4,0.4s0.2,0.4,0.4,0.4h21.2c0.2,0,0.4-0.2,0.4-0.4
					S396.4,275.1,396.2,275.1z"/>
			</g>
			<g>
				<path class="st1" d="M273.1,235.5c0.1,0,0.2-0.1,0.2-0.2s-0.1-0.2-0.2-0.2h-14.7l-3.8-6.7c0-0.1-0.1-0.1-0.2-0.1h-6.7
					c-0.1,0-0.2,0.1-0.2,0.2s0.1,0.2,0.2,0.2h6.6l3.6,6.4h-16.8l-3.9-3c-0.1-0.1-0.2,0-0.3,0c-0.1,0.1,0,0.2,0,0.3l3.9,3
					c0,0,0.1,0,0.1,0H273.1z"/>
				<path class="st1" d="M273.1,248.7h-23.7c-0.1,0-0.2,0.1-0.2,0.2c0,0.1,0.1,0.2,0.2,0.2h23.7c0.1,0,0.2-0.1,0.2-0.2
					C273.3,248.8,273.2,248.7,273.1,248.7z"/>
				<path class="st1" d="M273.1,263.2h-17.8c-0.1,0-0.2,0.1-0.2,0.2v7.1h-10.3c-0.1,0-0.2,0.1-0.2,0.2c0,0.1,0.1,0.2,0.2,0.2h10.4
					c0.1,0,0.2-0.1,0.2-0.2v-7.1h17.6c0.1,0,0.2-0.1,0.2-0.2C273.3,263.3,273.2,263.2,273.1,263.2z"/>
				<path class="st1" d="M271.4,280.4h-17.9c-0.1,0-0.2,0.1-0.2,0.2c0,0.1,0.1,0.2,0.2,0.2h17.9c0.1,0,0.2-0.1,0.2-0.2
					C271.6,280.4,271.5,280.4,271.4,280.4z"/>
			</g>
			<g>
				<path class="st8" d="M410.6,222.8c0,1-0.8,1.8-1.8,1.8c-1,0-1.8-0.8-1.8-1.8c0-1,0.8-1.8,1.8-1.8
					C409.8,221,410.6,221.8,410.6,222.8z"/>
				<path class="st8" d="M398.2,234.3c0,1-0.8,1.8-1.8,1.8c-1,0-1.8-0.8-1.8-1.8c0-1,0.8-1.8,1.8-1.8
					C397.4,232.5,398.2,233.3,398.2,234.3z"/>
				<path class="st8" d="M404.2,246.2c0,1-0.8,1.8-1.8,1.8c-1,0-1.8-0.8-1.8-1.8c0-1,0.8-1.8,1.8-1.8
					C403.4,244.4,404.2,245.2,404.2,246.2z"/>
				<circle class="st8" cx="398" cy="275.4" r="1.8"/>
				<path class="st8" d="M407,265.7c0,1-0.8,1.8-1.8,1.8c-1,0-1.8-0.8-1.8-1.8c0-1,0.8-1.8,1.8-1.8C406.1,263.9,407,264.7,407,265.7
					z"/>
			</g>
			<g>
				<path class="st8" d="M237.6,231.1c0,1-0.8,1.8-1.8,1.8c-1,0-1.8-0.8-1.8-1.8c0-1,0.8-1.8,1.8-1.8
					C236.8,229.2,237.6,230.1,237.6,231.1z"/>
				<path class="st8" d="M247.7,228.6c0,1-0.8,1.8-1.8,1.8c-1,0-1.8-0.8-1.8-1.8c0-1,0.8-1.8,1.8-1.8
					C246.9,226.8,247.7,227.6,247.7,228.6z"/>
				<path class="st8" d="M244.8,270.7c0,1-0.8,1.8-1.8,1.8c-1,0-1.8-0.8-1.8-1.8c0-1,0.8-1.8,1.8-1.8
					C244,268.8,244.8,269.7,244.8,270.7z"/>
				<path class="st8" d="M253.5,280.6c0,1-0.8,1.8-1.8,1.8s-1.8-0.8-1.8-1.8c0-1,0.8-1.8,1.8-1.8S253.5,279.5,253.5,280.6z"/>
				<circle class="st8" cx="247.7" cy="248.9" r="1.8"/>
			</g>
		</g>
	</g>
	<text transform="matrix(1 0 0 1 302.7303 260.1852)" class="st11 st37 st38">NFT</text>
</g>
<g class="st39">
	<g class="st40">
		<linearGradient id="SVGID_1_" gradientUnits="userSpaceOnUse" x1="686.9348" y1="89.0901" x2="855.9401" y2="89.0901">
			<stop  offset="0" style="stop-color:#5A12B6"/>
			<stop  offset="0.4272" style="stop-color:#2E4EB7"/>
			<stop  offset="1" style="stop-color:#6CBFF9"/>
		</linearGradient>
		<path class="st41" d="M850.2,58.5c-1.9-0.9-3.9-1.6-6-2c-6.3-1.5-12.8-1.4-19.3-1.1c-7,0.4-14,1.3-20.9,2.6c-1,0.2-1.6,0-2.3-0.7
			c-1.4-1.4-3-2.7-4.5-4c-5.2-3.8-10.8-6.4-17-7.9c-26-6.2-51.9,12-54.8,38.6c-0.1,0.8-0.4,1.1-1,1.5c-2.8,1.5-5.7,3.1-8.5,4.7
			c-7.5,4.4-14.7,9.2-20.9,15.3c-2.8,2.7-5.3,5.6-7,9.1c-2.5,5.3-1.1,9.8,4.2,12.5c1.6,0.8,3.3,1.4,5.1,1.9
			c6.4,1.7,12.9,1.7,19.4,1.4c13-0.6,25.6-3,38.2-6.2c19.6-5,38.5-11.7,56.7-20.6c11.5-5.6,22.7-11.9,32.6-20.2
			c4-3.4,7.7-7.1,10.2-11.8C857.4,66.1,855.9,61.2,850.2,58.5z M732.5,114.2c-1.1,0.1-2.4,0.2-3.7,0.3c-4,0.2-8,0.3-12-0.8
			c-0.8-0.2-1.6-0.6-2.4-1c-1.8-1-2.5-2.8-1.8-4.8c0.7-2,2-3.6,3.5-4.9c2.9-2.4,5.9-4.6,8.8-6.8c0.1-0.1,0.3-0.2,0.4-0.2
			c0.8,2.7,1.5,5.5,2.4,8.2c5.4,0.8,24.9,2.6,56.5-4.2C784.3,100,764.7,109.1,732.5,114.2z M827.4,75.4c-2.1,3-4.9,5.1-7.8,7.2
			c-1.5,1.1-3,2.1-4.7,3.2c-0.6-6.8-2.4-12.9-5.7-18.9c5.3-0.4,10.4-0.9,15.5,0.6C829,68.8,830,71.6,827.4,75.4z M780.6,119.3
			c10.4-3.6,20.6-7.7,30.7-12.5c-10.7,25.3-41.4,34.1-62.6,21.6C759.6,126,770.2,122.9,780.6,119.3z"/>
		<path class="st11" d="M850.2,210.2c-1.9-0.9-3.9-1.6-6-2c-6.3-1.5-12.8-1.4-19.3-1.1c-7,0.4-14,1.3-20.9,2.6c-1,0.2-1.6,0-2.3-0.7
			c-1.4-1.4-3-2.7-4.5-4c-5.2-3.8-10.8-6.4-17-7.9c-26-6.2-51.9,12-54.8,38.6c-0.1,0.8-0.4,1.1-1,1.5c-2.8,1.5-5.7,3.1-8.5,4.7
			c-7.5,4.4-14.7,9.2-20.9,15.3c-2.8,2.7-5.3,5.6-7,9.1c-2.5,5.3-1.1,9.8,4.2,12.5c1.6,0.8,3.3,1.4,5.1,1.9
			c6.4,1.7,12.9,1.7,19.4,1.4c13-0.6,25.6-3,38.2-6.2c19.6-5,38.5-11.7,56.7-20.6c11.5-5.6,22.7-11.9,32.6-20.2
			c4-3.4,7.7-7.1,10.2-11.8C857.4,217.8,855.9,212.9,850.2,210.2z M732.5,265.9c-1.1,0.1-2.4,0.2-3.7,0.3c-4,0.2-8,0.3-12-0.8
			c-0.8-0.2-1.6-0.6-2.4-1c-1.8-1-2.5-2.8-1.8-4.8c0.7-2,2-3.6,3.5-4.9c2.9-2.4,5.9-4.6,8.8-6.8c0.1-0.1,0.3-0.2,0.4-0.2
			c0.8,2.7,1.5,5.5,2.4,8.2c5.4,0.8,24.9,2.6,56.5-4.2C784.3,251.7,764.7,260.8,732.5,265.9z M827.4,227.1c-2.1,3-4.9,5.1-7.8,7.2
			c-1.5,1.1-3,2.1-4.7,3.2c-0.6-6.8-2.4-12.9-5.7-18.9c5.3-0.4,10.4-0.9,15.5,0.6C829,220.5,830,223.3,827.4,227.1z M780.6,271
			c10.4-3.6,20.6-7.7,30.7-12.5c-10.7,25.3-41.4,34.1-62.6,21.6C759.6,277.7,770.2,274.6,780.6,271z"/>
	</g>
	<g class="st40">
		<path class="st30" d="M1064,58.5c-1.9-0.9-3.9-1.6-6-2c-6.3-1.5-12.8-1.4-19.3-1.1c-7,0.4-14,1.3-20.9,2.6c-1,0.2-1.6,0-2.3-0.7
			c-1.4-1.4-3-2.7-4.5-4c-5.2-3.8-10.8-6.4-17-7.9c-26-6.2-51.9,12-54.8,38.6c-0.1,0.8-0.4,1.1-1,1.5c-2.8,1.5-5.7,3.1-8.5,4.7
			c-7.5,4.4-14.7,9.2-20.9,15.3c-2.8,2.7-5.3,5.6-7,9.1c-2.5,5.3-1.1,9.8,4.2,12.5c1.6,0.8,3.3,1.4,5.1,1.9
			c6.4,1.7,12.9,1.7,19.4,1.4c13-0.6,25.6-3,38.2-6.2c19.6-5,38.5-11.7,56.7-20.6c11.5-5.6,22.7-11.9,32.6-20.2
			c4-3.4,7.7-7.1,10.2-11.8C1071.2,66.1,1069.7,61.2,1064,58.5z M946.3,114.2c-1.1,0.1-2.4,0.2-3.7,0.3c-4,0.2-8,0.3-12-0.8
			c-0.8-0.2-1.6-0.6-2.4-1c-1.8-1-2.5-2.8-1.8-4.8c0.7-2,2-3.6,3.5-4.9c2.9-2.4,5.9-4.6,8.8-6.8c0.1-0.1,0.3-0.2,0.4-0.2
			c0.8,2.7,1.5,5.5,2.4,8.2c5.4,0.8,24.9,2.6,56.5-4.2C998.2,100,978.5,109.1,946.3,114.2z M1041.2,75.4c-2.1,3-4.9,5.1-7.8,7.2
			c-1.5,1.1-3,2.1-4.7,3.2c-0.6-6.8-2.4-12.9-5.7-18.9c5.3-0.4,10.4-0.9,15.5,0.6C1042.8,68.8,1043.8,71.6,1041.2,75.4z
			 M994.4,119.3c10.4-3.6,20.6-7.7,30.7-12.5c-10.7,25.3-41.4,34.1-62.6,21.6C973.4,126,984,122.9,994.4,119.3z"/>
		<path class="st22" d="M1064,210.2c-1.9-0.9-3.9-1.6-6-2c-6.3-1.5-12.8-1.4-19.3-1.1c-7,0.4-14,1.3-20.9,2.6c-1,0.2-1.6,0-2.3-0.7
			c-1.4-1.4-3-2.7-4.5-4c-5.2-3.8-10.8-6.4-17-7.9c-26-6.2-51.9,12-54.8,38.6c-0.1,0.8-0.4,1.1-1,1.5c-2.8,1.5-5.7,3.1-8.5,4.7
			c-7.5,4.4-14.7,9.2-20.9,15.3c-2.8,2.7-5.3,5.6-7,9.1c-2.5,5.3-1.1,9.8,4.2,12.5c1.6,0.8,3.3,1.4,5.1,1.9
			c6.4,1.7,12.9,1.7,19.4,1.4c13-0.6,25.6-3,38.2-6.2c19.6-5,38.5-11.7,56.7-20.6c11.5-5.6,22.7-11.9,32.6-20.2
			c4-3.4,7.7-7.1,10.2-11.8C1071.2,217.8,1069.7,212.9,1064,210.2z M946.3,265.9c-1.1,0.1-2.4,0.2-3.7,0.3c-4,0.2-8,0.3-12-0.8
			c-0.8-0.2-1.6-0.6-2.4-1c-1.8-1-2.5-2.8-1.8-4.8c0.7-2,2-3.6,3.5-4.9c2.9-2.4,5.9-4.6,8.8-6.8c0.1-0.1,0.3-0.2,0.4-0.2
			c0.8,2.7,1.5,5.5,2.4,8.2c5.4,0.8,24.9,2.6,56.5-4.2C998.2,251.7,978.5,260.8,946.3,265.9z M1041.2,227.1c-2.1,3-4.9,5.1-7.8,7.2
			c-1.5,1.1-3,2.1-4.7,3.2c-0.6-6.8-2.4-12.9-5.7-18.9c5.3-0.4,10.4-0.9,15.5,0.6C1042.8,220.5,1043.8,223.3,1041.2,227.1z
			 M994.4,271c10.4-3.6,20.6-7.7,30.7-12.5c-10.7,25.3-41.4,34.1-62.6,21.6C973.4,277.7,984,274.6,994.4,271z"/>
	</g>
</g>
</svg>
