<?xml version="1.0" encoding="utf-8"?>
<!-- Generator: Adobe Illustrator 26.0.3, SVG Export Plug-In . SVG Version: 6.00 Build 0)  -->
<svg version="1.1" id="Layer_1" xmlns="http://www.w3.org/2000/svg" xmlns:xlink="http://www.w3.org/1999/xlink" x="0px" y="0px"
	 viewBox="0 0 265.9 250.1" style="enable-background:new 0 0 265.9 250.1;" xml:space="preserve">
<style type="text/css">
	.st0{display:none;opacity:0.3;}
	.st1{display:inline;fill:#CC156D;}
	.st2{display:inline;fill:#0DD6AF;}
	.st3{display:inline;opacity:0.5;enable-background:new    ;}
	.st4{display:inline;opacity:0.2;enable-background:new    ;}
	.st5{display:inline;fill:none;stroke:#CC156D;stroke-width:2;stroke-miterlimit:10;}
	.st6{display:inline;fill:none;stroke:#CC156D;stroke-miterlimit:10;}
	.st7{display:inline;fill:none;stroke:#000000;stroke-miterlimit:10;}
	.st8{display:inline;opacity:0.5;fill:none;stroke:#000000;stroke-miterlimit:10;enable-background:new    ;}
	.st9{fill:#FFFFFF;}
</style>
<g id="Protected_by_insurance">
	<g class="st0">
		<path class="st1" d="M14.7,32.5c4.5-2.3,7.7-6.6,8.5-11.6c0.8,5,4,9.3,8.5,11.6c0.9,0.4,3,1,3,1c-1,0.3-2,0.6-3,1
			C27.2,36.7,24,41,23.2,46c-0.8-5-4-9.3-8.5-11.6c-1-0.4-2-0.7-3-1C12.7,33.2,13.7,32.9,14.7,32.5z"/>
		<circle class="st2" cx="225.4" cy="42.1" r="6"/>
		<circle class="st3" cx="31.7" cy="168.7" r="4"/>
		<circle class="st3" cx="216.8" cy="208.7" r="2.5"/>
		<circle class="st4" cx="78.7" cy="31.2" r="8.9"/>
		<path class="st2" d="M25.4,214.9c7.1-3.5,12-10.2,13.3-18c1.3,7.8,6.2,14.5,13.3,18c1.5,0.6,3.1,1.2,4.7,1.6
			c-1.6,0.5-3.1,1-4.7,1.6c-7.1,3.5-12,10.2-13.3,18c-1.3-7.8-6.2-14.5-13.3-18c-1.5-0.6-3.1-1.2-4.7-1.6
			C22.3,216.1,23.9,215.6,25.4,214.9z"/>
		<path class="st5" d="M152.4,32.8c-1.8-1.5-4.5-1.3-6,0.5s-1.2,4.4,0.5,5.9c0.7,0.4,0.9,1.3,0.4,1.9c-0.1,0.1-0.1,0.2-0.2,0.2
			c-1.1,1.5-1.1,3.5,0.1,5c1.1,1.5,3.1,2,4.8,1.4s2.8-2.3,2.7-4.1c-0.1-0.8,0.4-1.5,1.2-1.6c0.1,0,0.2,0,0.2,0l16-1.9
			c0.7-0.2,1.5,0.3,1.7,1c0,0.1,0,0.2,0,0.2c0.3,1.8,1.8,3.1,3.6,3.3s3.6-0.8,4.3-2.5s0.3-3.7-1.1-4.9c-0.7-0.4-0.8-1.3-0.4-2
			c0-0.1,0.1-0.1,0.2-0.2c1.4-1.9,0.9-4.5-0.9-5.8c-1.1-0.8-2.6-1-3.9-0.6c-1.7,0.6-2.9,2.3-2.8,4.1c0.1,0.8-0.4,1.5-1.1,1.6
			c-0.1,0-0.2,0-0.3,0l-16,1.9c-0.8,0.2-1.5-0.3-1.7-1c0-0.1,0-0.2,0-0.2C153.5,34.2,153.1,33.4,152.4,32.8z"/>
		<path class="st6" d="M196.9,66.3c0.3-1.5-0.7-3-2.3-3.3c-1.5-0.2-2.9,0.8-3.2,2.3c-0.1,0.5-0.6,0.9-1.1,0.9c0,0,0,0-0.1,0
			c-1.5-0.2-2.9,1-3.1,2.5c-0.1,0.9,0.3,1.8,1,2.4c0.9,0.8,2.3,0.9,3.3,0.2c0.4-0.3,1-0.3,1.3,0.1l0.1,0.1l6.5,8.6
			c0.4,0.4,0.4,1,0,1.3l-0.1,0.1c-0.9,0.8-1.2,2.1-0.7,3.2c0.6,1.4,2.3,2.1,3.7,1.4c0.9-0.4,1.5-1.1,1.6-2.1c0-0.5,0.5-0.9,1-0.9
			c0.1,0,0.1,0,0.2,0c1.5,0.2,2.9-1,3.1-2.5c0.1-0.9-0.3-1.8-1-2.4c-0.9-0.8-2.3-0.9-3.3-0.2c-0.4,0.3-1,0.3-1.3-0.1l-0.1-0.1
			l-6.5-8.6c-0.4-0.4-0.3-1,0-1.3l0.1-0.1C196.5,67.5,196.8,67,196.9,66.3z"/>
		<path class="st7" d="M91.4,220.9c-0.6-1.4-2.2-2.1-3.7-1.5c-1.4,0.6-2.1,2.2-1.5,3.6l0,0c0.3,0.4,0.1,1-0.3,1.3
			c-0.1,0-0.1,0.1-0.2,0.1c-1.1,0.6-1.7,1.8-1.5,3s1.2,2.1,2.4,2.2c1.2,0.2,2.4-0.5,2.8-1.6c0.2-0.5,0.8-0.8,1.3-0.6l0,0l10.1,3.7
			c0.5,0.1,0.8,0.6,0.7,1.1c0,0.1,0,0.1,0,0.2c-0.3,1.2,0.1,2.4,1.2,3.1c1.3,0.8,3,0.5,3.9-0.8c0.5-0.8,0.6-1.8,0.2-2.6
			c-0.3-0.4-0.1-1,0.3-1.3c0.1,0,0.1-0.1,0.2-0.1c1.4-0.7,1.9-2.4,1.2-3.7c-0.4-0.8-1.2-1.4-2.1-1.5c-1.2-0.2-2.4,0.5-2.9,1.6
			c-0.2,0.5-0.8,0.8-1.3,0.6l0,0L92.1,224c-0.5-0.1-0.8-0.6-0.7-1.1c0-0.1,0-0.1,0-0.2C91.7,222.1,91.6,221.5,91.4,220.9z"/>
		<path class="st2" d="M152.1,223.2c5.2,0.1,10.1-2.3,13.2-6.5c-1.6,4.9-0.8,10.3,2.3,14.5c0.7,0.8,1.4,1.6,2.2,2.3
			c-1.1-0.2-2.1-0.4-3.2-0.4c-5.2-0.1-10.1,2.3-13.2,6.5c1.6-4.9,0.8-10.3-2.3-14.5c-0.7-0.8-1.4-1.6-2.2-2.3
			C150,223,151.1,223.1,152.1,223.2z"/>
		<path class="st7" d="M29.5,76.2c3.7,0.1,7.2-1.7,9.3-4.6c-1.1,3.5-0.5,7.3,1.6,10.3c0.5,0.6,1,1.1,1.6,1.7
			c-0.8-0.2-1.5-0.3-2.3-0.3c-3.7-0.1-7.2,1.7-9.3,4.6c1.1-3.5,0.5-7.3-1.6-10.3c-0.5-0.6-1-1.1-1.6-1.7C28,76,28.7,76.1,29.5,76.2z
			"/>
		<path class="st8" d="M189.1,103.2c3.7,0.1,7.2-1.7,9.3-4.6c-1.1,3.5-0.5,7.3,1.6,10.3c0.5,0.6,1,1.1,1.6,1.7
			c-0.8-0.1-1.5-0.3-2.3-0.3c-3.7-0.1-7.2,1.7-9.3,4.6c1.1-3.5,0.5-7.3-1.6-10.3c-0.5-0.6-1-1.1-1.6-1.7
			C187.6,103.1,188.3,103.2,189.1,103.2z"/>
		<path class="st2" d="M224,123.1c-0.9,0.4-1.9,0.6-2.9,0.5c-3.3-0.4-5.7-3.3-5.3-6.6c0.3-2.6,2.3-4.8,4.9-5.2
			c0.2,0,0.4-0.1,0.4-0.3c1.2-3.1,4.7-4.6,7.7-3.5c2.1,0.8,3.6,2.7,3.8,5c0.1,1.3-0.2,2.7-1,3.8l-0.2,0.2v0.1l0.2,0.3
			c2.4,2.9,4.8,5.9,7.1,8.8c0.1,0.2,0.3,0.3,0.5,0.2l0,0c3-1.4,6.6,0,7.9,3c1.4,3,0,6.6-3,7.9c-0.6,0.3-1.2,0.4-1.9,0.5
			c-0.2,0-0.4,0.1-0.4,0.3c-1.2,3.1-4.6,4.7-7.7,3.5c-2.1-0.8-3.6-2.7-3.8-5c-0.1-1.4,0.2-2.7,1-3.8c0.1-0.2,0.1-0.3,0-0.4
			C228.9,129.2,226.5,126.2,224,123.1L224,123.1z M230.3,114c0.3-2-1.1-3.8-3.1-4.1c-1.9-0.2-3.7,1.1-4,3.1c0,0.7-0.6,1.2-1.2,1.2
			c-0.1,0-0.2,0-0.2,0c-2-0.1-3.7,1.4-3.8,3.3c-0.1,1.2,0.4,2.3,1.4,3.1c1.2,1,2.9,1,4.2,0.1c0.5-0.4,1.3-0.4,1.7,0.1
			c0,0.1,0.1,0.1,0.1,0.2c2.9,3.6,5.8,7.2,8.7,10.8c0.5,0.5,0.5,1.2,0,1.7l-0.1,0.1c-1.1,1.1-1.5,2.7-0.8,4.1c0.9,1.8,3,2.5,4.8,1.7
			c1.1-0.5,1.8-1.5,2-2.7c0-0.7,0.6-1.2,1.2-1.2c0.1,0,0.2,0,0.2,0c1.6,0.1,3-0.8,3.6-2.3s0.1-3.1-1.1-4.1c-1.2-1-3-1-4.2-0.1
			c-0.5,0.4-1.3,0.4-1.7-0.1c0-0.1-0.1-0.1-0.1-0.2l-8.7-10.8c-0.5-0.5-0.5-1.2,0-1.7c0.1-0.1,0.1-0.1,0.2-0.1
			C229.8,115.5,230.2,114.8,230.3,114L230.3,114z"/>
		<path class="st4" d="M27.9,126.1c0-0.8,0.2-1.6,0.6-2.3c1.2-2.3,4.1-3.2,6.4-1.9c2,1.1,3,3.4,2.3,5.5c-0.1,0.2,0,0.3,0.1,0.4
			c1.9,1.8,2,4.8,0.2,6.7c-1.3,1.4-3.3,1.8-5.1,1.2c-1-0.4-1.8-1-2.4-1.9l-0.1-0.2l-0.1-0.1l-0.2,0.1l-8.8,2.3
			c-0.2,0-0.3,0.2-0.3,0.3l0,0c-0.1,2.6-2.3,4.7-4.9,4.6s-4.7-2.3-4.6-4.9c0-0.4,0.1-0.8,0.2-1.2c0.1-0.1,0-0.3-0.1-0.4
			c-1.9-1.8-2-4.8-0.2-6.7c1.3-1.4,3.3-1.8,5.1-1.2c1,0.4,1.9,1.1,2.5,2c0.1,0.1,0.1,0.2,0.3,0.1L27.9,126.1L27.9,126.1z
			 M32.4,133.6c1.3,0.9,3.1,0.5,4-0.9c0.8-1.3,0.4-3.1-0.9-3.9c-0.5-0.3-0.7-0.9-0.4-1.3c0,0,0-0.1,0.1-0.1c0.6-1.1,0.4-2.5-0.5-3.4
			s-2.2-1.1-3.4-0.5c-1.1,0.6-1.7,1.8-1.5,3c0.1,0.5-0.2,1.1-0.7,1.2H29l-10.7,2.8c-0.5,0.2-1.1-0.1-1.3-0.6v-0.1
			c-0.4-1.2-1.5-2-2.8-1.9c-1.6,0-2.8,1.4-2.8,2.9c0,0.9,0.5,1.8,1.3,2.3c0.5,0.2,0.7,0.9,0.4,1.3c0,0,0,0.1-0.1,0.1
			c-0.7,1.4-0.2,3.1,1.2,3.9c0.8,0.5,1.8,0.5,2.7,0c1.1-0.6,1.7-1.8,1.5-3c-0.1-0.5,0.2-1.1,0.7-1.2h0.1l10.7-2.8
			c0.5-0.2,1.1,0.1,1.3,0.6c0,0,0,0,0,0.1C31.5,132.7,31.9,133.3,32.4,133.6z"/>
	</g>
	<path class="st9" d="M174.6,215.2c-2.5,3.1-5.9,3.6-9.6,3.6c-38.3-0.1-76.5-0.1-114.8,0c-7.1,0-10.8-3.6-10.8-10.8V60.7
		C39.3,53.7,43,50,50,50c7.5,0,15.1,0,22.6,0c1,0.1,1.9-0.4,2.2-1.3c1.5-3,4.7-4.9,8.1-4.9c1.9-0.1,3.8-0.1,5.7,0
		c1.3,0.1,1.9-0.4,2.4-1.6c4.2-9.4,15.3-13.5,24.7-9.3c2.7,1.2,5.1,3.1,6.9,5.4c1,1.3,1.7,2.9,2.6,4.3c0.4,0.6,1,1,1.7,1.1
		c1.9,0.1,3.9,0,5.8,0.1c3.5-0.1,6.8,1.9,8.4,5c0.3,0.8,1.2,1.3,2.1,1.2c7.7,0,15.5,0,23.2,0c6.3,0,10.2,3.9,10.2,10.3
		c0,20,0,40,0,60v2.5c1.5-1.1,2.7-2,3.9-2.9c1.6-1.3,3.1-1.2,4.8,0c4.6,3.2,9,6.7,13.8,9.4c7,4,14.8,5.4,22.9,5.2
		c3.7-0.1,4.6,0.9,4.6,4.6c0,13.5,0,27.1,0,40.6c0,12.3-5.6,21.3-16.7,26.6c-8.2,4-16.5,7.8-24.8,11.8c-1.4,0.8-3,0.8-4.4,0
		C178.7,217.1,176.7,216.2,174.6,215.2z M58.2,68.8V200h88.2c-1.6-2.6-3.3-5.1-4.7-7.8c-0.4-1-1.4-1.6-2.5-1.5
		c-16.9,0-33.8,0-50.7,0h-2.3v-6.3h52.9v-12.5H86.3v-6.3H139v-12.5H86.2v-6.2h52.9v-7c0-4.8,0.6-5.2,5.3-5.5
		c4.4-0.2,8.9-0.8,13.2-1.2V68.8h-15.3c-1,2.6-1.6,3-4.4,3c-19.9,0-39.8,0-59.7,0c-2.4,0-4.4-0.3-4.9-3.1L58.2,68.8z M167.7,212.6
		l0.1-0.5c-3.3-1.6-6.6-3.3-10-4.7c-1.3-0.6-2.8-1-4.3-1c-32.6-0.1-65.1-0.1-97.7,0c-3,0-4.2-1-4.2-3.8V66.3c0-2.7,1.1-3.8,3.8-3.8
		c0.8,0,1.7,0,2.5,0h15.4v-6.3h-23c-3.8,0-4.7,0.8-4.7,4.7v146.9c0,3.9,0.8,4.7,4.6,4.7h117.5V212.6z M182.9,125.7
		c-5.6,4.4-11.1,8.4-17.5,11c-6.3,2.5-13.1,3.9-19.9,4c-0.1,0.3-0.1,0.6-0.1,0.9c0,13.3-0.2,26.7,0.1,40c0.2,8.4,4.5,14.7,12,18.5
		c7.9,3.9,15.9,7.6,23.9,11.5c1,0.5,2.1,0.5,3.1-0.1c7.5-3.6,15.1-7.2,22.7-10.8c8.7-4.2,13.1-11.1,13.2-20.8c0-12.4,0-24.9,0-37.3
		c0-0.6-0.1-1.2-0.1-2C205.8,140.5,193.7,135,182.9,125.7L182.9,125.7z M79.9,65.5H136c0-4,0-7.9,0-11.8c0-2.5-1.2-3.6-3.8-3.7
		s-5.5,0-8.2,0c-2.5,0-3.4-0.6-4-3c-1.7-6.7-8.4-10.8-15.1-9.1c-4.5,1.1-8,4.6-9.1,9.1c-0.6,2.3-1.5,3-3.8,3c-2.9,0-5.8,0-8.8,0
		c-2,0-3.3,1.2-3.3,3.1C79.9,57.2,79.9,61.3,79.9,65.5L79.9,65.5z M142.4,62.5h17.3c3.6,0,4.4,0.9,4.4,4.5v63.5c1.9-1,3.4-1.9,5-2.6
		c0.9-0.4,1.4-1.3,1.3-2.3c0-21.8,0-43.6,0-65.4c0-2.9-1.1-4-4-4H144c-0.5,0-1,0.1-1.6,0.1V62.5z"/>
	<path class="st9" d="M98.6,90.6c0-3.2,0-6,0-8.9c0-2.4,1.2-3.6,3.6-3.6c3.8,0,7.7,0,11.5,0c2.5,0,3.6,1.2,3.6,3.8
		c0,2.8,0,5.7,0,8.7c3,0,5.7,0,8.5,0c2.9,0,4,1.1,4,4c0,3.6,0,7.3,0,10.9c0,2.7-1.1,3.8-3.8,3.8s-5.6,0-8.7,0v8.2
		c0,3.3-1,4.3-4.3,4.3h-10.5c-2.8,0-3.9-1.1-3.9-3.9s0-5.6,0-8.6h-8.4c-3,0-4.1-1-4.1-4.1c0-3.6,0-7.3,0-10.9c0-2.6,1.2-3.7,3.7-3.7
		C92.7,90.6,95.6,90.6,98.6,90.6z M111.1,84.5h-6.2v7.9c0,3.6-0.9,4.5-4.4,4.5h-7.9v6.2h7.9c3.5,0,4.4,0.9,4.4,4.4v8h6.2
		c0-2.8,0-5.4,0-8.1c0-3.3,1-4.3,4.2-4.3h8.1V97c-0.2,0-0.3-0.1-0.5-0.1h-7.4c-3.5,0-4.4-0.9-4.4-4.3
		C111.1,89.9,111.1,87.2,111.1,84.5z"/>
	<path class="st9" d="M86.2,134.3v-6h46.5v6H86.2z"/>
	<path class="st9" d="M79.8,128.3v6H67.5v-6H79.8z"/>
	<path class="st9" d="M79.8,147v6H67.6v-6H79.8z"/>
	<path class="st9" d="M67.5,171.8v-6h12.3v6H67.5z"/>
	<path class="st9" d="M79.8,184.5v6H67.6v-6H79.8z"/>
	<path class="st9" d="M151.6,165.7c0-5.2,0-10.4,0-15.6c0-2.5,0.9-3.5,3.4-3.9c9.1-1.5,17.8-5.1,25.2-10.6c1.5-1.3,3.7-1.3,5.1,0
		c7.5,5.5,16.1,9.1,25.2,10.6c2.7,0.5,3.4,1.4,3.4,4.1c0,10.1,0.1,20.2,0,30.3c-0.1,6.5-3,11.3-8.9,14.2c-6.6,3.3-13.4,6.4-20,9.6
		c-1.4,0.7-3.1,0.7-4.4,0c-6.6-3.2-13.4-6.3-20-9.6c-5.9-2.9-8.8-7.7-9-14.2C151.6,175.6,151.6,170.6,151.6,165.7z M207.8,152.1
		c-0.3-0.1-0.6-0.3-0.8-0.3c-8.3-1.8-16.1-5.1-23.2-9.7c-0.7-0.2-1.4-0.2-2,0.1c-4.3,2.2-8.6,4.6-13,6.6c-3.4,1.5-7.1,2.3-10.8,3.4
		c0,9.7-0.1,19.4,0.1,29.2c0.1,3.4,2.1,6.4,5.2,7.7c6.1,3,12.3,5.9,18.5,8.7c0.7,0.3,1.5,0.3,2.1,0.1c6.4-3,12.7-5.9,19-9
		c3-1.4,4.9-4.4,4.9-7.7C207.9,171.5,207.8,161.9,207.8,152.1z"/>
	<path class="st9" d="M107.9,40.6c5.2,0,9.4,4.1,9.4,9.3s-4.1,9.4-9.3,9.4c-5.1,0-9.4-4.1-9.4-9.2C98.6,44.9,102.7,40.7,107.9,40.6
		L107.9,40.6z M107.9,53.1c1.7,0.1,3.2-1.3,3.2-3c0.1-1.7-1.3-3.2-3-3.2s-3.2,1.3-3.2,3V50C104.9,51.7,106.3,53,107.9,53.1
		L107.9,53.1z"/>
	<path class="st9" d="M165.1,177.3l4.4-4.2l6.9,7l22.8-23l4.5,4.5c-0.4,0.5-0.8,0.9-1.2,1.3l-22.7,22.8c-2.5,2.5-3.8,2.5-6.2,0
		L165.1,177.3z"/>
</g>
</svg>
