<svg id="Layer_1" data-name="Layer 1" xmlns="http://www.w3.org/2000/svg" viewBox="0 0 177.88 97.76"><defs><style>.cls-1{fill:#cc156d;}</style></defs><path class="cls-1" d="M167.74,18.3a28.29,28.29,0,0,0-6-2c-6.35-1.46-12.8-1.45-19.26-1.09a157.43,157.43,0,0,0-20.87,2.61,2.29,2.29,0,0,1-2.33-.71c-1.42-1.42-3-2.7-4.47-4a46.77,46.77,0,0,0-17-7.9A44.93,44.93,0,0,0,43,43.8a1.68,1.68,0,0,1-1,1.47c-2.84,1.53-5.68,3.06-8.46,4.7-7.47,4.41-14.68,9.19-20.92,15.28a31.9,31.9,0,0,0-7,9.14C3.12,79.72,4.58,84.2,9.83,86.9a25.57,25.57,0,0,0,5.07,1.89c6.38,1.68,12.91,1.72,19.43,1.4A193.2,193.2,0,0,0,72.5,84a295.56,295.56,0,0,0,56.74-20.57c11.54-5.61,22.69-11.88,32.56-20.2,4-3.39,7.73-7.06,10.21-11.8C174.91,25.89,173.39,21,167.74,18.3ZM50,73.94c-1.15.1-2.41.25-3.69.32-4,.21-8,.35-12-.75a11.09,11.09,0,0,1-2.36-1,3.69,3.69,0,0,1-1.77-4.8,11.54,11.54,0,0,1,3.53-4.93c2.86-2.37,5.86-4.56,8.81-6.82a1.85,1.85,0,0,1,.39-.22c.81,2.75,1.49,5.52,2.42,8.19,5.44.75,24.89,2.57,56.45-4.2C101.85,59.75,82.15,68.91,50,73.94ZM144.9,35.15a31.5,31.5,0,0,1-7.77,7.24c-1.48,1.07-3,2-4.7,3.18a45.79,45.79,0,0,0-5.73-18.86c5.29-.42,10.42-.86,15.45.59C146.54,28.56,147.52,31.39,144.9,35.15Zm-46.78,44a298.87,298.87,0,0,0,30.73-12.54c-10.74,25.32-41.4,34.07-62.62,21.64A292.56,292.56,0,0,0,98.12,79.13Z"/></svg>