<svg id="Layer_1" data-name="Layer 1" xmlns="http://www.w3.org/2000/svg" viewBox="0 0 300.24 200.18"><path d="M11.81,139a4.21,4.21,0,0,1,4.45-.18c1.6.75,3.64.58,5.5.74,1.42.12,3-.22,4.25.27a4.3,4.3,0,0,1,2.4,2.68c.12.58-1.5,2.17-2.41,2.23-5.16.31-10.26,0-14.19-4.12Z"/><path d="M275.87,154.45c-7.24-4.85-14.09-9.33-20.81-14a54.88,54.88,0,0,1-6.46-5.66,3.39,3.39,0,0,1-.62-4.65c1.2-1.76,3-2.57,4.94-1.72a54,54,0,0,1,9.25,4.88c7.86,5.56,15.54,11.38,23.26,17.13,4.25,3.17,3.93,6.66-.6,9.54q-23,14.63-45.91,29.38c-1.82,1.17-3.53,2.1-5.19,0s-.59-3.73,1.18-5q18.36-13.51,36.75-27C272.88,156.45,274.15,155.62,275.87,154.45Z"/><path d="M61.92,41.68c-.16-7.48,7.7-15,14.38-14.5.74.07,1.4,1,2.1,1.52-.54.59-1,1.6-1.62,1.7-4.66.75-6.82,3.9-8.21,8a15,15,0,0,1-2,4.07c-.53.7-1.91,1.43-2.57,1.19C63,43.3,62.35,42.11,61.92,41.68Z"/><path d="M168.24,100.5c-.86,1.83-1.35,3.54-2.35,4.85-2.6,3.4-5.37,6.69-8.23,9.87-.54.6-1.82.52-2.76.75,0-1-.26-2.22.17-3,2.12-4,4.42-8,6.69-11.89a7.52,7.52,0,0,1,1.75-2.34c.69-.51,2-1,2.56-.72C167,98.42,167.49,99.58,168.24,100.5Z"/><path d="M162.33,157.58a36.7,36.7,0,0,1,5.26.83,2.67,2.67,0,0,1,1.57,2,2.74,2.74,0,0,1-1.7,2c-2.08.48-4.26.53-6.39.82-3.27.43-6.53,1-9.81,1.33-.85.08-1.77-.63-2.66-1,.44-.83.7-2.16,1.36-2.41,4-1.48,8.07-2.71,12.11-4Z"/><path d="M245.08,162.46c-3.05-.94-6.34-1.8-9.5-3-.71-.27-1-1.75-1.41-2.68.88-.38,2-1.29,2.61-1a17.4,17.4,0,0,0,12.39.16c1.33-.46,3.18-1,3.89,1.13s-.68,3.15-2.18,3.81A46.92,46.92,0,0,1,245.08,162.46Z"/><path d="M204.12,162.1c-2-.21-3.93-.31-5.86-.68-.62-.12-1.1-.94-1.65-1.45.51-.53.93-1.39,1.53-1.54,4.77-1.17,9.56-2.3,14.39-3.2.85-.16,1.93.85,2.9,1.32-.46.94-.68,2.19-1.42,2.77C211.13,161.56,207.69,162.1,204.12,162.1Z"/><path d="M166.8,43.9a6.56,6.56,0,0,1-.05,2.13,2.41,2.41,0,0,1-1.37,1.34c-.34.1-1.15-.51-1.35-1-2-4.67-4.12-9.34-5.89-14.12-.31-.84.77-2.21,1.2-3.33,1.06.41,2.61.52,3.09,1.29A27.29,27.29,0,0,1,166.8,43.9Z"/><path d="M88.44,146.15a22.41,22.41,0,0,1-3.48-.06c-.55-.08-1.37-.71-1.42-1.16a1.87,1.87,0,0,1,1-1.51c5.16-1.15,10.34-2.19,15.52-3.19a3.13,3.13,0,0,1,2.11.19,4.06,4.06,0,0,1,1.85,2.12c.1.47-1,1.66-1.76,1.78-4.59.77-9.22,1.33-13.83,2Z"/><path d="M132.19,11.35c5.34,1,9.53,3.58,11.88,8.59.36.76-.39,2-.63,3.07-.77-.41-1.82-.62-2.24-1.25a11.06,11.06,0,0,0-9.15-5.35,3.07,3.07,0,0,1-.53-.06c-1.57-.35-3.62-.55-3.35-2.66S130.27,11.23,132.19,11.35Z"/><path d="M57.17,147.29c-2.5-.17-5-.22-7.5-.59-.81-.13-1.49-1.12-2.24-1.71.76-.56,1.47-1.52,2.29-1.63,3.73-.49,7.49-.75,11.23-1.07a5.78,5.78,0,0,1,1.61,0c1.7.34,3.65.65,3.45,2.94s-2.11,2.16-3.73,2.17-3.4-.17-5.1-.26Z"/><path d="M125.67,141.63l-2.3-1.69A20.29,20.29,0,0,1,125.6,138c2.3-1.5,4.69-2.87,7-4.38,1.11-.74,2-1.89,3.16-2.47.81-.4,1.94-.15,2.92-.18,0,1,.42,2.24,0,3C135.77,138.46,131.44,140.76,125.67,141.63Z"/><path d="M127.3,160.49c-1.18.54-2.22,1.41-2.7,1.17-5.2-2.61-10.33-5.38-15.42-8.2a1.84,1.84,0,0,1-.48-1.76,1.93,1.93,0,0,1,1.78-.55c5,2.33,10.06,4.75,15,7.22C126.08,158.64,126.4,159.38,127.3,160.49Z"/><path d="M67.36,103c.2-1.65.31-3.35.67-5a8,8,0,0,1,1.24-2.13,7.58,7.58,0,0,1,1.43,1.94c1.14,3.47,2.24,7,3.13,10.47.26,1,0,3-.42,3.13a4.63,4.63,0,0,1-3.61-.4A6.68,6.68,0,0,1,68,107.59,31.49,31.49,0,0,1,67.36,103Z"/><path d="M89.22,136.55A15.73,15.73,0,0,1,87.4,136a16.09,16.09,0,0,1-9.23-12.13c-.14-.77.49-1.67.76-2.51.54.59,1.14,1.14,1.63,1.78,1.55,2,2.9,4.25,4.64,6.12,1.45,1.55,3.39,2.64,5,4.09a2.42,2.42,0,0,1,.69,2.06C90.7,135.93,89.72,136.22,89.22,136.55Z"/><path d="M61.38,74.19c1.11-3.26,2.08-6.58,3.43-9.74.31-.73,1.92-.91,2.94-1.35a20.06,20.06,0,0,1,.19,3.08c-.26,2.73-.83,5.44-.92,8.17-.07,2,.09,4.12-2.52,4.15S61.76,76.43,61.38,74.19Z"/><path d="M173.06,72.15c-1.32,3.94-2.58,7.9-4,11.79-.21.58-1.31.84-2,1.24a5.15,5.15,0,0,1-.53-1.85c.42-3.71.95-7.41,1.42-11.11a9.1,9.1,0,0,1,.3-2.65,11.87,11.87,0,0,1,1.91-2.39,17.42,17.42,0,0,1,2.06,2.6c.29.56,0,1.41,0,2.12Z"/><path d="M96.66,15.86c-.75-.65-2.26-1.33-2.6-2.39-.57-1.74,1-2.49,2.51-2.77A67.3,67.3,0,0,1,104,9.58c.78-.05,1.62.92,2.43,1.42-.7.64-1.31,1.7-2.1,1.84-1.54.28-2.8.41-3.77,2C100.13,15.53,98.43,15.44,96.66,15.86Z"/></svg>