<?xml version="1.0" encoding="utf-8"?>
<!-- Generator: Adobe Illustrator 26.0.3, SVG Export Plug-In . SVG Version: 6.00 Build 0)  -->
<svg version="1.1" id="Layer_1" xmlns="http://www.w3.org/2000/svg" xmlns:xlink="http://www.w3.org/1999/xlink" x="0px" y="0px"
	 viewBox="0 0 265.9 250.1" style="enable-background:new 0 0 265.9 250.1;" xml:space="preserve">
<style type="text/css">
	.st0{display:none;opacity:0.3;}
	.st1{display:inline;fill:#CC156D;}
	.st2{display:inline;fill:#0DD6AF;}
	.st3{display:inline;opacity:0.5;enable-background:new    ;}
	.st4{display:inline;opacity:0.2;enable-background:new    ;}
	.st5{display:inline;fill:none;stroke:#CC156D;stroke-width:2;stroke-miterlimit:10;}
	.st6{display:inline;fill:none;stroke:#CC156D;stroke-miterlimit:10;}
	.st7{display:inline;fill:none;stroke:#000000;stroke-miterlimit:10;}
	.st8{display:inline;opacity:0.5;fill:none;stroke:#000000;stroke-miterlimit:10;enable-background:new    ;}
	.st9{fill:#FFFFFF;}
</style>
<g id="Secure_storage">
	<g class="st0">
		<path class="st1" d="M21.7,29.8c4.5-2.3,7.7-6.6,8.5-11.6c0.8,5,4,9.3,8.5,11.6c1,0.4,2,0.7,3,1c0,0-2.1,0.6-3,1
			c-4.6,2.3-7.7,6.6-8.5,11.6c-0.8-5-4-9.3-8.5-11.6c-0.9-0.4-3-1-3-1C19.7,30.5,20.7,30.2,21.7,29.8z"/>
		<circle class="st2" cx="236.4" cy="43.4" r="6"/>
		<circle class="st3" cx="32.7" cy="157" r="4"/>
		<circle class="st3" cx="229.8" cy="207" r="2.5"/>
		<circle class="st4" cx="93.7" cy="27.5" r="8.9"/>
		<path class="st2" d="M26.4,200.2c7.1-3.5,12-10.2,13.3-18c1.3,7.8,6.2,14.5,13.3,18c1.5,0.6,3.1,1.2,4.7,1.6
			c-1.6,0.5-3.1,1-4.7,1.6c-7.1,3.5-12,10.2-13.3,18c-1.3-7.8-6.2-14.5-13.3-18c-1.5-0.6-3.1-1.2-4.7-1.6
			C23.3,201.4,24.9,200.9,26.4,200.2z"/>
		<path class="st5" d="M179.8,18.6c-2-1.3-4.6-0.7-5.9,1.2c-1.2,1.9-0.7,4.5,1.3,5.8c0.7,0.3,1,1.2,0.7,1.9c0,0.1-0.1,0.2-0.1,0.2
			c-0.9,1.6-0.6,3.6,0.7,5c1.3,1.3,3.3,1.6,4.9,0.8c1.6-0.8,2.5-2.6,2.2-4.4c-0.2-0.7,0.2-1.5,0.9-1.8c0.1,0,0.2,0,0.2-0.1l15.7-4
			c0.7-0.3,1.5,0.1,1.8,0.8c0,0.1,0,0.1,0.1,0.2c0.6,1.7,2.2,2.9,4,2.8c2.3,0,4.1-1.9,4.1-4.2c0-1.4-0.7-2.7-1.9-3.4
			c-0.7-0.3-1-1.2-0.7-1.9c0-0.1,0.1-0.2,0.1-0.2c0.9-1.6,0.6-3.6-0.7-4.9s-3.2-1.6-4.9-0.8s-2.6,2.7-2.2,4.5
			c0.2,0.7-0.2,1.5-0.9,1.8c-0.1,0-0.2,0-0.2,0l-15.7,4c-0.7,0.3-1.5-0.1-1.8-0.8c0-0.1-0.1-0.1-0.1-0.2
			C181.1,19.9,180.5,19.1,179.8,18.6z"/>
		<path class="st6" d="M111.9,206.6c0.3-1.5-0.7-3-2.2-3.2c-1.5-0.3-3,0.7-3.2,2.2l0,0c0,0.5-0.5,0.9-1,0.9c-0.1,0-0.1,0-0.2,0
			c-1.5-0.2-2.9,0.9-3.1,2.5c-0.1,0.9,0.3,1.9,1,2.5c0.9,0.8,2.3,0.9,3.3,0.2c0.4-0.3,1-0.3,1.3,0.1l0.1,0.1l6.5,8.6
			c0.4,0.4,0.3,1,0,1.3l-0.1,0.1c-0.9,0.8-1.2,2.1-0.7,3.2c0.6,1.4,2.3,2,3.7,1.4c0.9-0.4,1.5-1.2,1.6-2.1c0-0.5,0.4-0.9,1-0.9
			c0.1,0,0.1,0,0.2,0c1.2,0.1,2.4-0.6,2.9-1.7c0.5-1.1,0.2-2.4-0.8-3.2c-0.9-0.8-2.3-0.9-3.3-0.2c-0.4,0.3-1,0.3-1.3-0.1l-0.1-0.1
			c-2.2-2.9-4.3-5.7-6.5-8.6c-0.4-0.4-0.4-1,0-1.3l0.1-0.1C111.5,207.8,111.8,207.3,111.9,206.6z"/>
		<path class="st2" d="M140.1,209.5c5.2,0.1,10.1-2.3,13.2-6.5c-1.6,4.9-0.8,10.3,2.3,14.5c0.7,0.8,1.4,1.6,2.2,2.3
			c-1.1-0.2-2.1-0.4-3.2-0.5c-5.2-0.1-10.1,2.4-13.2,6.5c1.6-4.9,0.8-10.3-2.3-14.5c-0.7-0.8-1.4-1.6-2.2-2.4
			C138,209.3,139.1,209.4,140.1,209.5z"/>
		<path class="st7" d="M28.5,82.5c3.7,0.1,7.2-1.7,9.3-4.6c-1.1,3.5-0.5,7.3,1.6,10.3c0.5,0.6,1,1.1,1.6,1.7
			c-0.8-0.1-1.5-0.3-2.3-0.3c-3.7-0.1-7.2,1.7-9.3,4.6c1.1-3.5,0.5-7.3-1.6-10.3c-0.5-0.6-1-1.1-1.6-1.7
			C27,82.3,27.7,82.4,28.5,82.5z"/>
		<path class="st8" d="M230.1,96.5c3.7,0.1,7.2-1.7,9.3-4.6c-1.1,3.5-0.5,7.3,1.6,10.3c0.5,0.6,1,1.1,1.6,1.7c0,0-1.6-0.3-2.3-0.3
			c-3.7,0-7.2,1.7-9.3,4.6c1.1-3.5,0.5-7.3-1.6-10.3c-0.5-0.6-1-1.1-1.6-1.7C228.6,96.4,229.3,96.5,230.1,96.5z"/>
		<path class="st2" d="M237,147.8c-0.9-0.8-1.6-1.8-2-3c-1.3-3.8,0.8-7.9,4.6-9.1c3.2-1.1,6.8,0.3,8.5,3.2c0.1,0.2,0.3,0.4,0.6,0.4
			c4-0.2,7.4,2.9,7.6,6.9c0.1,2.9-1.4,5.5-4,6.8c-1.4,0.8-3.1,1-4.7,0.6l-0.4-0.1h-0.1l-0.2,0.3c-2.2,4-4.4,8-6.6,12.1
			c-0.2,0.2-0.1,0.5,0.1,0.7l0,0c2.8,2.9,2.7,7.4-0.2,10.2s-7.4,2.7-10.2-0.2c-0.4-0.4-0.8-0.9-1.1-1.4c-0.1-0.2-0.3-0.4-0.6-0.3
			c-4,0.2-7.4-2.9-7.6-6.9c-0.1-2.9,1.4-5.5,4-6.8c1.5-0.8,3.2-1,4.8-0.6c0.2,0.1,0.4,0.1,0.5-0.2L237,147.8
			C237,147.9,237,147.9,237,147.8z M250.1,150.6c2.4-0.6,3.8-3,3.2-5.4c-0.6-2.3-3-3.7-5.3-3.1c-0.7,0.3-1.6,0-1.9-0.8
			c0-0.1-0.1-0.2-0.1-0.3c-0.6-1.8-2.3-3-4.3-3c-1.9,0.1-3.5,1.4-4.1,3.2c-0.5,1.8,0.2,3.8,1.8,4.8c0.7,0.3,1,1.2,0.7,1.9
			c0,0.1-0.1,0.2-0.1,0.2c-2.7,4.9-5.3,9.8-8.1,14.7c-0.3,0.8-1.1,1.1-1.9,0.8c-0.1,0-0.2-0.1-0.2-0.1c-1.7-0.8-3.7-0.4-5,1
			c-1.6,1.8-1.4,4.5,0.4,6.1c1.1,1,2.6,1.3,4,1c0.8-0.3,1.6,0.1,1.9,0.8c0,0.1,0.1,0.2,0.1,0.3c0.8,2.3,3.2,3.5,5.5,2.7
			c1.4-0.5,2.4-1.5,2.8-2.9c0.5-1.8-0.2-3.8-1.8-4.8c-0.7-0.3-1-1.2-0.7-1.9c0-0.1,0.1-0.2,0.1-0.2c2.7-4.9,5.3-9.8,8.1-14.7
			c0.3-0.7,1.1-1.1,1.9-0.8c0.1,0,0.2,0.1,0.2,0.1C248.2,150.7,249.1,150.8,250.1,150.6L250.1,150.6z"/>
		<path class="st4" d="M27.8,126.9c0-0.8,0.2-1.6,0.6-2.3c1.2-2.3,4.1-3.2,6.4-1.9c2,1.1,3,3.4,2.3,5.5c-0.1,0.2,0,0.3,0.1,0.4
			c1.9,1.8,1.9,4.8,0.1,6.7c-1.3,1.3-3.3,1.8-5,1.2c-1-0.3-1.9-1-2.4-1.9l-0.1-0.2c0,0,0,0-0.1,0h-0.2c-2.9,0.8-5.8,1.5-8.8,2.3
			c-0.2,0.1-0.3,0.1-0.3,0.4c-0.1,2.6-2.3,4.7-4.9,4.6c-2.6-0.1-4.7-2.3-4.6-4.9c0-0.4,0.1-0.8,0.2-1.2c0.1-0.1,0-0.3-0.1-0.4
			c-1.9-1.8-2-4.8-0.2-6.7c1.3-1.4,3.3-1.8,5.1-1.2c1,0.3,1.9,1.1,2.5,2c0.1,0.1,0.1,0.2,0.3,0.2c3-0.8,6-1.6,9-2.4L27.8,126.9z
			 M32.3,134.4c1.3,0.8,3.1,0.5,4-0.9c0.8-1.3,0.4-3.1-0.9-3.9c-0.5-0.3-0.7-0.9-0.4-1.3c0,0,0-0.1,0.1-0.1c0.7-1.4,0.2-3.1-1.2-3.9
			c-0.8-0.5-1.9-0.5-2.7,0c-1.1,0.6-1.7,1.8-1.5,3c0.1,0.5-0.2,1.1-0.7,1.2h-0.1l-10.7,2.8c-0.5,0.2-1.1-0.1-1.3-0.6v-0.1
			c-0.4-1.2-1.5-1.9-2.8-1.9s-2.3,0.9-2.7,2.1c-0.3,1.2,0.2,2.5,1.2,3.2c0.5,0.3,0.7,0.9,0.4,1.3c0,0,0,0.1-0.1,0.1
			c-0.8,1.4-0.3,3.1,1.1,3.9c0.9,0.5,1.9,0.5,2.8,0c1.1-0.6,1.7-1.8,1.5-3c-0.1-0.5,0.2-1.1,0.7-1.2h0.1l10.7-2.8
			c0.5-0.2,1.1,0.1,1.3,0.6c0,0,0,0,0,0.1C31.4,133.6,31.8,134.1,32.3,134.4z"/>
	</g>
	<path class="st9" d="M198.3,140.6v9.6c2.9,0,5.5,0,8.2,0c2.8-0.1,5.6,0,8.4,0.2c5.4,0.8,8.3,4.1,8.4,9.5c0.1,10,0.1,20,0,30.1
		c-0.1,6-4,9.7-10.1,9.8c-2.8,0.1-5.6,0-8.6,0c0.1,2.8,0.1,5.6-0.1,8.4c-0.2,2.2-0.9,4.4-1.9,6.4c-1.4,2.6-4,3.7-6.9,3.8
		c-4.4,0.3-8.8,0.3-13.2-0.1c-5.9-0.6-8.7-4.3-8.8-10.2c0-2.7,0-5.3,0-8.4h-4.1c-2.4,0-4.8,0-7.2,0c-2.7,0-4-1-4-2.9s1.3-2.9,4-3
		h50.5c3.8,0,4.5-0.8,4.5-4.6c0-9.8,0-19.7,0-29.5c0-2.8-1-3.8-3.7-3.8c-15.1,0-30.2,0-45.2,0c-1,0-2,0.4-2.8,1
		c-7.8,6.2-17.1,10-27,11c-13.7,1.5-27.4-2.4-38.2-10.9c-0.9-0.7-2-1.1-3.1-1.1c-15-0.1-29.9,0-44.8,0c-2.9,0-3.9,1-3.9,3.8
		c0,10,0,20,0,30.1c0,3,1,4,3.9,4h94c1-0.1,2.1,0,3,0.4c0.9,0.6,1.5,1.5,1.6,2.5c-0.2,1-0.8,1.9-1.7,2.5c-0.9,0.4-1.9,0.5-2.8,0.4
		c-17.2,0-34.4,0-51.7,0h-2.8c0.1,2.8,0.1,5.6-0.1,8.4c-0.2,2.2-0.8,4.4-1.8,6.4c-1.4,2.6-4,3.7-6.9,3.8c-4.4,0.3-8.8,0.3-13.2-0.1
		c-5.8-0.6-8.7-4.2-8.8-10.2c0-2.7,0-5.4,0-8.4c-3,0-5.8,0.1-8.6,0c-3.6-0.1-6.9-1.1-8.7-4.6c-0.9-1.8-1.4-3.8-1.4-5.8
		c-0.1-9.6-0.1-19.3-0.1-28.9c0-6.5,3.9-10.3,10.3-10.4c4.1,0,8.2,0,12.3,0c0.7,0,1.4-0.1,2.2-0.1v-9.6c-2.4,0-4.8,0-7.1,0
		c-3.1,0.1-6.2,0-9.3-0.2c-5.4-0.7-8.3-4.1-8.4-9.5c-0.1-10-0.1-20.1,0-30.1c0.1-6.1,4-9.7,10.1-9.8c4.2,0,8.3,0,12.5,0
		c0.7,0,1.4-0.1,2.2-0.1v-9.7c-2.6,0-5.1,0-7.7,0c-2.9,0.1-5.8,0-8.8-0.2c-5.4-0.8-8.3-4.1-8.4-9.5c-0.1-10-0.1-20,0-30.1
		c0.1-5.9,3.8-9.5,9.7-9.8c0.5,0,0.9,0,1.4,0c52.8,0,105.5,0,158.3,0c1.6,0,3.1,0.2,4.6,0.6c3.9,1,6.5,4.6,6.5,9.4
		c0.1,9.9,0.1,19.8,0,29.7c-0.1,6.1-4,9.9-10.1,10c-4.2,0-8.3,0-12.5,0c-0.7,0-1.4,0.1-2.2,0.1v9.6c2.4,0,4.8,0,7.1,0
		c3.1-0.1,6.2,0,9.3,0.2c5.4,0.7,8.3,4.1,8.4,9.5c0.1,10,0.1,20,0,30.1c-0.1,6.1-4,9.7-10.1,9.8c-4.2,0.1-8.3,0-12.5,0
		C199.9,140.5,199.2,140.5,198.3,140.6z M132.9,37.3H52.5c-3.1,0-4,0.9-4,4.1c0,10.1,0,20.2,0,30.3c0,2.4,1.1,3.5,3.4,3.5
		c15.3,0,30.5,0,45.8,0c0.8,0,1.6-0.3,2.3-0.8c9.2-7.3,20.6-11.4,32.4-11.6c1.6,0,2.8,0.6,3.1,2.3c0.3,1.4-0.6,2.9-2,3.2
		c-0.1,0-0.2,0-0.3,0.1c-0.6,0.1-1.1,0.2-1.7,0.2c-2.4,0.2-4.9,0.3-7.3,0.8c-25.6,4.7-42.5,29.3-37.8,54.9s29.3,42.5,54.9,37.8
		c24.8-4.6,41.6-27.8,38.1-52.8c-2.6-18.6-13.3-31.2-30.7-38c-1.4-0.6-3-0.9-4.4-1.5s-2.2-1.7-1.7-3.3c0.3-1.4,1.8-2.3,3.2-1.9
		c0.1,0,0.1,0,0.2,0l1.1,0.3c6.6,1.9,12.9,5,18.3,9.3c0.9,0.6,1.9,1,3,1c15,0.1,30,0,45,0c2.8,0,3.9-1,3.9-3.9c0-10,0-19.9,0-29.9
		c0-3.2-0.9-4.1-4.2-4.1L132.9,37.3z M83.4,96.8c-0.4-0.1-0.9-0.1-1.3-0.1c-10.1,0-20.2,0-30.4,0c-2.1,0-3.2,1.2-3.2,3.5
		c0,10.2,0,20.4,0,30.6c0,2.7,1,3.7,3.8,3.7h29.2c0.6,0,1.2-0.1,1.9-0.1C79.4,113.4,78.9,118.4,83.4,96.8z M182.2,134.5
		c0.9,0,1.6,0.1,2.2,0.1h29.2c2.7,0,3.7-1.1,3.7-3.8c0-10.1,0-20.2,0-30.2c0-2.8-1-3.8-3.9-3.8c-9.7,0-19.3,0-29,0h-2.3
		C186.7,108.9,186.7,122.3,182.2,134.5L182.2,134.5z M76.8,199.8c-2.7,0-5.4,0-8.2,0c-1,0-1.4,0.3-1.4,1.3c0,2.9,0,5.7,0,8.6
		c0,1.6,1.2,2.9,2.8,2.9c0.1,0,0.1,0,0.2,0c4.3,0,8.7,0,13,0c1.6,0.1,3-1.2,3-2.8c0-0.1,0-0.2,0-0.3c0-2.7,0-5.5,0-8.2
		c0-1.4-0.6-1.6-1.8-1.6C82,199.9,79.4,199.8,76.8,199.8z M189.1,199.8c-2.7,0-5.3,0-8,0c-1.2,0-1.6,0.4-1.6,1.6
		c0.1,2.7,0,5.5,0,8.2c-0.1,1.6,1.1,3,2.7,3.1c0.2,0,0.3,0,0.5,0c4.2,0,8.4,0,12.6,0c1.7,0.1,3.1-1.1,3.2-2.8c0-0.1,0-0.2,0-0.3
		c0-2.7,0-5.5,0-8.2c0-1.2-0.4-1.6-1.6-1.6C194.4,199.9,191.8,199.8,189.1,199.8z M73.7,81.2v9.5H80v-9.5H73.7z M80,140.6h-6.3v9.4
		H80V140.6z M186,140.6v9.4h6.3v-9.5L186,140.6z M192.2,90.7v-9.5H186v9.5H192.2z M179.8,141l-0.4-0.1c-2,3-4.1,6-6.2,9.1h6.6
		L179.8,141L179.8,141z M86.1,90.3l0.4,0.1l6.2-9.1h-6.6V90.3z M173.1,81.1l6.7,9.8v-9.6c-0.5,0-1-0.1-1.4-0.1h-5.3V81.1z
		 M92.7,150.1l-6.6-9.6v9.6H92.7z"/>
	<path class="st9" d="M207.4,175c0,4.9-4.1,8.9-9,8.9s-8.9-4.1-8.9-9s4.1-8.9,9-8.9c0,0,0,0,0.1,0c4.8,0,8.8,3.9,8.8,8.7
		C207.4,174.8,207.4,174.9,207.4,175z M201.8,174.9c0-1.8-1.5-3.3-3.4-3.2c-1.8,0-3.3,1.5-3.2,3.4c0,1.8,1.5,3.3,3.4,3.2l0,0
		c1.7,0.1,3.1-1.3,3.2-3C201.8,175.2,201.8,175.1,201.8,174.9L201.8,174.9z"/>
	<path class="st9" d="M64.1,175.1c0,1.8,0.1,3.5,0,5.3c-0.1,1.4-0.4,2.9-2.1,3.4c-1.9,0.6-3.5-0.6-3.7-2.9c-0.2-3.9-0.2-7.8,0-11.7
		c0.1-1.6,0.8-3.1,2.8-3.1c1.7,0,2.7,1,3,3.2c0,0.1,0,0.3,0,0.4V175.1z"/>
	<path class="st9" d="M76.6,175.1c0,1.8,0.1,3.5,0,5.3c-0.1,2.4-1.2,3.6-3,3.6s-2.8-1.2-2.9-3.5c-0.1-3.6-0.1-7.3,0-10.9
		c0.1-2.3,1.2-3.4,2.9-3.4s2.8,1.2,2.9,3.5C76.7,171.4,76.6,173.2,76.6,175.1z"/>
	<path class="st9" d="M89.1,175c0,1.8,0.1,3.6,0,5.5c-0.1,2.2-1.2,3.4-2.9,3.4s-2.8-1.2-2.9-3.4c-0.1-3.6-0.1-7.3,0-10.9
		c0.1-2.3,1.2-3.4,2.9-3.4s2.8,1.2,2.9,3.4C89.2,171.4,89.1,173.2,89.1,175z"/>
	<path class="st9" d="M164.2,106.1c-0.3,5.9-0.1,11.9-1.1,17.7c-2.2,13.1-10.1,21.8-22.4,26.5c-7.9,3-8,2.9-15.9-0.1
		c-12.5-4.8-20-13.8-22.4-27c-0.4-2.3-0.5-4.7-0.5-7c-0.1-7,0-14.1,0-21.1c0-3.4,1-4.5,4.4-4.6c9.1-0.2,16.8-3.8,23.5-10
		c2.8-2.6,3.6-2.6,6.3-0.1c6.6,6.2,14.4,9.8,23.6,10c3.2,0.1,4.2,1.2,4.3,4.5c0,3.7,0,7.4,0,11.1L164.2,106.1z M157.8,109.4h0.3
		c0-3.9,0-7.8,0-11.7c0-1.1-0.2-1.7-1.5-1.8c-8.2-0.8-16-4.1-22.2-9.5c-1.1-0.9-1.8-1-2.9,0c-6,5.2-13.4,8.4-21.3,9.4
		c-2.1,0.3-2.5,1-2.5,2.9c0.1,6.4,0.2,12.9,0,19.3c-0.3,10.9,6.9,22.4,18.6,26.7c6.7,2.4,6.7,2.5,13.2-0.1c10-4,16.3-11.2,18-21.9
		C158.3,118.3,157.8,113.8,157.8,109.4z"/>
	<path class="st9" d="M207.4,56.3c0,4.9-4.1,8.9-9,8.9s-8.9-4.1-8.9-9s4.1-8.9,9-8.9c0,0,0,0,0.1,0c4.8,0,8.8,3.9,8.8,8.7
		C207.4,56.1,207.4,56.2,207.4,56.3z M198.6,52.9c-1.8-0.1-3.4,1.4-3.4,3.2s1.4,3.4,3.2,3.4s3.4-1.4,3.4-3.2c0,0,0,0,0-0.1
		c0.1-1.7-1.1-3.2-2.9-3.3C198.8,52.9,198.7,52.9,198.6,52.9z"/>
	<path class="st9" d="M64.1,56.3c0,1.8,0.1,3.5,0,5.3c-0.1,1.5-0.4,3-2.2,3.5s-3.4-0.7-3.5-3.1c-0.2-3.8-0.1-7.7,0-11.5
		c0-1.6,0.7-3.1,2.8-3.1c1.7,0,2.8,1,3,3.2C64.3,52.4,64.1,54.4,64.1,56.3z"/>
	<path class="st9" d="M70.7,56.4c0-1.9-0.1-3.8,0-5.7c0.1-2.3,1.2-3.4,2.9-3.4s2.8,1.2,2.9,3.5c0.1,3.6,0.1,7.3,0,10.9
		c-0.1,2.2-1.2,3.4-2.9,3.4s-2.8-1.2-2.9-3.5C70.7,59.9,70.7,58.2,70.7,56.4z"/>
	<path class="st9" d="M89.1,56.5c0,1.8,0.1,3.5,0,5.3c-0.1,2.2-1.2,3.4-2.9,3.4s-2.9-1.1-2.9-3.4c-0.1-3.6-0.1-7.3,0-10.9
		c0.1-2.3,1.2-3.4,2.9-3.4s2.8,1.2,2.9,3.5C89.2,52.7,89.1,54.6,89.1,56.5z"/>
	<path class="st9" d="M64.1,115.5c0,1.6,0,3.2,0,4.9c0.1,0.8-0.1,1.7-0.5,2.4c-0.6,0.8-1.5,1.4-2.5,1.6c-1-0.2-1.8-0.7-2.4-1.5
		c-0.4-0.8-0.6-1.6-0.5-2.4c0-3.2,0-6.4,0-9.6c0-0.3,0-0.7,0-1c0.3-2.1,1.3-3.2,3-3.2s2.7,1.2,2.8,3.3
		C64.2,111.8,64.1,113.6,64.1,115.5L64.1,115.5z"/>
	<path class="st9" d="M70.7,115.5c0-1.8-0.1-3.5,0-5.3c0.1-1.5,0.4-3,2.2-3.5s3.4,0.7,3.5,3.1c0.2,3.8,0.1,7.7,0,11.5
		c-0.1,1.6-0.8,3.1-2.8,3.1c-1.7,0-2.8-1-3-3.2C70.6,119.4,70.7,117.5,70.7,115.5z"/>
	<path class="st9" d="M207.4,115.9c-0.2,4.9-4.3,8.8-9.2,8.6c-4.9-0.2-8.8-4.3-8.6-9.2c0.2-4.9,4.2-8.7,9.1-8.6
		c4.8,0,8.8,3.9,8.8,8.8C207.4,115.6,207.4,115.7,207.4,115.9z M198.5,118.9c1.8,0,3.3-1.5,3.3-3.4s-1.5-3.3-3.4-3.3
		c-1.8,0-3.3,1.5-3.3,3.4c0,0,0,0,0,0.1c-0.1,1.7,1.2,3.2,2.9,3.2C198.2,119,198.4,119,198.5,118.9L198.5,118.9z"/>
	<path class="st9" d="M150.7,109.1c0.2,6.3-0.6,12.8-4.7,18.5c-2.7,4-6.5,7-10.9,8.8c-1.4,0.5-2.9,0.5-4.2,0
		c-9.1-4.1-14.4-11.1-15.3-21.1c-0.3-3.6-0.3-7.3-0.3-10.9c0-2.6,1.2-3.8,3.6-3.9c4.3-0.1,8.3-1.9,11.3-4.9c2.2-2.1,3.3-2.1,5.6,0
		c3,3,7.1,4.7,11.4,4.8c2.3,0.1,3.4,1.3,3.6,3.6c0,0.1,0,0.3,0,0.4L150.7,109.1z M121.1,111.5L121.1,111.5c-0.1,0.7-0.1,1.4-0.1,2.2
		c0.2,7.7,3.8,13.1,10.3,17c1,0.7,2.3,0.7,3.2,0c3.9-2.2,6.9-5.6,8.8-9.6c2.1-4.5,1.4-9.3,1.4-14c0-0.4-0.8-1-1.3-1.1
		c-3.4-0.7-6.7-2.2-9.5-4.2c-0.7-0.3-1.5-0.2-2.2,0.1c-2.1,1-4.1,2.2-6.2,3.2c-1.4,0.7-3.6,0.7-4.3,1.8S121.1,109.8,121.1,111.5z"/>
</g>
</svg>
